<svg xmlns="http://www.w3.org/2000/svg" xmlns:xlink="http://www.w3.org/1999/xlink" width="128" height="128"><path fill="#334D5D" d="M64 0c35.346 0 64 28.654 64 64 0 35.347-28.654 64-64 64-35.346 0-64-28.653-64-64 0-35.346 28.654-64 64-64z"/><path fill="#223844" d="M102.992 49.579l.008-.079c0-.175-.026-.342-.052-.51l-.005-.071-.003-.011c-.274-1.605-1.637-2.83-3.305-2.895l-.054-.006-.081-.007c-.172 0-.336.027-.5.051v-2.051c0-3.313-2.687-6-6-6h-20c-3.313 0-6 2.687-6 6v2.605c-.75-.383-1.599-.605-2.5-.605h-2c-.901 0-1.75.222-2.5.605v-2.605c0-3.313-2.687-6-6-6h-20c-3.313 0-6 2.687-6 6v2.051c-.165-.024-.329-.051-.5-.051l-.082.008-.046.005c-1.672.062-3.039 1.289-3.312 2.898l-.002.008-.004.055c-.027.172-.054.345-.054.526l.008.08.039.391.034.268c.282 1.373 1.363 2.504 2.822 2.763l1.097.09v6.908c0 1.354.454 2.598 1.21 3.602l-1.988 1.54c-1.426 1.187-1.617 3.287-.427 4.692s3.31 1.583 4.736.397l5.463-4.231h17.006c3.313 0 6-2.687 6-6v-3.66l3.508-.292 3.492.291v3.661c0 3.313 2.687 6 6 6h17.033l5.465 4.231c1.426 1.186 3.547 1.008 4.737-.397s.999-3.506-.427-4.692l-2.008-1.554c.751-1.002 1.2-2.241 1.2-3.588v-6.907l1.099-.092c1.458-.259 2.539-1.39 2.82-2.763l.033-.262.04-.397zm-26.992-7.579h14c3.096 0 4.752 1.491 4.959 4.387l-23.959 1.995v-1.382c0-3.313 1.687-5 5-5zm-39 0h14c3.313 0 5 1.687 5 5v1.381l-23.958-1.994c.207-2.896 1.862-4.387 4.958-4.387zm-5 15v-3.574l9.345.777-8.221 6.367c-.738-.832-1.124-2.014-1.124-3.57zm24 0c0 3.313-1.687 5-5 5h-8.842l6.233-4.828c.422.088.866.105 1.317.025l6.292-.524v.327zm20 5c-3.313 0-5-1.687-5-5v-.328l6.312.525c.451.08.896.062 1.318-.025l6.236 4.828h-8.866zm19-5c0 1.548-.383 2.726-1.113 3.557l-8.208-6.354 9.321-.777v3.574z"/><path fill="#A9AFB2" d="M102.943 47.919c-.336-1.917-2.155-3.196-4.062-2.858l-35.373 2.945-35.387-2.945c-1.908-.338-3.728.941-4.064 2.858-.337 1.916.938 3.743 2.846 4.082l14.442 1.202-14.123 10.939c-1.426 1.187-1.617 3.287-.427 4.692s3.31 1.583 4.736.397l16.86-13.06c.422.088.866.105 1.317.025l13.799-1.149 13.805 1.149c.451.08.896.062 1.318-.025l16.867 13.06c1.426 1.186 3.547 1.008 4.737-.397s.999-3.506-.427-4.692l-14.13-10.939 14.42-1.201c1.909-.34 3.182-2.167 2.846-4.083z"/><path fill="#CF5849" d="M37 41h14c3.313 0 5 1.687 5 5v10c0 3.314-1.687 5-5 5h-14c-3.313 0-5-1.686-5-5v-10c0-3.313 1.687-5 5-5z"/><path fill="#2C9CC9" d="M76 41h14c3.313 0 5 1.687 5 5v10c0 3.314-1.687 5-5 5h-14c-3.313 0-5-1.686-5-5v-10c0-3.313 1.687-5 5-5z"/><path fill="#EBEEEE" d="M99.5 45c-.172 0-.336.027-.5.051v-2.051c0-3.313-2.687-6-6-6h-20c-3.313 0-6 2.687-6 6v2.605c-.75-.383-1.599-.605-2.5-.605h-2c-.901 0-1.75.222-2.5.605v-2.605c0-3.313-2.687-6-6-6h-20c-3.313 0-6 2.687-6 6v2.051c-.165-.024-.329-.051-.5-.051-1.933 0-3.5 1.567-3.5 3.5 0 1.934 1.567 3.5 3.5 3.5.171 0 .335-.026.5-.05v7.05c0 3.313 2.687 6 6 6h20c3.313 0 6-2.687 6-6v-9.393c.75-.385 1.598-.607 2.5-.607h2c.902 0 1.75.222 2.5.607v9.393c0 3.313 2.687 6 6 6h20c3.313 0 6-2.687 6-6v-7.05c.164.023.328.05.5.05 1.934 0 3.5-1.566 3.5-3.5 0-1.933-1.566-3.5-3.5-3.5zm-43.5 11c0 3.313-1.687 5-5 5h-14c-3.313 0-5-1.687-5-5v-10c0-3.313 1.687-5 5-5h14c3.313 0 5 1.687 5 5v10zm39 0c0 3.313-1.687 5-5 5h-14c-3.313 0-5-1.687-5-5v-10c0-3.313 1.687-5 5-5h14c3.313 0 5 1.687 5 5v10z"/><path fill="#40A5D2" d="M85.679 53.202l9.321-.776v-6.426c0-.218-.027-.409-.041-.613l-23.959 1.995v8.29l6.312.525c.451.08.896.062 1.318-.025l6.236 4.828h5.134c1.766 0 3.055-.494 3.888-1.442l-8.209-6.356z"/><path fill="#DB6353" d="M56 47.381l-23.958-1.994c-.015.204-.042.395-.042.613v6.426l9.345.777-8.221 6.368c.833.941 2.118 1.429 3.876 1.429h5.158l6.233-4.828c.422.088.866.105 1.317.025l6.292-.524v-8.292z"/><path fill="#9F4238" d="M51 41h-14c-3.313 0-5 1.687-5 5v3c0-3.313 1.687-5 5-5h14c3.313 0 5 1.687 5 5v-3c0-3.313-1.687-5-5-5z"/><path fill="#1C6B89" d="M90 41h-14c-3.313 0-5 1.687-5 5v3c0-3.313 1.687-5 5-5h14c3.313 0 5 1.687 5 5v-3c0-3.313-1.687-5-5-5z"/><defs><path id="a" d="M64 0c35.346 0 64 28.654 64 64 0 35.347-28.654 64-64 64-35.346 0-64-28.653-64-64 0-35.346 28.654-64 64-64z"/></defs><clipPath id="b"><use xlink:href="#a" overflow="visible"/></clipPath><g clip-path="url(#b)"><path fill="#EFC84A" d="M85 87c-.765 0-1.473.226-2.08.599-.432-2.608-2.691-4.599-5.42-4.599-3.037 0-5.5 2.463-5.5 5.5 0 3.038 2.463 5.5 5.5 5.5 1.471 0 2.803-.581 3.79-1.521.589 1.475 2.024 2.521 3.71 2.521 2.209 0 4-1.791 4-4s-1.791-4-4-4z"/><path fill="#EFC84A" d="M85 87c-.765 0-1.473.226-2.08.599-.432-2.608-2.691-4.599-5.42-4.599-3.037 0-5.5 2.463-5.5 5.5 0 3.038 2.463 5.5 5.5 5.5 1.471 0 2.803-.581 3.79-1.521.589 1.475 2.024 2.521 3.71 2.521 2.209 0 4-1.791 4-4s-1.791-4-4-4z"/><path fill="#EFCB58" d="M50.5 83c-3.004 0-5.588 1.771-6.786 4.321-.536-.197-1.109-.321-1.714-.321-2.761 0-5 2.238-5 5s2.239 5 5 5c1.226 0 2.334-.458 3.204-1.19 1.356 1.353 3.228 2.19 5.296 2.19 4.142 0 7.5-3.357 7.5-7.5s-3.358-7.5-7.5-7.5z"/><path fill="#EFCB58" d="M50.5 83c-3.004 0-5.588 1.771-6.786 4.321-.536-.197-1.109-.321-1.714-.321-2.761 0-5 2.238-5 5s2.239 5 5 5c1.226 0 2.334-.458 3.204-1.19 1.356 1.353 3.228 2.19 5.296 2.19 4.142 0 7.5-3.357 7.5-7.5s-3.358-7.5-7.5-7.5z"/><circle fill="#F4D985" cx="60.5" cy="95.5" r="13.5"/><circle fill="#F4D985" cx="60.5" cy="95.5" r="13.5"/><path fill="#F8E5AB" d="M69.812 82c-2.42 0-4.51 1.429-5.527 3.505-.217-.026-.437-.043-.66-.043-3.106 0-5.625 2.583-5.625 5.769 0 3.187 2.519 5.77 5.625 5.77 1.929 0 3.63-.997 4.644-2.515.494.13 1.01.207 1.544.207 3.418 0 6.188-2.841 6.188-6.346s-2.771-6.347-6.189-6.347z"/><path fill="#F8E5AB" d="M69.812 82c-2.42 0-4.51 1.429-5.527 3.505-.217-.026-.437-.043-.66-.043-3.106 0-5.625 2.583-5.625 5.769 0 3.187 2.519 5.77 5.625 5.77 1.929 0 3.63-.997 4.644-2.515.494.13 1.01.207 1.544.207 3.418 0 6.188-2.841 6.188-6.346s-2.771-6.347-6.189-6.347z"/><path fill="#DF5A48" d="M30 93h68v35h-68v-35z"/><polygon fill="#EBEEEE" points="30,91 30,128 34,128 34,95 38,95 38,128 42,128 42,95 46,95 46,128 50,128 50,95 54,95 54,128 58,128 58,95 62,95 62,128 66,128 66,95 70,95 70,128 74,128 74,95 78,95 78,128 82,128 82,95 86,95 86,128 90,128 90,95 94,95 94,128 98,128 98,91"/><polygon fill="#EBEEEE" points="30,91 30,128 34,128 34,95 38,95 38,128 42,128 42,95 46,95 46,128 50,128 50,95 54,95 54,128 58,128 58,95 62,95 62,128 66,128 66,95 70,95 70,128 74,128 74,95 78,95 78,128 82,128 82,95 86,95 86,128 90,128 90,95 94,95 94,128 98,128 98,91"/><path fill="#EFC84A" d="M64 115c11.598 0 21 4.254 21 9.5 0 5.247-9.402 9.5-21 9.5s-21-4.253-21-9.5c0-5.246 9.402-9.5 21-9.5z"/><path fill="#EBEEEE" d="M64 113c-12.897 0-23 5.052-23 11.5s10.103 11.5 23 11.5 23-5.052 23-11.5-10.103-11.5-23-11.5z"/><path fill="#EFC84A" d="M64 115c11.598 0 21 4.254 21 9.5 0 5.247-9.402 9.5-21 9.5s-21-4.253-21-9.5c0-5.246 9.402-9.5 21-9.5z"/></g></svg>