<svg xmlns="http://www.w3.org/2000/svg" xmlns:xlink="http://www.w3.org/1999/xlink" width="128" height="128"><path fill="#334D5D" d="M64 0c35.347 0 64 28.654 64 64 0 35.346-28.653 64-64 64-35.346 0-64-28.654-64-64 0-35.346 28.654-64 64-64z"/><defs><path id="a" d="M64 0c35.347 0 64 28.654 64 64 0 35.346-28.653 64-64 64-35.346 0-64-28.654-64-64 0-35.346 28.654-64 64-64z"/></defs><clipPath id="b"><use xlink:href="#a" overflow="visible"/></clipPath><g clip-path="url(#b)"><path fill="#EBEEEE" d="M39 31h51c4.418 0 8 3.582 8 8v110c0 4.418-3.582 8-8 8h-51c-4.418 0-8-3.582-8-8v-110c0-4.418 3.582-8 8-8z"/><path fill="#DF5A48" d="M51.5 37h-9c-3.037 0-5.5 2.463-5.5 5.5 0 3.038 2.463 5.5 5.5 5.5h9c3.037 0 5.5-2.462 5.5-5.5s-2.463-5.5-5.5-5.5zm-11 46c-2.485 0-4.5 2.014-4.5 4.5 0 2.484 2.015 4.5 4.5 4.5s4.5-2.016 4.5-4.5c0-2.486-2.015-4.5-4.5-4.5zm12 0c-2.485 0-4.5 2.014-4.5 4.5 0 2.484 2.015 4.5 4.5 4.5s4.5-2.016 4.5-4.5c0-2.486-2.015-4.5-4.5-4.5zm12 0c-2.485 0-4.5 2.014-4.5 4.5 0 2.484 2.015 4.5 4.5 4.5s4.5-2.016 4.5-4.5c0-2.486-2.015-4.5-4.5-4.5zm12 0c-2.485 0-4.5 2.014-4.5 4.5 0 2.484 2.015 4.5 4.5 4.5s4.5-2.016 4.5-4.5c0-2.486-2.015-4.5-4.5-4.5zm12 9c2.485 0 4.5-2.016 4.5-4.5 0-2.486-2.015-4.5-4.5-4.5s-4.5 2.014-4.5 4.5c0 2.484 2.015 4.5 4.5 4.5zm-48 3c-2.485 0-4.5 2.014-4.5 4.5 0 2.484 2.015 4.5 4.5 4.5s4.5-2.016 4.5-4.5c0-2.486-2.015-4.5-4.5-4.5zm12 0c-2.485 0-4.5 2.014-4.5 4.5 0 2.484 2.015 4.5 4.5 4.5s4.5-2.016 4.5-4.5c0-2.486-2.015-4.5-4.5-4.5zm12 0c-2.485 0-4.5 2.014-4.5 4.5 0 2.484 2.015 4.5 4.5 4.5s4.5-2.016 4.5-4.5c0-2.486-2.015-4.5-4.5-4.5zm12 0c-2.485 0-4.5 2.014-4.5 4.5 0 2.484 2.015 4.5 4.5 4.5s4.5-2.016 4.5-4.5c0-2.486-2.015-4.5-4.5-4.5zm12 0c-2.485 0-4.5 2.014-4.5 4.5 0 2.484 2.015 4.5 4.5 4.5s4.5-2.016 4.5-4.5c0-2.486-2.015-4.5-4.5-4.5zm-48 12c-2.485 0-4.5 2.014-4.5 4.5 0 2.484 2.015 4.5 4.5 4.5s4.5-2.016 4.5-4.5c0-2.486-2.015-4.5-4.5-4.5zm12 0c-2.485 0-4.5 2.014-4.5 4.5 0 2.484 2.015 4.5 4.5 4.5s4.5-2.016 4.5-4.5c0-2.486-2.015-4.5-4.5-4.5zm12 0c-2.485 0-4.5 2.014-4.5 4.5 0 2.484 2.015 4.5 4.5 4.5s4.5-2.016 4.5-4.5c0-2.486-2.015-4.5-4.5-4.5zm12 0c-2.485 0-4.5 2.014-4.5 4.5 0 2.484 2.015 4.5 4.5 4.5s4.5-2.016 4.5-4.5c0-2.486-2.015-4.5-4.5-4.5zm12 0c-2.485 0-4.5 2.014-4.5 4.5 0 2.484 2.015 4.5 4.5 4.5s4.5-2.016 4.5-4.5c0-2.486-2.015-4.5-4.5-4.5zm-48 12c-2.485 0-4.5 2.014-4.5 4.5 0 2.484 2.015 4.5 4.5 4.5s4.5-2.016 4.5-4.5c0-2.486-2.015-4.5-4.5-4.5zm12 0c-2.485 0-4.5 2.014-4.5 4.5 0 2.484 2.015 4.5 4.5 4.5s4.5-2.016 4.5-4.5c0-2.486-2.015-4.5-4.5-4.5zm12 0c-2.485 0-4.5 2.014-4.5 4.5 0 2.484 2.015 4.5 4.5 4.5s4.5-2.016 4.5-4.5c0-2.486-2.015-4.5-4.5-4.5zm12 0c-2.485 0-4.5 2.014-4.5 4.5 0 2.484 2.015 4.5 4.5 4.5s4.5-2.016 4.5-4.5c0-2.486-2.015-4.5-4.5-4.5zm12 0c-2.485 0-4.5 2.014-4.5 4.5 0 2.484 2.015 4.5 4.5 4.5s4.5-2.016 4.5-4.5c0-2.486-2.015-4.5-4.5-4.5zm-48 12c-2.485 0-4.5 2.014-4.5 4.5 0 2.484 2.015 4.5 4.5 4.5s4.5-2.016 4.5-4.5c0-2.486-2.015-4.5-4.5-4.5zm12 0c-2.485 0-4.5 2.014-4.5 4.5 0 2.484 2.015 4.5 4.5 4.5s4.5-2.016 4.5-4.5c0-2.486-2.015-4.5-4.5-4.5zm12 0c-2.485 0-4.5 2.014-4.5 4.5 0 2.484 2.015 4.5 4.5 4.5s4.5-2.016 4.5-4.5c0-2.486-2.015-4.5-4.5-4.5zm12 0c-2.485 0-4.5 2.014-4.5 4.5 0 2.484 2.015 4.5 4.5 4.5s4.5-2.016 4.5-4.5c0-2.486-2.015-4.5-4.5-4.5zm12 0c-2.485 0-4.5 2.014-4.5 4.5 0 2.484 2.015 4.5 4.5 4.5s4.5-2.016 4.5-4.5c0-2.486-2.015-4.5-4.5-4.5zm-48 12c-2.485 0-4.5 2.014-4.5 4.5 0 2.484 2.015 4.5 4.5 4.5s4.5-2.016 4.5-4.5c0-2.486-2.015-4.5-4.5-4.5zm12 0c-2.485 0-4.5 2.014-4.5 4.5 0 2.484 2.015 4.5 4.5 4.5s4.5-2.016 4.5-4.5c0-2.486-2.015-4.5-4.5-4.5zm12 0c-2.485 0-4.5 2.014-4.5 4.5 0 2.484 2.015 4.5 4.5 4.5s4.5-2.016 4.5-4.5c0-2.486-2.015-4.5-4.5-4.5zm12 0c-2.485 0-4.5 2.014-4.5 4.5 0 2.484 2.015 4.5 4.5 4.5s4.5-2.016 4.5-4.5c0-2.486-2.015-4.5-4.5-4.5zm12 0c-2.485 0-4.5 2.014-4.5 4.5 0 2.484 2.015 4.5 4.5 4.5s4.5-2.016 4.5-4.5c0-2.486-2.015-4.5-4.5-4.5z"/><path fill="#DADBDC" d="M70.524 58.703c-.84-1.092-2.018-1.725-3.13-1.725-1.472 0-2.093.729-3.113.729-1.053 0-1.853-.728-3.125-.728-1.25 0-2.58.792-3.422 2.146-1.186 1.905-.985 5.489.938 8.543.688 1.092 1.605 2.32 2.807 2.332 1.066.01 1.369-.711 2.817-.719 1.448-.01 1.722.727 2.789.717 1.2-.014 2.169-1.373 2.856-2.465.493-.781.676-1.178 1.059-2.062-2.779-1.095-3.227-5.194-.476-6.768zm-4.246-2.944c.534-.717.94-1.729.793-2.762-.873.063-1.895.643-2.49 1.398-.542.687-.989 1.703-.814 2.693.953.032 1.939-.562 2.511-1.329z"/><path fill="#334D5D" d="M43.5 40c1.381 0 2.5 1.119 2.5 2.5s-1.119 2.5-2.5 2.5-2.5-1.12-2.5-2.5 1.119-2.5 2.5-2.5z"/><path fill="#EBEEEE" d="M51.5 41c.828 0 1.5.672 1.5 1.5s-.672 1.5-1.5 1.5-1.5-.672-1.5-1.5.672-1.5 1.5-1.5z"/></g></svg>