<svg xmlns="http://www.w3.org/2000/svg" xmlns:xlink="http://www.w3.org/1999/xlink" width="128" height="128"><path fill="#45B39C" d="M64 0c35.346 0 64 28.654 64 64 0 35.347-28.654 64-64 64-35.346 0-64-28.653-64-64 0-35.346 28.654-64 64-64z"/><defs><path id="a" d="M64 0c35.346 0 64 28.654 64 64 0 35.347-28.654 64-64 64-35.346 0-64-28.653-64-64 0-35.346 28.654-64 64-64z"/></defs><clipPath id="b"><use xlink:href="#a" overflow="visible"/></clipPath><g clip-path="url(#b)"><path fill="#EBEEEE" d="M39 31h50c4.418 0 8 3.582 8 8v110c0 4.418-3.582 8-8 8h-50c-4.418 0-8-3.582-8-8v-110c0-4.418 3.582-8 8-8z"/><path fill="#2D4453" d="M40 33h48c3.866 0 7 3.134 7 7v108c0 3.866-3.134 7-7 7h-48c-3.866 0-7-3.134-7-7v-108c0-3.866 3.134-7 7-7z"/><path fill="#3B5766" d="M37 51h54v86h-54v-86z"/><path fill="#263B48" d="M70.5 43h-13c-.829 0-1.5.672-1.5 1.5s.671 1.5 1.5 1.5h13c.828 0 1.5-.672 1.5-1.5s-.672-1.5-1.5-1.5zm-6.5 98c-2.761 0-5 2.239-5 5 0 2.762 2.239 5 5 5 2.762 0 5-2.238 5-5 0-2.761-2.238-5-5-5z"/><path fill="#3B5766" d="M64.5 37c.828 0 1.5.672 1.5 1.5s-.672 1.5-1.5 1.5c-.829 0-1.5-.672-1.5-1.5s.671-1.5 1.5-1.5z"/></g></svg>