<svg xmlns="http://www.w3.org/2000/svg" width="128" height="128"><path fill="#45B39C" d="M64 0c35.346 0 64 28.654 64 64 0 35.347-28.654 64-64 64s-64-28.653-64-64c0-35.346 28.654-64 64-64z"/><path fill="#D3D6D7" d="M78.406 85.742l-1.878-1.466-10.518 13.089 1.807 1.627 10.589-13.25z"/><path fill="#EBEEEE" d="M49.635 85.791l1.854-1.515 10.501 13.089-1.807 1.627-10.548-13.201z"/><path fill="#EFC84A" d="M70 97v9c0 1.104-.896 2-2 2h-8c-1.104 0-2-.896-2-2v-9h12z"/><path fill="#A88C31" d="M58 99v-2h12v2h-12z"/><path fill="#EBEEEE" d="M64 22c-16.568 0-30 13.432-30 30 0 16.914 19.942 39.022 19.942 39.022l2.558-.008c1.612-1.213 4.368-2.014 7.5-2.014 3.136 0 5.894.803 7.505 2.019l2.537.01s19.958-22.031 19.958-39.029c0-16.568-13.432-30-30-30z"/><path fill="#DF5A48" d="M64 21.987c4.971 0 9 13.461 9 30.063 0 12.27-3.103 27.138-4.84 34.502 1.606.313 3.069.803 4.325 1.43 3.628-6.711 11.515-22.812 11.515-35.931 0-16.603-8.954-30.064-20-30.064zm-20 30.064c0 13.064 7.894 29.211 11.515 35.932 1.256-.627 2.719-1.116 4.325-1.43-1.736-7.377-4.84-22.285-4.84-34.502 0-16.603 4.029-30.063 9-30.063-11.046-.001-20 13.46-20 30.063z"/><path fill="#D3D6D7" d="M64 22c-.503 0-1.003.014-1.5.038 15.871.782 28.5 13.897 28.5 29.962 0 16.084-17.858 36.661-19.78 38.829l.285.189 2.537.01s19.958-22.03 19.958-39.028c0-16.568-13.432-30-30-30z"/></svg>