<svg xmlns="http://www.w3.org/2000/svg" xmlns:xlink="http://www.w3.org/1999/xlink" width="128" height="128"><path fill="#334D5D" d="M64 0c35.347 0 64 28.654 64 64 0 35.347-28.653 64-64 64-35.346 0-64-28.653-64-64 0-35.346 28.654-64 64-64z"/><defs><path id="a" d="M64 0c35.347 0 64 28.654 64 64 0 35.347-28.653 64-64 64-35.346 0-64-28.653-64-64 0-35.346 28.654-64 64-64z"/></defs><clipPath id="b"><use xlink:href="#a" overflow="visible"/></clipPath><path fill="#3F5765" d="M32 128h2v-60h-2v60zm8 0h2v-59h-2v59zm8 0h2v-58h-2v58zm30 0h2v-58h-2v58zm8 0h2v-59h-2v59zm8-60v60h2v-60h-2z" clip-path="url(#b)"/><path fill="#869D9F" d="M79 63c-1.104 0-2 .895-2 2v4c0 1.105.896 2 2 2s2-.895 2-2v-4c0-1.104-.896-2-2-2zm8 0c-1.104 0-2 .895-2 2v3c0 1.105.896 2 2 2s2-.895 2-2v-3c0-1.104-.896-2-2-2zm8 0c-1.104 0-2 .895-2 2v2c0 1.104.896 2 2 2s2-.896 2-2v-2c0-1.104-.896-2-2-2zm-46 0c-1.104 0-2 .895-2 2v4c0 1.105.896 2 2 2s2-.895 2-2v-4c0-1.104-.896-2-2-2zm-8 0c-1.104 0-2 .895-2 2v3c0 1.105.896 2 2 2s2-.895 2-2v-3c0-1.104-.896-2-2-2zm-8 0c-1.104 0-2 .895-2 2v2c0 1.104.896 2 2 2s2-.896 2-2v-2c0-1.104-.896-2-2-2z"/><path fill="#E27C3F" d="M54.167 86.9c-.038 0-2.167.955-2.167 2.134 0 1.178 2.071 2.133 2.167 2.133.405 0 8.368 2.023 8.693 1.832.633-.372 1.057-1.054 1.057-1.832 0-.79-.437-6.813-1.085-7.183-.318-.18-8.271 2.916-8.665 2.916z"/><path fill="#D5753A" d="M73.833 86.9c-.394 0-8.346-3.097-8.664-2.916-.649.369-1.086 6.393-1.086 7.183 0 .778.424 1.46 1.057 1.832.325.191 8.288-1.832 8.693-1.832.097 0 2.167-.955 2.167-2.133 0-1.179-2.129-2.134-2.167-2.134z"/><path fill="#EBEEEE" d="M59.977 54.035c-.336-.115-34.248 4.537-34.621 4.537-1.854 0-3.356 1.535-3.356 3.428 0 1.894 1.502 3.429 3.355 3.429.39 0 34.316 4.683 34.665 4.558 1.306-.47 2.243-6.491 2.243-7.986.001-1.512-.957-7.51-2.286-7.966z"/><path fill="#DDE0E1" d="M103.645 58.546c-.373 0-34.285-4.662-34.621-4.547-1.329.458-2.286 6.469-2.286 7.983 0 1.499.937 7.533 2.242 8.004.349.125 34.275-4.567 34.665-4.567 1.854 0 3.355-1.539 3.355-3.437s-1.502-3.436-3.355-3.436z"/><path fill="#EBEEEE" d="M64 30c4.418 0 8 6.838 8 11.148s-3.582 56.852-8 56.852-8-52.542-8-56.852c0-4.31 3.582-11.148 8-11.148z"/><path fill="#fff" d="M64 52c2.209 0 4 2.463 4 5.5s-1.791 5.5-4 5.5-4-2.463-4-5.5 1.791-5.5 4-5.5z"/><path fill="#E27C3F" d="M64 56.222c1.534 0 2.929.696 3.989 1.832l.011-.29c0-3.122-1.791-5.653-4-5.653s-4 2.531-4 5.653l.011.291c1.06-1.137 2.456-1.833 3.989-1.833z"/><path fill="#E4E7E8" d="M64 30v68c4.418 0 8-52.542 8-56.852 0-4.31-3.582-11.148-8-11.148z"/><path fill="#F7F7F7" d="M68 57.5c0-3.038-1.791-5.5-4-5.5v11c2.209 0 4-2.462 4-5.5z"/><path fill="#DB783C" d="M67.989 58.054l.011-.29c0-3.122-1.791-5.653-4-5.653v4.112c1.534-.001 2.929.695 3.989 1.831z"/><path fill="#E27C3F" d="M64 30c-4.418 0-8 6.838-8 11.148l.021.852h.5c2.381-.646 4.887-1 7.479-1 2.591 0 5.098.354 7.479 1h.5l.021-.852c0-4.31-3.582-11.148-8-11.148z"/><path fill="#D5753A" d="M71.479 42h.5l.016-.476v-.03l.005-.346c0-4.31-3.582-11.148-8-11.148v11c2.591 0 5.098.354 7.479 1z"/><path fill="#E27C3F" d="M56.82 54.395c-8.469 1.072-31.16 4.177-31.465 4.177-1.69 0-3.075 1.281-3.308 2.942l34.999-4.269c-.079-.975-.154-1.927-.226-2.85z"/><path fill="#D5753A" d="M70.964 57.11l35.991 4.417c-.22-1.68-1.609-2.981-3.311-2.981-.318 0-24.955-3.38-32.453-4.31-.071.93-.147 1.89-.227 2.874z"/></svg>