<svg xmlns="http://www.w3.org/2000/svg" width="128" height="128"><path fill="#45B39C" d="M64 0c35.346 0 64 28.654 64 64 0 35.347-28.654 64-64 64-35.346 0-64-28.653-64-64 0-35.346 28.654-64 64-64z"/><path fill="#7A8D8E" d="M63 39h2v-7h-2v7zm-19.004-1.367l3.404 6.354 2.604-1.62-3.404-6.354-2.604 1.62zm37.404-1.62l-3.404 6.354 2.604 1.62 3.404-6.354-2.604-1.62z"/><path fill="#2B414F" d="M83.5 91c-1.934 0-3.5 1.567-3.5 3.5s1.566 3.5 3.5 3.5 3.5-1.567 3.5-3.5-1.566-3.5-3.5-3.5zm-39 0c-1.933 0-3.5 1.567-3.5 3.5s1.567 3.5 3.5 3.5 3.5-1.567 3.5-3.5-1.567-3.5-3.5-3.5zm19.5-62c-1.657 0-3 1.344-3 3 0 1.657 1.343 3 3 3 1.656 0 3-1.343 3-3 0-1.656-1.344-3-3-3zm-21.789 2.253l-1.378.799c-4.759 2.757-6.203 9.188-3.455 13.964.012.015 18.58-10.764 18.611-10.783-2.748-4.776-9.019-6.737-13.778-3.98zm44.957.799l-1.379-.799c-4.759-2.757-11.03-.796-13.777 3.979.031.02 18.599 10.798 18.611 10.783 2.746-4.775 1.303-11.206-3.455-13.963z"/><path fill="#334D5D" d="M64 38c16.568 0 30 13.432 30 30s-13.432 30-30 30-30-13.432-30-30 13.432-30 30-30z"/><path fill="#fff" d="M64 42.488c14.09 0 25.512 11.422 25.512 25.512 0 14.089-11.422 25.512-25.512 25.512s-25.512-11.423-25.512-25.512c0-14.09 11.422-25.512 25.512-25.512z"/><path fill="#9EA7A8" d="M64 45c-.552 0-1 .448-1 1 0 .553.448 1 1 1 .553 0 1-.447 1-1 0-.552-.447-1-1-1zm22 22c-.553 0-1 .448-1 1 0 .553.447 1 1 1s1-.447 1-1c0-.552-.447-1-1-1zm-44 0c-.552 0-1 .448-1 1 0 .553.448 1 1 1s1-.447 1-1c0-.552-.448-1-1-1zm6-15c-.552 0-1 .448-1 1 0 .553.448 1 1 1s1-.447 1-1c0-.552-.448-1-1-1zm32 0c-.553 0-1 .448-1 1 0 .553.447 1 1 1s1-.447 1-1c0-.552-.447-1-1-1zm0 30c-.553 0-1 .448-1 1 0 .553.447 1 1 1s1-.447 1-1c0-.552-.447-1-1-1zm-32 0c-.552 0-1 .448-1 1 0 .553.448 1 1 1s1-.447 1-1c0-.552-.448-1-1-1zm16 7c-.552 0-1 .448-1 1 0 .553.448 1 1 1 .553 0 1-.447 1-1 0-.552-.447-1-1-1z"/><path fill="#DF5A48" d="M64 66h12c1.104 0 2 .896 2 2s-.896 2-2 2h-12c-1.104 0-2-.896-2-2s.896-2 2-2z"/><path fill="#EB8B6B" d="M64 51c1.104 0 2 .896 2 2v15c0 1.104-.896 2-2 2s-2-.896-2-2v-15c0-1.104.896-2 2-2z"/></svg>