<svg xmlns="http://www.w3.org/2000/svg" width="128" height="128"><path fill="#ECF0F0" d="M64 0c35.346 0 64 28.654 64 64 0 35.347-28.654 64-64 64s-64-28.652-64-64c0-35.345 28.654-64 64-64z"/><path fill="#228AB4" d="M29.018 45.386v47.612c0 1.678 3.728 3.039 8.429 3.039 4.7 0 8.512-1.361 8.512-3.039v-47.612h-16.941z"/><path fill="#2CA4D5" d="M37.488 42.346c4.677 0 8.47 1.36 8.47 3.04 0 1.679-3.793 3.04-8.47 3.04-4.678 0-8.471-1.361-8.471-3.04.001-1.68 3.794-3.04 8.471-3.04z"/><path fill="#3B9885" d="M55.018 55.386v37.612c0 1.678 3.728 3.039 8.429 3.039s8.512-1.361 8.512-3.039v-37.612h-16.941z"/><path fill="#45B39C" d="M63.488 52.346c4.678 0 8.47 1.361 8.47 3.04s-3.792 3.04-8.47 3.04-8.471-1.361-8.471-3.04c.001-1.679 3.794-3.04 8.471-3.04z"/><path fill="#BD3E25" d="M81.018 35.428v57.57c0 1.678 3.728 3.039 8.429 3.039s8.512-1.361 8.512-3.039v-57.57h-16.941z"/><path fill="#DF5A48" d="M89.488 32.388c4.678 0 8.47 1.361 8.47 3.04s-3.792 3.04-8.47 3.04-8.471-1.361-8.471-3.04 3.794-3.04 8.471-3.04z"/></svg>