<svg xmlns="http://www.w3.org/2000/svg" xmlns:xlink="http://www.w3.org/1999/xlink" width="128" height="128"><path fill="#E27C3F" d="M64 0c35.347 0 64 28.654 64 64 0 35.347-28.653 64-64 64-35.346 0-64-28.653-64-64 0-35.346 28.654-64 64-64z"/><defs><path id="a" d="M64 0c35.347 0 64 28.654 64 64 0 35.347-28.653 64-64 64-35.346 0-64-28.653-64-64 0-35.346 28.654-64 64-64z"/></defs><clipPath id="b"><use xlink:href="#a" overflow="visible"/></clipPath><g clip-path="url(#b)"><path fill="#EBEEEE" d="M46 31h36c8.284 0 15 2.716 15 11v97c0 8.284-6.716 11-15 11h-36c-8.284 0-15-2.716-15-11v-97c0-8.284 6.716-11 15-11z"/><path fill="#D3D5D6" d="M55.5 141h18c1.381 0 2.5 1.119 2.5 2.5s-1.119 2.5-2.5 2.5h-18c-1.381 0-2.5-1.119-2.5-2.5s1.119-2.5 2.5-2.5z"/><path fill="#3B5766" d="M34 45h60v92h-60v-92z"/><path fill="#A5A7A7" d="M58 37h12c.553 0 1 .447 1 1s-.447 1-1 1h-12c-.553 0-1-.447-1-1s.447-1 1-1z"/><path fill="#2D4453" d="M77 37c-.553 0-1 .447-1 1s.447 1 1 1 1-.447 1-1-.447-1-1-1zm4 0c-.553 0-1 .447-1 1s.447 1 1 1 1-.447 1-1-.447-1-1-1zm5-1c-1.104 0-2 .896-2 2s.896 2 2 2 2-.896 2-2-.896-2-2-2z"/></g></svg>