<svg xmlns="http://www.w3.org/2000/svg" width="128" height="128"><path fill="#DF5A48" d="M64 0c35.346 0 64 28.654 64 64 0 35.347-28.653 64-64 64s-64-28.653-64-64c0-35.346 28.654-64 64-64z"/><path fill="#977400" d="M35.338 49.973l-10.096 16.994h77.172l-10.26-17.034-56.816.04z"/><path fill="#F4F5F6" d="M37 30h54c1.658 0 3 1.344 3 3v51c0 1.657-1.342 3-3 3h-54c-1.657 0-3-1.343-3-3v-51c0-1.656 1.344-3 3-3z"/><path fill="#BDC3C7" d="M40 36h31v4h-31v-4z"/><path fill="#DCDFE0" d="M40 43v3h46v-3h-46zm38 5h-38v3h38v-3zm5 5h-43v3h43v-3zm-43 8h46v-3h-46v3z"/><path fill="#D9AD14" d="M103.957 66.028h.031l-9.988-18.767v8.029l5.013 10.713s-18.036.026-18.013.028v9.988c0 1.656-1.343 2.997-3 2.997h-28c-1.657 0-3-1.341-3-2.997v-9.967c-7.423.007-13.882.01-18.052.005l5.052-10.813v-8.042l-10.019 18.826.019.003v26.971c0 1.655 1.343 2.996 3 2.996h74c1.657 0 3-1.341 3-2.996v-26.971l-.043-.003z"/><path fill="#EFC84A" d="M81 69.031v9.988c0 1.656-1.343 2.997-3 2.997h-28c-1.657 0-3-1.341-3-2.997v-9.967c-12.938.011-22.963.013-23-.021v26.971c0 1.655 1.343 2.997 3 2.997h74c1.657 0 3-1.342 3-2.997v-26.971c-.119-.035-23.023-.002-23 0z"/><path fill="#DCDFE0" d="M91 28h-54c-1.657 0-3 1.344-3 3v2c0-1.656 1.343-3 3-3h54c1.658 0 3 1.344 3 3v-2c0-1.656-1.342-3-3-3z"/></svg>