<svg xmlns="http://www.w3.org/2000/svg" xmlns:xlink="http://www.w3.org/1999/xlink" width="128" height="128"><path fill="#334D5D" d="M64 0c35.346 0 64 28.654 64 64 0 35.347-28.654 64-64 64s-64-28.653-64-64c0-35.346 28.654-64 64-64z"/><defs><path id="a" d="M64 0c35.346 0 64 28.654 64 64 0 35.347-28.654 64-64 64s-64-28.653-64-64c0-35.346 28.654-64 64-64z"/></defs><clipPath id="b"><use xlink:href="#a" overflow="visible"/></clipPath><path fill="#7D8C96" d="M49 126.974h1v-36.974h-1v36.974zm23-36.974v38.001h1v-38.001h-1z" clip-path="url(#b)"/><path fill="#45B39C" d="M71 65c0-12.15-9.85-22-22-22s-22 9.85-22 22c0 11.837 9.35 28.94 21.066 29.815l-.637 3.185h3.929l-1.277-3.191c11.648-1.004 20.919-18.021 20.919-29.809z"/><path fill="#99D1C5" d="M34.791 55.049c-1.183-.37-2.723 1.537-3.439 4.263-.717 2.725-.34 5.233.843 5.604s2.722-1.537 3.438-4.262.34-5.234-.842-5.605zm-1.943 11.7c-.82 0-1.484.726-1.484 1.621s.664 1.621 1.484 1.621 1.484-.726 1.484-1.621-.664-1.621-1.484-1.621z"/><path fill="#EFC84A" d="M100 56c0-15.464-12.536-28-28-28s-28 12.536-28 28c0 15.065 11.899 36.833 26.811 37.946l-.811 4.054h5l-1.625-4.062c14.825-1.279 26.625-22.935 26.625-37.938z"/><path fill="#F6DE97" d="M60.926 39.346c-2.389-.686-5.5 2.847-6.948 7.889-1.448 5.043-.687 9.688 1.702 10.373 2.389.687 5.5-2.846 6.947-7.888 1.449-5.043.687-9.688-1.701-10.374zm-3.926 21.654c-1.656 0-3 1.344-3 3 0 1.657 1.344 3 3 3 1.657 0 3-1.343 3-3 0-1.656-1.343-3-3-3z"/><path fill="#AC9033" d="M70.811 93.946l-.198.991h3.163l-.4-1h-2.639l.074.009z"/><polygon fill="#368D7B" points="50.083,94.815 48.066,94.815 47.9,95.644 50.414,95.644"/></svg>