<svg xmlns="http://www.w3.org/2000/svg" width="128" height="128"><path fill="#EBEEEE" d="M64 0c35.347 0 64 28.654 64 64 0 35.347-28.653 64-64 64-35.346 0-64-28.653-64-64 0-35.346 28.654-64 64-64z"/><path fill="#D2B040" d="M64 22c-2.761 0-5 2.239-5 5 0 2.762 2.239 5 5 5 2.762 0 5-2.238 5-5 0-2.761-2.238-5-5-5zm0 8c-1.657 0-3-1.343-3-3 0-1.656 1.343-3 3-3s3 1.344 3 3c0 1.657-1.343 3-3 3z"/><path fill="#E2AD00" d="M64 90c2.762 0 5 2.239 5 5 0 2.762-2.238 5-5 5-2.761 0-5-2.238-5-5 0-2.761 2.239-5 5-5z"/><path fill="#EFC84A" d="M90.935 77.214l-1.973-23.714c0-13.531-11.176-24.5-24.962-24.5s-24.962 10.969-24.962 24.5l-1.972 23.714c-4.041.886-7.066 4.48-7.066 8.786 0 4.971 1.029 9 6 9h56c4.971 0 6-4.029 6-9 0-4.306-3.025-7.9-7.065-8.786z"/><path fill="#C19400" d="M68.578 97c.269-.613.422-1.288.422-2h-10c0 .712.154 1.387.422 2h9.156z"/><path fill="#DDB844" d="M90.935 77.214l-1.973-23.714c0-13.531-11.176-24.5-24.962-24.5-.844 0-1.678.042-2.5.123 12.612 1.23 22.462 11.674 22.462 24.377l1.973 23.714c4.04.886 7.065 4.48 7.065 8.786 0 4.971-1.029 9-6 9h5c4.971 0 6-4.029 6-9 0-4.306-3.025-7.9-7.065-8.786z"/><polygon fill="#DDB844" points="37.083,77 90.917,77 90.584,73 37.416,73"/><polygon fill="#CCAA3D" points="85.917,77 90.917,77 90.718,74.601 90.584,73 85.584,73"/></svg>