<svg xmlns="http://www.w3.org/2000/svg" width="128" height="128"><path fill="#EFC84A" d="M64.009 0c35.346 0 64 28.654 64 64 0 35.347-28.654 64-64 64-35.346 0-64-28.653-64-64 0-35.346 28.655-64 64-64z"/><path fill="#E6AC3F" d="M64.009 85c-20.894 0-40.886 1.071-59.321 3.022 9.502 23.44 32.474 39.978 59.321 39.978 26.848 0 49.819-16.538 59.321-39.978-18.435-1.951-38.428-3.022-59.321-3.022z"/><path fill="#fff" d="M39.509 62c-5.799 0-10.5 4.701-10.5 10.5s4.701 10.5 10.5 10.5 10.5-4.701 10.5-10.5-4.701-10.5-10.5-10.5zm0 19c-4.694 0-8.5-3.806-8.5-8.5s3.806-8.5 8.5-8.5 8.5 3.806 8.5 8.5-3.805 8.5-8.5 8.5zm51.001-19c-5.799 0-10.5 4.701-10.5 10.5s4.701 10.5 10.5 10.5 10.5-4.701 10.5-10.5-4.701-10.5-10.5-10.5zm0 19c-4.695 0-8.5-3.806-8.5-8.5s3.805-8.5 8.5-8.5c4.693 0 8.5 3.806 8.5 8.5s-3.807 8.5-8.5 8.5z"/><path fill="#334D5D" d="M39.509 59c-7.456 0-13.5 6.045-13.5 13.5 0 7.456 6.044 13.5 13.5 13.5s13.5-6.044 13.5-13.5c0-7.455-6.044-13.5-13.5-13.5zm0 24c-5.799 0-10.5-4.701-10.5-10.5s4.701-10.5 10.5-10.5 10.5 4.701 10.5 10.5-4.701 10.5-10.5 10.5zm51.001-24c-7.457 0-13.5 6.045-13.5 13.5 0 7.456 6.043 13.5 13.5 13.5 7.455 0 13.5-6.044 13.5-13.5 0-7.455-6.045-13.5-13.5-13.5zm0 24c-5.799 0-10.5-4.701-10.5-10.5s4.701-10.5 10.5-10.5 10.5 4.701 10.5 10.5-4.701 10.5-10.5 10.5z"/><path fill="#BD3E25" d="M92.992 74.025l-15.387-25.83.301-.11-.303.104-.533-.895-1.148-2.163c.91-.589 1.814-1.917 2.229-3.056.367-1.011.25-2.089-.342-3.117-1.822-3.166-10.936-.867-13.684-.34l.413 2.544c5.426-1.042 10.609-1.856 11.23-.772.332.577.189.937.176 1.18-.098 1.651-2.717 3.537-3.506 3.814v.001l-.057.021.941 1.503.277.403 1.115 1.871-.127.047.129-.045.961 1.616-23.612 4.813v.093c-.113-.041-.232-.065-.356-.078l-3.445-6.021-3.312.907 4.095 6.408-11.073 15.99 2.405 1.783 10.314-14.896 8.101 14.154-.062.062.152.096.947 1.656.727-.6.702.443 18.167-18.518 11.027 18.512 2.538-1.58zm-15.422-19.207l-16.626 16.948-7.65-13.369 23.558-4.803v-.092c.154.056.318.091.49.092l1.031 1.73-.803-.506z"/><path fill="#273239" d="M44.009 47h5c1.657 0 3-.092 3 1 0 1.657-5.343 3-7 3h-1c-1.656 0-3-.343-3-2 0-1.656 1.344-2 3-2z"/><path fill="#334D5D" d="M62.103 68.996l-.188-1.991-24 2 .188 1.991 24-2zm-25.186 7l24.999 2 .188-1.991-25-2-.187 1.991z"/><circle fill="#fff" cx="39.509" cy="72.5" r="4.252"/><path fill="#334D5D" d="M61.509 67c3.038 0 5.5 2.463 5.5 5.5 0 3.038-2.463 5.5-5.5 5.5s-5.5-2.462-5.5-5.5c0-3.037 2.463-5.5 5.5-5.5z"/><path fill="#fff" d="M61.509 69c1.934 0 3.5 1.567 3.5 3.5 0 1.934-1.567 3.5-3.5 3.5s-3.5-1.566-3.5-3.5c0-1.933 1.568-3.5 3.5-3.5z"/><circle fill="#fff" cx="90.51" cy="72.5" r="4.252"/><circle fill="#E27C3F" cx="90.51" cy="72.5" r="2.5"/><circle fill="#E27C3F" cx="39.509" cy="72.5" r="2.5"/></svg>