<svg xmlns="http://www.w3.org/2000/svg" width="128" height="128"><path fill="#EBEEEE" d="M64.001 0c35.346 0 63.999 28.653 63.999 64 0 35.348-28.653 64-63.999 64-35.347 0-64.001-28.652-64.001-64 0-35.347 28.654-64 64.001-64z"/><path fill="#4C301A" d="M60.258 90.637c-.586-.586-1.536-.586-2.121 0-.586.586-.586 1.535 0 2.121l10.606 10.607c.586.586 1.536.586 2.121 0 .586-.586.586-1.535 0-2.121l-10.606-10.607zm20.606 10.607l-10.606-10.607c-.586-.586-1.535-.586-2.121 0s-.586 1.535 0 2.121l10.606 10.607c.586.586 1.536.586 2.121 0 .586-.586.586-1.535 0-2.121z"/><path fill="#E74C3C" d="M86.98 49.671c.92-1.901 1.251-4.05 1.251-6.275 0-12.369-10.079-22.396-22.512-22.396h-.414c.037.522 0 1.209 0 1.74 0 5.6-1.802 10.865-5.217 14.79-14.426 1.733-26.088 13.649-26.088 28.466 0 8.365 3.304 15.586 9.003 20.875v20.879l13.606-13.67c1.968.418 4.429.895 6.522.895 16.089 0 29.14-12.729 29.13-28.734-.003-6.001-2.161-11.954-5.281-16.57z"/><path fill="#9B2C20" d="M47.914 90.445l-4.911 17.555 14.476-13.738c-3.46-.721-6.672-2.024-9.565-3.817z"/><path fill="#4E2F1A" d="M73.011 42.501c0 1.939 1.563 3.511 3.493 3.511s3.494-1.571 3.494-3.511c0-1.938-1.564-3.511-3.494-3.511s-3.493 1.572-3.493 3.511z"/><path fill="#D9D2CE" d="M74.992 42.002c0 .556.449 1.005 1.004 1.005s1.004-.449 1.004-1.005c0-.555-.449-1.004-1.004-1.004s-1.004.449-1.004 1.004z"/><path fill="#9B2C20" d="M92.012 63.157l-.03-.553c-.601-4.289-2.192-8.405-4.342-11.882-.265-.362-.528-.727-.812-1.064.305-1.01.734-1.93 1.09-2.875.217-1.093.313-2.229.313-3.388 0-2.223-.33-4.367-.937-6.395l-.66.005c-2.668 0-5.123.222-7.222 1.475 1.238.906 2.052 2.363 2.052 4.021 0 2.753-2.222 4.984-4.961 4.984-1.354 0-2.577-.548-3.473-1.431.008 1.435-.027 3.476-.027 4.446 0 7.453 6.104 13.495 13.631 13.495 1.912.001 3.727-.136 5.378-.838z"/><path fill="#F39D12" d="M95 48.324c-.631-2.859-1.986-5.335-7.129-5.326-4.902.009-6.82 2.804-6.82 6.262 0 .48-.107 1.277.004 1.727 1.238-.05 2.445.004 3.634.004 3.694-.001 7.551-.795 10.311-2.667z"/><path fill="#AB6D0A" d="M93.965 48.947c-.711-1.239-2.798-1.94-4.635-1.94-3.176 0-5.943 1.393-8.319 3.172-.011.3-.01.594.044.808.654-.026 1.299-.023 1.937-.016l.974-.014c.744 0 1.473 0 2.191-.011 2.781-.161 5.56-.787 7.808-1.999z"/><path fill="#9B2C20" d="M34.009 65.629c.019 4.562 1.125 9.369 3.062 13.438.704 1.375 1.525 2.684 2.449 3.922 14.351-2.678 25.474-14.758 25.474-29.397 0-6.181-1.534-11.375-4.907-16.061-14.305 1.717-25.887 13.452-26.078 28.098z"/></svg>