<svg xmlns="http://www.w3.org/2000/svg" width="128" height="128"><path fill="#EBEEEE" d="M64 0c35.346 0 64 28.654 64 64 0 35.347-28.654 64-64 64s-64-28.653-64-64c0-35.346 28.654-64 64-64z"/><path fill="#E27C3F" d="M36.266 26.995l55.469.01c2.364 0 4.28 1.916 4.28 4.28l-.08 65.423c0 2.364-1.916 4.28-4.28 4.28h-55.389c-2.363 0-4.28-1.916-4.28-4.28v-65.465c-.001-2.363 1.916-4.248 4.28-4.248z"/><path fill="#FFA068" d="M36.266 36.964l55.469.041c2.364 0 4.28 1.917 4.28 4.28l-.08 55.423c0 2.364-1.916 4.28-4.28 4.28h-55.389c-2.363 0-4.28-1.916-4.28-4.28v-55.465c-.001-2.364 1.916-4.279 4.28-4.279z"/><path fill="#CD5929" d="M50 57h34v10h-34v-10z"/><path fill="#E76B38" d="M50 71v3h34v-3h-34zm0 8h24v-3h-24v3z"/><path fill="#D5753A" d="M35 27h1c1.656 0 1.955-.023 2 0v74c-.047.028-.344 0-2 0h-1c-1.656 0-3-1.343-3-3v-68c0-1.656 1.344-3 3-3z"/><path fill="#FFB387" d="M38 37h1v64h-1v-64z"/><path fill="#fff" d="M37 30h53c1.657 0 3 1.344 3 3v1c0 1.657-.009 3.023 0 3h-56c-1.656 0-2-1.343-2-3v-1c0-1.656.344-3 2-3z"/></svg>