<svg xmlns="http://www.w3.org/2000/svg" width="128" height="128"><path fill="#334D5D" d="M64 0c35.346 0 64 28.654 64 64 0 35.347-28.654 64-64 64s-64-28.652-64-64c0-35.345 28.654-64 64-64z"/><path fill="#FFDB64" d="M100 46.097l-.004-.002-35.996-20.111-35.996 20.111-.004.002.004.002-.004 36.766 36 19.107 36-19.107-.004-36.766.004-.002z"/><path fill="#DBB537" d="M100 46l-36.004 20 .004 36.002 36.004-19.002-.004-37z"/><path fill="#EFC84A" d="M28 46l36.004 20-.004 36.002-36.004-19.002.004-37z"/><path fill="#EFC84A" d="M84.581 37.506l-4.898-2.737-.522.284-.198-.117s-14.257 7.884-24.73 13.659l-10.795 5.864.059.035-.021.125 5.041 2.801.17-.093c3.657-1.966 35.311-19.419 35.311-19.419l-.068-.041.651-.361z"/><path fill="#DBB537" d="M48.516 57.42l-5.041-2.801c-.077.835-.038 5.841-.038 5.841l1.584-.469.849 1.853 1.03-.968 1.541 2.585s-.072-5.922.024-6.013l.051-.028z"/><path fill="#FFF9E0" d="M48.024 56.99l.359-.196c.861-.465 2.795-1.523 5.33-2.915l30.427-16.642-5.236-2.925-.344.188-.038-.022s-4.255 2.353-9.816 5.426l-25.71 14.097.059.035c-.104.106-.059 5.966-.059 5.966l1.584-.469.849 1.853 1.03-.968 1.541 2.585s-.072-5.92.024-6.013z"/></svg>