<svg xmlns="http://www.w3.org/2000/svg" width="128" height="128"><path fill="#ECF0F0" d="M64 0c35.348 0 64 28.654 64 64 0 35.348-28.652 64-64 64-35.346 0-64-28.652-64-64 0-35.346 28.654-64 64-64z"/><path fill="#DB7136" d="M105.997 43.002c-.55-.536-4.29-4.135-4.315-4.157-.768-.767-2.522-1.854-3.576-1.854h-68.529c-1.271.068-2.483.717-3.579 1.812.016.022-3.332 3.479-4.001 4.199v2.763l84-.765v-1.998z"/><path fill="#CD5929" d="M23.025 64.001h81.975v25.767c0 2.352-1.906 4.256-4.256 4.256h-73.463c-2.351 0-4.256-1.904-4.256-4.256v-25.767z"/><path fill="#BD5124" d="M104.803 66.182c0 2.017-1.635 3.791-3.648 3.791h-74.46c-2.015 0-3.648-1.774-3.648-3.791h81.756z"/><path fill="#E27C3F" d="M21.997 43.002v20.736c0 2.351 1.905 4.256 4.256 4.256h75.489c2.351 0 4.256-1.905 4.256-4.256v-20.736h-84.001z"/><rect x="58.022" y="67.994" fill="#B94F24" width="11.978" height="25.933"/><rect x="58.022" y="36.991" fill="#CB6E37" width="11.978" height="31.087"/><path fill="#F19440" d="M59.022 36.991h9.978v56.936h-9.978v-56.936z"/><path fill="#BF5225" d="M59.988 36.991h7.983v56.998h-7.983v-56.998z"/><path fill="#F5F7F7" d="M68.781 60.984h-9.572c-.671 0-1.216.544-1.216 1.216v9.589c0 .672.544 1.216 1.216 1.216h3.773v1.013h1.995v-1.013h3.805c.672 0 1.216-.544 1.216-1.216v-9.589c-.001-.671-.545-1.216-1.217-1.216zm-.795 8.793c0 .672-.545 1.217-1.217 1.217h-1.793v-4.977h-1.995v4.977h-1.761c-.671 0-1.216-.545-1.216-1.217v-5.565c0-.672.544-1.216 1.216-1.216h5.548c.672 0 1.217.544 1.217 1.216v5.565z"/><path fill="#A65425" d="M74.784 30.997h-21.567c-.672 0-1.216.538-1.216 1.2v7.199c0 .662.544.599 1.216.599h.608c.671 0 1.185.062 1.185-.599v-5.399h17.98v5.46c0 .663.545.539 1.217.539h.607c.672 0 1.186.125 1.186-.539v-7.259c0-.664-.544-1.201-1.216-1.201z"/><linearGradient id="a" gradientUnits="userSpaceOnUse" x1="63.857" y1="84.053" x2="63.857" y2="79.064" gradientTransform="matrix(1 0 0 -1 .14 127.055)"><stop offset="0" stop-color="#fff" stop-opacity=".2"/><stop offset="1" stop-color="#E27C3F" stop-opacity="0"/></linearGradient><rect x="21.997" y="43.002" fill="url(#a)" width="84" height="4.989"/></svg>