<svg xmlns="http://www.w3.org/2000/svg" width="128" height="128"><path fill="#E27C3F" d="M64 .014c35.346 0 64 28.654 64 64 0 35.347-28.654 64-64 64s-64-28.653-64-64c0-35.346 28.654-64 64-64z"/><path fill="#E4E7E8" d="M26.266 33.019h75.406c2.364 0 4.28 1.917 4.28 4.28l.062 53.423c0 2.363-1.916 4.28-4.28 4.28h-75.468c-2.363 0-4.28-1.917-4.28-4.28v-53.423c-.001-2.364 1.916-4.28 4.28-4.28z"/><path fill="#fff" d="M100.971 46.029v43.993h-73.973v-43.993c-.006.015 73.983-.001 73.973 0z"/><path fill="#E4E7E8" d="M75.006 51.014v33.966h21.012v-33.966h-21.012zm-5.009 0h-38.015v9.016h38.015v-9.016zm-38.015 13.978h38.034v-1.977h-38.034v1.977zm38.026 3.009h-38.026v2.008h38.025v-2.008zm-38.026 6.992h38.03v-1.976h-38.03v1.976zm38.026 3.008h-38.026v2.008h38.025v-2.008zm-38.026 6.993h38.03v-1.978h-38.03v1.978z"/><path fill="#BD3E25" d="M29.5 37.014c1.381 0 2.5 1.119 2.5 2.5s-1.119 2.5-2.5 2.5-2.5-1.119-2.5-2.5 1.119-2.5 2.5-2.5z"/><path fill="#E27C3F" d="M37.5 37.014c1.381 0 2.5 1.119 2.5 2.5s-1.119 2.5-2.5 2.5-2.5-1.119-2.5-2.5 1.119-2.5 2.5-2.5z"/><path fill="#45B39C" d="M45.5 37.014c1.381 0 2.5 1.119 2.5 2.5s-1.119 2.5-2.5 2.5-2.5-1.119-2.5-2.5 1.119-2.5 2.5-2.5z"/></svg>