<svg xmlns="http://www.w3.org/2000/svg" width="128" height="128"><path fill="#334D5D" d="M64 0c35.346 0 64 28.654 64 64 0 35.345-28.654 64-64 64s-64-28.654-64-64c0-35.345 28.654-64 64-64z"/><path fill="#E27C3F" d="M25.661 36.98h42.685c2.016 0 3.648 1.633 3.648 3.648v25.715c0 2.016-1.633 3.648-3.648 3.648h-23.963c-.017-.006-9.262 6.131-9.414 6.08-.008-.009-.033-6.08.002-6.08h-9.31c-2.015 0-3.647-1.634-3.647-3.648v-25.715c0-2.014 1.632-3.648 3.647-3.648z"/><path fill="#EFC84A" d="M102.348 53.004h-45.721c-2.014 0-3.646 1.633-3.646 3.648v29.671c0 2.016 1.633 3.648 3.646 3.648h10.254c.018-.006 8.977 6.13 9.129 6.08.008-.008.033-6.08-.002-6.08h26.34c2.014 0 3.646-1.633 3.646-3.648v-29.67c0-2.016-1.633-3.649-3.646-3.649z"/><path fill="#fff" d="M91.492 68.029c-1.922 0-3.48 1.559-3.48 3.479 0 1.922 1.559 3.48 3.48 3.48 1.92 0 3.48-1.561 3.48-3.48s-1.558-3.479-3.48-3.479zm-12 0c-1.922 0-3.48 1.559-3.48 3.479 0 1.922 1.559 3.48 3.48 3.48 1.92 0 3.48-1.561 3.48-3.48s-1.558-3.479-3.48-3.479zm-12 0c-1.922 0-3.48 1.559-3.48 3.479 0 1.922 1.559 3.48 3.48 3.48 1.92 0 3.48-1.561 3.48-3.48s-1.558-3.479-3.48-3.479z"/></svg>