<svg xmlns="http://www.w3.org/2000/svg" width="128" height="128"><path fill="#EFC84A" d="M64 0c35.346 0 64 28.654 64 64 0 35.347-28.654 64-64 64s-64-28.653-64-64c0-35.346 28.654-64 64-64z"/><path fill="#fff" d="M33 29.001h62c1.657 0 3 1.343 3 3v63.999c0 1.657-1.343 3-3 3h-62c-1.656 0-3-1.343-3-3v-63.999c0-1.657 1.344-3 3-3z"/><path fill="#ECF0F0" d="M37 35h54v16h-54v-16z"/><path fill="#B7BFC2" d="M74.488 42.625c.344-.15.61-.368.801-.652.189-.285.284-.61.284-.976 0-.587-.207-1.072-.62-1.455-.414-.383-.995-.575-1.743-.575-.756 0-1.338.192-1.748.575-.41.383-.615.868-.615 1.455 0 .344.089.66.266.948.178.288.461.515.852.68-.455.193-.788.468-.999.824s-.316.748-.316 1.173c0 .773.28 1.382.843 1.827.477.376 1.072.563 1.788.563.771 0 1.387-.227 1.851-.682.464-.455.696-1.046.696-1.772 0-.441-.114-.829-.342-1.166-.229-.336-.561-.592-.998-.767zm-1.955-2.202c.172-.172.403-.258.693-.258.279 0 .504.085.674.255s.255.396.255.68c0 .301-.086.536-.258.706s-.401.255-.688.255c-.283 0-.51-.084-.68-.252-.17-.168-.255-.403-.255-.704.001-.283.087-.51.259-.682zm1.493 5.041c-.204.224-.462.335-.773.335-.318 0-.585-.117-.798-.349-.213-.233-.319-.557-.319-.973 0-.297.091-.573.271-.827.181-.254.455-.381.824-.381.318 0 .582.111.79.335.207.224.311.52.311.889 0 .424-.102.746-.306.971zm6.462-2.839c.344-.15.61-.368.801-.652.189-.285.284-.61.284-.976 0-.587-.207-1.072-.62-1.455-.414-.383-.995-.575-1.743-.575-.756 0-1.338.192-1.748.575-.41.383-.615.868-.615 1.455 0 .344.089.66.266.948.178.288.461.515.852.68-.455.193-.788.468-.999.824s-.316.748-.316 1.173c0 .773.28 1.382.843 1.827.477.376 1.072.563 1.788.563.771 0 1.387-.227 1.851-.682.464-.455.696-1.046.696-1.772 0-.441-.114-.829-.342-1.166-.229-.336-.561-.592-.998-.767zm-1.955-2.202c.172-.172.402-.258.693-.258.279 0 .504.085.674.255s.255.396.255.68c0 .301-.086.536-.258.706s-.401.255-.688.255c-.283 0-.51-.084-.68-.252-.17-.168-.255-.403-.255-.704.001-.283.087-.51.259-.682zm1.493 5.041c-.204.224-.462.335-.773.335-.318 0-.585-.117-.798-.349-.213-.233-.319-.557-.319-.973 0-.297.091-.573.271-.827.181-.254.455-.381.824-.381.318 0 .582.111.79.335.207.224.312.52.312.889 0 .424-.103.746-.307.971zm7.015-5.57c-.512-.617-1.167-.927-1.965-.927-.734 0-1.339.244-1.813.733-.475.489-.711 1.133-.711 1.931 0 .767.225 1.389.674 1.867s.983.717 1.603.717c.57 0 1.044-.22 1.424-.661-.061.902-.2 1.497-.419 1.783-.219.287-.483.43-.795.43-.247 0-.446-.072-.597-.215-.15-.143-.243-.363-.279-.66l-1.46.161c.106.651.351 1.141.73 1.469.379.328.877.491 1.493.491.855 0 1.55-.318 2.084-.955.533-.638.8-1.676.8-3.116 0-1.415-.256-2.431-.769-3.048zm-1.222 2.871c-.198.229-.442.344-.732.344-.301 0-.552-.119-.752-.357-.201-.238-.302-.611-.302-1.12 0-.501.093-.862.277-1.082.185-.22.416-.33.695-.33.294 0 .553.134.776.402.224.269.335.646.335 1.134.001.443-.097.779-.297 1.009z"/><path fill="#DD5947" d="M40 57h10c1.656 0 3 1.343 3 3v9c0 1.657-1.344 3-3 3h-10c-1.656 0-3-1.343-3-3v-9c0-1.656 1.344-3 3-3z"/><polygon fill="#fff" points="48,63 46,63 46,61.001 44,61.001 44,63 42,63 42,65 44,65 44,67 46,67 46,65 48,65"/><path fill="#DF5A48" d="M40 75h10c1.656 0 3 1.344 3 3v9c0 1.657-1.344 3-3 3h-10c-1.656 0-3-1.343-3-3v-9c0-1.656 1.344-3 3-3z"/><path fill="#fff" d="M42 81h6v2h-6v-2z"/><path fill="#DF5A48" d="M59 57h10c1.657 0 3 1.343 3 3v9c0 1.657-1.343 3-3 3h-10c-1.656 0-3-1.343-3-3v-9c0-1.656 1.344-3 3-3z"/><path fill="#fff" d="M64 62.001c1.104 0 2 .895 2 2 0 1.104-.896 1.999-2 1.999s-2-.895-2-1.999c0-1.105.896-2 2-2z"/><path fill="#DF5A48" d="M59 75h10c1.657 0 3 1.344 3 3v9c0 1.657-1.343 3-3 3h-10c-1.656 0-3-1.343-3-3v-9c0-1.656 1.344-3 3-3z"/><path fill="#fff" d="M61 81v2h6v-2h-6zm3-1c.553 0 1-.447 1-1 0-.552-.447-1-1-1s-1 .448-1 1c0 .553.447 1 1 1zm0 4c-.553 0-1 .448-1 1.001 0 .552.447 1 1 1s1-.448 1-1c0-.553-.447-1.001-1-1.001z"/><path fill="#2CA4D5" d="M78 57h10c1.657 0 3 1.343 3 3v27c0 1.657-1.343 3-3 3h-10c-1.656 0-3-1.343-3-3v-27c0-1.656 1.344-3 3-3z"/><path fill="#fff" d="M80 70v2h6v-2h-6zm0 5h6v-2h-6v2z"/><path fill="#BF4B3D" d="M50 70h-10c-1.656 0-3-1.343-3-3v2c0 1.657 1.344 3 3 3h10c1.656 0 3-1.343 3-3v-2c0 1.657-1.344 3-3 3z"/><path fill="#BF4B3D" d="M50 88h-10c-1.656 0-3-1.343-3-3v2c0 1.657 1.344 3 3 3h10c1.656 0 3-1.343 3-3v-2c0 1.657-1.344 3-3 3z"/><path fill="#BF4B3D" d="M69 70h-10c-1.656 0-3-1.343-3-3v2c0 1.657 1.344 3 3 3h10c1.657 0 3-1.343 3-3v-2c0 1.657-1.343 3-3 3z"/><path fill="#BF4B3D" d="M69 88h-10c-1.656 0-3-1.343-3-3v2c0 1.657 1.344 3 3 3h10c1.657 0 3-1.343 3-3v-2c0 1.657-1.343 3-3 3z"/><path fill="#238CB6" d="M88 88h-10c-1.656 0-3-1.343-3-3v2c0 1.657 1.344 3 3 3h10c1.657 0 3-1.343 3-3v-2c0 1.657-1.343 3-3 3z"/><path fill="#eee" d="M95 97h-62c-1.656 0-3-1.343-3-3v2c0 1.657 1.344 3 3 3h62c1.657 0 3-1.343 3-3v-2c0 1.657-1.343 3-3 3z"/><rect x="37" y="35" fill="#E1E5E5" width="54" height="2"/></svg>