<svg xmlns="http://www.w3.org/2000/svg" width="128" height="128"><path fill="#45B39C" d="M64 0c35.346 0 64 28.654 64 64 0 35.346-28.653 64-64 64s-64-28.654-64-64c0-35.346 28.654-64 64-64z"/><path fill="#EFC84A" d="M31 28h66c1.658 0 3 1.343 3 3v66c0 1.657-1.342 3-3 3h-66c-1.657 0-3-1.343-3-3v-66c0-1.656 1.344-3 3-3z"/><path fill="#fff" d="M37 34h54c1.658 0 3 1.343 3 3v53c0 1.657-1.342 3-3 3h-54c-1.657 0-3-1.343-3-3v-53c0-1.656 1.344-3 3-3z"/><path fill="#ECECEC" d="M34 62v-25c0-1.657 1.343-3 3-3h54c1.658 0 3 1.343 3 3v25"/><path fill="#D7B442" d="M36 66h56c1.657 0 3 1.344 3 3l3 14c0 1.657-1.342 3-3 3h-62c-1.657 0-3-1.343-3-3l3-14c0-1.656 1.344-3 3-3z"/><path fill="#E6E6E6" d="M36 66c-.772 0-1.468.301-2 .779v19.221h60v-19.221c-.531-.478-1.228-.779-2-.779h-56z"/><path fill="#C8A73B" d="M37 63h54c1.657 0 3 1.343 3 3l3 14c0 1.657-1.342 3-3 3h-60c-1.657 0-3-1.343-3-3l3-14c0-1.656 1.344-3 3-3z"/><path fill="#D4D4D4" d="M91 63h-54c-1.657 0-3 1.343-3 3v17h60v-17c0-1.656-1.343-3-3-3z"/><path fill="#fff" d="M37 62h54c1.657 0 3 1.343 3 3l3 14c0 1.657-1.342 3-3 3h-60c-1.657 0-3-1.343-3-3l3-14c0-1.656 1.344-3 3-3z"/><path fill="#334D5D" d="M61.385 68.072h-9.669c.2-.5.495-.984.885-1.455.39-.47.82-.915 1.29-1.335.47-.42.964-.815 1.485-1.185.52-.37 1.03-.695 1.53-.975.72-.42 1.375-.845 1.965-1.275.589-.43 1.104-.9 1.545-1.41.439-.51.78-1.069 1.02-1.68.24-.609.36-1.284.36-2.025 0-.939-.18-1.759-.54-2.459-.36-.7-.86-1.285-1.5-1.755s-1.39-.82-2.25-1.05-1.79-.345-2.79-.345c-2.62 0-5 .8-7.14 2.4-.28.201-.32.46-.12.78l1.38 2.101c.12.16.25.24.39.24s.29-.05.45-.15c.82-.54 1.615-.935 2.385-1.185.77-.25 1.535-.375 2.295-.375.56 0 1.025.06 1.395.18.37.12.665.27.885.45.22.18.379.39.48.63.1.24.15.48.15.72 0 .28-.041.54-.12.78-.08.24-.225.485-.435.735s-.5.521-.87.81c-.37.29-.845.615-1.425.975-.66.419-1.43.94-2.31 1.56-.88.62-1.73 1.331-2.55 2.13-.88.84-1.575 1.689-2.085 2.55-.51.86-.765 1.66-.765 2.4 0 1.12.235 2.146.705 2.516.47.37 1.145.556 2.025.556h11.949c.22 0 .365-.045.435-.135.07-.091.105-.245.105-.466v-2.651c0-.279-.035-.449-.105-.51-.07-.061-.216-.092-.435-.092zm19.761-6.03c-.4-.8-.951-1.459-1.65-1.98-.7-.52-1.52-.9-2.46-1.14-.94-.24-1.94-.36-3-.36-.32 0-.675.015-1.065.045-.39.03-.779.075-1.17.135-.39.06-.77.125-1.141.195-.369.07-.694.145-.975.225.301-1.42.92-2.505 1.86-3.255s2.16-1.125 3.66-1.125c.499 0 1.005.035 1.515.105s.984.165 1.426.285c.159.04.309.055.449.044.141-.01.25-.135.33-.375l.66-2.351c.1-.317.109-.521.03-.609-.081-.089-.19-.154-.33-.194-.62-.219-1.32-.372-2.101-.461-.779-.089-1.5-.134-2.16-.134-1.739 0-3.239.29-4.5.87-1.26.579-2.305 1.382-3.135 2.411-.83 1.028-1.445 2.237-1.845 3.625-.4 1.388-.601 2.891-.601 4.509 0 1.438.181 2.741.541 3.909.359 1.169.9 2.167 1.619 2.996.721.829 1.625 1.462 2.715 1.901s2.375.66 3.855.66c1.04 0 2.045-.141 3.016-.421.969-.279 1.83-.71 2.58-1.29s1.35-1.31 1.799-2.189c.451-.881.676-1.92.676-3.12.002-1.141-.198-2.111-.598-2.911zm-5.011 5.237c-.668.522-1.514.784-2.534.784-1.277 0-2.288-.425-3.035-1.273s-1.12-2.003-1.12-3.464v-.681c.806-.217 1.537-.38 2.195-.489.658-.108 1.371-.163 2.137-.163 1.119 0 1.959.262 2.52.785.56.523.84 1.249.84 2.177-.001 1.025-.335 1.801-1.003 2.324z"/><path fill="#E27C3F" d="M59 39h10c1.658 0 3 1.344 3 3s-1.342 3-3 3h-10c-1.657 0-3-1.343-3-3s1.344-3 3-3z"/><path fill-rule="evenodd" clip-rule="evenodd" fill="#727272" d="M39.5 58c-.829 0-1.5.671-1.5 1.5v5c0 .829.671 1.5 1.5 1.5s1.5-.671 1.5-1.5v-5c0-.828-.671-1.5-1.5-1.5zm49 0c-.828 0-1.5.671-1.5 1.5v5c0 .829.672 1.5 1.5 1.5.829 0 1.5-.671 1.5-1.5v-5c0-.828-.671-1.5-1.5-1.5z"/><path d="M76.297 62.778c.56.523.84 1.249.84 2.177 0 1.025-.334 1.801-1.002 2.324-.668.522-1.514.784-2.534.784-1.277 0-2.288-.425-3.035-1.273s-1.12-2.003-1.12-3.464v-.681c.806-.217 1.537-.38 2.195-.489.6-.099 1.25-.147 1.938-.156h-8.617l-.016.505c0 1.438.181 2.741.541 3.909.359 1.169.9 2.167 1.619 2.996.721.829 1.625 1.462 2.715 1.901s2.375.66 3.855.66c1.04 0 2.045-.141 3.016-.421.969-.279 1.83-.71 2.58-1.29s1.35-1.31 1.799-2.189c.451-.881.676-1.92.676-3.12 0-1.14-.2-2.11-.6-2.91l-.027-.042h-7.225c1.058.021 1.863.276 2.402.779zm-26.861 9.146h11.949c.22 0 .365-.045.435-.135.07-.091.105-.245.105-.466v-2.651c0-.279-.035-.449-.105-.51-.07-.06-.215-.09-.435-.09h-9.669c.2-.5.495-.984.885-1.455.39-.47.82-.915 1.29-1.335.47-.42.964-.815 1.485-1.185.52-.37 1.03-.695 1.53-.975.634-.37 1.208-.744 1.742-1.122h-6.839c-.773.567-1.526 1.194-2.252 1.902-.88.84-1.575 1.689-2.085 2.55-.51.86-.765 1.66-.765 2.4 0 1.12.235 2.146.705 2.516.469.37 1.144.556 2.024.556z" fill="#4A606E"/><path fill="#D7B442" d="M91 93h-54c-1.657 0-3-1.343-3-3v1c0 1.657 1.343 3 3 3h54c1.658 0 3-1.343 3-3v-1c0 1.657-1.342 3-3 3z"/><path d="M39.5 58c-.829 0-1.5.671-1.5 1.5v4c0 .829.671 1.5 1.5 1.5s1.5-.671 1.5-1.5v-4c0-.828-.671-1.5-1.5-1.5zm49 0c-.828 0-1.5.671-1.5 1.5v4c0 .829.672 1.5 1.5 1.5.829 0 1.5-.671 1.5-1.5v-4c0-.828-.671-1.5-1.5-1.5z" fill="#868686"/></svg>