<svg xmlns="http://www.w3.org/2000/svg" width="128" height="128"><path fill="#45B39C" d="M64 0c35.347 0 64 28.654 64 64 0 35.346-28.653 64-64 64-35.346 0-64-28.654-64-64 0-35.346 28.654-64 64-64z"/><path fill="#E4E7E8" d="M45 41h13v3h-13v-3z"/><path fill="#EFC84A" d="M106 52v32c.028-.061-84.097.006-84 0v-32c-.104.047 83.916-.248 84 0z"/><path fill="#414142" d="M68 40h19c1.657 0 3 1.343 3 3s-1.343 3-3 3h-19c-1.656 0-3-1.343-3-3s1.344-3 3-3z"/><path fill="#E4E7E8" d="M22 84v2c0 1.656 1.344 3 3 3h78c1.657 0 3-1.344 3-3v-2c.02-.006-83.997-.051-84 0zm81-40h-78c-1.656 0-3 1.334-3 2.981v3.988c.003.051 84.02.006 84 0v-3.988c0-1.647-1.343-2.981-3-2.981z"/><polygon fill="#B7B9BA" points="57,41 57,43 56,43 56,41 55,41 55,43 54,43 54,41 53,41 53,43 52,43 52,41 51,41 51,43 50,43 50,41 49,41 49,43 48,43 48,41 47,41 47,43 46,43 46,41 45,41 45,43 45,44 46,44 47,44 48,44 49,44 50,44 51,44 52,44 53,44 54,44 55,44 56,44 57,44 58,44 58,43 58,41"/><path fill="#CED0D0" d="M39.5 45.996c4.697 0 8.504 3.807 8.504 8.504s-3.807 8.503-8.504 8.503-8.504-3.807-8.504-8.503 3.807-8.504 8.504-8.504z"/><path fill="#E4E7E8" d="M28 41h13v3h-13v-3z"/><polygon fill="#B7B9BA" points="40,41 40,43 39,43 39,41 38,41 38,43 37,43 37,41 36,41 36,43 35,43 35,41 34,41 34,43 33,43 33,41 32,41 32,43 31,43 31,41 30,41 30,43 29,43 29,41 28,41 28,43 28,44 29,44 30,44 31,44 32,44 33,44 34,44 35,44 36,44 37,44 38,44 39,44 40,44 41,44 41,43 41,41"/><path fill="#E9ECED" d="M25 44h3c.096.162-.045 45.018 0 45h-3c-1.656 0-3-1.344-3-3v-39c0-1.657 1.344-3 3-3z"/><path fill="#CED0D0" d="M77.5 45c11.874 0 21.5 9.626 21.5 21.5 0 11.875-9.626 21.5-21.5 21.5s-21.5-9.625-21.5-21.5c0-11.874 9.626-21.5 21.5-21.5z"/><path fill="#fff" stroke="#000" stroke-miterlimit="10" d="M39.5 50c2.485 0 4.5 2.014 4.5 4.5 0 2.485-2.015 4.5-4.5 4.5s-4.5-2.015-4.5-4.5c0-2.486 2.015-4.5 4.5-4.5z"/><path fill="#D9B443" d="M61.724 51.929c-3.542 3.832-5.724 8.941-5.724 14.571 0 7.211 3.563 13.578 9.012 17.479 8.928-.004 17.792-.006 24.982-.004 5.445-3.901 9.006-10.266 9.006-17.475 0-5.643-2.191-10.762-5.747-14.598-8.48-.009-20.113.006-31.529.027z"/><path fill="#ADB2B3" d="M22 51v1h84v-1h-84zm0 33h84v-1h-84v1z"/><path d="M61.658 52h31.684c-.313-.342-.631-.679-.966-1h-29.752c-.335.321-.652.658-.966 1zm28.302 32c.449-.32.894-.646 1.315-1h-27.55c.422.354.866.68 1.315 1h24.92z" fill="#9FA3A4"/><path fill="#EFF0F1" d="M77.5 46c11.322 0 20.5 9.178 20.5 20.5s-9.178 20.5-20.5 20.5c-11.321 0-20.5-9.178-20.5-20.5s9.179-20.5 20.5-20.5z"/><path fill="#49565E" d="M77.5 50c9.113 0 16.5 7.387 16.5 16.5s-7.387 16.5-16.5 16.5c-9.112 0-16.5-7.387-16.5-16.5s7.388-16.5 16.5-16.5z"/><path fill="#5D6A71" d="M77.5 52c8.008 0 14.5 6.492 14.5 14.5s-6.492 14.5-14.5 14.5-14.5-6.492-14.5-14.5 6.492-14.5 14.5-14.5z"/><path fill="#3F484E" d="M77.5 56c5.799 0 10.5 4.701 10.5 10.5s-4.701 10.5-10.5 10.5-10.5-4.701-10.5-10.5 4.701-10.5 10.5-10.5z"/><path fill="#fff" d="M74.5 61c1.381 0 2.5 1.119 2.5 2.5s-1.119 2.5-2.5 2.5-2.5-1.119-2.5-2.5 1.119-2.5 2.5-2.5z"/><path fill="#E4E7E8" d="M22 52h-3c-1.656 0-3 1.343-3 3s1.344 3 3 3h3c.038-.014.011-5.969 0-6zm-3 4c-.553 0-1-.447-1-1 0-.553.447-1 1-1s1 .447 1 1c0 .552-.447 1-1 1z"/><path fill="#D9B443" d="M30.996 54.5c0 4.697 3.807 8.503 8.504 8.503s8.504-3.807 8.504-8.503c0-.886-.136-1.74-.388-2.543-6.208.014-11.845.027-16.243.036-.244.793-.377 1.634-.377 2.507z"/><path fill="#B7B9BA" d="M21 52h1v6h-1v-6z"/><path fill="#DBE3E3" d="M109 52h-3c-.011.031-.038 5.986 0 6h3c1.657 0 3-1.343 3-3s-1.343-3-3-3zm0 4c-.552 0-1-.447-1-1 0-.553.448-1 1-1 .553 0 1 .447 1 1 0 .552-.447 1-1 1z"/><path fill="#B7B9BA" d="M106 52h1v6h-1v-6z"/><path fill="#9FA3A4" d="M31.756 51c-.146.324-.279.656-.385 1h16.258c-.105-.344-.238-.676-.385-1h-15.488z"/><path fill="#E5E1E1" d="M39.5 47c4.143 0 7.5 3.358 7.5 7.5s-3.357 7.5-7.5 7.5-7.5-3.358-7.5-7.5 3.357-7.5 7.5-7.5z"/><path fill="#C95140" d="M39.5 48.831c3.131 0 5.669 2.538 5.669 5.669s-2.538 5.669-5.669 5.669-5.669-2.538-5.669-5.669 2.538-5.669 5.669-5.669z"/><path fill="#F2D371" d="M27.992 82.998c.008-7.508.042-22.021.042-30.998-3.784.007-6.051.008-6.034 0v31c-.016.002 2.234 0 5.992-.002z"/></svg>