<svg xmlns="http://www.w3.org/2000/svg" xmlns:xlink="http://www.w3.org/1999/xlink" width="128" height="128"><path fill="#EBEEEE" d="M64 0c35.345 0 64 28.654 64 64 0 35.347-28.654 64-64 64-35.346 0-64-28.653-64-64 0-35.346 28.654-64 64-64z"/><defs><circle id="a" cx="64" cy="64" r="64"/></defs><clipPath id="b"><use xlink:href="#a" overflow="visible"/></clipPath><rect x="60" y="98.625" clip-path="url(#b)" fill="#BCC4C8" width="8" height="29.375"/><path fill="#AAB1B4" d="M60 98.625h8v5h-8v-5z"/><path fill="#EFC84A" d="M64 28c19.882 0 36 16.118 36 36s-16.117 36-36 36-36-16.118-36-36 16.118-36 36-36z"/><path fill="#E2BC45" d="M64 45c12.029 0 21.894 9.235 22.908 21 .057-.66.092-1.326.092-2 0-12.702-10.297-23-23-23s-23 10.298-23 23c0 .674.035 1.34.092 2 1.015-11.765 10.88-21 22.908-21z"/><defs><circle id="c" cx="64" cy="64" r="36"/></defs><clipPath id="d"><use xlink:href="#c" overflow="visible"/></clipPath><path clip-path="url(#d)" fill="#DF5A48" d="M102.287 68.642l-.473.256-.488.236-1 .479c-1.369.591-2.842 1.139-4.4 1.58-1.559.421-3.195.751-4.875.967-1.678.189-3.393.265-5.105.224-1.708-.06-3.404-.25-5.055-.528l-1.219-.251-.605-.129-.592-.153c-.393-.104-.788-.197-1.172-.31l-1.133-.355-.558-.18-.54-.2-1.066-.395c-.68-.295-1.355-.568-1.986-.868l-.922-.454c-.303-.147-.601-.292-.877-.453-.555-.318-1.105-.601-1.593-.908l-1.376-.865-1.137-.797-.489-.345-.415-.323-.657-.516-.407-.319.531.12.823.185.524.116.6.103 1.41.239 1.681.199c.604.072 1.249.093 1.935.144.345.029.695.033 1.057.037l1.113.016c.76.001 1.55-.045 2.379-.075l1.257-.109.647-.059.652-.085 1.34-.187c.451-.072.904-.167 1.367-.253l.698-.135.699-.164 1.425-.348c1.898-.531 3.855-1.196 5.803-2.033 1.938-.853 3.869-1.859 5.744-3.015 1.857-1.174 3.652-2.492 5.346-3.92l.623-.558c-1.379-5.351-3.873-10.283-7.236-14.518l-.158.533-.152.516-.178.511-.371 1.047c-.549 1.386-1.203 2.814-1.994 4.229-.803 1.399-1.727 2.79-2.762 4.131-1.053 1.319-2.213 2.586-3.453 3.768-1.25 1.166-2.584 2.23-3.948 3.201l-1.039.685-.519.337-.527.31c-.351.203-.697.418-1.047.609l-1.053.55-.521.268-.523.24-1.033.475c-.689.272-1.359.558-2.018.791l-.973.331c-.319.11-.632.218-.941.299-.617.168-1.207.357-1.769.485l-1.585.36-1.366.24-.591.102-.521.065-.83.101-.602.071-.034-.026.532-.335.713-.451.453-.289.496-.351 1.166-.827 1.33-1.049c.479-.376.947-.816 1.469-1.266.264-.224.516-.469.773-.721l.799-.776c.537-.537 1.063-1.128 1.629-1.735l.811-.966.416-.499.402-.522.814-1.079c.269-.37.521-.757.788-1.146l.399-.589.378-.61.761-1.253c.967-1.719 1.881-3.572 2.667-5.542.767-1.973 1.421-4.051 1.93-6.192.483-2.144.82-4.345 1.007-6.552l.055-.826c-4.584-2.711-9.789-4.518-15.39-5.157l.265.489.256.472.236.487.479 1.001c.591 1.37 1.139 2.842 1.58 4.4.421 1.559.751 3.195.967 4.875.189 1.678.265 3.393.224 5.105-.06 1.708-.25 3.404-.528 5.056l-.251 1.218-.128.605-.154.592c-.104.392-.197.788-.31 1.172l-.355 1.133-.18.558-.2.54-.395 1.065c-.295.681-.568 1.356-.867 1.987l-.455.922c-.146.303-.292.6-.453.876-.318.556-.601 1.105-.908 1.594l-.865 1.376-.797 1.136-.345.489-.323.416-.516.656-.392.499-.024-.02.138-.609.185-.823.116-.524.103-.599.239-1.411.199-1.681c.072-.604.092-1.248.144-1.935.028-.345.032-.695.037-1.057l.016-1.112c.001-.76-.046-1.551-.075-2.38l-.109-1.257-.059-.646-.086-.653-.187-1.339c-.071-.452-.167-.904-.253-1.367l-.134-.699-.164-.698-.348-1.425c-.531-1.898-1.196-3.855-2.033-5.804-.853-1.937-1.86-3.869-3.015-5.744-1.174-1.857-2.492-3.652-3.92-5.344l-.557-.624c-5.351 1.379-10.285 3.873-14.519 7.236l.533.159.516.151.511.178 1.046.37c1.386.55 2.815 1.204 4.229 1.994 1.4.804 2.791 1.728 4.132 2.763 1.32 1.053 2.585 2.213 3.768 3.452 1.166 1.25 2.229 2.584 3.201 3.948l.685 1.039.336.52.31.526c.204.352.417.697.609 1.048l.55 1.052.268.521.24.524.474 1.032c.272.689.558 1.36.792 2.019l.331.973c.109.318.217.631.298.94.168.617.358 1.207.485 1.769l.361 1.585.24 1.366.102.591.065.522.101.828.07.587-.354-.56-.451-.714-.289-.453-.351-.496-.828-1.166-1.048-1.329c-.376-.479-.817-.948-1.266-1.471-.223-.264-.468-.515-.721-.772l-.776-.798c-.537-.538-1.128-1.064-1.736-1.629l-.966-.812-.499-.417-.522-.4-1.079-.815c-.371-.269-.757-.521-1.146-.788l-.589-.398-.61-.379-1.253-.761c-1.719-.967-3.572-1.881-5.542-2.666-1.973-.767-4.051-1.421-6.193-1.931-2.144-.482-4.345-.82-6.551-1.007l-.788-.052c-2.723 4.58-4.542 9.783-5.193 15.386l.486-.264.472-.256.487-.236 1.001-.479c1.369-.591 2.842-1.139 4.4-1.58 1.559-.421 3.195-.751 4.875-.967 1.678-.189 3.393-.265 5.105-.224 1.708.06 3.404.251 5.055.528l1.219.251.605.129.591.153c.393.104.788.197 1.172.31l1.133.355.558.18.541.2 1.065.395c.681.295 1.357.567 1.987.868l.922.453c.303.148.6.293.876.454.555.318 1.106.601 1.593.908l1.376.865 1.136.797.489.345.416.323.657.516.533.419.001.01-.665-.151-.823-.185-.525-.116-.599-.103-1.411-.239-1.681-.199c-.604-.071-1.248-.093-1.935-.144-.344-.029-.695-.033-1.057-.037l-1.113-.016c-.759-.001-1.55.045-2.379.076l-1.257.108-.647.059-.653.085-1.339.188c-.452.072-.904.167-1.367.253l-.699.134-.699.164-1.424.349c-1.899.531-3.856 1.195-5.804 2.032-1.937.853-3.869 1.86-5.744 3.015-1.857 1.174-3.652 2.492-5.344 3.921l-.646.575c1.375 5.367 3.871 10.316 7.24 14.562l.177-.597.152-.516.178-.511.37-1.047c.55-1.386 1.204-2.814 1.994-4.228.804-1.4 1.728-2.791 2.763-4.132 1.053-1.319 2.212-2.586 3.452-3.768 1.25-1.166 2.584-2.23 3.948-3.201l1.039-.685.519-.336.526-.311c.352-.203.697-.417 1.048-.609l1.052-.55.521-.268.524-.24 1.032-.474c.69-.273 1.361-.559 2.019-.792l.973-.331c.318-.109.631-.218.94-.299.618-.168 1.207-.357 1.769-.484l1.585-.361 1.366-.239.59-.103.522-.065.829-.1.68-.082.001.008-.576.363-.713.451-.453.289-.497.351-1.166.828-1.33 1.048c-.479.377-.948.816-1.47 1.267-.264.223-.515.468-.773.721l-.798.775c-.538.537-1.064 1.128-1.629 1.736l-.811.966-.417.499-.401.521-.814 1.079c-.269.37-.521.758-.788 1.146l-.399.59-.378.609-.761 1.253c-.967 1.719-1.881 3.572-2.667 5.542-.767 1.973-1.42 4.051-1.93 6.192-.483 2.145-.82 4.346-1.007 6.552l-.058.906c4.597 2.719 9.82 4.527 15.44 5.162l-.311-.574-.257-.472-.236-.487-.479-1.001c-.591-1.369-1.139-2.842-1.58-4.4-.421-1.559-.751-3.195-.967-4.875-.189-1.678-.264-3.393-.224-5.104.06-1.709.25-3.404.529-5.056l.25-1.219.129-.605.153-.591c.104-.393.198-.788.31-1.172l.355-1.133.18-.558.2-.541.395-1.065c.295-.68.567-1.356.868-1.986l.454-.922c.148-.304.292-.601.454-.877.318-.556.6-1.105.908-1.593l.866-1.377.796-1.135.345-.49.323-.415.516-.657.419-.533.003.026-.144.637-.185.823-.116.524-.104.599-.239 1.411-.199 1.681c-.072.604-.093 1.248-.145 1.935-.029.345-.033.695-.037 1.057l-.016 1.113c0 .759.045 1.55.076 2.379l.109 1.257.058.647.085.652.188 1.339c.072.452.167.904.252 1.367l.135.699.164.699.348 1.424c.531 1.899 1.197 3.855 2.033 5.804.854 1.937 1.86 3.869 3.015 5.744 1.175 1.857 2.492 3.652 3.921 5.344l.612.687c5.358-1.391 10.297-3.899 14.53-7.278l-.601-.179-.516-.152-.511-.178-1.047-.37c-1.387-.55-2.815-1.204-4.229-1.994-1.4-.804-2.791-1.728-4.131-2.763-1.32-1.053-2.586-2.213-3.769-3.452-1.166-1.25-2.229-2.584-3.2-3.948l-.686-1.039-.336-.52-.311-.526c-.203-.351-.418-.697-.609-1.048l-.549-1.052-.268-.521-.241-.524-.474-1.031c-.273-.69-.559-1.361-.792-2.02l-.331-.973c-.109-.318-.217-.631-.299-.94-.168-.617-.357-1.207-.484-1.769l-.361-1.585-.24-1.366-.102-.591-.065-.522-.1-.828-.073-.613.049.012.313.496.451.713.289.454.351.496.828 1.166 1.049 1.329c.376.479.816.948 1.266 1.471.223.264.469.515.721.772l.775.798c.537.538 1.129 1.064 1.736 1.629l.966.812.499.416.521.402 1.08.814c.369.269.757.521 1.145.788l.59.398.609.379 1.254.761c1.719.967 3.572 1.881 5.541 2.667 1.974.767 4.051 1.42 6.193 1.93 2.145.482 4.346.82 6.551 1.007l.867.057c2.699-4.587 4.492-9.793 5.121-15.394l-.482.268z"/><path clip-path="url(#d)" fill="#DF5A48" d="M64.007 63.955l.005-.021.016.026-.018.021-.003-.026z"/><path clip-path="url(#d)" fill="#DF5A48" d="M64.012 63.997v-.008l.025-.016.012.02-.037.004z"/><defs><path id="e" d="M64 45c12.029 0 21.894 9.235 22.908 21 .057-.66.092-1.326.092-2 0-12.702-10.297-23-23-23s-23 10.298-23 23c0 .674.035 1.34.092 2 1.015-11.765 10.88-21 22.908-21z"/></defs><clipPath id="f"><use xlink:href="#e" overflow="visible"/></clipPath><path clip-path="url(#f)" fill="#D25545" d="M102.287 68.642l-.473.256-.488.236-1 .479c-1.369.591-2.842 1.139-4.4 1.58-1.559.421-3.195.751-4.875.967-1.678.189-3.393.265-5.105.224-1.708-.06-3.404-.25-5.055-.528l-1.219-.251-.605-.129-.592-.153c-.393-.104-.788-.197-1.172-.31l-1.133-.355-.558-.18-.54-.2-1.066-.395c-.68-.295-1.355-.568-1.986-.868l-.922-.454c-.303-.147-.601-.292-.877-.453-.555-.318-1.105-.601-1.593-.908l-1.376-.865-1.137-.797-.489-.345-.415-.323-.657-.516-.407-.319.531.12.823.185.524.116.6.103 1.41.239 1.681.199c.604.072 1.249.093 1.935.144.345.029.695.033 1.057.037l1.113.016c.76.001 1.55-.045 2.379-.075l1.257-.109.647-.059.652-.085 1.34-.187c.451-.072.904-.167 1.367-.253l.698-.135.699-.164 1.425-.348c1.898-.531 3.855-1.196 5.803-2.033 1.938-.853 3.869-1.859 5.744-3.015 1.857-1.174 3.652-2.492 5.346-3.92l.623-.558c-1.379-5.351-3.873-10.283-7.236-14.518l-.158.533-.152.516-.178.511-.371 1.047c-.549 1.386-1.203 2.814-1.994 4.229-.803 1.399-1.727 2.79-2.762 4.131-1.053 1.319-2.213 2.586-3.453 3.768-1.25 1.166-2.584 2.23-3.948 3.201l-1.039.685-.519.337-.527.31c-.351.203-.697.418-1.047.609l-1.053.55-.521.268-.523.24-1.033.475c-.689.272-1.359.558-2.018.791l-.973.331c-.319.11-.632.218-.941.299-.617.168-1.207.357-1.769.485l-1.585.36-1.366.24-.591.102-.521.065-.83.101-.602.071-.034-.026.532-.335.713-.451.453-.289.496-.351 1.166-.827 1.33-1.049c.479-.376.947-.816 1.469-1.266.264-.224.516-.469.773-.721l.799-.776c.537-.537 1.063-1.128 1.629-1.735l.811-.966.416-.499.402-.522.814-1.079c.269-.37.521-.757.788-1.146l.399-.589.378-.61.761-1.253c.967-1.719 1.881-3.572 2.667-5.542.767-1.973 1.421-4.051 1.93-6.192.483-2.144.82-4.345 1.007-6.552l.055-.826c-4.584-2.711-9.789-4.518-15.39-5.157l.265.489.256.472.236.487.479 1.001c.591 1.37 1.139 2.842 1.58 4.4.421 1.559.751 3.195.967 4.875.189 1.678.265 3.393.224 5.105-.06 1.708-.25 3.404-.528 5.056l-.251 1.218-.128.605-.154.592c-.104.392-.197.788-.31 1.172l-.355 1.133-.18.558-.2.54-.395 1.065c-.295.681-.568 1.356-.867 1.987l-.455.922c-.146.303-.292.6-.453.876-.318.556-.601 1.105-.908 1.594l-.865 1.376-.797 1.136-.345.489-.323.416-.516.656-.392.499-.024-.02.138-.609.185-.823.116-.524.103-.599.239-1.411.199-1.681c.072-.604.092-1.248.144-1.935.028-.345.032-.695.037-1.057l.016-1.112c.001-.76-.046-1.551-.075-2.38l-.109-1.257-.059-.646-.086-.653-.187-1.339c-.071-.452-.167-.904-.253-1.367l-.134-.699-.164-.698-.348-1.425c-.531-1.898-1.196-3.855-2.033-5.804-.853-1.937-1.86-3.869-3.015-5.744-1.174-1.857-2.492-3.652-3.92-5.344l-.557-.624c-5.351 1.379-10.285 3.873-14.519 7.236l.533.159.516.151.511.178 1.046.37c1.386.55 2.815 1.204 4.229 1.994 1.4.804 2.791 1.728 4.132 2.763 1.32 1.053 2.585 2.213 3.768 3.452 1.166 1.25 2.229 2.584 3.201 3.948l.685 1.039.336.52.31.526c.204.352.417.697.609 1.048l.55 1.052.268.521.24.524.474 1.032c.272.689.558 1.36.792 2.019l.331.973c.109.318.217.631.298.94.168.617.358 1.207.485 1.769l.361 1.585.24 1.366.102.591.065.522.101.828.07.587-.354-.56-.451-.714-.289-.453-.351-.496-.828-1.166-1.048-1.329c-.376-.479-.817-.948-1.266-1.471-.223-.264-.468-.515-.721-.772l-.776-.798c-.537-.538-1.128-1.064-1.736-1.629l-.966-.812-.499-.417-.522-.4-1.079-.815c-.371-.269-.757-.521-1.146-.788l-.589-.398-.61-.379-1.253-.761c-1.719-.967-3.572-1.881-5.542-2.666-1.973-.767-4.051-1.421-6.193-1.931-2.144-.482-4.345-.82-6.551-1.007l-.788-.052c-2.723 4.58-4.542 9.783-5.193 15.386l.486-.264.472-.256.487-.236 1.001-.479c1.369-.591 2.842-1.139 4.4-1.58 1.559-.421 3.195-.751 4.875-.967 1.678-.189 3.393-.265 5.105-.224 1.708.06 3.404.251 5.055.528l1.219.251.605.129.591.153c.393.104.788.197 1.172.31l1.133.355.558.18.541.2 1.065.395c.681.295 1.357.567 1.987.868l.922.453c.303.148.6.293.876.454.555.318 1.106.601 1.593.908l1.376.865 1.136.797.489.345.416.323.657.516.533.419.001.01-.665-.151-.823-.185-.525-.116-.599-.103-1.411-.239-1.681-.199c-.604-.071-1.248-.093-1.935-.144-.344-.029-.695-.033-1.057-.037l-1.113-.016c-.759-.001-1.55.045-2.379.076l-1.257.108-.647.059-.653.085-1.339.188c-.452.072-.904.167-1.367.253l-.699.134-.699.164-1.424.349c-1.899.531-3.856 1.195-5.804 2.032-1.937.853-3.869 1.86-5.744 3.015-1.857 1.174-3.652 2.492-5.344 3.921l-.646.575c1.375 5.367 3.871 10.316 7.24 14.562l.177-.597.152-.516.178-.511.37-1.047c.55-1.386 1.204-2.814 1.994-4.228.804-1.4 1.728-2.791 2.763-4.132 1.053-1.319 2.212-2.586 3.452-3.768 1.25-1.166 2.584-2.23 3.948-3.201l1.039-.685.519-.336.526-.311c.352-.203.697-.417 1.048-.609l1.052-.55.521-.268.524-.24 1.032-.474c.69-.273 1.361-.559 2.019-.792l.973-.331c.318-.109.631-.218.94-.299.618-.168 1.207-.357 1.769-.484l1.585-.361 1.366-.239.59-.103.522-.065.829-.1.68-.082.001.008-.576.363-.713.451-.453.289-.497.351-1.166.828-1.33 1.048c-.479.377-.948.816-1.47 1.267-.264.223-.515.468-.773.721l-.798.775c-.538.537-1.064 1.128-1.629 1.736l-.811.966-.417.499-.401.521-.814 1.079c-.269.37-.521.758-.788 1.146l-.399.59-.378.609-.761 1.253c-.967 1.719-1.881 3.572-2.667 5.542-.767 1.973-1.42 4.051-1.93 6.192-.483 2.145-.82 4.346-1.007 6.552l-.058.906c4.597 2.719 9.82 4.527 15.44 5.162l-.311-.574-.257-.472-.236-.487-.479-1.001c-.591-1.369-1.139-2.842-1.58-4.4-.421-1.559-.751-3.195-.967-4.875-.189-1.678-.264-3.393-.224-5.104.06-1.709.25-3.404.529-5.056l.25-1.219.129-.605.153-.591c.104-.393.198-.788.31-1.172l.355-1.133.18-.558.2-.541.395-1.065c.295-.68.567-1.356.868-1.986l.454-.922c.148-.304.292-.601.454-.877.318-.556.6-1.105.908-1.593l.866-1.377.796-1.135.345-.49.323-.415.516-.657.419-.533.003.026-.144.637-.185.823-.116.524-.104.599-.239 1.411-.199 1.681c-.072.604-.093 1.248-.145 1.935-.029.345-.033.695-.037 1.057l-.016 1.113c0 .759.045 1.55.076 2.379l.109 1.257.058.647.085.652.188 1.339c.072.452.167.904.252 1.367l.135.699.164.699.348 1.424c.531 1.899 1.197 3.855 2.033 5.804.854 1.937 1.86 3.869 3.015 5.744 1.175 1.857 2.492 3.652 3.921 5.344l.612.687c5.358-1.391 10.297-3.899 14.53-7.278l-.601-.179-.516-.152-.511-.178-1.047-.37c-1.387-.55-2.815-1.204-4.229-1.994-1.4-.804-2.791-1.728-4.131-2.763-1.32-1.053-2.586-2.213-3.769-3.452-1.166-1.25-2.229-2.584-3.2-3.948l-.686-1.039-.336-.52-.311-.526c-.203-.351-.418-.697-.609-1.048l-.549-1.052-.268-.521-.241-.524-.474-1.031c-.273-.69-.559-1.361-.792-2.02l-.331-.973c-.109-.318-.217-.631-.299-.94-.168-.617-.357-1.207-.484-1.769l-.361-1.585-.24-1.366-.102-.591-.065-.522-.1-.828-.073-.613.049.012.313.496.451.713.289.454.351.496.828 1.166 1.049 1.329c.376.479.816.948 1.266 1.471.223.264.469.515.721.772l.775.798c.537.538 1.129 1.064 1.736 1.629l.966.812.499.416.521.402 1.08.814c.369.269.757.521 1.145.788l.59.398.609.379 1.254.761c1.719.967 3.572 1.881 5.541 2.667 1.974.767 4.051 1.42 6.193 1.93 2.145.482 4.346.82 6.551 1.007l.867.057c2.699-4.587 4.492-9.793 5.121-15.394l-.482.268z"/><path clip-path="url(#f)" fill="#DF5A48" d="M64.007 63.955l.005-.021.016.026-.018.021-.003-.026z"/><path clip-path="url(#f)" fill="#DF5A48" d="M64.012 63.997v-.008l.025-.016.012.02-.037.004z"/></svg>