<svg xmlns="http://www.w3.org/2000/svg" width="128" height="128"><path fill="#EFC84A" d="M64 0c35.346 0 64 28.654 64 64 0 35.347-28.654 64-64 64-35.346 0-64-28.653-64-64 0-35.346 28.654-64 64-64z"/><path fill="#1C3C50" d="M47 84h-5c-1.104 0-2 .896-2 2v6c0 1.104.896 2 2 2h5c1.104 0 2-.896 2-2v-6c0-1.104-.896-2-2-2zm39 0h-5c-1.104 0-2 .896-2 2v6c0 1.104.896 2 2 2h5c1.104 0 2-.896 2-2v-6c0-1.104-.896-2-2-2z"/><path fill="#23485F" d="M26 89v8c0 1.105.896 2 2 2h15c1.104 0 2-.895 2-2v-8c-.005.021-18.981-.003-19 0zm57 0v8c0 1.105.896 2 2 2h15c1.104 0 2-.895 2-2v-8c-.019-.003-18.994.021-19 0z"/><path fill="#1B3D51" d="M28.917 99h3v-10h-3v10zm5 0h3v-10h-3v10zm5.166 0h2.833v-10h-2.833v10zm57.001-10v10h3v-10h-3zm-5 10h3v-10h-3v10zm-5 0h2.833v-10h-2.833v10z"/><path fill="#C03A2B" d="M97 32c0-1.656-1.344-3-3-3h-60c-1.657 0-3 1.344-3 3v23h66v-23zm6 29h-78c-1.104 0-2 .896-2 2v20h82v-20c0-1.104-.896-2-2-2z"/><path fill="#fff" d="M37 33h54c1.104 0 2 .896 2 2v19c0 1.105-.896 2-2 2h-54c-1.104 0-2-.895-2-2v-19c0-1.104.896-2 2-2z"/><path fill="#DADADA" d="M35 52h58v3h-58v-3z"/><path fill="#E74C3C" d="M97 55h-66l-8 7h82l-8-7z"/><path fill="#BDC3C6" d="M21 83h86c1.104 0 2 .896 2 2v2c0 1.104-.896 2-2 2h-86c-1.104 0-2-.896-2-2v-2c0-1.104.896-2 2-2z"/><path fill="#fff" d="M42 66h-14c-1.104 0-2 .896-2 2v9c0 1.104.896 2 2 2h14c1.104 0 2-.896 2-2v-9c0-1.104-.896-2-2-2zm57 0h-14c-1.104 0-2 .896-2 2v9c0 1.104.896 2 2 2h14c1.104 0 2-.896 2-2v-9c0-1.104-.896-2-2-2z"/><path fill="#F39D12" d="M39 69h-8c-1.104 0-2 .896-2 2v3c0 1.105.896 2 2 2h8c1.104 0 2-.895 2-2v-3c0-1.104-.896-2-2-2zm57 0h-8c-1.104 0-2 .896-2 2v3c0 1.105.896 2 2 2h8c1.104 0 2-.895 2-2v-3c0-1.104-.896-2-2-2z"/><path fill="#ECF0F1" d="M78.5 71h-30c-.829 0-1.5.672-1.5 1.5s.671 1.5 1.5 1.5h30c.828 0 1.5-.672 1.5-1.5s-.672-1.5-1.5-1.5zm0 5h-30c-.829 0-1.5.672-1.5 1.5s.671 1.5 1.5 1.5h30c.828 0 1.5-.672 1.5-1.5s-.672-1.5-1.5-1.5zm-30-7h30c.828 0 1.5-.672 1.5-1.5s-.672-1.5-1.5-1.5h-30c-.829 0-1.5.672-1.5 1.5s.671 1.5 1.5 1.5z"/><path fill="#F0F0F0" d="M64 33h-27c-1.104 0-2 .896-2 2v17h29v-19z"/><rect x="26" y="89" fill="#203F54" width="19" height="2.334"/><g fill="#183648"><rect x="39.083" y="89" width="2.833" height="2.334"/><rect x="33.917" y="89" width="3" height="2.334"/><rect x="28.917" y="89" width="3" height="2.334"/></g><rect x="83" y="89" fill="#203F54" width="19" height="2.334"/><g fill="#183648"><rect x="96.084" y="89" width="3" height="2.334"/><rect x="86.084" y="89" width="2.833" height="2.334"/><rect x="91.084" y="89" width="3" height="2.334"/></g></svg>