<svg xmlns="http://www.w3.org/2000/svg" xmlns:xlink="http://www.w3.org/1999/xlink" width="128" height="128"><path fill="#E27C3F" d="M64 0c35.346 0 64 28.654 64 64 0 35.347-28.654 64-64 64s-64-28.653-64-64c0-35.346 28.654-64 64-64z"/><defs><path id="a" d="M64 0c35.346 0 64 28.654 64 64 0 35.347-28.654 64-64 64s-64-28.653-64-64c0-35.346 28.654-64 64-64z"/></defs><clipPath id="b"><use xlink:href="#a" overflow="visible"/></clipPath><g clip-path="url(#b)"><path fill="#334D5D" d="M85.895 85.499c5.023-5.364 8.105-12.57 8.105-20.499 0-6.663-2.176-12.816-5.851-17.795l-8.149-17.205-3.633 7.669c-3.772-1.709-7.956-2.669-12.367-2.669s-8.595.96-12.367 2.669l-3.633-7.669-8.149 17.205c-3.675 4.979-5.851 11.132-5.851 17.795 0 7.929 3.082 15.135 8.105 20.499-9.158 6.098-15.105 15.919-15.105 27.001 0 18.502 16.565 33.5 37 33.5s37-14.998 37-33.5c0-11.082-5.947-20.903-15.105-27.001z"/><path fill="#4A606E" d="M64 61c-8.284 0-15 8.954-15 20 0 4.212.981 8.114 2.649 11.338 3.768 1.705 7.947 2.662 12.351 2.662s8.583-.957 12.351-2.662c1.668-3.224 2.649-7.126 2.649-11.338 0-11.046-6.716-20-15-20z"/><path fill="#fff" d="M73.5 48c-3.037 0-5.5 2.463-5.5 5.5 0 3.038 2.463 5.5 5.5 5.5s5.5-2.462 5.5-5.5c0-3.037-2.463-5.5-5.5-5.5zm-19 0c-3.037 0-5.5 2.463-5.5 5.5 0 3.038 2.463 5.5 5.5 5.5s5.5-2.462 5.5-5.5c0-3.037-2.463-5.5-5.5-5.5z"/><path fill="#334D5D" d="M54.5 51c-1.381 0-2.5 1.119-2.5 2.5s1.119 2.5 2.5 2.5 2.5-1.119 2.5-2.5-1.119-2.5-2.5-2.5zm19 0c-1.381 0-2.5 1.119-2.5 2.5s1.119 2.5 2.5 2.5 2.5-1.119 2.5-2.5-1.119-2.5-2.5-2.5z"/><path fill="#83919A" d="M62 69h4c1.657 0 3 .344 3 2 0 0-1.416 5-4 5h-2c-2.584 0-4-5-4-5 0-1.656 1.343-2 3-2z"/><path fill="#58707E" d="M83 74h-9v1h9v-1zm-8 3v1h9v-1h-9zm-1 4h8v-1h-8v1zm-29-6h9v-1h-9v1zm8 2h-9v1h9v-1zm-7 4h8v-1h-8v1z"/><path fill="#31414C" d="M64.047 86.238c-2.789 0-4.774-1.335-4.897-1.42-.683-.47-.854-1.403-.385-2.086.469-.681 1.397-.852 2.078-.391.136.091 3.056 1.979 6.378-.041.706-.428 1.63-.205 2.062.503.43.708.205 1.631-.503 2.062-1.692 1.029-3.317 1.373-4.733 1.373z"/><path fill="#233744" d="M85.896 85.5c-5.471 5.846-13.255 9.5-21.896 9.5s-16.425-3.654-21.896-9.5c-.371.247-.735.504-1.096.764 5.503 6.561 13.759 10.736 22.992 10.736s17.489-4.175 22.992-10.736c-.36-.26-.724-.517-1.096-.764z"/></g></svg>