<?xml version="1.0" encoding="utf-8"?>
<!-- Generator: Adobe Illustrator 16.2.1, SVG Export Plug-In . SVG Version: 6.00 Build 0)  -->
<!DOCTYPE svg PUBLIC "-//W3C//DTD SVG 1.1//EN" "http://www.w3.org/Graphics/SVG/1.1/DTD/svg11.dtd">
<svg version="1.1" id="Слой_1" xmlns="http://www.w3.org/2000/svg" xmlns:xlink="http://www.w3.org/1999/xlink" x="0px" y="0px"
	 width="128px" height="128px" viewBox="0 0 128 128" enable-background="new 0 0 128 128" xml:space="preserve">
<path fill="#45B39C" d="M64,0.001c35.346,0,64,28.653,64,63.999c0,35.348-28.654,64-64,64C28.654,128,0,99.348,0,64
	C0,28.654,28.654,0.001,64,0.001z"/>
<path fill="#334D5D" d="M73.417,52.012L47.986,63.553l20.597,45.437l11.088-9.414l14.343-2.126L73.417,52.012z"/>
<path fill="#2D4453" d="M73.417,52.012L47.986,63.553l12.722,28.064c1.113-0.623,2.232-1.221,3.292-1.221
	c2.398,0,5.1,3.062,7.344,2.539c2.316-0.539,3.453-4.511,5.543-5.543c2.125-1.05,5.864,0.506,7.689-0.986
	c1.365-1.117,1.354-3.666,1.861-5.67L73.417,52.012z"/>
<path fill="#4A606E" d="M54.576,52.449l25.5,11.565L59.424,109.55l-11.118-9.435l-14.382-2.131L54.576,52.449z"/>
<path fill="#445966" d="M54.576,52.449L41.625,81.006c0.446,1.958,0.493,4.332,1.799,5.4c1.825,1.492,5.564-0.062,7.688,0.986
	c2.091,1.032,3.227,5.004,5.544,5.543c2.244,0.521,4.945-2.539,7.344-2.539c1.127,0,2.32,0.676,3.504,1.338l12.572-27.72
	L54.576,52.449z"/>
<path fill="#EFC84A" d="M97,57.991c0,2.455-3.529,4.472-4.04,6.77c-0.526,2.372,1.786,5.753,0.778,7.895
	c-1.025,2.175-5.061,2.426-6.518,4.294c-1.466,1.878-0.812,5.958-2.646,7.458c-1.825,1.491-5.563-0.062-7.688,0.985
	c-2.091,1.033-3.228,5.006-5.544,5.545c-2.243,0.521-4.944-2.541-7.344-2.541c-2.399,0-5.1,3.062-7.344,2.541
	c-2.317-0.539-3.453-4.512-5.544-5.545c-2.125-1.05-5.863,0.506-7.688-0.985c-1.834-1.5-1.181-5.58-2.645-7.458
	c-1.458-1.869-5.491-2.119-6.517-4.295c-1.008-2.141,1.304-5.521,0.778-7.894c-0.51-2.298-4.04-4.313-4.04-6.77
	s3.529-4.472,4.04-6.77c0.526-2.372-1.786-5.753-0.778-7.894c1.025-2.176,5.06-2.426,6.517-4.294
	c1.464-1.878,0.811-5.959,2.645-7.458c1.825-1.492,5.563,0.062,7.688-0.986c2.09-1.033,3.227-5.005,5.543-5.544
	c2.244-0.522,4.945,2.54,7.344,2.54c2.398,0,5.1-3.062,7.344-2.54c2.316,0.539,3.453,4.511,5.545,5.544
	c2.123,1.049,5.862-0.506,7.688,0.986c1.834,1.5,1.181,5.58,2.645,7.458c1.459,1.868,5.492,2.119,6.518,4.294
	c1.009,2.141-1.305,5.521-0.777,7.894C93.471,53.52,97,55.536,97,57.991z"/>
<g>
	<g>
		<path fill="#D7B442" d="M64,45c-7.18,0-13,5.82-13,13c0,7.18,5.82,13,13,13c7.18,0,13-5.82,13-13C77,50.82,71.18,45,64,45z M64,64
			c-3.313,0-6-2.687-6-6s2.687-6,6-6c3.312,0,6,2.687,6,6S67.312,64,64,64z"/>
	</g>
</g>
<g>
	<g>
		<path fill="#D7B442" d="M64,34c-13.255,0-24,10.745-24,24s10.745,24,24,24s24-10.745,24-24S77.255,34,64,34z M64,78
			c-11.046,0-20-8.954-20-20s8.954-20,20-20s20,8.954,20,20S75.046,78,64,78z"/>
	</g>
</g>
</svg>
