<svg xmlns="http://www.w3.org/2000/svg" width="128" height="128"><path fill="#45B39C" d="M64 0c35.346 0 64 28.654 64 64 0 35.347-28.654 64-64 64s-64-28.653-64-64c0-35.346 28.654-64 64-64z"/><path fill="#EBEEEE" d="M86.062 55.832v-5.924c.579-.207.995-.756.995-1.408 0-.828-.668-1.5-1.492-1.5h-9.95c-.824 0-1.492.672-1.492 1.5 0 .652.416 1.201.994 1.408v5.937c-3.117.976-5.884 2.749-8.046 5.1-.083-.014 12.777 30.95 12.864 31.042l.656.013c10.167 0 18.407-8.282 18.407-18.5 0-8.302-5.44-15.326-12.936-17.668z"/><path fill="#334D5D" d="M68.064 63.967c2.84-3.56 7.528-5.967 12.436-5.967 8.561 0 15.5 6.939 15.5 15.5s-6.939 15.5-15.5 15.5c-.635 0-1.573-.038-2.188-.112"/><path fill="#4D6471" d="M86 75c-1.656 0-3 1.344-3 3 0 1.657 1.344 3 3 3 1.657 0 3-1.343 3-3 0-1.656-1.343-3-3-3zm4-6c-1.104 0-2 .896-2 2 0 1.105.896 2 2 2s2-.895 2-2c0-1.104-.896-2-2-2z"/><path fill="#ECF0F0" d="M63 50.971v-8.971c0-.363-.074-.707-.193-1.031 1.234-.153 2.193-1.193 2.193-2.469 0-1.381-1.119-2.5-2.5-2.5h-15c-1.381 0-2.5 1.119-2.5 2.5 0 1.276.959 2.316 2.193 2.469-.119.324-.193.668-.193 1.031v8.995l-19 46.005c-.582 1.584 1.344 3 3 3h48c1.657 0 3.583-1.479 3-3l-19-46.029z"/><path fill="#E45136" d="M66.29 67.07c4.99 12.328 11.71 27.93 11.71 27.93.583 1.459-.343 2-2 2h-42c-1.656 0-2.478-.457-2-2 0 0 6.381-15.764 11.323-27.976 6.385-5.554 12.409 2.041 22.967.046z"/><path fill="#F36A51" d="M52.5 78c-3.037 0-5.5 2.463-5.5 5.5 0 3.038 2.463 5.5 5.5 5.5 3.038 0 5.5-2.462 5.5-5.5 0-3.037-2.462-5.5-5.5-5.5zm10.5-3.5c0-1.381-1.119-2.5-2.5-2.5s-2.5 1.119-2.5 2.5 1.119 2.5 2.5 2.5 2.5-1.119 2.5-2.5zm3 9.5c-2.209 0-4 1.791-4 4 0 2.21 1.791 4 4 4s4-1.79 4-4c0-2.209-1.791-4-4-4z"/><path fill="#fff" d="M57.5 28c-1.381 0-2.5 1.119-2.5 2.5s1.119 2.5 2.5 2.5 2.5-1.119 2.5-2.5-1.119-2.5-2.5-2.5zm-7-7c-1.933 0-3.5 1.567-3.5 3.5 0 1.934 1.567 3.5 3.5 3.5 1.934 0 3.5-1.566 3.5-3.5 0-1.933-1.566-3.5-3.5-3.5zm0 5c-.828 0-1.5-.672-1.5-1.5s.672-1.5 1.5-1.5 1.5.672 1.5 1.5-.672 1.5-1.5 1.5zm32.5 8c-1.656 0-3 1.344-3 3 0 1.657 1.344 3 3 3 1.657 0 3-1.343 3-3 0-1.656-1.343-3-3-3zm0 4c-.552 0-1-.447-1-1 0-.552.448-1 1-1 .553 0 1 .448 1 1 0 .553-.447 1-1 1zm-4.5 3c-.828 0-1.5.672-1.5 1.5s.672 1.5 1.5 1.5 1.5-.672 1.5-1.5-.672-1.5-1.5-1.5z"/><path fill="#BDBFBF" d="M47 42h16c0-.352-.072-.685-.185-1h-15.63c-.113.315-.185.648-.185 1z"/><rect x="75.117" y="49.908" fill="#BDBFBF" width="10.945" height="1"/></svg>