<svg xmlns="http://www.w3.org/2000/svg" width="128" height="128"><path fill="#EBEEEE" d="M64 0c35.346 0 64 28.654 64 64 0 35.346-28.654 64-64 64-35.346 0-64-28.654-64-64 0-35.346 28.654-64 64-64z"/><path fill="#334D5D" d="M104 42v48c0 1.657-1.343 3-3 3h-74c-1.657 0-3-1.343-3-3v-48c-.018-.002 79.98.008 80 0z"/><path fill="#fff" d="M104 44v-6c0-1.656-1.343-3-3-3h-74c-1.657 0-3 1.344-3 3v6c-.018.002 79.98-.008 80 0z"/><path fill="#fff" d="M24 45h80v9h-80v-9z"/><path fill="#74848F" d="M34 63v2h60v-2h-60zm0 11h18v7h-18v2h60v-2h-18v-7h18v-2h-60v2zm20 0h20v7h-20v-7z"/><path fill="#74848F" d="M34 63v2h60v-2h-60zm0 11h18v7h-18v2h60v-2h-18v-7h18v-2h-60v2zm20 0h20v7h-20v-7z"/><g fill="#203D4D"><polygon points="32.929,54 47.071,54 56.071,45 41.929,45"/><polygon points="80.071,45 65.929,45 56.929,54 71.071,54"/><polygon points="24,53.072 32.071,45 24,45"/><polygon points="104,45.072 104,45 89.929,45 80.93,54 95.071,54"/></g><path d="M104 43.949l-8.964-8.949h-14.134l9.013 8.997c8.367 0 14.079.001 14.085.003v-.051zm-79.525-7.557c-.297.465-.475 1.015-.475 1.608v6h8.097l-7.622-7.608zm46.576-1.392h-14.133l9.013 8.998 14.133-.001-9.013-8.997zm-29.103 9c4.322 0 9.139 0 14.132-.001l-9.014-8.999h-14.133l9.015 9z" fill="#203D4D"/></svg>