<svg xmlns="http://www.w3.org/2000/svg" width="128" height="128"><path fill="#DF5A48" d="M64 0c35.346 0 64 28.654 64 64s-28.654 64-64 64-64-28.654-64-64 28.654-64 64-64z"/><path fill="#ECF0F0" d="M64 8.726c30.527 0 55.275 24.748 55.275 55.275 0 30.527-24.748 55.275-55.275 55.275s-55.275-24.748-55.275-55.275c0-30.527 24.748-55.275 55.275-55.275z"/><path fill="#334D5D" d="M105.682 62.032h-38.811c-.115-.104-.229-.204-.357-.29l-18.864-18.832-.08.081c-.59-.609-1.412-.99-2.328-.99-1.789 0-3.24 1.448-3.24 3.235 0 .913.383 1.734.992 2.323l-.084.084 18.871 18.843c.248.367.566.686.936.933l.137.137.041-.04c.508.299 1.094.483 1.727.483 1.371 0 2.551-.812 3.096-1.976h37.971c1.348 0 2.311-.65 2.311-1.997-.006-1.341-.973-1.994-2.318-1.994z"/><path fill="#BD3E25" d="M79.504 46.002c-1.381 0-2.498 1.123-2.498 2.508 0 .225.039.438.094.646l-36.02 37.065c-.477-.167-1.01-.246-1.582-.246-1.934 0-3.5 1.571-3.5 3.513 0 1.938 1.566 3.512 3.5 3.512 1.932 0 3.498-1.573 3.498-3.512 0-.823-.152-1.45-.402-1.95l35.766-36.81c.344.18.73.291 1.146.291 1.381 0 2.5-1.124 2.5-2.508-.004-1.386-1.123-2.509-2.502-2.509z"/><path fill="#2B414F" d="M63.994 58.003c3.316 0 6.006 2.688 6.006 6.005 0 3.317-2.688 6.005-6.006 6.005-3.316 0-6.004-2.688-6.004-6.005 0-3.317 2.69-6.005 6.004-6.005z"/><path fill="#fff" d="M64.035 60.992c1.68 0 2.979 1.347 2.979 3.008s-1.299 3.009-2.979 3.009-3.041-1.347-3.041-3.009 1.361-3.008 3.041-3.008z"/></svg>