<svg xmlns="http://www.w3.org/2000/svg" width="128" height="128"><path fill="#E27C3F" d="M64 0c35.346 0 64 28.654 64 64 0 35.347-28.654 64-64 64s-64-28.653-64-64c0-35.346 28.653-64 64-64z"/><path fill="#D9D9D9" d="M95.85 60.74c.684-1.87 1.075-3.903 1.075-6.079 0-10.307-8.342-18.661-18.634-18.661h-2.423c-7.72 0-14.344 4.703-17.171 11.403-2.651-2.082-5.984-3.333-9.614-3.333-8.623 0-15.612 7-15.612 15.635 0 .884.091 1.746.232 2.59-4.872 2.07-8.29 6.905-8.29 12.539 0 7.521 6.088 13.164 13.597 13.164h53.383c7.51 0 13.607-5.779 13.607-13.3 0-6.322-4.318-12.196-10.15-13.958z"/><path fill="#fff" d="M46.663 44.072c4.519 0 8.565 1.924 11.425 4.998-.545 1.768-.848 3.645-.848 5.593 0 5.471 2.362 10.373 6.106 13.786-3.042-3.316-4.895-7.722-4.895-12.576 0-10.312 8.335-18.664 18.621-18.664 4.834 0 9.219 1.852 12.527 4.878-1.49-1.634-3.26-3.002-5.246-4.03 6.021 3.074 10.14 9.356 10.14 16.606 0 2.457-.484 4.793-1.345 6.948 5.973 1.428 10.419 6.802 10.419 13.217 0 7.528-6.094 13.17-13.605 13.17h-53.379c-7.512 0-13.593-5.642-13.593-13.17 0-5.628 3.417-10.458 8.287-12.539-.133-.836-.23-1.707-.23-2.591 0-8.63 6.99-15.626 15.616-15.626z"/></svg>