<svg xmlns="http://www.w3.org/2000/svg" xmlns:xlink="http://www.w3.org/1999/xlink" width="128" height="128"><path fill="#334D5D" d="M64 0c35.347 0 64 28.654 64 64 0 35.347-28.653 64-64 64-35.346 0-64-28.653-64-64 0-35.346 28.654-64 64-64z"/><defs><path id="a" d="M64 0c35.347 0 64 28.654 64 64 0 35.347-28.653 64-64 64-35.346 0-64-28.653-64-64 0-35.346 28.654-64 64-64z"/></defs><clipPath id="b"><use xlink:href="#a" overflow="visible"/></clipPath><g clip-path="url(#b)"><path fill="#E4E7E8" d="M101.671 57.997h-75.341s21.717 20.88 31.47 30.117c2.062 1.953 4.212 5.698 4.212 8.505v32.375h3.914v-32.376c0-2.902 2.218-6.557 4.44-8.662 9.835-9.315 31.305-29.959 31.305-29.959z"/><path fill="#DF5A48" d="M80.887 72.796l-33.647.062 14.1 13.097h.033c.499.543 1.484 1.037 2.632 1.037 1.149 0 2.135-.494 2.633-1.037h.021l14.228-13.159z"/><path fill="#F37160" d="M76.704 70.814l-2.009 2.199-1.946-1.229 1.337-1.314c-2.842-.299-6.34-.472-10.102-.472-9.276.001-16.984 1.002-16.984 2.469 0 1.466 7.708 2.529 16.984 2.529s17.016-1.032 17.016-2.498c0-.672-1.64-1.252-4.296-1.684z"/><path fill="#BADCD9" d="M74.695 73.014l-1.946-1.229 10.836-11.421 1.958.636-10.848 12.014z"/><path fill="#F2F4F5" d="M64 51c20.987 0 38 2.77 38 6.188s-17.013 5.812-38 5.812c-20.986 0-38-2.395-38-5.812s17.014-6.188 38-6.188z"/><path fill="#CDD9DD" d="M64 51c20.987 0 38 2.626 38 5.865s-17.013 5.509-38 5.509c-20.986 0-38-2.27-38-5.509s17.014-5.865 38-5.865z"/><path fill="#44B29B" d="M84.954 61.513l-2.671.224 16.945-18.373 1.544 1.271-15.818 16.878z"/><path fill="#EFC84A" d="M102.245 40.7c-4.937-3.765-11.878-3.529-16.247.306.678.27 1.373.647 2.036 1.153 1.752 1.336 2.706 3.049 2.527 4.269l.225.171c1.229-.417 3.207.104 4.959 1.441 1.735 1.324 2.686 3.018 2.527 4.236l.258.195c1.231-.397 3.188.125 4.925 1.449.759.58 1.361 1.232 1.8 1.885 3.138-4.831 1.952-11.321-3.01-15.105z"/><path fill="#F4D67B" d="M102.723 41.099c-.158-.134-1.123-.867-1.457-1.077-3.347-.185-6.792 1.754-10.646 6.448l.167.127c1.229-.417 3.207.104 4.959 1.441 1.735 1.324 2.686 3.018 2.527 4.236l.188.143c3.223-4.531 5.108-8.059 4.262-11.318z"/></g></svg>