<svg xmlns="http://www.w3.org/2000/svg" xmlns:xlink="http://www.w3.org/1999/xlink" width="128" height="128"><path fill="#45B39C" d="M64 0c35.346 0 64 28.654 64 64s-28.654 64-64 64-64-28.653-64-64 28.654-64 64-64z"/><path fill="#F4EFEF" d="M41 40.011l4.769 49.383c0 5.301 8.162 9.597 18.231 9.597s18.231-4.296 18.231-9.597l4.769-49.383h-46z"/><path fill="#F4EFEF" d="M64 28c12.702 0 23 5.371 23 11.996 0 6.626-10.298 11.997-23 11.997s-23-5.371-23-11.997c0-6.625 10.298-11.996 23-11.996z"/><defs><path id="a" d="M64 28c12.702 0 23 5.371 23 11.996 0 6.626-10.298 11.997-23 11.997s-23-5.371-23-11.997c0-6.625 10.298-11.996 23-11.996z"/></defs><clipPath id="b"><use xlink:href="#a" overflow="visible"/></clipPath><g clip-path="url(#b)"><rect x="42.656" y="26" fill="#DBD7D7" width="7" height="40"/><rect x="49.656" y="26" fill="#E3DEDE" width="7" height="40"/><rect x="56.656" y="26" fill="#EBE6E6" width="7" height="40"/></g><path fill="#E8E3E3" d="M70 52v46.447c7.117-1.307 12.231-4.861 12.231-9.054l4.374-45.301-16.605 7.908z"/><path fill="#BDBDBD" d="M64 51.945c-12.037 0-21.908-4.821-22.91-10.959-.055.34-.09.683-.09 1.029 0 6.62 10.298 11.986 23 11.986s23-5.366 23-11.986c0-.346-.034-.689-.09-1.029-1.002 6.139-10.873 10.959-22.91 10.959z"/><path fill="#EFC84A" d="M64 62.984c-12.025 0-21.545-4.124-21.552-7.979l2.496 25.85c2.724 3.729 10.848 6.144 19.056 6.144 8.057 0 16.166-2.719 19.089-6.487l2.463-25.508c-.005 3.855-9.526 7.98-21.552 7.98z"/><defs><ellipse id="c" cx="64" cy="39.997" rx="23" ry="11.996"/></defs><clipPath id="d"><use xlink:href="#c" overflow="visible"/></clipPath><ellipse clip-path="url(#d)" fill="#743512" cx="64" cy="52.497" rx="21" ry="11.496"/><path fill="#ECF0F0" d="M64 29.371c11.524 0 21.26 4.865 21.26 10.625 0 5.761-9.735 10.627-21.26 10.627s-21.26-4.866-21.26-10.627c0-5.76 9.736-10.625 21.26-10.625m0-1.371c-12.702 0-23 5.371-23 11.996 0 6.626 10.298 11.997 23 11.997s23-5.371 23-11.997c0-6.625-10.298-11.996-23-11.996z"/><path fill="#763713" d="M54.09 74.637l-.254-.067c-.149.868-.701 2.568-2.308 1.943-.746-.296-1.252-1.151-1.258-2.237-.016-2.26 1.789-4.229 2.637-3.958.196.068.479.291.479.517-.054.964-.863.631-.862.627.099.251.449.708.674.783.379.132 1.252-.7 1.25-1.607-.003-.807-.829-.756-1.655-1.047-2.091-.732-3.524 1.892-3.516 3.762.012 1.825 1.033 3.581 2.739 4.232 1.751.652 2.549-1.084 2.543-2.098-.001-.592-.285-.794-.469-.85zm4.392-3.419c-.421-.068-.796.044-.796.044-.116-.141-.159-.234-.405-.337-1.271.032-2.586 2.162-2.578 4.065.007 1.58.771 3.731 2.77 4.136 2.756.497 3.404-3.546 3.399-4.951 0-1.421-.487-2.666-2.39-2.957zm-1.428 7.038c-.948-.199-1.435-1.301-1.438-2.515-.005-1.559.637-2.392.623-2.397.1.1.402.265.517.289l.044-.002c.228-.868.799-1.947 2.047-1.754.684.102.946.795.947 1.452.003.887-.494 5.368-2.74 4.927zm20.796-3.428c-.706.281-1.896.98-3.542 1.879.06-.891.147-1.746.276-2.575.702-.354 1.551-.794 2.265-1.107.179-.075.193-.232.193-.308.001-.086-.231-.094-.424-.198-.124-.067-.51.071-1.024.296-.223.095-.53.25-.853.403.157-.785.342-1.56.582-2.367.796-.431 1.445-.794 2.13-1.15 0 0-.193.332-.221.474-.042.115.355-.104.491-.23.138-.135.858-.918.857-.996.001-.086-.241-.184-.295-.211-.257-.125-.637.031-1.145.283-.329.164-.867.443-1.494.787l.07-.221c-.208-.082-.501-.006-.879.083-.127.227-.24.491-.354.766l-.15.085-.331-.219c-.112-.071-.55.035-1.076.216-.398.135-1.497.508-2.726.871l.073-.251c-.202-.122-.477-.166-.867-.144-.117.214-.219.456-.32.72l-.561.162-.344-.279c-.116-.093-.567-.066-1.107.018-.408.062-1.533.235-2.779.379l.074-.238c-.205-.158-.483-.252-.879-.299-.117.192-.22.416-.322.662-.908.101-1.771.191-2.34.312-.248.052.249.777.629.739l1.389-.145c-.219.714-.424 1.556-.613 2.418-.452.074-.803.145-.905.202-.204.112.249.773.629.729l.088-.006c-.233 1.192-.437 2.362-.567 3.246.103.119 1.124.593 1.168.277.159-1.274.349-2.506.583-3.685 1.053-.135 2.457-.372 3.288-.466.189-.016.219-.17.219-.244.001-.086-.247-.281-.306-.33l-.394-.134c-.088-.134-.512-.064-.833-.031-.352.037-1.054.153-1.771.262.176-.805.366-1.589.586-2.364.947-.104 1.88-.232 2.679-.352.001.206.378.605.687.52l1.382-.391c-.219.753-.424 1.631-.614 2.527-.45.155-.8.287-.902.362-.204.149.247.729.625.618l.088-.021c-.235 1.233-.44 2.439-.572 3.347.103.102 1.118.394 1.161.07.162-1.303.353-2.568.586-3.789l3.236-1.049c.186-.049.214-.207.214-.282.001-.087-.241-.237-.298-.276l-.385-.062c-.086-.119-.501.025-.817.115-.344.1-1.035.34-1.745.575.175-.835.365-1.653.583-2.468 1.064-.31 2.104-.648 2.945-.934-.016.195.373.512.68.365l.565-.284c-.214.725-.4 1.524-.545 2.342-.354.193-.652.363-.767.47-.199.185.255.577.623.401-.131.921-.232 1.832-.277 2.62l-.583.303c-.256.133.269.639.637.466l.071-.042c.312.062.972.076.972-.174l.002-.312c1.742-.897 2.975-1.646 3.977-2.14.202-.097.152-.264.03-.397s-.318-.234-.406-.199z"/><path fill="#BEBCBC" d="M63.943 86.992c-8.157 0-16.354-2.857-19.061-6.773l.115 1.199c2.837 3.816 10.919 6.576 18.945 6.576 8.152 0 16.363-2.848 19.075-6.756l.117-1.205c-2.57 4.012-10.903 6.959-19.191 6.959z"/><path fill="#BDBDBD" d="M64.053 62.934c-9.62 0-19.314-3.449-21.615-8.039l.125 1.301c2.505 4.471 12.032 7.804 21.49 7.804 9.297 0 18.664-3.218 21.362-7.574l.125-1.293c-2.513 4.471-12.034 7.801-21.487 7.801z"/></svg>