<svg xmlns="http://www.w3.org/2000/svg" width="128" height="128"><path fill="#45B39C" d="M64 0c35.346 0 64 28.654 64 64 0 35.346-28.654 64-64 64s-64-28.654-64-64c0-35.346 28.654-64 64-64z"/><path fill="#ECECEC" d="M25 38h79c1.657 0 3 1.343 3 3v46c0 1.656-1.343 3-3 3h-79c-1.656 0-3-1.344-3-3v-46c0-1.657 1.344-3 3-3z"/><path fill="#334D5D" d="M22 43h85v9h-85v-9z"/><path fill="#fff" d="M28 57h73v7h-73v-7z"/><path fill="#C9C9C9" d="M52 72v2h47v-2h-47zm15 4h-15v2h15v-2zm3 0v2h22v-2h-22zm-18 6h47v-2h-47v2z"/><path fill="#CCD0D2" d="M92 59v3h6v-3h-6zm-12 3h10v-3h-10v3z"/><path fill="#CCD0D2" d="M31 72h12c1.656 0 3 1.344 3 3v5c0 1.656-1.344 3-3 3h-12c-1.656 0-3-1.344-3-3v-5c0-1.656 1.344-3 3-3z"/></svg>