<svg xmlns="http://www.w3.org/2000/svg" width="128" height="128"><path fill="#DF5A48" d="M64 0c35.346 0 64 28.654 64 64 0 35.347-28.654 64-64 64-35.346 0-64-28.653-64-64 0-35.346 28.654-64 64-64z"/><path fill="#BDC3C7" d="M64.584 88.231c11.816 0 24.092.289 28.377 2.233-.092.105.039 2.417.039 3.152 0 2.974-12.723 5.384-28.416 5.384-15.694 0-28.417-2.41-28.417-5.384 0-.7.318-2.981-.158-3.06 4.166-1.992 16.574-2.325 28.575-2.325z"/><path fill="#EBEBEB" d="M64.584 85c15.693 0 28.416 2.411 28.416 5.385s-12.723 5.385-28.416 5.385c-15.694 0-28.417-2.411-28.417-5.385s12.723-5.385 28.417-5.385z"/><path fill="#EFC84A" d="M96.965 40h-9.818c.656-3.64.853-6.167.853-6.5 0-1.381-10.521-2.5-23.5-2.5s-23.5 1.119-23.5 2.5c0 .333.197 2.86.854 6.5h-10.132c-2.062 0-2.493.999-1.767 2.986 2.821 6.176 12.693 21.543 23.838 24.345 2.517 2.894 5.233 5.084 7.834 6.074-.393.224-.627.565-.627 1.095 0 .703.409 1.077 1.063 1.276-2.065 2.976-3.597 8.683-5.15 9.062-1.812.441-3.913 2.023-3.913 2.662 0 1.381 5.149 2.5 11.5 2.5 6.352 0 11.5-1.119 11.5-2.5 0-.626-2.059-2.198-3.808-2.637-1.556-.39-3.115-6.119-5.221-9.095.636-.202 1.029-.577 1.029-1.268 0-.53-.234-.871-.627-1.095 2.638-1.004 5.394-3.237 7.94-6.19 10.972-3.075 20.634-18.13 23.419-24.229.914-1.946.023-2.986-1.767-2.986zm-61.301 6.066c-.872-2.086-1.247-2.069.08-2.074 1.541-.006 4.484-.013 6.932-.017.855 3.67 2.117 7.899 3.957 12.006 1.104 2.464 2.449 4.878 3.937 7.104-4.317-3.022-10.624-8.511-14.906-17.019zm57.359 0c-4.086 8.12-10.018 13.49-14.303 16.59 1.373-2.104 2.614-4.369 3.646-6.675 1.84-4.106 3.102-8.335 3.957-12.006 2.381.005 5.145.011 6.619.017 1.329.005 1.079-.012.081 2.074z"/><path fill="#C0A03A" d="M87.162 40c-.07.377-.152.775-.238 1.184-.173.882-.372 1.818-.6 2.792l2.119.005c.297-1.283.566-2.609.802-3.98l-2.083-.001z"/><path fill="#C0A03A" d="M75.318 67.209c1.289-.361 2.562-.875 3.806-1.534 1.175-1.728 2.485-3.872 3.785-6.418-1.483 1.347-2.907 2.472-4.188 3.399-1.066 1.633-2.21 3.17-3.403 4.553z"/><path fill="#C0A03A" d="M41.854 40h-2.411c.236 1.371.504 2.697.802 3.98l2.431-.005c-.332-1.422-.603-2.76-.822-3.975z"/><path fill="#C0A03A" d="M50.566 63.082c-1.428-1.001-3.068-2.265-4.788-3.825 1.299 2.546 2.61 4.69 3.785 6.418 1.374.728 2.782 1.276 4.209 1.634-1.119-1.288-2.195-2.714-3.206-4.227z"/><path fill="#F2D067" d="M64.5 73c1.934 0 3.5.119 3.5 1.5s-1.566 1.5-3.5 1.5c-1.933 0-3.5-.119-3.5-1.5s1.567-1.5 3.5-1.5z"/><path d="M61.285 75.325l.035.028-.035-.028zm.336.267l.005.002-.005-.002zm-.514-.568l-.034-.059.034.059zm-.081-.693l-.006.003-.02.166.026-.169zm6.974.169l-.02-.166-.006-.003.026.169zm-.275.817l-.04.032.04-.032zm-.116 1.464c-.207-.359-.419-.703-.638-1.013-.633.202-1.506.232-2.471.232-.949 0-1.806-.03-2.437-.224-.215.31-.423.654-.627 1.014.804.179 1.876.211 3.063.211 1.21 0 2.302-.031 3.11-.22zm.29-1.769l.029-.051-.029.051zm-.501.571l.002-.001-.002.001z" fill="#C0A03A"/><path fill="#C0A03A" d="M64.5 89c-5.535 0-10.155-.851-11.251-1.982-.147.184-.249.355-.249.482 0 1.381 5.149 2.5 11.5 2.5 6.352 0 11.5-1.119 11.5-2.5 0-.126-.102-.297-.25-.482-1.096 1.131-5.715 1.982-11.25 1.982z"/><path fill="#C19D26" d="M64.5 30c12.979 0 23.5 2.119 23.5 3.5s-10.521 2.5-23.5 2.5-23.5-1.119-23.5-2.5 10.521-3.5 23.5-3.5z"/><path fill-rule="evenodd" clip-rule="evenodd" fill="#F2D067" d="M48.632 55.981c-3.978-8.88-5.259-18.339-5.557-21.454-1.329-.313-2.075-.661-2.075-1.027 0 .73.941 12.011 5.632 22.481 4.181 9.331 11.752 18.019 17.868 18.019.328 0 .664-.037 1-.086-5.922-.861-12.911-9.103-16.868-17.933z"/></svg>