<svg xmlns="http://www.w3.org/2000/svg" width="128" height="128"><path fill="#EFC84A" d="M64 0c35.346 0 64 28.654 64 64 0 35.346-28.654 64-64 64-35.346 0-64-28.654-64-64 0-35.346 28.654-64 64-64z"/><path fill="#BE3F27" d="M108.73 56.046c-.306-.304-15.914-19.66-18.5-22.765-.867-1.042-3.025-1.281-3.025-1.281l-22.975.033-23.194-.033s-1.94.238-2.808 1.28c-2.585 3.104-18.695 22.461-18.999 22.765-2.426 1.887-.654 3.976 0 4.63.654.654 42.966 42.14 43.295 42.468.33.33.83.82 1.705.854.875-.033 1.375-.523 1.705-.854s42.142-41.813 42.795-42.468c.654-.653 2.498-2.313.001-4.629z"/><path fill="#E1604F" d="M87.225 63.938l21.936-3.705c.74-.823 1.623-2.282-.43-4.187-.306-.304-15.914-19.66-18.5-22.765-.868-1.042-3.026-1.281-3.026-1.281l-22.975.033-23.194-.033s-1.94.238-2.808 1.28c-2.585 3.104-18.695 22.461-18.999 22.765-2.02 1.571-1.13 3.279-.398 4.186l.001.001 22.383 3.705 46.01.001z"/><path fill="#EF8668" d="M41.216 63.938l20.844-31.859 4.756-.079 20.408 31.938h-46.008z"/><polygon fill="#F29176" points="64.876,63.938 64.887,63.938 87.689,34.322 87.205,32 64.23,32.033 41.036,32 40.805,34.289"/><path fill="#E87B65" d="M88.711 32.929c0-.507-.363-.6-.562-.743-.531-.135-.944-.186-.944-.186l-10.301.015-12.488-.015s22.8 31.942 22.809 31.938c-.025-.021 1.486-31.009 1.486-31.009z"/><path fill="#E87B65" d="M64.393 32.033h-.163l-23.194-.033s-.411.055-.934.208c-.203.134-.399.322-.399.611 0 0 1.505 31.044 1.513 31.029 0 .018 22.673-31.123 23.177-31.815z"/><path fill="#E25436" d="M64.223 63.944l-23.007-.006c.65.647 21.116 39.001 21.443 39.328l.184.172c.316.269.746.53 1.373.559v.002l.007-.001.007.001v-.002c.625-.028 1.057-.29 1.374-.559l.184-.172c.326-.326 20.793-38.681 21.443-39.328l-23.008.006z"/></svg>