<svg xmlns="http://www.w3.org/2000/svg" width="128" height="128"><path fill="#DF5A48" d="M64 0c35.346 0 64 28.654 64 64 0 35.347-28.654 64-64 64s-64-28.653-64-64c0-35.346 28.654-64 64-64z"/><path fill="#EBEEEE" d="M28 29h72c1.657 0 3 1.344 3 3v64c0 1.657-1.343 3-3 3h-72c-1.656 0-3-1.343-3-3v-64c0-1.656 1.344-3 3-3z"/><path fill="#7498AD" d="M60 37c14.912 0 27 12.089 27 27 0 14.912-12.088 27-27 27s-27-12.088-27-27c0-14.911 12.088-27 27-27z"/><path fill="#1A2B35" d="M60 41c12.702 0 23 10.298 23 23 0 12.703-10.298 23-23 23s-23-10.297-23-23c0-12.702 10.298-23 23-23z"/><path fill="#253239" d="M60 44c11.046 0 20 8.955 20 20 0 11.046-8.954 20-20 20s-20-8.954-20-20c0-11.045 8.954-20 20-20z"/><path fill="#EFC84A" d="M60 57c-3.866 0-7 3.135-7 7 0 3.866 3.134 7 7 7s7-3.134 7-7c0-3.865-3.134-7-7-7zm0 9c-1.104 0-2-.895-2-2 0-1.104.896-2 2-2s2 .896 2 2c0 1.105-.896 2-2 2z"/><path fill="#455A67" d="M91 37c3.313 0 6 2.687 6 6 0 3.314-2.687 6-6 6s-6-2.686-6-6c0-3.313 2.687-6 6-6z"/><path fill="#D45645" d="M98 38.139l-2.073-2.16-21.074 20.164c-.273-.082-.558-.14-.858-.14-1.655 0-2.996 1.339-2.996 2.991s1.341 2.991 2.996 2.991c1.654 0 2.995-1.339 2.995-2.991 0-.233-.032-.457-.082-.674l21.092-20.181z"/><path fill="#fff" d="M91 40c1.657 0 3 1.344 3 3 0 1.657-1.343 3-3 3-1.656 0-3-1.343-3-3 0-1.656 1.344-3 3-3z"/><path fill="#7498AD" d="M91 79c3.313 0 6 2.687 6 6 0 3.314-2.687 6-6 6s-6-2.686-6-6c0-3.313 2.687-6 6-6z"/><path fill="#fff" d="M91 82c1.657 0 3 1.344 3 3 0 1.657-1.343 3.001-3 3.001-1.656 0-3-1.344-3-3.001 0-1.656 1.344-3 3-3z"/><path fill="#D45645" d="M91 40.874c1.174 0 2.126.952 2.126 2.126s-.952 2.126-2.126 2.126-2.126-.952-2.126-2.126.952-2.126 2.126-2.126z"/><path fill="#DF5A48" d="M91 82.874c1.174 0 2.126.952 2.126 2.126 0 1.175-.952 2.127-2.126 2.127s-2.126-.952-2.126-2.127c0-1.174.952-2.126 2.126-2.126z"/><path fill="#3D494F" d="M66.588 66.348c-.57 1.601-1.702 2.933-3.164 3.755l7.564 10.6c2.978-1.963 5.385-4.704 6.964-7.929l-11.364-6.426z"/><path fill="#3D494F" d="M56.9 57.73l-6.93-11.014c-3.068 1.785-5.617 4.354-7.369 7.443l11.117 6.767c.679-1.385 1.801-2.51 3.182-3.196z"/><path fill="#EFC84A" d="M60 57c-3.866 0-7 3.135-7 7 0 3.866 3.134 7 7 7s7-3.134 7-7c0-3.865-3.134-7-7-7zm0 9c-1.104 0-2-.895-2-2 0-1.104.896-2 2-2s2 .896 2 2c0 1.105-.896 2-2 2z"/><path fill="#1F2C33" d="M73.994 61.985c-1.483 0-2.706-1.078-2.945-2.491-.028.164-.051.329-.051.5 0 1.652 1.341 2.991 2.996 2.991 1.654 0 2.995-1.339 2.995-2.991 0-.157-.03-.304-.056-.453-.257 1.39-1.472 2.444-2.939 2.444z"/><path fill="#698A9E" d="M81.242 55.173l3.066-2.934-.344-.671-3.033 2.902.311.703z"/><path fill="#1A2B35" d="M81.242 55.173l-.311-.703-4.024 3.85c.05.217.082.44.082.674l-.027.274 4.28-4.095z"/></svg>