<svg xmlns="http://www.w3.org/2000/svg" width="128" height="128"><path fill="#DF5A48" d="M64 .001c35.346 0 64 28.654 64 64 0 35.347-28.654 63.999-64 63.999s-64-28.652-64-63.999c0-35.345 28.654-64 64-64z"/><path fill="#BCC4C8" d="M98 26.001h-5v10h5c2.762 0 5-2.238 5-5s-2.238-5-5-5z"/><path fill="#EBEEEE" d="M39.977 26.001l-.002.003c-2.736.014-4.951 2.225-4.971 4.96l-.004.004v71.032h52.938l.006-.006.056.006c2.742 0 4.961-2.205 4.994-4.938l.006-.005v-66.056c0-2.762 2.238-5 5-5h-58.023z"/><path fill="#BCC4C8" d="M83 97c0-2.762 2.238-5 5-5h-58c-2.762 0-5 2.238-5 5s2.238 5 5 5h58c-2.762 0-5-2.238-5-5z"/><path fill="#CAD1D4" d="M57 40.001h-14v18h14v-18zm3 0v4h25v-4h-25zm0 11h25v-4h-25v4zm0 7h25v-4h-25v4zm-17 6.999h42v-3.999h-42v3.999zm0 7h42v-4h-42v4zm0 7h32v-4h-32v4z"/></svg>