<svg xmlns="http://www.w3.org/2000/svg" width="128" height="128"><path fill="#EBEEEE" d="M64 0c35.346 0 64 28.654 64 64 0 35.347-28.654 64-64 64s-64-28.653-64-64c0-35.346 28.654-64 64-64z"/><path fill="#fff" d="M64 41c22.644 0 41 10.298 41 23 0 12.703-18.356 23-41 23s-41-10.297-41-23c0-12.702 18.356-23 41-23z"/><path fill="#2CA4D5" d="M64 47c9.389 0 17 7.611 17 17s-7.611 17-17 17-17-7.611-17-17 7.611-17 17-17z"/><path fill="#334D5D" d="M64 55c4.971 0 9 4.029 9 9s-4.029 9-9 9-9-4.029-9-9 4.029-9 9-9z"/><path fill="#fff" d="M58 55c1.657 0 3 1.344 3 3 0 1.657-1.343 3-3 3s-3-1.343-3-3c0-1.656 1.343-3 3-3z"/><path fill="#BDC3C7" d="M64 38.5c-24.393 0-43.5 11.201-43.5 25.5s19.107 25.5 43.5 25.5 43.5-11.201 43.5-25.5-19.107-25.5-43.5-25.5zm0 48.5c-22.644 0-41-10.297-41-23 0-12.702 18.356-23 41-23s41 10.298 41 23c0 12.703-18.356 23-41 23z"/></svg>