<svg xmlns="http://www.w3.org/2000/svg" width="128" height="128"><path fill="#EFC84A" d="M64 0c35.346 0 64 28.653 64 64s-28.654 64-64 64-64-28.653-64-64 28.654-64 64-64z"/><path fill="#334D5D" d="M113.012 57.562c-1.892-1.893-5.866-.982-8.879 2.035-1.973 1.975-3.035 4.359-3.01 6.303-.025 1.945 1.037 4.33 3.01 6.305 3.013 3.017 6.987 3.927 8.879 2.035 1.777-1.779 1.079-5.405-1.518-8.34 2.597-2.933 3.295-6.557 1.518-8.338zm-50.929-35.556c-1.384 0-2.749.074-4.095.214 1.488 1.362 2.904 2.839 4.23 4.434.339-.01.676-.026 1.018-.026 17.521 0 32.354 11.506 37.388 27.381-3.408-18.215-19.362-32.003-38.541-32.003z"/><path fill="#DF5A48" d="M63.145 26.013c-21.461 0-38.858 17.455-38.858 38.987h-2.287c0 21.533 17.397 38.988 38.859 38.988.382 0 .762-.017 1.143-.029.38.013.76.029 1.143.029 21.461 0 38.859-17.455 38.859-38.988 0-21.532-17.399-38.987-38.859-38.987z"/><path fill="#BF4B3D" d="M89.598 65.135c4.73-.666 8.372-4.746 8.372-9.694 0-4.938-3.623-9.007-8.337-9.688 2.139-.309 4.048-1.32 5.501-2.79-.335-.498-.681-.988-1.038-1.471-1.226 1.826-3.046 3.214-5.188 3.882.05-.406.085-.817.085-1.237 0-4.938-3.623-9.008-8.336-9.689 1.602-.231 3.073-.859 4.323-1.775-.414-.286-.835-.56-1.261-.83-1.093 1.031-2.423 1.815-3.9 2.257-.505-2.505-1.959-4.66-3.966-6.072-2.107-.737-4.296-1.301-6.552-1.662l-.124.017c4.844.559 8.617 4.654 8.617 9.685 0 4.487-3.011 8.225-7.102 9.378-1.426-6.594-4.375-12.955-8.928-18.524-.271-.332-.556-.647-.834-.97-.936.055-1.859.148-2.775.27.643.69 1.273 1.396 1.879 2.138 15.054 18.418 12.707 45.483-5.082 61.023.294-.231.593-.456.884-.698 7.512-6.231 12.416-14.467 14.585-23.302 4.229 1.06 7.373 4.86 7.373 9.449 0 4.383-2.869 8.055-6.813 9.3-.186-2.875-2.519-5.144-5.379-5.144-.211 0-.412.038-.617.062 2.663.312 4.737 2.579 4.774 5.373l-.582.096.018.002-.018.002.578.094c-.06 2.771-2.122 5.016-4.771 5.328.205.024.406.064.617.064 2.846 0 5.17-2.25 5.376-5.102 3.946 1.24 6.816 4.913 6.816 9.301 0 3.177-1.508 5.977-3.839 7.752 1.226-.357 2.425-.774 3.597-1.249 1.527-1.731 2.463-4.004 2.463-6.503 0-.423-.036-.837-.087-1.245 2.08.646 3.857 1.974 5.081 3.723.48-.332.953-.675 1.417-1.028-1.478-1.616-3.483-2.736-5.748-3.069 4.062-.597 7.302-3.71 8.113-7.723 2.005.597 3.74 1.818 4.977 3.444.34-.445.669-.899.989-1.359-1.4-1.273-3.166-2.147-5.125-2.43 4.714-.681 8.338-4.752 8.338-9.689.001-4.955-3.641-9.033-8.371-9.697zm6.15-9.695c0 4.394-2.882 8.073-6.84 9.308.049-.402.084-.809.084-1.225 0-4.95-3.641-9.028-8.371-9.693 4.087-.576 7.354-3.701 8.17-7.73 4.019 1.196 6.957 4.902 6.957 9.34zm-15.733-19.376c0-.421-.034-.832-.085-1.238 3.958 1.231 6.841 4.913 6.841 9.31 0 4.435-2.938 8.14-6.957 9.339-.814-4.019-4.064-7.134-8.134-7.723 4.712-.68 8.335-4.753 8.335-9.688zm-9.179 10.036c4.019 1.196 6.958 4.901 6.958 9.341 0 4.542-3.086 8.313-7.254 9.417 1.427-6.133 1.541-12.541.296-18.758zm.807 19.035c4.731-.666 8.372-4.746 8.372-9.694 0-.416-.034-.823-.085-1.227 3.958 1.233 6.841 4.914 6.841 9.31 0 4.435-2.938 8.14-6.957 9.341-.816-4.032-4.084-7.156-8.171-7.73zm8.17 27.104c-.814-4.019-4.066-7.134-8.136-7.722 4.713-.681 8.337-4.752 8.337-9.689 0-.42-.034-.831-.086-1.24 3.958 1.233 6.842 4.913 6.842 9.312.001 4.436-2.938 8.139-6.957 9.339zm9.094-8.101c.05-.407.085-.817.085-1.238 0-4.938-3.624-9.007-8.337-9.688 4.069-.587 7.323-3.706 8.136-7.724 4.019 1.196 6.957 4.903 6.957 9.341 0 4.393-2.882 8.074-6.841 9.309z"/><path fill="#334D5D" d="M73.142 78.006c-2.049 0-3.884.856-5.14 2.209 1.516.889 2.534 2.467 2.534 4.281 0 1.812-1.019 3.391-2.534 4.28 1.256 1.353 3.091 2.21 5.14 2.21 3.784 0 6.851-2.908 6.851-6.49-.001-3.587-3.067-6.49-6.851-6.49z"/><path fill="#ECF0F0" d="M22 65.994l3.754.008-1.875-4.012-1.879 4.004zm3.754.008h3.75l-1.875-4.012-1.875 4.012zm3.75 0h3.75l-1.875-4.012-1.875 4.012zm5.625-4.012l-1.875 4.012h3.75l-1.875-4.012z"/><path fill="#ECF0F0" d="M49.011 44.007c3.317 0 6.007 2.686 6.007 5.999 0 3.312-2.689 5.998-6.007 5.998s-6.007-2.686-6.007-5.998c0-3.314 2.689-5.999 6.007-5.999z"/><path fill="#334D5D" d="M48.99 48.02c1.109 0 2.009.889 2.009 1.984 0 1.097-.899 1.985-2.009 1.985s-2.009-.889-2.009-1.985.9-1.984 2.009-1.984z"/></svg>