<svg xmlns="http://www.w3.org/2000/svg" xmlns:xlink="http://www.w3.org/1999/xlink" width="128" height="128"><path fill="#334D5D" d="M64 0c35.346 0 64 28.654 64 64 0 35.347-28.654 64-64 64s-64-28.653-64-64c0-35.346 28.654-64 64-64z"/><path fill="#DBB432" d="M69 43h31l-8 22.43 8 22.571h-31v-45.001z"/><defs><path id="a" d="M69 43h31l-8 22.43 8 22.571h-31v-45.001z"/></defs><clipPath id="b"><use xlink:href="#a" overflow="visible"/></clipPath><path fill="#CD4838" d="M69 43v5h31v-5h-31zm0 45.001h31v-5.001h-31v5.001z" clip-path="url(#b)"/><path fill="#AE3C2E" d="M76 83h-7v5.001l7-5.001z"/><path fill="#EFC84A" d="M40 38h36v45h-36v-45z"/><path fill="#DF5A48" d="M40 38v5h36v-5h-36zm0 45h36v-5h-36v5z"/><defs><path id="c" d="M64 0c35.346 0 64 28.654 64 64 0 35.347-28.654 64-64 64s-64-28.653-64-64c0-35.346 28.654-64 64-64z"/></defs><clipPath id="d"><use xlink:href="#c" overflow="visible"/></clipPath><g clip-path="url(#d)"><path fill="#ECF0F0" d="M36 37c-1.104 0-2 .896-2 2v89h4v-89c0-1.104-.896-2-2-2z"/><path fill="#D5D9D9" d="M36 37v91h2v-89c0-1.104-.896-2-2-2z"/></g></svg>