<svg xmlns="http://www.w3.org/2000/svg" xmlns:xlink="http://www.w3.org/1999/xlink" width="128" height="128"><path fill="#DF5A48" d="M64 0c35.346 0 64 28.654 64 64 0 35.346-28.654 64-64 64s-64-28.654-64-64c0-35.346 28.654-64 64-64z"/><defs><path id="a" d="M64 0c35.346 0 64 28.654 64 64 0 35.346-28.654 64-64 64s-64-28.654-64-64c0-35.346 28.654-64 64-64z"/></defs><clipPath id="b"><use xlink:href="#a" overflow="visible"/></clipPath><g clip-path="url(#b)"><path fill="#EFC84A" d="M80 84h-32c-1.657 0-3 .309-3 1.796v13.47c0 3.565 4.979 10.775 6 10.775v17.959h26v-17.959c.961 0 6-7.242 6-10.775v-13.47c0-1.487-1.343-1.796-3-1.796z"/><path fill="#F2D371" d="M64 89h-8v12h8v-12zm-7 14v25h8v-25h-8z"/><path fill="#334D5D" d="M45 83h38v6h-38v-6z"/><path fill="#4A606E" d="M47 89h1v-6h-1v6zm3 0h1v-6h-1v6zm3 0h1v-6h-1v6zm3 0h1v-6h-1v6zm3 0h1v-6h-1v6zm3 0h1v-6h-1v6zm3 0h1v-6h-1v6zm3 0h1v-6h-1v6zm3 0h1v-6h-1v6zm3 0h1v-6h-1v6zm3 0h1v-6h-1v6zm3-6v6h1v-6h-1z"/><path fill="#E9B945" d="M82.703 101h-37.413c1.067 3.758 4.835 9.041 5.71 9.041h26c.822 0 4.621-5.297 5.703-9.041z"/><polygon fill="#ECC05B" points="57,110.041 65,110.041 64,101 56,101"/><polygon fill="#E97D6F" points="21.739,0 47,83 81,83 106.261,0"/></g></svg>