<?xml version="1.0" encoding="utf-8"?>
<!-- Generator: Adobe Illustrator 16.2.1, SVG Export Plug-In . SVG Version: 6.00 Build 0)  -->
<!DOCTYPE svg PUBLIC "-//W3C//DTD SVG 1.1//EN" "http://www.w3.org/Graphics/SVG/1.1/DTD/svg11.dtd">
<svg version="1.1" id="Слой_1" xmlns="http://www.w3.org/2000/svg" xmlns:xlink="http://www.w3.org/1999/xlink" x="0px" y="0px"
	 width="128px" height="128px" viewBox="0 0 128 128" enable-background="new 0 0 128 128" xml:space="preserve">
<path fill="#DF5A48" d="M64,0c35.348,0,64,28.653,64,64c0,35.345-28.652,64-64,64C28.654,128,0,99.346,0,64C0,28.654,28.654,0,64,0z
	"/>
<path fill="#F1CE5E" d="M89,38H55l-6-5H39c-2.209,0-4,1.791-4,3.999V55c0,2.209,1.791,4,4,4h50c2.209,0,4-1.791,4-4V42.002
	C93,39.793,91.209,38,89,38z"/>
<path fill="#FFFFFF" d="M33,43h62v14H33V43z"/>
<path fill="#EBEEEE" d="M31,46h66v14H31V46z"/>
<path fill="#EFC84A" d="M30,49.001h68c2.209,0,4,1.79,4,4L97,92c0,2.211-1.791,4-4,4H35c-2.209,0-4-1.789-4-4l-5-38.999
	C26,50.792,27.791,49.001,30,49.001z"/>
<path fill="#D7B442" d="M64,56c-8.836,0-16,7.164-16,16s7.164,16,16,16s16-7.164,16-16S72.836,56,64,56z M64,85
	c-7.18,0-13-5.82-13-13s5.82-13,13-13c7.18,0,13,5.82,13,13S71.18,85,64,85z M64.986,65.65c-0.543-0.885-1.431-0.885-1.973,0
	l-5.782,5.729c-0.542,0.883-0.099,1.605,0.987,1.605H61v5.014C61,78.551,61.447,79,62,79h4c0.553,0,1-0.449,1-1.002v-5.014h2.781
	c1.086,0,1.529-0.724,0.986-1.605L64.986,65.65z"/>
</svg>
