<svg xmlns="http://www.w3.org/2000/svg" width="128" height="128"><path fill="#EBEEEE" d="M64 0c35.346 0 64 28.654 64 64 0 35.347-28.654 64-64 64s-64-28.653-64-64c0-35.346 28.654-64 64-64z"/><path fill="#DF5A48" d="M97 61v33c0 1.104-.896 2-2 2h-62c-1.104 0-2-.896-2-2v-33h66z"/><path d="M90.5 79c-6.903 0-12.5 5.597-12.5 12.5 0 1.589.309 3.103.849 4.5h16.151c1.104 0 2-.896 2-2v-13.162c-1.896-1.158-4.116-1.838-6.5-1.838zm-40.5 12.5c0-6.903-5.596-12.5-12.5-12.5-2.384 0-4.604.68-6.5 1.838v13.162c0 1.104.896 2 2 2h16.151c.54-1.397.849-2.911.849-4.5zm1-26.5c0 7.18 5.82 13 13 13s13-5.82 13-13c0-1.396-.226-2.739-.634-4h-24.732c-.408 1.261-.634 2.604-.634 4z" fill="#CF5343"/><path fill="#CF5343" d="M34 43h60l5 5v13h-70v-13l5-5z"/><path fill="#EFC84A" d="M59 45h10v51h-10v-51z"/><path fill="#C95140" d="M31 61h66v2h-66v-2z"/><polygon fill="#BB493B" points="34,43 29,48 99,48 94,43"/><rect x="59" y="45" fill="#D7B442" width="10" height="3"/><path fill="#D7B442" d="M88.14 30.839c-1.404-2.41-4.328-3.849-7.816-3.849-7.94 0-13.568 7.172-16.333 11.699-2.769-4.522-8.395-11.653-16.318-11.653-5.024 0-8.671 2.993-8.671 7.054 0 7.201 8.216 11.9 24.731 11.9s25.266-6.04 25.266-11.841c-.003-1.153-.259-2.282-.859-3.31zm-40.322 7.444c-2.809-1.418-3.809-3.008-3.809-4.025 0-1.301 1.637-2.244 3.895-2.244 5.439 0 9.743 5.305 12.082 8.998-6.265-.394-10.025-1.647-12.168-2.729zm35.79-2.815c-1.418 2.405-6.248 4.954-15.607 5.544 2.362-3.693 6.695-8.998 12.081-8.998 2.084 0 3.272.758 3.691 1.468.333.564.278 1.233-.165 1.986z"/><path fill="#BB493B" d="M51.17 63h25.66c-.105-.685-.255-1.354-.464-2h-24.732c-.209.646-.359 1.315-.464 2z"/><rect x="59" y="61" fill="#D7B442" width="10" height="2"/></svg>