<svg xmlns="http://www.w3.org/2000/svg" xmlns:xlink="http://www.w3.org/1999/xlink" width="128" height="128"><path fill="#334D5D" d="M64 .001c35.347 0 64 28.653 64 63.999 0 35.347-28.653 64-64 64-35.346 0-64-28.653-64-64 0-35.346 28.654-63.999 64-63.999z"/><path fill="#F0F0F0" d="M55 103c0 1.657 4.478 3 10 3s10-1.343 10-3-4.478-3-10-3-10 1.343-10 3zm27.747-19.906c-.501-.871-1.605-1.174-2.467-.675-14.154 8.202-32.379 3.213-40.625-11.122-8.245-14.336-3.438-32.673 10.717-40.876.86-.499 1.152-1.61.65-2.482-.501-.872-1.606-1.174-2.467-.675-15.874 9.199-21.266 29.763-12.019 45.84 5.853 10.175 16.188 16.145 27.012 16.829l-1.548 10.067h6l-1.539-10.007c5.338-.133 10.706-1.561 15.636-4.417.861-.499 1.152-1.61.65-2.482z"/><path fill="#2993C0" d="M66 29c14.912 0 27 12.089 27 27 0 14.912-12.088 27-27 27s-27-12.088-27-27c0-14.911 12.088-27 27-27z"/><defs><path id="a" d="M66 29c14.912 0 27 12.089 27 27 0 14.912-12.088 27-27 27s-27-12.088-27-27c0-14.911 12.088-27 27-27z"/></defs><clipPath id="b"><use xlink:href="#a" overflow="visible"/></clipPath><path fill="#8CC6BA" d="M69.472 53.405c-3.664-1.104-.294-1.4-4.238-3.065-3.958-1.664-3.695-3.353-4.807-2.783-1.122.573-3.372 1.143-3.372 1.143l-2.834-2.507s-5.641-2.492-3.688-5.036c1.939-2.545 3.629-3.962 4.765-1.998 1.145 1.962 1.423 1.958 2.25-.578.823-2.539 4.183-6.214 5.585-6.223 1.41-.009 2.515-2.271 2.515-2.271s5.069-.028 1.966-1.972c-10.406-.772-25.442 6.01-22.439 11.961.859 1.121 1.438 3.363 3.418 4.757 1.975 1.382 3.394 2.499 4.799 3.053 1.415.561 4.512 1.663 3.671 2.226-.841.569-1.393 1.417-.522 4.502.859 3.091.868 3.365 2.282 5.044 1.418 1.687 2.551 2.241 2.559 4.204.018 1.971-.8 5.915-.233 7.596.573 1.678 1.157 5.045 2.293 5.323 1.13.272 3.672 2.232 2.813.539-.855-1.678-2.571-4.765-1.169-6.175 1.403-1.42 3.364-1.995 4.197-4.805.823-2.819 2.505-3.388 2.505-3.388l1.104-3.387 1.112-2.252c-.001 0-.872-2.813-4.532-3.908zm13.558-18.327c-.412-1.349-2.895-1.761-2.895-1.761s-3.641 3.337-4.415 5.755c-.331-1.071-2.626 1.979-.736 4.345 1.904 2.368 7.715 10.99 8.193 10.448 1.104-1.217 3.566.082 5.173-.405 1.614-.495 6.374-2.246 7.206-3.375 4.677-6.454-13.75-19.027-12.526-15.007z" clip-path="url(#b)"/><path fill="#2384AD" d="M66 29c-.668 0-1.327.034-1.982.083 13.968 1.033 24.982 12.685 24.982 26.917 0 14.233-11.015 25.885-24.984 26.917.655.049 1.315.083 1.984.083 14.912 0 27-12.088 27-27 0-14.911-12.088-27-27-27z"/><path fill="#7DB2A7" d="M83.024 35.048l.006.03-.016-.039c-.66-.536-1.344-1.042-2.053-1.514-.467-.148-.826-.208-.826-.208s-.649.597-1.456 1.464c5.615 4.417 9.438 11.009 10.185 18.512.974-.323 2.466-.873 3.812-1.473-1.046-6.74-4.589-12.653-9.652-16.772z"/></svg>