<svg xmlns="http://www.w3.org/2000/svg" xmlns:xlink="http://www.w3.org/1999/xlink" width="128" height="128"><path fill="#EFC84A" d="M64 0c35.346 0 64 28.654 64 64 0 35.348-28.654 64-64 64s-64-28.652-64-64c0-35.345 28.654-64 64-64z"/><path fill="#CD5929" d="M92.475 98.264l-.002-.004-.013-.02-24.703-36.992 1.233-1.832-1.996-1.33v-31.18c-.285-.545-1.518-.916-2.994-.916s-2.709.371-2.994.916v31.114l-1.899 1.273 1.293 1.936-24.936 37.046.002.002c-.324.484-.515 1.067-.515 1.695 0 1.688 1.368 3.057 3.057 3.057 1.061 0 1.994-.541 2.542-1.362l.001.001 20.455-30.39v25.511c0 .676 1.306 1.225 2.994 1.225s2.994-.549 2.994-1.225v-25.685l20.408 30.561.001-.001c.547.823 1.478 1.366 2.536 1.366 1.684 0 3.048-1.373 3.048-3.066 0-.63-.189-1.214-.512-1.7z"/><path fill="#334D5D" d="M26.291 31.006h75.418c2.363 0 4.279 1.916 4.279 4.28v46.46c0 2.364-1.916 4.279-4.279 4.279h-75.418c-2.363 0-4.279-1.915-4.279-4.279v-46.46c0-2.364 1.916-4.28 4.279-4.28z"/><path fill="#ECF0F0" d="M28.947 34.024h70.105c2.363 0 3.967 1.604 3.967 3.968v40.676c0 2.363-1.916 4.279-4.279 4.279h-69.48c-2.363 0-4.279-1.916-4.279-4.279v-40.738c-.001-2.364 1.603-3.906 3.966-3.906z"/><path fill="#228AB4" d="M35.013 43.658v30.57c0 1.014 2.083 1.835 4.446 1.835 2.364 0 4.531-.821 4.531-1.835v-30.57h-8.977z"/><path fill="#2CA4D5" d="M39.532 41.949c2.357 0 4.457.695 4.457 1.709s-2.1 1.627-4.457 1.627-4.52-.613-4.52-1.627 2.163-1.709 4.52-1.709z"/><path fill="#3B9885" d="M50.014 53.658v20.57c0 1.014 2.082 1.835 4.445 1.835 2.364 0 4.531-.821 4.531-1.835v-20.57h-8.976z"/><path fill="#45B39C" d="M54.533 51.949c2.358 0 4.458.695 4.458 1.709s-2.1 1.626-4.458 1.626-4.52-.612-4.52-1.626 2.162-1.709 4.52-1.709z"/><path fill="#BD3E25" d="M65.013 49.658v24.57c0 1.014 2.083 1.835 4.446 1.835 2.364 0 4.531-.821 4.531-1.835v-24.57h-8.977z"/><path fill="#D5614F" d="M69.532 47.949c2.357 0 4.457.695 4.457 1.709s-2.1 1.626-4.457 1.626-4.52-.612-4.52-1.626 2.163-1.709 4.52-1.709z"/><path fill="#BD3E25" d="M83.018 61.015h3.98v3.981h-3.98v-3.981z"/><path fill="#3B9885" d="M83.018 66.014h3.98v3.982h-3.98v-3.982z"/><path fill="#228AB4" d="M83.018 71.015h3.98v3.981h-3.98v-3.981z"/><path fill="#BDBDBD" d="M83.018 42.012v2.98h11.979v-2.98h-11.979zm0 7.918h11.979v-2.918h-11.979v2.918zm7.978 2.082h-7.979v2.918h7.979v-2.918zm-3.025 12.984h6.052v-3.981h-6.052v3.981zm0 5h6.052v-3.982h-6.052v3.982zm0 5h6.052v-3.981h-6.052v3.981z"/><defs><path id="a" d="M92.475 98.264l-.002-.004-.013-.02-24.703-36.992 1.233-1.832-1.996-1.33v-31.18c-.285-.545-1.518-.916-2.994-.916s-2.709.371-2.994.916v31.114l-1.899 1.273 1.293 1.936-24.936 37.046.002.002c-.324.484-.515 1.067-.515 1.695 0 1.688 1.368 3.057 3.057 3.057 1.061 0 1.994-.541 2.542-1.362l.001.001 20.455-30.39v25.511c0 .676 1.306 1.225 2.994 1.225s2.994-.549 2.994-1.225v-25.685l20.408 30.561.001-.001c.547.823 1.478 1.366 2.536 1.366 1.684 0 3.048-1.373 3.048-3.066 0-.63-.189-1.214-.512-1.7z"/></defs><clipPath id="b"><use xlink:href="#a" overflow="visible"/></clipPath><linearGradient id="c" gradientUnits="userSpaceOnUse" x1="64.001" y1="91" x2="64.001" y2="86.001"><stop offset="0" stop-color="#CD5929"/><stop offset="1" stop-color="#9D431E"/></linearGradient><path clip-path="url(#b)" fill="url(#c)" d="M33 86.001h62v4.999h-62v-4.999z"/><defs><path id="d" d="M92.475 98.264l-.002-.004-.013-.02-24.703-36.992 1.233-1.832-1.996-1.33v-31.18c-.285-.545-1.518-.916-2.994-.916s-2.709.371-2.994.916v31.114l-1.899 1.273 1.293 1.936-24.936 37.046.002.002c-.324.484-.515 1.067-.515 1.695 0 1.688 1.368 3.057 3.057 3.057 1.061 0 1.994-.541 2.542-1.362l.001.001 20.455-30.39v25.511c0 .676 1.306 1.225 2.994 1.225s2.994-.549 2.994-1.225v-25.685l20.408 30.561.001-.001c.547.823 1.478 1.366 2.536 1.366 1.684 0 3.048-1.373 3.048-3.066 0-.63-.189-1.214-.512-1.7z"/></defs><clipPath id="e"><use xlink:href="#d" overflow="visible"/></clipPath><linearGradient id="f" gradientUnits="userSpaceOnUse" x1="64.001" y1="98.014" x2="64.001" y2="86.001"><stop offset="0" stop-color="#CD5929"/><stop offset="1" stop-color="#9D431E"/></linearGradient><path clip-path="url(#e)" fill="url(#f)" d="M61 86.001h6v12.013h-6v-12.013z"/></svg>