<svg xmlns="http://www.w3.org/2000/svg" xmlns:xlink="http://www.w3.org/1999/xlink" width="128" height="128"><path fill="#EFC84A" d="M64 0c35.347 0 64 28.654 64 64 0 35.347-28.653 64-64 64-35.346 0-64-28.653-64-64 0-35.346 28.654-64 64-64z"/><defs><circle id="a" cx="64" cy="64" r="64"/></defs><clipPath id="b"><use xlink:href="#a" overflow="visible"/></clipPath><rect x="53" y="107" clip-path="url(#b)" fill="#3B5766" width="23" height="21"/><path fill="#89A0AC" d="M44 43v2h41v-2h-41zm0 21h41v-2h-41v2zm0 19h41v-2h-41v2z"/><path fill="#3B5766" d="M87.667 49c2.945 0 5.333-2.238 5.333-5 0-2.761-2.388-5-5.333-5-2.946 0-2.667 2.239-2.667 5 0 2.762-.279 5 2.667 5zm0 9c-2.946 0-2.667 2.238-2.667 5s-.279 5 2.667 5c2.945 0 5.333-2.238 5.333-5s-2.388-5-5.333-5zm0 19c-2.946 0-2.667 2.238-2.667 5s-.279 5 2.667 5c2.945 0 5.333-2.238 5.333-5s-2.388-5-5.333-5zm-46.333-38c-2.946 0-5.334 2.239-5.334 5 0 2.762 2.388 5 5.334 5 2.945 0 2.666-2.238 2.666-5 0-2.761.279-5-2.666-5zm0 19c-2.946 0-5.334 2.238-5.334 5s2.388 5 5.334 5c2.945 0 2.666-2.238 2.666-5s.279-5-2.666-5zm0 19c-2.946 0-5.334 2.238-5.334 5s2.388 5 5.334 5c2.945 0 2.666-2.238 2.666-5s.279-5-2.666-5z"/><path fill="#EBEEEE" d="M53 104h23v3h-23v-3z"/><path fill="#2D4453" d="M49 28s7.285-1 15.503-1c7.218 0 15.497 1 15.497 1 1.104 0 2 .896 2 2v60c0 2.985-3.021.858-6 14h-23c-3.088-13.053-6-11.039-6-14v-60c0-1.104.896-2 2-2z"/><path fill="#EBEEEE" d="M73 48c2.209 0 4-1.791 4-4s-1.791-4-4-4-4 1.791-4 4 1.791 4 4 4zm-17-8c-2.209 0-4 1.791-4 4s1.791 4 4 4 4-1.791 4-4-1.791-4-4-4zm17 19c-2.209 0-4 1.791-4 4s1.791 4 4 4 4-1.791 4-4-1.791-4-4-4zm-17 0c-2.209 0-4 1.791-4 4s1.791 4 4 4 4-1.791 4-4-1.791-4-4-4zm17 19c-2.209 0-4 1.791-4 4s1.791 4 4 4 4-1.791 4-4-1.791-4-4-4zm-17 0c-2.209 0-4 1.791-4 4s1.791 4 4 4 4-1.791 4-4-1.791-4-4-4z"/><path fill="#8F9BA1" d="M56 42c-1.104 0-2 .896-2 2s.896 2 2 2 2-.896 2-2-.896-2-2-2zm17 4c1.104 0 2-.896 2-2s-.896-2-2-2-2 .896-2 2 .896 2 2 2zm-17 15c-1.104 0-2 .896-2 2s.896 2 2 2 2-.896 2-2-.896-2-2-2zm17 0c-1.104 0-2 .896-2 2s.896 2 2 2 2-.896 2-2-.896-2-2-2zm-17 19c-1.104 0-2 .896-2 2s.896 2 2 2 2-.896 2-2-.896-2-2-2zm17 0c-1.104 0-2 .896-2 2s.896 2 2 2 2-.896 2-2-.896-2-2-2z"/><defs><path id="c" d="M64 0c35.347 0 64 28.654 64 64 0 35.347-28.653 64-64 64-35.346 0-64-28.653-64-64 0-35.346 28.654-64 64-64z"/></defs><clipPath id="d"><use xlink:href="#c" overflow="visible"/></clipPath><path fill="#738590" d="M56 128h1v-21h-1v21zm4 0h1v-21h-1v21zm4 0h1v-21h-1v21zm4 0h1v-21h-1v21zm4-21v21h1v-21h-1z" clip-path="url(#d)"/></svg>