<svg xmlns="http://www.w3.org/2000/svg" xmlns:xlink="http://www.w3.org/1999/xlink" width="128" height="128"><path fill="#EBEEEE" d="M64 0c35.347 0 64 28.654 64 64 0 35.347-28.653 64-64 64-35.346 0-64-28.653-64-64 0-35.346 28.654-64 64-64z"/><defs><circle id="a" cx="64" cy="64" r="64"/></defs><clipPath id="b"><use xlink:href="#a" overflow="visible"/></clipPath><path clip-path="url(#b)" fill="#E27C3F" d="M85.422 103.291c-1.005-1.453-2.38-3.439-2.504-4.064-.066-.859.581-2.279 1.265-3.781 1.18-2.59 2.647-5.808 2.56-9.991-.185-8.506-7.195-12.7-9.337-13.778-2.056-1.044-6.218-1.493-9.369-1.689l-6.99.001c-3.129.195-7.372.643-9.434 1.687-2.144 1.082-9.152 5.276-9.334 13.78-.088 4.183 1.38 7.403 2.56 9.991.684 1.502 1.329 2.922 1.27 3.74-.127.666-1.504 2.652-2.509 4.102-3.023 4.368-7.592 10.966-7.592 18.81-.003 7.43 3.701 19.901 28.501 19.901 24.801 0 28.506-12.471 28.506-19.903 0-7.844-4.57-14.442-7.593-18.806z"/><path fill="#7D431F" d="M65.5 87c4.143 0 7.5 3.358 7.5 7.5 0 4.143-3.357 7.5-7.5 7.5s-7.5-3.357-7.5-7.5c0-4.142 3.357-7.5 7.5-7.5z"/><path fill="#3B5766" d="M59 113h13c1.104 0 2 .896 2 2v1c0 1.104-.896 2-2 2h-13c-1.104 0-2-.896-2-2v-1c0-1.104.896-2 2-2z"/><path fill="#3B5766" d="M65.51 17c-4.416 0-7.526 1.953-7.526 1.953v17.644c0 .477 2.046 1.838 3.031 2.504v44.908l8.99-.002v-44.906c.985-.666 2.97-2.027 2.97-2.504v-17.644s-3.051-1.953-7.465-1.953zm-1.51 16c0 .553-.447 1-1 1s-1-.447-1-1v-10c0-.552.447-1 1-1s1 .448 1 1v10zm5 0c0 .553-.447 1-1 1-.552 0-1-.447-1-1v-10c0-.552.448-1 1-1 .553 0 1 .448 1 1v10z"/><path fill="#3B5766" d="M75.5 24c.828 0 1.5-.672 1.5-1.5s-.672-1.5-1.5-1.5-1.5.672-1.5 1.5.672 1.5 1.5 1.5zm0 2c-.828 0-1.5.672-1.5 1.5s.672 1.5 1.5 1.5 1.5-.672 1.5-1.5-.672-1.5-1.5-1.5zm-20-5c-.828 0-1.5.672-1.5 1.5s.672 1.5 1.5 1.5 1.5-.672 1.5-1.5-.672-1.5-1.5-1.5zm0 5c-.828 0-1.5.672-1.5 1.5s.672 1.5 1.5 1.5 1.5-.672 1.5-1.5-.672-1.5-1.5-1.5zm20 5c-.828 0-1.5.672-1.5 1.5s.672 1.5 1.5 1.5 1.5-.672 1.5-1.5-.672-1.5-1.5-1.5zm-20 0c-.828 0-1.5.672-1.5 1.5s.672 1.5 1.5 1.5 1.5-.672 1.5-1.5-.672-1.5-1.5-1.5z"/><path fill="#E79E76" d="M62 115h1v-76h-1v76zm2 0h1v-76h-1v76zm2 0h1v-76h-1v76zm2-76v76h1v-76h-1z"/><path fill="#EBEEEE" d="M60 116v-1h11v1h-11z"/><g fill="#738590"><rect x="64" y="39" width="1" height="45.008"/><rect x="62" y="39" width="1" height="45.009"/><rect x="66" y="39" width="1" height="45.008"/><rect x="68" y="39" width="1" height="45.008"/></g><path d="M66 101.975c.339-.022.675-.059 1-.125v-14.7c-.325-.065-.661-.103-1-.125v14.95zm3-14.106c-.319-.169-.655-.311-1-.434v14.129c.345-.122.681-.265 1-.434v-13.261zm-4-.844c-.339.022-.675.06-1 .125v14.699c.325.066.661.103 1 .125v-14.949zm-3 14.106c.319.169.655.312 1 .434v-14.129c-.345.123-.681.265-1 .434v13.261z" fill="#A67C63"/><g fill="#738590"><rect x="66" y="113" width="1" height="2"/><rect x="62" y="113" width="1" height="2"/><rect x="64" y="113" width="1" height="2"/><rect x="68" y="113" width="1" height="2"/></g><path fill="#EFC84A" d="M61 40v-1h9v1h-9z"/></svg>