<?xml version="1.0" encoding="utf-8"?>
<!-- Generator: Adobe Illustrator 16.2.1, SVG Export Plug-In . SVG Version: 6.00 Build 0)  -->
<!DOCTYPE svg PUBLIC "-//W3C//DTD SVG 1.1//EN" "http://www.w3.org/Graphics/SVG/1.1/DTD/svg11.dtd">
<svg version="1.1" id="Слой_1" xmlns="http://www.w3.org/2000/svg" xmlns:xlink="http://www.w3.org/1999/xlink" x="0px" y="0px"
	 width="128px" height="128px" viewBox="0 0 128 128" enable-background="new 0 0 128 128" xml:space="preserve">
<path fill="#45B39C" d="M64,0c35.348,0,64,28.654,64,64c0,35.348-28.652,64-64,64C28.654,128,0,99.348,0,64C0,28.654,28.654,0,64,0z
	"/>
<path fill="#EBEEEE" d="M64,22c4.971,0,9,4.029,9,9s-4.029,9-9,9c-4.971,0-9-4.029-9-9S59.029,22,64,22z"/>
<path fill="#DADBDC" d="M64,22c-0.338,0-0.671,0.022-1,0.059c4.5,0.498,8,4.309,8,8.941s-3.5,8.443-8,8.941
	C63.329,39.978,63.662,40,64,40c4.971,0,9-4.029,9-9S68.971,22,64,22z"/>
<path fill="#E8C44D" d="M64,37c16.568,0,30,13.432,30,30c0,16.568-13.432,20-30,20c-16.568,0-30-3.432-30-20
	C34,50.432,47.432,37,64,37z"/>
<path fill="#F6D15A" d="M64,37c6.771,0,15,13.432,15,30c0,16.568,1.568,20-15,20c-16.568,0-15-3.432-15-20
	C49,50.432,56.957,37,64,37z"/>
<path fill="#DDBA49" d="M34,67h60v2H34V67z"/>
<path fill="#F1CE5E" d="M33,69h62c2.209,0,4,1.791,4,4v13c0,2.209-1.791,4-4,4H33c-2.209,0-4-1.791-4-4V73
	C29,70.791,30.791,69,33,69z"/>
<g>
	<g>
		<path fill="#FFFFFF" d="M69.43,77.624l-4.084-4.083c-0.75-0.752-1.97-0.752-2.722,0l-4.083,4.083
			c-0.752,0.752-0.752,1.971,0,2.722l4.083,4.084c0.752,0.752,1.972,0.752,2.722,0l4.084-4.084
			C70.182,79.595,70.182,78.376,69.43,77.624z M64,81c-1.104,0-2-0.896-2-2s0.896-2,2-2c1.104,0,2,0.896,2,2S65.104,81,64,81z"/>
	</g>
</g>
<path fill="#EAC656" d="M79.007,69C79.003,68.354,79,67.691,79,67H49c0,0.691-0.003,1.354-0.007,2H79.007z"/>
</svg>
