<svg xmlns="http://www.w3.org/2000/svg" width="128" height="128"><path fill="#334D5D" d="M64 0c35.346 0 64 28.654 64 64 0 35.348-28.654 64-64 64-35.346 0-64-28.652-64-64 0-35.346 28.654-64 64-64z"/><path fill="#F3B647" d="M35 27h47c-.008.015 14.039 13.97 14 14v57c0 1.657-1.343 3-3 3h-58c-1.656 0-3-1.343-3-3v-68c0-1.656 1.344-3 3-3z"/><path fill="#CF7E34" d="M96 41c.047.016-1.343 0-3 0h-8c-1.656 0-3-1.343-3-3v-11l14 14z"/><path fill="#AA7F2F" d="M62.498 58.958c-.065-.11-.143-.195-.232-.255-.09-.061-.195-.098-.315-.113l-.435-.021h-.9c-.15 0-.282.012-.397.037-.114.025-.215.067-.3.127-.085.061-.16.144-.225.248-.065.104-.123.242-.173.412l-3.12 9.405c-.02.08-.018.15.008.211.024.061.092.09.202.09h1.755c.141 0 .238-.023.293-.068s.098-.117.127-.217l.586-1.904h3.435l.585 1.949c.029.109.082.178.157.203l.278.037h1.784c.11 0 .175-.035.195-.105.02-.07.02-.135 0-.195l-3.12-9.405c-.061-.182-.124-.326-.188-.436zm-2.588 6.104l.57-1.913.57-2.152h.09l.555 2.152.57 1.913h-2.355zm10.253-6.404c-.045-.04-.143-.061-.293-.061h-1.59c-.12 0-.208.022-.263.068-.055.044-.082.127-.082.247v9.871c0 .119.027.201.082.246s.143.068.263.068h1.59c.15 0 .248-.02.293-.061.045-.039.067-.125.067-.254v-9.871c0-.128-.022-.213-.067-.253z"/></svg>