<svg xmlns="http://www.w3.org/2000/svg" width="128" height="128"><path fill="#45B39C" d="M64 0c35.346 0 64 28.654 64 64 0 35.347-28.654 64-64 64s-64-28.652-64-64c0-35.345 28.654-64 64-64z"/><path fill="#00755E" d="M51.938 103h24.077v.992h-24.077v-.992z"/><path fill="#ECF0F0" d="M102.707 32.038h-77.452c-2.351 0-4.256 1.905-4.256 4.256v50.425c0 2.35 1.905 4.256 4.256 4.256h30.702c-.369 7.082-1.055 8.617-1.055 8.617s-1.23 2.979-2.936 2.979c.051 0 0 .426 0 .426h24.048s-.051-.426 0-.426c-1.624 0-2.812-2.979-2.812-2.979s-.811-1.535-1.179-8.617h30.118c2.352 0 4.82-1.906 4.82-4.256v-50.426c.002-2.35-1.904-4.255-4.254-4.255z"/><linearGradient id="a" gradientUnits="userSpaceOnUse" x1="63.991" y1="102.996" x2="63.991" y2="90.975"><stop offset="0" stop-color="#fff" stop-opacity="0"/><stop offset="1" stop-opacity=".5"/></linearGradient><path fill="url(#a)" d="M73.203 99.592s-.811-1.535-1.179-8.617h-16.067c-.369 7.082-1.055 8.617-1.055 8.617s-1.23 2.979-2.936 2.979c.051 0 0 .426 0 .426h24.048s-.051-.426 0-.426c-1.623-.001-2.811-2.979-2.811-2.979z"/><path fill="#2B414F" d="M102.738 32.002h-77.483c-2.351 0-4.256 1.905-4.256 4.256 0 0 .001 42.75 0 42.74-.003-.002 85.946-.014 85.995 0v-42.74c0-2.35-1.906-4.256-4.256-4.256zm-38.757 50c-1.648 0-2.985 1.336-2.985 2.984s1.337 2.984 2.985 2.984 2.985-1.336 2.985-2.984-1.336-2.984-2.985-2.984z"/><path fill="#3B5766" d="M101.959 36.959v37.037c-.17-.006-75.963.047-75.995 0v-37.037s76.013.019 75.995 0z"/></svg>