<svg xmlns="http://www.w3.org/2000/svg" width="128" height="128"><path fill="#EFC84A" d="M64 0c35.346 0 64 28.654 64 64 0 35.346-28.654 64-64 64-35.346 0-64-28.654-64-64 0-35.346 28.654-64 64-64z"/><path fill="#fff" d="M33 25h49c1.104 0 2 .896 2 2v69c0 1.105-.896 2-2 2h-49c-1.104 0-2-.895-2-2v-69c0-1.104.896-2 2-2z"/><path fill="#E4E7E8" d="M35 31h45v55h-45v-55z"/><path fill="#EBEDEE" d="M55 31h25v48l-25-48z"/><path fill="#E5E5E5" d="M58 27c.553 0 1 .448 1 1 0 .553-.447 1-1 1s-1-.448-1-1 .447-1 1-1z"/><path fill="#ddd" d="M58 89c1.656 0 3 1.344 3 3s-1.344 3-3 3-3-1.344-3-3 1.344-3 3-3z"/><path fill="#2B414F" d="M73 50h21c1.656 0 3 1.344 3 3v47c0 1.656-1.344 3-3 3h-21c-1.656 0-3-1.344-3-3v-47c0-1.657 1.344-3 3-3z"/><path fill="#3B5766" d="M73 58h21v34h-21v-34z"/><path fill="#45606E" d="M80 53h7c.553 0 1 .448 1 1s-.447 1-1 1h-7c-.553 0-1-.448-1-1s.447-1 1-1z"/><path fill="#69818F" d="M83.5 95c1.381 0 2.5 1.119 2.5 2.5s-1.119 2.5-2.5 2.5-2.5-1.119-2.5-2.5 1.119-2.5 2.5-2.5z"/></svg>