<svg xmlns="http://www.w3.org/2000/svg" width="128" height="128"><path fill="#E27C3F" d="M64 0c35.346 0 64 28.654 64 64s-28.654 64-64 64-64-28.654-64-64 28.654-64 64-64z"/><path fill="#676767" d="M64.188 40.153v-.004l-.072.002-.061-.002v.003l-37.243 53.41s5.266 1.545 11.258-4.902c2.1-2.038 6.283-5.742 8.223-6.953 2.289-1.428 2.703-1.948 8.186-3.089 0 0 3.232-.634 9.645-.636 6.41.002 9.645.636 9.645.636 5.48 1.142 5.863 1.62 8.152 3.047 1.938 1.21 6.156 4.957 8.254 6.995 5.994 6.447 11.375 4.902 11.375 4.902l-37.362-53.409z"/><path fill="#fff" d="M102.547 53.51c-2.123-7.778-5.518-14.308-5.701-14.704-1.363-2.925-6.723-6.547-15.572-3.861-.73.221-4.326 2.177-6.814 2.89-1.791.515-9.219.345-10.27.318v-.004l-.072.002-.062-.002v.003c-1.027.022-8.17.158-10.271-.317-2.521-.571-6.104-2.609-6.812-2.89-6.582-2.616-14.207.937-15.572 3.861-.186.396-3.578 6.926-5.701 14.704-2.123 7.777-6.016 20.702-5.699 27.88 0 4.171 1.045 6.798 1.045 6.798s1.17 4.123 2.986 5.688c.955.784 1.633 1.127 2.465 1.123s1.996-.337 2.32-.434c.34-.101 3.266-1.455 9.258-7.902 2.1-2.038 5.568-5.725 7.51-6.936 2.289-1.429 3.416-1.966 8.898-3.106 0 0 3.232-.634 9.643-.636 6.412.002 9.646.636 9.646.636 5.48 1.142 6.609 1.678 8.898 3.106 1.938 1.209 5.408 4.896 7.508 6.936 5.994 6.447 9.033 7.802 9.375 7.902.322.096 1.334.43 2.166.434s1.549-.262 2.502-1.046c1.816-1.565 2.988-5.765 2.988-5.765s.812-2.627.812-6.798c.309-7.178-3.351-20.103-5.474-27.88z"/><linearGradient id="a" gradientUnits="userSpaceOnUse" x1="42.86" y1="60.048" x2="42.86" y2="80.063" gradientTransform="matrix(1 0 0 -1 .14 127.055)"><stop offset="0" stop-color="#E0E0E0"/><stop offset=".759" stop-color="#fff"/></linearGradient><path fill="url(#a)" d="M43 46.992c5.52 0 9.992 4.479 9.992 10.008 0 5.526-4.473 10.007-9.992 10.007-5.518 0-9.99-4.481-9.99-10.007 0-5.527 4.472-10.008 9.99-10.008z"/><path fill="#494949" d="M43 48.995c4.412 0 7.99 3.584 7.99 8.005 0 4.42-3.578 8.004-7.99 8.004-4.41 0-7.986-3.584-7.986-8.004 0-4.421 3.576-8.005 7.986-8.005z"/><path fill="#A9A9A9" d="M64.504 54.991c1.385 0 2.508 1.123 2.508 2.509 0 1.385-1.123 2.509-2.508 2.509-1.387 0-2.51-1.124-2.51-2.509 0-1.386 1.123-2.509 2.51-2.509z"/><path fill="#A9A9A9" d="M70.508 56.01c-.828 0-1.498.667-1.498 1.49s.67 1.49 1.498 1.49 1.5-.667 1.5-1.49-.672-1.49-1.5-1.49zm-12 0c-.828 0-1.498.667-1.498 1.49s.67 1.49 1.498 1.49 1.5-.667 1.5-1.49-.672-1.49-1.5-1.49z"/><path fill="#3082BF" d="M79.5 54.001c1.934 0 3.5 1.566 3.5 3.499 0 1.932-1.566 3.498-3.5 3.498-1.932 0-3.496-1.566-3.496-3.498 0-1.933 1.564-3.499 3.496-3.499z"/><path fill="#E05F4D" d="M86.5 47.001c1.934 0 3.5 1.566 3.5 3.499 0 1.932-1.566 3.498-3.5 3.498-1.932 0-3.496-1.566-3.496-3.498 0-1.933 1.564-3.499 3.496-3.499z"/><path fill="#BF422B" d="M93.5 54.001c1.934 0 3.5 1.566 3.5 3.499 0 1.932-1.566 3.498-3.5 3.498-1.932 0-3.496-1.566-3.496-3.498 0-1.933 1.564-3.499 3.496-3.499z"/><path fill="#4EAC55" d="M86.512 61.011c1.932 0 3.498 1.566 3.498 3.498 0 1.933-1.566 3.499-3.498 3.499-1.934 0-3.5-1.566-3.5-3.499 0-1.932 1.566-3.498 3.5-3.498z"/><path fill="#3497E1" d="M79.5 54.665c1.566 0 2.836 1.269 2.836 2.835 0 1.565-1.27 2.834-2.836 2.834-1.564 0-2.834-1.269-2.834-2.834 0-1.566 1.27-2.835 2.834-2.835z"/><path fill="#E27C3F" d="M86.5 47.665c1.566 0 2.836 1.269 2.836 2.835 0 1.565-1.27 2.834-2.836 2.834-1.564 0-2.834-1.269-2.834-2.834 0-1.566 1.27-2.835 2.834-2.835z"/><path fill="#DF5A48" d="M93.5 54.665c1.566 0 2.836 1.269 2.836 2.835 0 1.565-1.27 2.834-2.836 2.834-1.564 0-2.834-1.269-2.834-2.834 0-1.566 1.27-2.835 2.834-2.835z"/><path fill="#5ECD65" d="M86.512 61.675c1.564 0 2.834 1.269 2.834 2.834 0 1.565-1.27 2.835-2.834 2.835-1.566 0-2.836-1.27-2.836-2.835s1.267-2.834 2.836-2.834z"/><path fill="#ECF0F0" d="M64.504 55.515c1.096 0 1.982.889 1.982 1.985 0 1.095-.887 1.985-1.982 1.985-1.098 0-1.984-.89-1.984-1.985 0-1.096.886-1.985 1.984-1.985z"/></svg>