<svg xmlns="http://www.w3.org/2000/svg" width="128" height="128"><path fill="#EFC84A" d="M64-.073c35.346 0 64 28.654 64 64 0 35.347-28.654 64-64 64s-64-28.653-64-64c0-35.346 28.654-64 64-64z"/><path fill="#3C5463" d="M28.003 31.939h73.04l-.062 63.948h-73.009l.031-63.948z"/><path fill="#CD5929" d="M28.021 95.866c-2.015 0-4.023-1.509-4.023-3.522v-57.153c0-2.015 2.009-3.273 4.023-3.273"/><path fill="#CD5929" d="M101.025 95.846c2.015 0 3.961-1.633 3.961-3.648v-56.507c0-2.015-1.946-3.711-3.961-3.711"/><path fill="#2E4654" d="M41.769 40.931h-5.597c-.672 0-1.217.544-1.217 1.216v5.565c0 .672.545 1.216 1.217 1.216h5.597c.672 0 1.216-.544 1.216-1.216v-5.565c-.001-.672-.545-1.216-1.216-1.216zm13 0h-5.597c-.672 0-1.217.544-1.217 1.216v5.565c0 .672.545 1.216 1.217 1.216h5.597c.671 0 1.216-.544 1.216-1.216v-5.565c-.001-.672-.546-1.216-1.216-1.216z"/><path fill="#2E4654" d="M41.769 53.93h-5.597c-.672 0-1.217.544-1.217 1.216v5.566c0 .672.545 1.216 1.217 1.216h5.597c.672 0 1.216-.544 1.216-1.216v-5.566c-.001-.671-.545-1.216-1.216-1.216zm13 0h-5.597c-.672 0-1.217.544-1.217 1.216v5.566c0 .672.545 1.216 1.217 1.216h5.597c.671 0 1.216-.544 1.216-1.216v-5.566c-.001-.671-.546-1.216-1.216-1.216z"/><path fill="#2D4250" d="M28.021 68.965h72.901v26.86h-72.901v-26.86z"/><path fill="#868686" d="M36.779 69.924h-1.574c-.671 0-1.216.545-1.216 1.217v10.571c0 .672.42 1.216 1.091 1.216h1.73c.672 0 1.185-.544 1.185-1.216v-10.571c0-.672-.544-1.217-1.216-1.217zm9 0h-1.574c-.671 0-1.216.545-1.216 1.217v10.571c0 .672.419 1.216 1.091 1.216h1.73c.672 0 1.185-.544 1.185-1.216v-10.571c0-.672-.544-1.217-1.216-1.217zm15 0h-1.574c-.672 0-1.216.545-1.216 1.217v10.571c0 .672.42 1.216 1.091 1.216h1.73c.672 0 1.185-.544 1.185-1.216v-10.571c0-.672-.544-1.217-1.216-1.217zm9 0h-1.574c-.671 0-1.216.545-1.216 1.217v10.571c0 .672.42 1.216 1.091 1.216h1.73c.672 0 1.185-.544 1.185-1.216v-10.571c0-.672-.544-1.217-1.216-1.217zm15 0h-1.574c-.671 0-1.216.545-1.216 1.217v10.571c0 .672.42 1.216 1.091 1.216h1.73c.672 0 1.185-.544 1.185-1.216v-10.571c0-.672-.544-1.217-1.216-1.217zm9 0h-1.574c-.671 0-1.216.545-1.216 1.217v10.571c0 .672.42 1.216 1.091 1.216h1.73c.672 0 1.185-.544 1.185-1.216v-10.571c0-.672-.544-1.217-1.216-1.217z"/><path fill="#fff" d="M32.988 83.933c.019.026.003-14.028.004-14.009h-2.775c-.672 0-1.217.545-1.217 1.217v22.574c0 .672.545 1.217 1.217 1.217h4.568c.671 0 1.216-.545 1.216-1.217v-9.79c0-.012-2.975-.009-3.013.008zm9.002-.055c-.002.089.031-13.964.014-13.954h-3.043c.002-.02-.015 14.035.004 14.009-.038-.017-1.967-.02-1.967-.008v9.76c0 .671.545 1.216 1.216 1.216h4.569c.671 0 1.216-.545 1.216-1.216v-9.791s-1.782.006-2.009-.016zm8.794-13.954h-2.776c.001-.02-.015 14.035.004 14.009-.038-.017-3.013-.02-3.013-.008v9.79c0 .672.545 1.217 1.217 1.217h4.568c.671 0 1.216-.545 1.216-1.217v-22.574c0-.672-.545-1.217-1.216-1.217zm6.204 14.009c.019.026.003-14.028.004-14.009h-2.775c-.672 0-1.217.545-1.217 1.217v22.574c0 .672.545 1.217 1.217 1.217h4.568c.671 0 1.216-.545 1.216-1.217v-9.79c0-.012-2.975-.009-3.013.008zm9.002-.055c-.002.089.031-13.964.014-13.954h-3.043c.002-.02-.015 14.035.004 14.009-.038-.017-1.967-.02-1.967-.008v9.76c0 .671.545 1.216 1.216 1.216h4.569c.671 0 1.216-.545 1.216-1.216v-9.791s-1.782.006-2.009-.016zm8.794-13.954h-2.776c.001-.02-.015 14.035.004 14.009-.038-.017-3.013-.02-3.013-.008v9.79c0 .672.545 1.217 1.216 1.217h4.569c.671 0 1.216-.545 1.216-1.217v-22.574c0-.672-.545-1.217-1.216-1.217zm6.204 14.009c.019.026.003-14.028.004-14.009h-2.775c-.672 0-1.217.545-1.217 1.217v22.574c0 .672.545 1.217 1.217 1.217h4.568c.671 0 1.216-.545 1.216-1.217v-9.79c0-.012-2.975-.009-3.013.008zm9.002-.055c-.002.089.031-13.964.014-13.954h-3.043c.002-.02-.015 14.035.004 14.009-.038-.017-1.967-.02-1.967-.008v9.76c0 .671.545 1.216 1.216 1.216h4.569c.671 0 1.216-.545 1.216-1.216v-9.791s-1.782.006-2.009-.016zm8.794-13.954h-2.776c.002-.02-.015 14.035.004 14.009-.038-.017-3.013-.02-3.013-.008v9.79c0 .672.545 1.217 1.217 1.217h4.568c.671 0 1.216-.545 1.216-1.217v-22.574c0-.672-.545-1.217-1.216-1.217z"/><path fill="#E27C3F" d="M41.769 39.931h-5.597c-.672 0-1.217.544-1.217 1.216v5.565c0 .672.545 1.216 1.217 1.216h5.597c.672 0 1.216-.544 1.216-1.216v-5.565c-.001-.672-.545-1.216-1.216-1.216zm13 0h-5.597c-.672 0-1.217.544-1.217 1.216v5.565c0 .672.545 1.216 1.217 1.216h5.597c.671 0 1.216-.544 1.216-1.216v-5.565c-.001-.672-.546-1.216-1.216-1.216z"/><path fill="#868686" d="M41.769 52.93h-5.597c-.672 0-1.217.544-1.217 1.216v5.566c0 .672.545 1.216 1.217 1.216h5.597c.672 0 1.216-.544 1.216-1.216v-5.566c-.001-.671-.545-1.216-1.216-1.216zm13 0h-5.597c-.672 0-1.217.544-1.217 1.216v5.566c0 .672.545 1.216 1.217 1.216h5.597c.671 0 1.216-.544 1.216-1.216v-5.566c-.001-.671-.546-1.216-1.216-1.216z"/><path fill="#2B414F" d="M66 60.918h1.979v-21.002h-1.979v21.002zm11 0h1.979v-21.002h-1.979v21.002zm12-21.002v21.002h1.979v-21.002h-1.979z"/><path fill="#ECF0F0" d="M66.994 44.942c-1.668 0-3.019 1.351-3.019 3.018 0 1.667 1.351 3.019 3.019 3.019 1.667 0 3.019-1.352 3.019-3.019s-1.352-3.018-3.019-3.018zm11 4.999c-1.667 0-3.019 1.352-3.019 3.02 0 1.667 1.352 3.018 3.019 3.018s3.019-1.351 3.019-3.018c0-1.668-1.352-3.02-3.019-3.02zm12-4.999c-1.667 0-3.019 1.351-3.019 3.018 0 1.667 1.352 3.019 3.019 3.019s3.019-1.352 3.019-3.019-1.352-3.018-3.019-3.018z"/></svg>