<svg xmlns="http://www.w3.org/2000/svg" xmlns:xlink="http://www.w3.org/1999/xlink" width="128" height="128"><path fill="#DF5A48" d="M64 0c35.346 0 64 28.654 64 64 0 35.347-28.654 64-64 64s-64-28.653-64-64c0-35.346 28.654-64 64-64z"/><linearGradient id="a" gradientUnits="userSpaceOnUse" x1="64.5" y1="95" x2="64.5" y2="26.002"><stop offset="0" stop-color="#F0CC59"/><stop offset="1" stop-color="#F7E4A9"/></linearGradient><path fill="url(#a)" d="M64.5 26.001c13.531 0 24.5 10.968 24.5 24.5 0 5.894-1.916 11.382-4.421 15.507-1.268 1.348-2.514 3.832-3.087 4.971-1.782 3.541-4.742 20.524-8.444 22.091-2.935 1.243-5.161 1.93-8.548 1.93-3.339 0-5.521-.667-8.422-1.877-3.748-1.562-6.582-18.647-8.557-22.128-.725-1.276-1.695-2.845-3.098-4.983-2.506-4.132-4.423-9.629-4.423-15.512 0-13.531 10.969-24.499 24.5-24.499z"/><path fill="#495F6D" d="M77.253 51.496c-1.275-1.353-2.536-1.245-3.173-1.06-2.051.597-3.015 3.336-3.191 4.249-.186.957-.369 2.154-.55 3.514-.456.039-.945.053-1.466.038-.753-.021-1.4-.15-1.956-.35.257-.343.489-.71.697-1.102 1.162-2.197 1.236-4.669.188-6.302-.71-1.108-1.891-1.706-3.236-1.657-1.36-.049-2.527.549-3.237 1.657-1.048 1.631-.973 4.105.188 6.302.207.391.44.759.697 1.102-.556.2-1.202.33-1.955.35-.521.016-1.01.001-1.467-.038-.181-1.36-.364-2.557-.55-3.514-.177-.913-1.14-3.653-3.192-4.249-.638-.186-1.896-.293-3.172 1.06-1.362 1.444-1.687 3.399-.866 5.229.701 1.566 2.374 3.182 5.157 3.956.983 8.399 1.882 21.167 2.101 24.402h2.904c-.18-2.717-1.034-15.185-2.024-23.948.382.017.777.02 1.188.009 1.568-.042 3.003-.445 4.227-1.16 1.224.713 2.66 1.116 4.227 1.16.408.011.805.008 1.188-.009-.99 8.741-1.844 21.186-2.027 23.948h2.912c.195-2.922 1.099-15.854 2.098-24.402 2.783-.774 4.456-2.39 5.157-3.956.819-1.829.496-3.785-.867-5.229zm-23.586 4.041c-.333-.742-.217-1.468.327-2.044l.269-.252c.351.167.987 1.291 1.124 1.997.121.628.242 1.368.364 2.2-1.108-.526-1.787-1.237-2.084-1.901zm11.374-.112c-.117.222-.273.479-.477.744-.202-.265-.359-.521-.477-.744-.726-1.373-.702-2.762-.312-3.372.123-.193.279-.322.616-.322l.084.002.095.004.082-.004c.395-.02.566.112.699.32.393.61.417 1.999-.31 3.372zm10.424.111c-.298.665-.978 1.376-2.084 1.903.121-.831.242-1.574.363-2.202.14-.724.806-1.887 1.066-2.005.001 0 .115.037.326.26.545.576.661 1.302.329 2.044z"/><path fill="#ECF0F0" d="M78 92.5c0-1.381-1.119-2.5-2.5-2.5 1.381 0 2.5-1.119 2.5-2.5s-1.119-2.5-2.5-2.5h-22c-1.381 0-2.5 1.119-2.5 2.5s1.119 2.5 2.5 2.5c-1.381 0-2.5 1.119-2.5 2.5s1.119 2.5 2.5 2.5c-1.381 0-2.5 1.119-2.5 2.5s1.119 2.5 2.5 2.5h1.5c0 1.658 4.344 5 6 5h7c1.657 0 6-3.342 6-5h1.5c1.381 0 2.5-1.119 2.5-2.5s-1.119-2.5-2.5-2.5c1.381 0 2.5-1.119 2.5-2.5z"/><defs><path id="b" d="M78 92.5c0-1.381-1.119-2.5-2.5-2.5 1.381 0 2.5-1.119 2.5-2.5s-1.119-2.5-2.5-2.5h-22c-1.381 0-2.5 1.119-2.5 2.5s1.119 2.5 2.5 2.5c-1.381 0-2.5 1.119-2.5 2.5s1.119 2.5 2.5 2.5c-1.381 0-2.5 1.119-2.5 2.5s1.119 2.5 2.5 2.5h1.5c0 1.658 4.344 5 6 5h7c1.657 0 6-3.342 6-5h1.5c1.381 0 2.5-1.119 2.5-2.5s-1.119-2.5-2.5-2.5c1.381 0 2.5-1.119 2.5-2.5z"/></defs><clipPath id="c"><use xlink:href="#b" overflow="visible"/></clipPath><path fill="#D0D4D4" d="M51 85v2h27v-2h-27zm0 7h27v-2h-27v2zm0 5h27v-2h-27v2zm0 8h27v-5h-27v5z" clip-path="url(#c)"/></svg>