<svg xmlns="http://www.w3.org/2000/svg" width="128" height="128"><path fill="#EFC84A" d="M64 0c35.346 0 64 28.654 64 64 0 35.347-28.654 64-64 64s-64-28.653-64-64c0-35.346 28.654-64 64-64z"/><path fill="#334D5D" d="M38 45v43h.031c.647 5.566 12.025 10 25.969 10s25.322-4.434 25.969-10h.031v-43h-52z"/><path fill="#3D5664" d="M60.008 97.875l-.166-32.271h-11.835v30.173c3.418 1.078 7.519 1.82 12.001 2.098z"/><path fill="#2D4453" d="M38 45.202v22.597c6.798 2.604 15.939 4.202 26 4.202 10.062 0 19.202-1.598 26-4.202v-22.597l-.526-.202h-50.948l-.526.202z"/><path fill="#374C59" d="M59.874 71.903l-.032-6.299h-11.835v4.94c3.679.7 7.662 1.174 11.867 1.359z"/><path fill="#3B5766" d="M64 38.001c20.987 0 38 6.939 38 15.5s-17.013 15.499-38 15.499c-20.986 0-38-6.939-38-15.5s17.014-15.499 38-15.499z"/><path fill="#2B414F" d="M64 44c14.359 0 26 4.029 26 9 0 4.97-11.641 9-26 9s-26-4.029-26-9 11.641-9 26-9z"/><path fill="#fff" d="M80.939 38.817c.214-.255.349-.581.349-.941 0-.813-.66-1.473-1.475-1.473-.492 0-.925.243-1.193.614l-.007-.005-20.446 28.01-.149.204-.024.034.005.003c-.122.217-.197.462-.197.728 0 .823.666 1.489 1.489 1.489.58 0 1.075-.334 1.322-.815l20.326-27.848z"/><polygon fill="#E27C3F" points="64.863,60.842 77.917,42.958 75.343,41.492 62.289,59.376"/></svg>