<svg xmlns="http://www.w3.org/2000/svg" width="128" height="128"><path fill="#EFC84A" d="M64 0c35.346 0 64 28.654 64 64s-28.654 64-64 64-64-28.654-64-64 28.654-64 64-64z"/><path fill="#DF5A48" d="M25 46.999h78c1.656 0 3 1.344 3 3v43c0 1.657-1.344 3-3 3h-78c-1.656 0-3-1.343-3-3v-43c0-1.656 1.344-3 3-3z"/><path d="M22.643 94.854c.548.699 1.4 1.146 2.357 1.146h78c.963 0 1.82-.455 2.369-1.16.016.018-41.385-22.84-41.385-22.84s-41.289 22.869-41.341 22.854zm81.864-47.451l.005-.007-.075-.042-.035-.021c-2.309-1.325-40.402-23.333-40.402-23.333s-40.452 23.391-40.505 23.376l.009.013c-.345.21-.648.488-.906.814.053-.014 41.386 23.797 41.386 23.797s41.438-23.81 41.422-23.791c-.252-.324-.556-.596-.899-.806z" fill="#BD3E25"/><path fill="#E4E7E8" d="M29 33h70v18.158c.052.019-34.521 18.8-35.021 18.842.021.5-34.979-19.423-34.979-19.368v-17.632z"/><path fill="#ADB2B3" d="M60 39h-25v4h25v-4zm-25 7v4h55v-4h-55z"/></svg>