<svg xmlns="http://www.w3.org/2000/svg" xmlns:xlink="http://www.w3.org/1999/xlink" width="128" height="128"><path fill="#DF5A48" d="M64 0c35.347 0 64 28.654 64 64 0 35.347-28.653 64-64 64-35.346 0-64-28.653-64-64 0-35.346 28.654-64 64-64z"/><defs><path id="a" d="M64 0c35.347 0 64 28.654 64 64 0 35.347-28.653 64-64 64-35.346 0-64-28.653-64-64 0-35.346 28.654-64 64-64z"/></defs><clipPath id="b"><use xlink:href="#a" overflow="visible"/></clipPath><g clip-path="url(#b)"><path fill="#EFC84A" d="M64 75c20.435 0 37 14.999 37 33.5 0 18.502-16.565 33.5-37 33.5s-37-14.998-37-33.5c0-18.501 16.565-33.5 37-33.5z"/><path fill="#3B5766" d="M83.676 111.005c-.223 0-.442-.068-.629-.202l-3.043-2.178-3.044 2.178c-.188.134-.408.202-.629.202-.218 0-.437-.066-.622-.198-.374-.262-.529-.729-.383-1.153l1.196-3.479-3.077-2.133c-.376-.262-.534-.727-.392-1.152.142-.423.549-.709 1.008-.709h.007l3.784.029 1.142-3.495c.139-.427.548-.717 1.009-.717s.87.29 1.008.717l1.142 3.495 3.781-.029h.01c.457 0 .866.286 1.005.709.144.426-.013.891-.389 1.152l-3.076 2.133 1.198 3.479c.145.423-.011.891-.382 1.153-.186.131-.406.198-.624.198z"/><path fill="#E09274" d="M64 24c16.568 0 30 15.223 30 34 0 18.778-13.432 34-30 34s-30-15.222-30-34c0-18.777 13.432-34 30-34z"/><path fill="#752C00" d="M34.002 47.997l.185.003c10.958 0 20.565-3.774 25.971-9.444 5.555 5.062 14.615 8.361 24.858 8.361 2.763 0 5.437-.243 7.981-.693-4.35-14.132-15.802-24.224-29.247-24.224-14 0-25.839 10.943-29.748 25.997z"/><path fill="#fff" d="M73.5 55c-3.037 0-5.5 2.463-5.5 5.5 0 3.038 2.463 5.5 5.5 5.5s5.5-2.462 5.5-5.5c0-3.037-2.463-5.5-5.5-5.5zm-19 0c-3.037 0-5.5 2.463-5.5 5.5 0 3.038 2.463 5.5 5.5 5.5s5.5-2.462 5.5-5.5c0-3.037-2.463-5.5-5.5-5.5z"/><path fill="#334D5D" d="M54.5 58c-1.381 0-2.5 1.119-2.5 2.5s1.119 2.5 2.5 2.5 2.5-1.119 2.5-2.5-1.119-2.5-2.5-2.5zm19 0c-1.381 0-2.5 1.119-2.5 2.5s1.119 2.5 2.5 2.5 2.5-1.119 2.5-2.5-1.119-2.5-2.5-2.5z"/><path fill="#9C6550" d="M64.114 80.036c-2.745 0-4.874-1.385-5.007-1.474-.69-.459-.877-1.39-.419-2.08.458-.687 1.386-.874 2.073-.422.139.089 3.312 2.11 6.195.035.671-.481 1.608-.33 2.094.342.483.672.331 1.609-.342 2.094-1.567 1.129-3.164 1.505-4.594 1.505z"/></g></svg>