<svg xmlns="http://www.w3.org/2000/svg" width="128" height="128"><path fill="#45B39C" d="M64 0c35.346 0 64 28.654 64 64s-28.654 64-64 64-64-28.654-64-64 28.654-64 64-64z"/><path fill="#F5F5F5" d="M101.436 99.431l-19.19-7.736-17.147 7.57-17.976-7.59-19.604 7.733 6.203-61.015 14.961-5.2 16.344 4.293 15.815-4.611 14.868 4.895 5.726 61.661z"/><polygon fill="#E5E5E5" points="47.119,91.675 65.093,99.265 65.023,37.486 48.682,33.192"/><polygon fill="#EFEFEF" points="80.841,32.875 65.023,37.486 65.093,99.265 82.242,91.694"/><path fill="#E45136" d="M82.189 88.438l15.804 6.371-5.089-54.805-12.117-3.989-15.721 4.583-16.264-4.271-12.291 4.271-5.514 54.212 16.155-6.375 17.908 7.562 17.129-7.559z"/><path fill="#CE4830" d="M65.066 68.938l16.354-9.145-.636-23.777-15.718 32.922z"/><polygon fill="#BD3E25" points="47.157,88.435 65.066,95.997 65.066,40.599 48.805,36.326"/><polygon fill="#BD3E25" points="82.189,88.438 97.993,94.81 92.904,40.004 80.787,36.016"/><path fill="#F0C949" d="M65.066 20.923c-9.938 0-17.992 8.126-17.992 18.151 0 .396.342 5.811 1.662 8.25 4.453 10.296 16.311 21.65 16.33 21.613.016.059 11.924-11.363 16.354-21.676 1.547-3.327 1.637-7.993 1.637-8.188.002-10.024-8.055-18.15-17.991-18.15zm0 26.934c-4.812 0-8.707-3.932-8.707-8.783 0-4.854 3.896-8.782 8.707-8.782 4.808 0 8.705 3.932 8.705 8.782 0 4.852-3.897 8.783-8.705 8.783z"/><path fill="#fff" d="M65.066 29.92c-4.969 0-8.998 4.028-8.998 8.998s4.029 8.998 8.998 8.998c4.97 0 8.998-4.028 8.998-8.998s-4.028-8.998-8.998-8.998zm0 15c-3.312 0-5.998-2.686-5.998-5.999s2.686-5.999 5.998-5.999c3.312 0 5.998 2.686 5.998 5.999s-2.685 5.999-5.998 5.999z"/></svg>