<?xml version="1.0" encoding="utf-8"?>
<!-- Generator: Adobe Illustrator 16.2.1, SVG Export Plug-In . SVG Version: 6.00 Build 0)  -->
<!DOCTYPE svg PUBLIC "-//W3C//DTD SVG 1.1//EN" "http://www.w3.org/Graphics/SVG/1.1/DTD/svg11.dtd">
<svg version="1.1" id="Слой_1" xmlns="http://www.w3.org/2000/svg" xmlns:xlink="http://www.w3.org/1999/xlink" x="0px" y="0px"
	 width="128px" height="128px" viewBox="0 0 128 128" enable-background="new 0 0 128 128" xml:space="preserve">
<path fill="#EBEEEE" d="M64,0c35.348,0,64,28.654,64,64c0,35.348-28.652,64-64,64C28.654,128,0,99.348,0,64C0,28.654,28.654,0,64,0z
	"/>
<path fill="#334D5D" d="M51,25.001h25c2.762,0,5,2.238,5,4.999v28.001L63.5,70L46,58.001V30C46,27.239,48.238,25.001,51,25.001z"/>
<g>
	<polygon fill="#65717D" points="76,61.429 76,25.001 71,25.001 71,64.857 	"/>
	<polygon fill="#65717D" points="56,64.857 56,25.001 51,25.001 51,61.429 	"/>
	<polygon fill="#65717D" points="63.5,70 66,68.286 66,25.001 61,25.001 61,68.286 	"/>
</g>
<g>
	<polygon fill="#5F727F" points="76,61.429 76,25.001 71,25.001 71,64.857 	"/>
	<polygon fill="#5F727F" points="56,64.857 56,25.001 51,25.001 51,61.429 	"/>
	<polygon fill="#5F727F" points="63.5,70 66,68.286 66,25.001 61,25.001 61,68.286 	"/>
</g>
<path fill="#304957" d="M46.101,29H80.9c-0.465-2.282-2.48-3.999-4.899-3.999H51C48.581,25.001,46.564,26.718,46.101,29z"/>
<rect x="51" y="25.001" fill="#5A6C79" width="5" height="3.999"/>
<rect x="61" y="25.001" fill="#5A6C79" width="5" height="3.999"/>
<rect x="71" y="25.001" fill="#5A6C79" width="5" height="3.999"/>
<path fill="#EFC84A" d="M88.811,73.014c-0.44-1.313-1.574-2.275-2.938-2.484l-13.27-2.038L66.833,56.13
	c-0.604-1.298-1.905-2.128-3.334-2.128c-1.428,0-2.727,0.83-3.334,2.128l-5.767,12.36l-13.271,2.037
	c-1.363,0.209-2.496,1.172-2.936,2.486c-0.439,1.315-0.107,2.768,0.855,3.76l9.725,10.021L46.517,100.7
	c-0.229,1.397,0.359,2.805,1.511,3.624c0.634,0.447,1.378,0.677,2.121,0.677c0.612,0,1.226-0.153,1.783-0.461L63.5,98.109
	l11.57,6.431c0.557,0.308,1.17,0.461,1.779,0.461c0.746,0,1.488-0.229,2.123-0.677c1.151-0.819,1.738-2.227,1.512-3.624
	l-2.256-13.904l9.726-10.022C88.917,75.781,89.247,74.33,88.811,73.014z"/>
<g>
	<path fill="#D7B442" d="M64,72c-5.523,0-10,4.479-10,10s4.477,10,10,10c5.521,0,10-4.479,10-10S69.521,72,64,72z M64,90
		c-4.418,0-8-3.582-8-8s3.582-8,8-8s8,3.582,8,8S68.418,90,64,90z"/>
	<path fill="#D7B442" d="M64,78c-0.553,0-1,0.447-1,1v6c0,0.553,0.447,1,1,1c0.553,0,1-0.447,1-1v-6C65,78.447,64.553,78,64,78z"/>
</g>
</svg>
