<svg xmlns="http://www.w3.org/2000/svg" xmlns:xlink="http://www.w3.org/1999/xlink" width="128" height="128"><path fill="#334D5D" d="M64 0c35.346 0 64 28.654 64 64 0 35.347-28.654 64-64 64-35.346 0-64-28.653-64-64 0-35.346 28.654-64 64-64z"/><path fill="#BCC4C8" d="M41 65h46v2h-46v-2z"/><path fill="#F4EFEF" d="M89 65.473c0-.814-.646-1.473-1.442-1.473s-1.442.659-1.442 1.473c0 12.452-9.921 22.582-22.115 22.582s-22.115-10.13-22.115-22.582c0-.813-.646-1.473-1.442-1.473-.798 0-1.444.659-1.444 1.473 0 13.63 10.516 24.799 23.697 25.493l-1.687 11.171c-4.062.381-7.01 1.518-7.01 2.863 0 1.657 4.478 3 10 3s10-1.343 10-3c0-1.345-2.948-2.482-7.011-2.863l-1.687-11.171c13.182-.695 23.698-11.863 23.698-25.493z"/><path fill="#EFC84A" d="M64 24c10.493 0 19 8.507 19 19v23c0 10.493-8.507 19-19 19s-19-8.507-19-19v-23c0-10.493 8.507-19 19-19z"/><path fill="#D7B442" d="M64 24c-.506 0-1.003.037-1.5.076 9.79.767 17.5 8.937 17.5 18.924v23c0 9.986-7.71 18.157-17.5 18.924.497.039.994.076 1.5.076 10.493 0 19-8.507 19-19v-23c0-10.493-8.507-19-19-19z"/><path fill="#45B39C" d="M82.74 69h-37.481c1.442 9.064 9.271 16 18.741 16s17.299-6.936 18.74-16z"/><path fill="#EBEEEE" d="M45 66c0 1.023.104 2.021.259 3h37.481c.156-.979.26-1.977.26-3v-3h-38v3z"/><path d="M70 52h13v-4h-13c-1.104 0-2 .896-2 2 0 1.105.896 2 2 2zm-10-2c0-1.104-.896-2-2-2h-13v4h13c1.104 0 2-.895 2-2zm8-12c0 1.104.896 2 2 2h12.74c-.221-1.389-.584-2.729-1.089-4h-11.651c-1.104 0-2 .896-2 2zm0 6c0 1.104.896 2 2 2h13v-3c0-.337-.033-.667-.051-1h-12.949c-1.104 0-2 .896-2 2zm-10-2h-12.95c-.017.333-.05.663-.05 1v3h13c1.104 0 2-.896 2-2s-.896-2-2-2zm2 14c0-1.104-.896-2-2-2h-13v4h13c1.104 0 2-.896 2-2zm10-2c-1.104 0-2 .896-2 2s.896 2 2 2h13v-4h-13zm-12-18h-11.651c-.505 1.271-.868 2.611-1.089 4h12.74c1.104 0 2-.896 2-2s-.896-2-2-2z" fill="#C0A03A"/><defs><path id="a" d="M64 24c-.506 0-1.003.037-1.5.076 9.79.767 17.5 8.937 17.5 18.924v23c0 9.986-7.71 18.157-17.5 18.924.497.039.994.076 1.5.076 10.493 0 19-8.507 19-19v-23c0-10.493-8.507-19-19-19z"/></defs><clipPath id="b"><use xlink:href="#a" overflow="visible"/></clipPath><path d="M70 52h13v-4h-13c-1.104 0-2 .896-2 2 0 1.105.896 2 2 2zm-10-2c0-1.104-.896-2-2-2h-13v4h13c1.104 0 2-.895 2-2zm8-12c0 1.104.896 2 2 2h12.74c-.221-1.389-.584-2.729-1.089-4h-11.651c-1.104 0-2 .896-2 2zm0 6c0 1.104.896 2 2 2h13v-3c0-.337-.033-.667-.051-1h-12.949c-1.104 0-2 .896-2 2zm-10-2h-12.95c-.017.333-.05.663-.05 1v3h13c1.104 0 2-.896 2-2s-.896-2-2-2zm2 14c0-1.104-.896-2-2-2h-13v4h13c1.104 0 2-.896 2-2zm10-2c-1.104 0-2 .896-2 2s.896 2 2 2h13v-4h-13zm-12-18h-11.651c-.505 1.271-.868 2.611-1.089 4h12.74c1.104 0 2-.896 2-2s-.896-2-2-2z" clip-path="url(#b)" fill="#AC9033"/><path fill="#D3D6D7" d="M80 66c0 1.023-.1 2.021-.256 3h2.996l.002-.008c.073-.464.133-.933.178-1.405.043-.525.08-1.052.08-1.587v-3h-3v3z"/><defs><path id="c" d="M64 24c-.506 0-1.003.037-1.5.076 9.79.767 17.5 8.937 17.5 18.924v23c0 9.986-7.71 18.157-17.5 18.924.497.039.994.076 1.5.076 10.493 0 19-8.507 19-19v-23c0-10.493-8.507-19-19-19z"/></defs><clipPath id="d"><use xlink:href="#c" overflow="visible"/></clipPath><path d="M70 52h13v-4h-13c-1.104 0-2 .896-2 2 0 1.105.896 2 2 2zm-10-2c0-1.104-.896-2-2-2h-13v4h13c1.104 0 2-.895 2-2zm8-12c0 1.104.896 2 2 2h12.74c-.221-1.389-.584-2.729-1.089-4h-11.651c-1.104 0-2 .896-2 2zm0 6c0 1.104.896 2 2 2h13v-3c0-.337-.033-.667-.051-1h-12.949c-1.104 0-2 .896-2 2zm-10-2h-12.95c-.017.333-.05.663-.05 1v3h13c1.104 0 2-.896 2-2s-.896-2-2-2zm2 14c0-1.104-.896-2-2-2h-13v4h13c1.104 0 2-.896 2-2zm10-2c-1.104 0-2 .896-2 2s.896 2 2 2h13v-4h-13zm-12-18h-11.651c-.505 1.271-.868 2.611-1.089 4h12.74c1.104 0 2-.896 2-2s-.896-2-2-2z" clip-path="url(#d)" fill="#AC9033"/><path fill="#3CA18C" d="M66.471 84.821c.396-.052.793-.104 1.181-.181.247-.048.488-.111.731-.169.337-.08.672-.16 1.002-.258.262-.077.52-.167.777-.256.296-.102.59-.206.879-.321.271-.109.539-.226.805-.347.258-.117.513-.24.764-.368.28-.144.558-.291.829-.447l.636-.387c.291-.183.58-.368.861-.566l.477-.357c.312-.234.621-.471.916-.724l.243-.221c3.215-2.853 5.462-6.775 6.169-11.216v-.004h-2.996c-1.365 8.576-8.457 15.235-17.244 15.924.496.04.993.077 1.499.077.625 0 1.243-.034 1.854-.094l.617-.085z"/></svg>