<svg xmlns="http://www.w3.org/2000/svg" width="128" height="128"><path fill="#334D5D" d="M64 0c35.347 0 64 28.654 64 64 0 35.345-28.653 64-64 64s-64-28.654-64-64c0-35.346 28.654-64 64-64z"/><path fill="#E09274" d="M96.987 72.752c0-13.117-14.092-23.752-31.475-23.752-6.797 0-13.085 1.632-18.231 4.396-4.143-3.597-9.198-4.511-12.034-1.904-.862.829 1.032 4.525 3.811 8.398-2.092 2.446-3.61 5.197-4.397 8.15l-.922.234c-3.332.85-5.362 4.307-4.536 7.723l1.497 6.186c.827 3.416 4.198 5.498 7.53 4.648l1.695-.432c2.054 2.109 4.575 3.941 7.454 5.424l-1.171 4.561c-.722 2.811.906 5.689 3.636 6.432 2.729.742 5.528-.934 6.249-3.742l1.002-3.902c2.681.537 5.501.826 8.418.826 3.13 0 6.15-.332 9.004-.947l1.084 4.086c.745 2.758 3.63 4.402 6.445 3.674s4.494-3.555 3.75-6.314l-1.352-5.09c7.617-4.192 12.543-10.899 12.543-18.655z"/><path fill="#9C6550" d="M76.701 56.04s-5.848-2.051-11.696-2.051c-5.852 0-11.705 2.145-11.705 2.145-.718 0-1.3.641-1.3 1.431 0 .789.582 1.43 1.3 1.43.271 0 .521-.091.729-.247 1.735-.562 6.343-1.898 10.964-1.898 4.656 0 9.303 1.295 11.012 1.826.201.14.439.225.695.225.717 0 1.299-.641 1.299-1.43.001-.791-.581-1.431-1.298-1.431zm-32.201 8.96c-1.381 0-2.5 1.119-2.5 2.5s1.12 2.5 2.5 2.5 2.5-1.119 2.5-2.5-1.119-2.5-2.5-2.5z"/><path fill="#EFC84A" d="M65 17c7.18 0 13 5.82 13 13s-5.82 13-13 13c-7.179 0-13-5.82-13-13s5.821-13 13-13z"/><path fill="#E27C3F" d="M66.663 29.045c-.747-.288-3.495-.685-3.495-1.782 0-.81 1.028-1.044 1.645-1.044.561 0 1.234.162 1.589.486.224.198.317.342.393.54.093.233.149.486.505.486h1.831c.43 0 .542-.072.542-.505 0-1.854-1.588-2.897-3.401-3.257v-1.44c0-.324-.112-.521-.542-.521h-1.458c-.43 0-.542.197-.542.521v1.386c-1.944.342-3.57 1.458-3.57 3.474 0 2.286 1.738 3.006 3.625 3.582 1.588.485 3.252.504 3.252 1.512s-.822 1.224-1.832 1.224c-.691 0-1.458-.162-1.832-.594-.243-.27-.336-.504-.355-.737-.037-.45-.243-.505-.673-.505h-1.812c-.43 0-.542.091-.542.505 0 2.051 1.794 3.293 3.738 3.689v1.403c0 .324.112.522.542.522h1.458c.43 0 .542-.198.542-.522v-1.367c2.205-.307 3.72-1.53 3.72-3.69-.001-2.448-1.982-2.97-3.328-3.366z"/></svg>