<svg xmlns="http://www.w3.org/2000/svg" xmlns:xlink="http://www.w3.org/1999/xlink" width="128" height="128"><path fill="#ECF0F0" d="M64 0c35.346 0 64 28.654 64 64 0 35.346-28.654 64-64 64s-64-28.654-64-64c0-35.346 28.654-64 64-64z"/><path fill="#3B9885" d="M27 46h74c1.657 0 3 1.343 3 3v38c0 1.656-1.343 3-3 3h-74c-1.656 0-3-1.344-3-3v-38c0-1.657 1.344-3 3-3z"/><path fill="#45B39C" d="M27 38h74c1.657 0 3 1.343 3 3v34c0 1.656-1.343 3-3 3h-74c-1.656 0-3-1.344-3-3v-34c0-1.657 1.344-3 3-3z"/><path fill="#00A285" d="M98.5 49c-3.037 0-5.5-2.462-5.5-5.5l.025-.5h-58.05l.025.5c0 3.037-2.463 5.5-5.5 5.5-.169 0-.335-.01-.5-.025v18.051c.165-.016.331-.026.5-.026 3.037 0 5.5 2.463 5.5 5.5l-.025.5h58.051c-.015-.166-.026-.332-.026-.5 0-3.037 2.463-5.5 5.5-5.5.169 0 .335.01.5.025v-18.051c-.165.015-.331.026-.5.026z"/><path fill="#A8E3DB" d="M64 46c-6.627 0-12 5.373-12 12s5.373 12 12 12c6.628 0 12-5.373 12-12s-5.372-12-12-12zm1.007 18.943v1.117c0 .52-.411.939-.919.939-.488 0-.899-.42-.899-.939v-1.117c-1.896-.24-3.382-1.279-4.046-2.376-.098-.16-.156-.359-.156-.56 0-.599.469-1.078 1.036-1.078.43 0 .664.239.859.439.821.839 1.857 1.518 3.206 1.518 1.778 0 2.639-.599 2.639-1.837 0-2.915-7.135-1.578-7.135-6.39 0-1.777 1.095-3.314 3.597-3.594v-1.138c0-.519.411-.938.899-.938.508 0 .919.419.919.938v1.158c1.563.2 2.854.838 3.519 1.797.117.18.195.399.195.639 0 .579-.47 1.059-1.056 1.059-.273 0-.548-.16-.841-.439-.605-.599-1.622-1.059-2.736-1.059-1.622 0-2.229.779-2.229 1.578 0 2.616 7.135 1.398 7.135 6.39 0 2.196-1.368 3.634-3.987 3.893z"/><defs><path id="a" d="M27 46h74c1.657 0 3 1.343 3 3v38c0 1.656-1.343 3-3 3h-74c-1.656 0-3-1.344-3-3v-38c0-1.657 1.344-3 3-3z"/></defs><clipPath id="b"><use xlink:href="#a" overflow="visible"/></clipPath><path fill="#008B71" d="M24 78v1h80v-1h-80zm0 3h80v-1h-80v1zm0 2h80v-1h-80v1zm0 2h80v-1h-80v1zm0 2h80v-1h-80v1zm0 2h80v-1h-80v1z" clip-path="url(#b)"/></svg>