<svg xmlns="http://www.w3.org/2000/svg" width="128" height="128"><path fill="#E27C3F" d="M64 .173c35.346 0 64 28.653 64 64s-28.654 64-64 64-64-28.653-64-64 28.654-64 64-64z"/><path fill="#BDC3C7" d="M39.225 36.18s-15.979 15.788-22.38 22.112v.151c-.248.153-.485.329-.701.543-1.546 1.526-1.546 4.001 0 5.528.209.207.439.381.679.531l-.006.134c6.485 6.408 27.305 26.979 27.305 26.979l25.878-25.57-30.775-30.408z"/><path fill="#EBEDEF" d="M19.521 61.972l-.004-.003.001.001.003.002zm-3.528 2.117l.705.707c-.245-.246-.438-.521-.605-.807l-.1.1zm52.881-45.919l-46.526 46.616-.009.01c-1.558 1.561-4.084 1.561-5.641 0l2.819 2.825s52.448 52.551 41.627 41.708l.136-.007c.154.243.331.475.543.687 1.557 1.561 4.083 1.561 5.64 0 .218-.219.397-.458.555-.709h.153c8.49-8.506 45.828-45.917 45.828-45.917l-45.125-45.213z"/><path fill="#BDC3C7" d="M68.95 58.224l-14.85-14.85-16.263 16.264 14.85 14.85 16.263-16.264zm2.828 2.828l-3.536 3.535 17.678 17.679 3.536-3.536-17.678-17.678zm-9.899 9.899l17.678 17.678 3.535-3.535-17.678-17.678-3.535 3.535zm-6.364 6.364l17.678 17.678 3.535-3.535-17.678-17.678-3.535 3.535zm-24.042-11.313l35.355 35.354 3.536-3.535-35.355-35.355-3.536 3.536z"/><path fill="#808C8D" d="M73.312 34.771l-4.481 4.48 1.432-7.53-2.337-2.337-8.099 8.099 2.354 2.354 4.447-4.447-1.414 7.48 2.358 2.358 8.099-8.099-2.359-2.358zm1.855 11.191l3.896 3.895 1.651-1.651-3.895-3.895 1.287-1.287 4.198 4.198 1.729-1.729-6.707-6.706-8.099 8.099 6.828 6.828 1.834-1.834-4.32-4.32 1.598-1.598zm18.468 9.132l-5.385 3.671 3.272-5.783-2.368-2.368-5.786 3.281 3.678-5.39-2.377-2.377-6.297 9.9 2.454 2.454 6.514-3.685-3.679 6.52 2.454 2.454 9.884-6.313-2.364-2.364zm7.552 12.103c.736-.942 1.025-1.878.867-2.806-.158-.929-.755-1.91-1.79-2.945-.843-.843-1.613-1.401-2.309-1.674-.696-.272-1.35-.344-1.961-.215s-1.125.401-1.542.817c-.633.634-.919 1.39-.855 2.271.059.876.514 1.987 1.364 3.331.522.817.793 1.401.812 1.751.019.351-.077.63-.287.84-.221.221-.512.318-.872.293-.361-.025-.721-.218-1.078-.574-.479-.479-.683-1.012-.613-1.597.045-.361.234-.761.569-1.199l-2.53-2.231c-.747.888-1.121 1.861-1.121 2.922s.688 2.28 2.066 3.657c.784.784 1.547 1.321 2.289 1.61s1.477.358 2.202.207c.726-.15 1.348-.486 1.867-1.005.441-.442.733-.949.875-1.522.142-.572.097-1.216-.135-1.931-.232-.714-.777-1.736-1.636-3.065-.35-.534-.53-.914-.541-1.139-.019-.225.037-.4.166-.53.177-.177.4-.253.671-.229.271.024.552.182.843.473.354.354.547.714.582 1.08s-.099.764-.4 1.19l2.497 2.22z"/></svg>