<svg xmlns="http://www.w3.org/2000/svg" width="128" height="128"><path fill="#334D5D" d="M64 0c35.346 0 64 28.654 64 64 0 35.347-28.654 64-64 64-35.345 0-64-28.653-64-64 0-35.346 28.655-64 64-64z"/><path fill="#EFC84A" d="M100.383 53.5l9.617-12.499-36-19.001-10 11.997-9.998-11.997-36.002 19.001 9.618 12.499-9.618 12.5 10.001 5.278-.001 18.721 36 19.001 36.002-19.001-.002-18.721 10-5.278-9.617-12.5z"/><path fill="#DBB537" d="M100 52.999l-36.004 20.002.004 36.002 36.004-19.002-.004-37.002z"/><polygon fill="#E4BD3E" points="110.004,41 74,21.999 63.996,34 99.098,53.5 63.996,73.001 74,85.003 110.004,66 100.387,53.5"/><polygon fill="#4AC2A9" points="27.622,48.123 27.618,53.5 64,73.001 64.004,66.998"/><polygon fill="#00A489" points="100.379,48.203 63.996,67.09 64,73.002 100.383,53.5"/><polygon fill="#45B39C" points="64,27.999 27.622,48.123 64,67.705 100.379,48.203"/><polygon fill="#CCAA3D" points="28.001,71.278 28,76.061 56.002,90.87 63.996,73.001 54.002,84.794"/><polygon fill="#BB9A2E" points="100,76.061 100,71.278 74,84.794 63.996,73.001 72,90.87"/></svg>