<svg xmlns="http://www.w3.org/2000/svg" width="128" height="128"><path fill="#334D5D" d="M64 0c35.346 0 64 28.654 64 64 0 35.347-28.654 64-64 64s-64-28.653-64-64c0-35.346 28.654-64 64-64z"/><path fill="#CF7E34" d="M33.043 26.985h61.982v49.976h-61.982v-49.976z"/><path fill="#F3B647" d="M97.922 76.947c0-15.728.08-37.933.08-37.933 0 .024-67.943-.021-68.008 0v37.919c.005.01-1.059 20.436-1.059 20.436 0 2.351 1.905 3.647 4.256 3.647h61.646c2.35 0 4.256-1.297 4.256-3.647.001 0-1.177-20.418-1.171-20.422z"/><path fill="#E7AE44" d="M30 39h68v38h-68v-38z"/><path fill="#CF7E34" d="M44.472 44.989c-1.37 0-2.48 1.111-2.48 2.48s1.11 2.48 2.48 2.48 2.512-1.11 2.512-2.48-1.142-2.48-2.512-2.48zm39 0c-1.37 0-2.48 1.111-2.48 2.48s1.11 2.48 2.48 2.48 2.512-1.11 2.512-2.48-1.142-2.48-2.512-2.48z"/><path fill="#fff" d="M85.065 48.558h-.005c-.023-.857-.726-1.422-1.592-1.422-.867 0-1.568.565-1.593 1.422h-.021c-.005 10.158-7.642 18.392-17.802 18.392-10.159 0-17.995-8.233-18-18.392h-.018c-.023-.857-.726-1.422-1.592-1.422-.867 0-1.568.565-1.593 1.422h-.005l.002.029-.002.014.004.041c.045 11.896 9.3 21.525 21.206 21.525 11.91 0 20.969-9.636 21.007-21.536l.002-.03v-.01l.002-.033z"/><polygon fill="#F3B647" points="95.025,26.985 88.959,30.925 88.959,36.94 95.025,37.019"/><polygon fill="#F19440" points="88.949,30.936 88.959,39.015 98.068,39.015"/><polygon fill="#F3B647" points="33.043,26.985 39.108,30.925 39.108,36.94 33.043,37.019"/><polygon fill="#F19440" points="30,39.015 39.108,39.015 39.119,30.936"/></svg>