<svg xmlns="http://www.w3.org/2000/svg" width="128" height="128"><path fill="#334D5D" d="M64 0c35.346 0 64 28.654 64 64s-28.654 64-64 64-64-28.653-64-64 28.654-64 64-64z"/><path fill="#E27C3F" d="M36 88v5.001c0 2.761 5.148 4.999 11.5 4.999s11.5-2.238 11.5-4.999v-5.001h-23z"/><path fill="#FFC500" d="M36 47s1.366-1 2.005-1h18.952c.663 0 2.043 1 2.043 1v33h-23v-33z"/><path fill="#EEB500" d="M36 46h6v34h-6v-34z"/><path fill="#EAB100" d="M53 46h6v34h-6v-34z"/><path fill="#FDD034" d="M41 80h1v-34h-1v34zm11-34v34h1v-34h-1z"/><path fill="#E4E7E8" d="M36 80.001h23v7.999h-23v-7.999z"/><path fill="#F2F3F3" d="M39 80.001h5v7.999h-5v-7.999z"/><path fill="#EAB370" d="M47.5 30c1.478.014 11.484 14.994 11.5 16.5 0 .703-4.058.462-6.56-.175-1.543.607-3.671 1.675-5.44 1.675-2.228 0-3.807-.633-5.568-1.729-2.443.706-5.432.926-5.432.23.027-1.481 9.976-16.491 11.5-16.501z"/><path fill="#EEC38E" d="M48 31h-1.767l-.347.387-4.39 14.922c1.736 1.072 3.305 1.691 5.504 1.691 1.769 0 3.897-1.068 5.44-1.674l.072.017-4.512-15.343z"/><path fill="#FFCD00" d="M47.5 30c-.447.003-1.623 1.303-3.059 3.169.595 1.086 1.734 1.831 3.059 1.831 1.32 0 2.455-.739 3.052-1.818-1.441-1.872-2.617-3.177-3.052-3.182z"/><path fill="#FFE17F" d="M36.297 46.8l.327.076.081.012.425.033.094.001.477-.007.073-.003.581-.045.141-.015.63-.081.085-.014.613-.106.125-.023.664-.145.141-.034.679-.179c1.76 1.097 3.339 1.73 5.567 1.73 1.769 0 3.897-1.068 5.44-1.674.235.06.487.115.745.167l.139.028c.253.049.513.095.776.136l.127.019c.565.085 1.142.151 1.691.194l.063.005c.281.021.556.036.816.044h.016c.535.015 1.014.002 1.384-.045h.002c.186-.023.345-.056.471-.097.206-.067.33-.157.33-.276-.002-.146-.1-.422-.271-.795l-.37.122c-.05.016-.34.099-1.135.099-1.354 0-3.22-.234-4.536-.57l-.312-.08-.3.118c-.302.118-.625.254-.964.396-1.285.539-2.883 1.209-4.112 1.209-2.085 0-3.475-.604-5.04-1.579l-.378-.235-.428.124c-1.293.374-2.794.615-3.826.615-.51 0-.684-.062-.69-.064l-.37-.136c-.17.366-.265.635-.268.777 0 .131.107.229.297.298z"/><path fill="#E27C3F" d="M69 88v5.001c0 2.761 5.148 4.999 11.5 4.999s11.5-2.238 11.5-4.999v-5.001h-23z"/><path fill="#45B39C" d="M69 47s1.366-1 2.005-1h18.952c.663 0 2.043 1 2.043 1v33h-23v-33z"/><path fill="#00A389" d="M69 46h6v34h-6v-34z"/><path fill="#009D84" d="M86 46h6v34h-6v-34z"/><path fill="#5EBFAA" d="M74 80h1v-34h-1v34zm11-34v34h1v-34h-1z"/><path fill="#E4E7E8" d="M69 80.001h23v7.999h-23v-7.999z"/><path fill="#F2F3F3" d="M72 80.001h5v7.999h-5v-7.999z"/><path fill="#EAB370" d="M80.5 30c1.478.014 11.484 14.994 11.5 16.5 0 .703-4.058.462-6.56-.175-1.543.607-3.671 1.675-5.44 1.675-2.228 0-3.807-.633-5.568-1.729-2.443.706-5.432.926-5.432.23.027-1.481 9.976-16.491 11.5-16.501z"/><path fill="#EEC38E" d="M81 31h-1.767l-.347.387-4.39 14.922c1.736 1.072 3.305 1.691 5.504 1.691 1.769 0 3.897-1.068 5.44-1.674l.072.017-4.512-15.343z"/><path fill="#5EBFAA" d="M80.5 30c-.447.003-1.623 1.303-3.059 3.169.595 1.086 1.734 1.831 3.059 1.831 1.32 0 2.455-.739 3.052-1.818-1.441-1.872-2.617-3.177-3.052-3.182z"/><path fill="#A9D8CD" d="M69.297 46.8l.327.076.081.012.425.033.094.001.477-.007.073-.003.581-.045.141-.015.63-.081.085-.014.613-.106.125-.023.664-.145.141-.034.679-.179c1.76 1.097 3.339 1.73 5.567 1.73 1.769 0 3.897-1.068 5.44-1.674.235.06.487.115.745.167l.139.028c.253.049.513.095.776.136l.127.019c.565.085 1.142.151 1.691.194l.063.005c.281.021.556.036.816.044h.016c.535.015 1.014.002 1.384-.045h.002c.186-.023.345-.056.471-.097.206-.067.33-.157.33-.276-.002-.146-.1-.422-.271-.795l-.37.122c-.05.016-.34.099-1.135.099-1.354 0-3.22-.234-4.536-.57l-.312-.08-.3.118c-.302.118-.625.254-.964.396-1.285.539-2.883 1.209-4.112 1.209-2.085 0-3.475-.604-5.04-1.579l-.378-.235-.428.124c-1.293.374-2.794.615-3.826.615-.51 0-.684-.062-.69-.064l-.37-.136c-.17.366-.265.635-.268.777 0 .131.107.229.297.298z"/></svg>