<svg xmlns="http://www.w3.org/2000/svg" width="128" height="128"><path fill="#334D5D" d="M64 0c35.346 0 64 28.654 64 64 0 35.347-28.654 64-64 64s-64-28.653-64-64c0-35.346 28.654-64 64-64z"/><path fill="#2CA4D5" d="M35 27h47c-.008.015 14.039 13.97 14 14v57c0 1.657-1.343 3-3 3h-58c-1.656 0-3-1.343-3-3v-68c0-1.656 1.344-3 3-3z"/><path fill="#0083BE" d="M96 41c.047.016-1.343 0-3 0h-8c-1.656 0-3-1.343-3-3v-11l14 14z"/><path fill="#1C7296" d="M57.729 60.661c-.305-.29-.675-.518-1.109-.683-.436-.165-.923-.247-1.463-.247h-3.677c-.359 0-.6.083-.719.247-.121.165-.181.388-.181.668v9.285c0 .119.027.202.083.247.055.045.143.067.262.067h1.575c.149 0 .247-.018.292-.052.045-.035.068-.123.068-.263v-3.495h1.994c.841 0 1.514-.13 2.018-.39.506-.261.891-.572 1.156-.938.264-.365.437-.74.517-1.125.08-.386.12-.708.12-.968 0-.48-.08-.92-.24-1.32-.159-.398-.392-.743-.696-1.033zm-1.778 3.518c-.24.275-.615.413-1.125.413h-1.965v-2.851h1.949c.301 0 .548.048.743.143.194.096.35.215.465.36.114.145.192.3.232.465s.06.317.06.457c.001.4-.119.738-.359 1.013zm11.332.923c-.305-.26-.672-.492-1.102-.697-.431-.205-.9-.408-1.41-.608-.33-.129-.607-.25-.833-.36-.226-.11-.405-.218-.54-.323s-.232-.212-.293-.322c-.06-.11-.09-.23-.09-.36 0-.23.09-.425.271-.584.181-.16.489-.24.931-.24.409 0 .847.045 1.312.135.466.09.933.205 1.403.345.119.03.204.035.254.015.051-.02.101-.101.15-.24l.391-1.125c.049-.15.066-.252.052-.308-.015-.055-.083-.112-.202-.172-.221-.11-.465-.208-.735-.292s-.552-.157-.847-.218c-.296-.06-.596-.104-.9-.135-.305-.03-.598-.045-.877-.045-.611 0-1.141.08-1.591.24s-.819.377-1.11.652c-.289.275-.508.598-.652.968-.145.37-.217.765-.217 1.185s.082.788.247 1.103.402.6.712.854c.311.256.681.488 1.11.698.431.21.91.415 1.44.614.32.12.587.232.803.338.215.105.385.215.51.33s.215.232.27.353.083.255.083.405c0 .14-.025.272-.075.396-.051.126-.141.236-.27.331-.131.095-.301.172-.511.232-.21.06-.47.09-.78.09-.26 0-.521-.022-.787-.067s-.525-.1-.779-.165c-.256-.065-.503-.141-.743-.226l-.659-.247c-.111-.05-.195-.065-.256-.045s-.115.09-.165.21l-.51 1.199c-.05.131-.067.226-.053.285.015.061.062.115.143.166.28.17.585.314.915.435s.668.218 1.013.293c.345.074.692.13 1.042.165.35.034.686.052 1.006.052.579 0 1.111-.065 1.597-.194.485-.131.897-.325 1.237-.586.34-.26.605-.584.795-.975.19-.39.285-.85.285-1.38 0-.49-.088-.91-.262-1.26-.178-.351-.418-.656-.723-.915zm11.408-2.168c-.171-.635-.445-1.187-.826-1.657-.379-.47-.875-.845-1.484-1.125s-1.355-.42-2.234-.42h-2.806c-.36 0-.601.075-.72.225-.12.15-.18.385-.18.705v8.671c0 .319.06.552.18.697.119.145.359.217.72.217h2.97c.881 0 1.617-.147 2.213-.442.595-.295 1.072-.688 1.433-1.178.36-.489.614-1.055.765-1.694s.225-1.305.225-1.995c-.002-.702-.086-1.369-.256-2.004zm-2.22 3.33c-.08.405-.22.753-.42 1.043s-.473.518-.817.682c-.345.165-.778.248-1.298.248h-1.215v-6.51h1.17c.53 0 .971.082 1.32.247.35.166.627.39.832.676.205.284.348.622.428 1.012.08.39.12.815.12 1.275 0 .479-.04.922-.12 1.327z"/></svg>