<svg xmlns="http://www.w3.org/2000/svg" width="128" height="128"><path fill="#334D5D" d="M64 0c35.346 0 64 28.653 64 64s-28.654 64-64 64c-35.346 0-64-28.653-64-64s28.654-64 64-64z"/><path fill="#EFC84A" d="M102 58v5c0 20.987-17.014 38-38 38-20.987 0-38-17.013-38-38v-5h76z"/><path fill="#D9AD14" d="M37.124 53.187c14.835-2.931 38.888-2.931 53.723 0 14.835 2.932 14.835 7.685 0 10.615-14.835 2.932-38.888 2.932-53.723 0-14.835-2.931-14.835-7.684 0-10.615z"/><path fill="#BF9810" d="M84 52v5l-8 3 8-8z"/><path fill="#5F727F" d="M60.877 40.345c5.096-5.065 9.441-10.707 9.339-14.351-.1-4.006-1.619-6.93-4.594-9.463-2.969-2.531-7.503-2.35-7.503-2.35s7.001.211 7.855 6.117c.848 5.91-2.973 7.597-6.158 10.129-3.183 2.531-6.795 6.328-5.944 10.341.703 3.335 2.333 4.22 4.885 5.695 2.548 1.476 4.244.845 4.244.845s-7.22-1.899-2.124-6.963zm13.568-4.574c-.291-2.49-1.485-4.119-3.393-5.646 0 0 .666.625.943 2.974.279 2.324-1.947 4.251-3.793 6-1.838 1.754-3.878 4.315-3.125 6.769.629 2.041 3.223 4.884 3.223 4.884s-1.777-2.098 1.117-5.529c2.894-3.436 5.285-7.186 5.028-9.452z"/><path fill="#DF5A48" d="M90.847 63.802c3.786-.748 6.599-1.614 8.452-2.539-1.721-1.126-4.769-2.186-9.158-3.076-14.445-2.932-37.865-2.932-52.31 0-4.391.891-7.438 1.951-9.159 3.076 1.854.925 4.667 1.791 8.452 2.539 14.835 2.931 38.888 2.931 53.723 0z"/><path fill="#C54F3F" d="M79.328 56.672l-3.328 3.328 7.628-2.86c-1.391-.178-2.828-.332-4.3-.468z"/><path fill="#EBEEEE" d="M92.175 36.935c-1.679-1.476-4.253-1.33-5.749.325l-18.428 22.714 7.876.017 16.63-17.389c1.497-1.655 1.35-4.193-.329-5.667z"/></svg>