<svg xmlns="http://www.w3.org/2000/svg" width="128" height="128"><path fill="#DF5A48" d="M64 0c35.346 0 64 28.654 64 64s-28.654 64-64 64c-35.346 0-64-28.654-64-64s28.654-64 64-64z"/><path fill="#F4EFEF" d="M30.719 50h67.562s1.017.015 1.973.971c2.327 2.328 6.068 6.529 6.068 6.529l.678 1.5-85 .01.678-1.511s3.727-4.189 6.061-6.523c.993-.994 1.98-.976 1.98-.976z"/><path fill="#fff" d="M24 56.999h81c1.104 0 2 .896 2 2v30.001c0 1.104-.896 1.999-2 1.999h-81c-1.104 0-2-.896-2-1.999v-30.001c0-1.104.896-2 2-2z"/><path fill="#2CA4D5" d="M39 50h51l7 7v10c0 1.657-1.343 3-3 3h-59c-1.657 0-3-1.343-3-3v-10l7-7z"/><path fill="#A7A7A7" d="M94 72h-26.089v2c0 1.104 0 2-2 2h-3c-2 0-2-.896-2-2v-2h-25.911c-1.657 0-3 1.342-3 3v15.999c.069-.059 65.176.013 65 0v-15.999c0-1.658-1.343-3-3-3z"/><path fill="#BDC3C7" d="M92.834 72.998h-23.936v1.998c0 1.104-.893 2-1.994 2h-4.986c-1.102 0-1.995-.896-1.995-2v-1.998h-23.935c-1.652 0-2.992 1.343-2.992 2.998v14.99c.069-.059 63.006.013 62.83 0v-14.99c0-1.655-1.34-2.998-2.992-2.998z"/><path fill="#45AAD8" d="M32 57h65v1h-65v-1z"/><path fill="#334D5D" d="M42 51.999h45l3 3h-51l3-3z"/><path fill="#F4EFEF" d="M45 30h39c1.105 0 2 .895 2 2v22c-.032.075-43.041-.018-43 0v-22c0-1.105.896-2 2-2z"/><path fill="#BDC3C7" d="M43 54h43v1h-43v-1z"/><path fill="#DADBDC" d="M49 36v2h30v-2h-30zm26 4h-26v2h26v-2zm-26 5.999h28v-2h-28v2z"/></svg>