<svg xmlns="http://www.w3.org/2000/svg" xmlns:xlink="http://www.w3.org/1999/xlink" width="128" height="128"><path fill="#45B39C" d="M64 0c35.346 0 64 28.654 64 64 0 35.347-28.654 64-64 64s-64-28.653-64-64c0-35.346 28.654-64 64-64z"/><path fill="#F4EFEF" d="M32 34h65s1.385.385 1.985.985c2.138 2.139 7.015 7.015 7.015 7.015h-83l7.008-7.007c.604-.605 1.992-.993 1.992-.993z"/><path fill="#fff" d="M25 41h79c1.656 0 3 1.343 3 3v46c0 1.657-1.344 3-3 3h-79c-1.656 0-3-1.343-3-3v-46c0-1.656 1.344-3 3-3z"/><path fill="#F7F7F7" d="M29 45h71c1.657 0 3 1.343 3 3v38c0 1.656-1.343 3-3 3h-71c-1.656 0-3-1.344-3-3v-38c0-1.656 1.344-3 3-3z"/><path fill="#fff" d="M82 52.828c7.828 0 14.173 6.345 14.173 14.172 0 7.828-6.345 14.174-14.173 14.174s-14.173-6.346-14.173-14.174c0-7.827 6.345-14.172 14.173-14.172z"/><path fill="#fff" d="M34 54.001h26v10h-26v-10z"/><path fill="#E2E2E2" d="M41 57h-4v1h4v-1zm-4 4.001h10v-1h-10v1zm14 0h3v-1h-3v1zm4 0h2v-1h-2v1zm-11-4.001h-2v1h2v-1zm1 1h4v-1h-4v1zm7-1v1h5v-1h-5z"/><path fill="#DF5A48" d="M48 54.001h2v9h-2v-9z"/><path fill="#fff" d="M38 72.001c2.209 0 4 1.79 4 4 0 2.209-1.791 4-4 4s-4-1.791-4-4c0-2.21 1.791-4 4-4z"/><path fill="#fff" d="M49 72.001c2.209 0 4 1.79 4 4 0 2.209-1.791 4-4 4s-4-1.791-4-4c0-2.21 1.791-4 4-4z"/><defs><path id="a" d="M82 54.001c7.18 0 13 5.82 13 12.999 0 7.181-5.82 13.001-13 13.001s-13-5.82-13-13.001c0-7.179 5.82-12.999 13-12.999z"/></defs><clipPath id="b"><use xlink:href="#a" overflow="visible"/></clipPath><path fill="#878787" d="M69 56v2h26v-2h-26zm0 6.001h26v-2h-26v2zm0 3.999h26v-1.999h-26v1.999zm0 4h26v-2h-26v2zm0 4h26v-1.999h-26v1.999zm0 4h26v-1.999h-26v1.999z" clip-path="url(#b)"/><path fill="#DEDEDE" d="M49 80.001c-2.038 0-3.701-1.53-3.949-3.5-.022.165-.051.329-.051.5 0 2.209 1.791 4 4 4s4-1.791 4-4c0-.171-.029-.335-.051-.5-.248 1.97-1.911 3.5-3.949 3.5z"/><path fill="#E27C3F" d="M49 73.418c1.426 0 2.582 1.156 2.582 2.583s-1.156 2.583-2.582 2.583-2.582-1.156-2.582-2.583 1.156-2.583 2.582-2.583z"/><path fill="#DEDEDE" d="M38 80.001c-2.038 0-3.701-1.53-3.949-3.5-.022.165-.051.329-.051.5 0 2.209 1.791 4 4 4s4-1.791 4-4c0-.171-.029-.335-.051-.5-.248 1.97-1.911 3.5-3.949 3.5z"/><path fill="#EFC84A" d="M38 73.418c1.426 0 2.582 1.156 2.582 2.583s-1.156 2.583-2.582 2.583-2.582-1.156-2.582-2.583 1.156-2.583 2.582-2.583z"/><path fill="#E1E1E1" d="M100 45.75c1.24 0 2.25 1.009 2.25 2.25v38c0 1.241-1.01 2.25-2.25 2.25h-71c-1.24 0-2.25-1.009-2.25-2.25v-38c0-1.241 1.01-2.25 2.25-2.25h71m0-.75h-71c-1.656 0-3 1.343-3 3v38c0 1.656 1.344 3 3 3h71c1.657 0 3-1.344 3-3v-38c0-1.656-1.343-3-3-3z"/><linearGradient id="c" gradientUnits="userSpaceOnUse" x1="47" y1="64.001" x2="47" y2="54.001"><stop offset="0" stop-color="#fff"/><stop offset="1" stop-color="#DEDEDE"/></linearGradient><polygon fill="url(#c)" points="34,54.001 34,64.001 35.418,64.001 35.418,55.418 58.582,55.418 58.582,64.001 60,64.001 60,54.001"/><rect x="48" y="54.001" fill="#C34E3E" width="2" height="1.417"/></svg>