<svg xmlns="http://www.w3.org/2000/svg" width="128" height="128"><path fill="#45B39C" d="M64 0c35.346 0 64 28.654 64 64 0 35.347-28.654 64-64 64-35.346 0-64-28.653-64-64 0-35.346 28.654-64 64-64z"/><path fill="#334D5D" d="M67 46.99v9.298h.028c.179 1.963 1.812 3.674 4.219 4.702h-11.494c2.406-1.028 4.04-2.739 4.219-4.702h.028v-9.298h-19v9.298h.028c.179 1.963 1.812 3.674 4.219 4.702h-11.494c2.406-1.028 4.04-2.739 4.219-4.702h.028v-9.298h-19v9.298h.028c.291 3.189 4.414 5.721 9.472 5.721.512 0 1.01-.032 1.5-.082v8.361h.028c.291 3.189 4.414 5.721 9.472 5.721.512 0 1.01-.032 1.5-.082v8.361h.028c.291 3.189 4.414 5.721 9.472 5.721s9.181-2.531 9.472-5.721h.028v-8.498c.797.14 1.633.219 2.5.219 5.058 0 9.181-2.531 9.472-5.721h.028v-8.295l.5.016c5.058 0 9.181-2.532 9.472-5.721h.028v-9.298h-19zm-18.25 28.001c2.408-1.028 4.042-2.739 4.221-4.702h.029v-8.361c.49.05.988.082 1.5.082.867 0 1.703-.079 2.5-.219v8.498h.028c.179 1.963 1.813 3.674 4.221 4.702h-12.499z"/><path d="M76.5 41c5.246 0 9.5 2.755 9.5 6.155 0 3.399-4.254 5.874-9.5 5.874s-9.5-2.474-9.5-5.873c0-3.4 4.254-6.156 9.5-6.156zm-22 0c5.247 0 9.5 2.755 9.5 6.155 0 3.399-4.253 5.874-9.5 5.874s-9.5-2.474-9.5-5.873c0-3.4 4.253-6.156 9.5-6.156zm-22 0c5.247 0 9.5 2.755 9.5 6.155 0 3.399-4.253 5.874-9.5 5.874s-9.5-2.474-9.5-5.873c0-3.4 4.253-6.156 9.5-6.156zm34 14c5.246 0 9.5 2.756 9.5 6.156 0 3.399-4.254 5.874-9.5 5.874-5.247 0-9.5-2.475-9.5-5.874 0-3.4 4.253-6.156 9.5-6.156zm-23 0c5.247 0 9.5 2.756 9.5 6.156 0 3.399-4.253 5.874-9.5 5.874s-9.5-2.475-9.5-5.874c0-3.4 4.253-6.156 9.5-6.156zm11 14c5.247 0 9.5 2.756 9.5 6.156 0 3.398-4.253 5.873-9.5 5.873s-9.5-2.474-9.5-5.873c0-3.4 4.253-6.156 9.5-6.156z" fill="#fff"/><path d="M76.5 43.991c2.526 0 4.48 1.453 4.48 3.052 0 1.6-1.954 2.928-4.48 2.928-2.525 0-4.543-1.328-4.543-2.928 0-1.599 2.018-3.052 4.543-3.052zm-22 0c2.526 0 4.48 1.453 4.48 3.052 0 1.6-1.954 2.928-4.48 2.928-2.526 0-4.542-1.328-4.542-2.928 0-1.599 2.016-3.052 4.542-3.052zm-22 0c2.526 0 4.48 1.453 4.48 3.052 0 1.6-1.954 2.928-4.48 2.928-2.526 0-4.542-1.328-4.542-2.928 0-1.599 2.016-3.052 4.542-3.052zm34 13.999c2.526 0 4.48 1.454 4.48 3.054 0 1.6-1.954 2.927-4.48 2.927-2.526 0-4.542-1.328-4.542-2.927 0-1.6 2.016-3.054 4.542-3.054zm-23 0c2.526 0 4.48 1.454 4.48 3.054 0 1.6-1.954 2.927-4.48 2.927-2.526 0-4.542-1.328-4.542-2.927 0-1.6 2.016-3.054 4.542-3.054zm11 14c2.526 0 4.48 1.453 4.48 3.054 0 1.6-1.954 2.927-4.48 2.927-2.526 0-4.542-1.327-4.542-2.927 0-1.601 2.016-3.054 4.542-3.054z" fill="#DF5A48"/><path fill="#ECECEC" d="M102.813 47.083l-40 53.999 1.373.836 41-53-2.373-1.835zm6 4l-40 54 1.373.835 41-53-2.373-1.835z"/><g fill="#449F8C"><polygon points="70.187,105.918 69.324,105.394 68.813,106.083 70.187,106.918 111.187,53.918 110.703,53.544"/><polygon points="104.703,49.544 64.187,101.918 63.324,101.393 62.813,102.082 64.187,102.918 105.187,49.918"/></g></svg>