<?xml version="1.0" encoding="utf-8"?>
<!-- Generator: Adobe Illustrator 16.2.1, SVG Export Plug-In . SVG Version: 6.00 Build 0)  -->
<!DOCTYPE svg PUBLIC "-//W3C//DTD SVG 1.1//EN" "http://www.w3.org/Graphics/SVG/1.1/DTD/svg11.dtd">
<svg version="1.1" id="Слой_1" xmlns="http://www.w3.org/2000/svg" xmlns:xlink="http://www.w3.org/1999/xlink" x="0px" y="0px"
	 width="128px" height="128px" viewBox="0 0 128 128" enable-background="new 0 0 128 128" xml:space="preserve">
<path fill="#EFC84A" d="M64,0c35.348,0,64,28.653,64,64c0,35.345-28.652,64-64,64C28.654,128,0,99.346,0,64C0,28.654,28.654,0,64,0z
	"/>
<g>
	<g>
		<defs>
			<circle id="SVGID_1_" cx="64" cy="64" r="64"/>
		</defs>
		<clipPath id="SVGID_2_">
			<use xlink:href="#SVGID_1_"  overflow="visible"/>
		</clipPath>
		<rect x="-2" y="94" clip-path="url(#SVGID_2_)" fill="#3E4E5C" width="133" height="36"/>
	</g>
</g>
<path fill="#D7B442" d="M34,69L7,94h27V69z"/>
<path fill="#DF5A48" d="M35,69h58c1.104,0,2,0.895,2,2v26c0,1.104-0.896,2-2,2H35c-1.104,0-2-0.896-2-2V71
	C33,69.895,33.896,69,35,69z"/>
<path fill="#DFE1E2" d="M61,64h6v3h-6V64z"/>
<path fill="#EBEDEE" d="M59,67h10v2H59V67z"/>
<path fill="#EBEEEE" d="M41,32h46c1.104,0,2,0.896,2,2v28c0,1.104-0.896,2-2,2H41c-1.104,0-2-0.896-2-2V34
	C39,32.895,39.896,32,41,32z"/>
<path fill="#334D5D" d="M43,35h42c0.553,0,1,0.448,1,1v24c0,0.553-0.447,1-1,1H43c-0.553,0-1-0.447-1-1V36
	C42,35.448,42.447,35,43,35z"/>
<g>
	<path fill="#E46C5D" d="M91,72H66c-0.553,0-1,0.447-1,1v22c0,0.553,0.447,1,1,1h25c0.553,0,1-0.447,1-1V73
		C92,72.447,91.553,72,91,72z M87,90H70c-0.553,0-1-0.447-1-1s0.447-1,1-1h17c0.553,0,1,0.447,1,1S87.553,90,87,90z M87,85H70
		c-0.553,0-1-0.447-1-1s0.447-1,1-1h17c0.553,0,1,0.447,1,1S87.553,85,87,85z M87,80H70c-0.553,0-1-0.447-1-1s0.447-1,1-1h17
		c0.553,0,1,0.447,1,1S87.553,80,87,80z M62,72H37c-0.553,0-1,0.447-1,1v22c0,0.553,0.447,1,1,1h25c0.553,0,1-0.447,1-1V73
		C63,72.447,62.553,72,62,72z M58,90H41c-0.553,0-1-0.447-1-1s0.447-1,1-1h17c0.553,0,1,0.447,1,1S58.553,90,58,90z M58,85H41
		c-0.553,0-1-0.447-1-1s0.447-1,1-1h17c0.553,0,1,0.447,1,1S58.553,85,58,85z M58,80H41c-0.553,0-1-0.447-1-1s0.447-1,1-1h17
		c0.553,0,1,0.447,1,1S58.553,80,58,80z"/>
</g>
</svg>
