<?xml version="1.0" encoding="utf-8"?>
<!-- Generator: Adobe Illustrator 16.2.1, SVG Export Plug-In . SVG Version: 6.00 Build 0)  -->
<!DOCTYPE svg PUBLIC "-//W3C//DTD SVG 1.1//EN" "http://www.w3.org/Graphics/SVG/1.1/DTD/svg11.dtd">
<svg version="1.1" id="Слой_1" xmlns="http://www.w3.org/2000/svg" xmlns:xlink="http://www.w3.org/1999/xlink" x="0px" y="0px"
	 width="128px" height="128px" viewBox="0 0 128 128" enable-background="new 0 0 128 128" xml:space="preserve">
<path fill="#334D5D" d="M64,0c35.348,0,64,28.654,64,64c0,35.348-28.652,64-64,64C28.654,128,0,99.348,0,64C0,28.654,28.654,0,64,0z
	"/>
<g>
	<path fill="#EFC84A" d="M86.836,35.997l-22.854,0.032c-3.615,0-6.326,0.899-9.038,3.602L29.613,64.639
		c-2.118,2.109-2.118,5.529,0,7.639l26.221,26.117c2.118,2.109,5.552,2.109,7.669,0l25.786-25.457C92,70.236,92,64.309,92,63.036
		V41.431C92,38.448,89.83,35.997,86.836,35.997z M79,52c-1.657,0-3-1.343-3-3s1.343-3,3-3s3,1.343,3,3S80.657,52,79,52z"/>
</g>
<g>
	<path fill="#E27C3F" d="M79,43c-3.312,0-6,2.687-6,6s2.688,6,6,6s6-2.687,6-6S82.312,43,79,43z M79,51.564
		c-1.416,0-2.564-1.148-2.564-2.564s1.148-2.564,2.564-2.564s2.564,1.148,2.564,2.564S80.416,51.564,79,51.564z"/>
</g>
<g>
	<path fill="#E27C3F" d="M74.521,64.453c-1.953-1.952-5.119-1.952-7.07,0c-1.953,1.953-1.953,5.119,0,7.07
		c1.951,1.953,5.117,1.953,7.07,0C76.475,69.572,76.475,66.406,74.521,64.453z M72.4,69.402c-0.781,0.781-2.049,0.781-2.828,0
		c-0.781-0.78-0.781-2.047,0-2.827c0.779-0.781,2.047-0.781,2.828,0C73.182,67.355,73.182,68.622,72.4,69.402z M46.45,64.453
		c-1.952,1.953-1.952,5.119,0,7.07c1.953,1.953,5.119,1.953,7.071,0c1.953-1.951,1.953-5.117,0-7.07
		C51.569,62.501,48.403,62.501,46.45,64.453z M51.4,69.402c-0.781,0.781-2.048,0.781-2.828,0c-0.781-0.78-0.781-2.047,0-2.827
		c0.78-0.781,2.047-0.781,2.828,0C52.182,67.355,52.182,68.622,51.4,69.402z M60.5,52c-0.828,0-1.5,0.672-1.5,1.5v29
		c0,0.828,0.672,1.5,1.5,1.5s1.5-0.672,1.5-1.5v-29C62,52.672,61.328,52,60.5,52z"/>
</g>
<path fill="#EBEEEE" d="M72.57,0.588c-3.984,6.084-6.577,13.724-6.577,21.523c0,4.906,0.916,9.603,2.579,13.923h3.23
	c-1.814-4.28-2.82-8.987-2.82-13.923c0-7.679,2.711-15.168,6.851-21.001C74.755,0.908,73.667,0.735,72.57,0.588z"/>
<path fill="#EBEEEE" d="M126.579,50.578c-5.983,4.449-13.69,7.284-21.726,7.284c-4.562,0-8.938-0.854-12.953-2.403
	c-3.836-1.479-7.354-3.604-10.424-6.227c-0.865-0.746-2.088-1.826-3-2.743c-1.006,0.208-1.795,1.007-1.992,2.018
	c0.918,0.966,2.065,2.134,2.971,2.909c3.615,3.139,7.832,5.602,12.445,7.22c4.056,1.43,8.41,2.205,12.953,2.205
	c8.184,0,16.062-2.729,22.328-7.034C127.009,52.722,126.807,51.646,126.579,50.578z"/>
</svg>
