<?xml version="1.0" encoding="utf-8"?>
<!-- Generator: Adobe Illustrator 16.2.1, SVG Export Plug-In . SVG Version: 6.00 Build 0)  -->
<!DOCTYPE svg PUBLIC "-//W3C//DTD SVG 1.1//EN" "http://www.w3.org/Graphics/SVG/1.1/DTD/svg11.dtd">
<svg version="1.1" id="Слой_1" xmlns="http://www.w3.org/2000/svg" xmlns:xlink="http://www.w3.org/1999/xlink" x="0px" y="0px"
	 width="128px" height="128px" viewBox="0 0 128 128" enable-background="new 0 0 128 128" xml:space="preserve">
<path fill="#E27C3F" d="M64,0c35.348,0,64,28.654,64,64c0,35.346-28.652,64-64,64C28.654,128,0,99.346,0,64C0,28.654,28.654,0,64,0z
	"/>
<path fill="#334D5D" d="M63,21h2v12h-2V21z"/>
<path fill="#EFC84A" d="M64,18c1.657,0,3,1.343,3,3s-1.343,3-3,3c-1.656,0-3-1.343-3-3S62.344,18,64,18z"/>
<path fill="#E2E5E6" d="M43,74v-2h42v2H43"/>
<path fill="#EBEEEE" d="M67.782,45.5C74.232,43.821,79,37.975,79,31H49c0,6.975,4.768,12.821,11.218,14.5
	C53.768,47.178,49,53.024,49,60v26c0,8.283,6.716,15,15,15s15-6.717,15-15V60C79,53.024,74.232,47.178,67.782,45.5z"/>
<path fill="#D3D6D7" d="M67.782,45.5C74.232,43.821,79,37.975,79,31h-2c0,6.975-4.768,12.821-11.218,14.5
	C72.232,47.178,77,53.024,77,60v26c0,7.945-6.186,14.434-14,14.949c0.332,0.021,0.663,0.051,1,0.051c8.284,0,15-6.717,15-15V60
	C79,53.024,74.232,47.178,67.782,45.5z"/>
<path fill="#EFC84A" d="M49,78h30v3H49V78z"/>
<path fill="#EBEEEE" d="M88,55h16c1.657,0,3,1.343,3,3v30c0,1.656-1.343,3-3,3H88c-1.657,0-3-1.344-3-3V58
	C85,56.342,86.343,55,88,55z"/>
<path fill="#EBEEEE" d="M24,55h16c1.656,0,3,1.343,3,3v30c0,1.656-1.344,3-3,3H24c-1.656,0-3-1.344-3-3V58
	C21,56.342,22.344,55,24,55z"/>
<path fill="#334D5D" d="M64,55.913c3.914,0,7.087,3.172,7.087,7.086S67.914,70.087,64,70.087c-3.915,0-7.086-3.173-7.086-7.087
	S60.085,55.913,64,55.913z"/>
<g>
	<g>
		<path fill="#2CA4D5" d="M24,80h16v-6H24V80z M24,86c0,1.104,0.896,2,2,2h12c1.104,0,2-0.896,2-2v-4H24V86z M38,58H26
			c-1.104,0-2,0.896-2,2v4h16v-4C40,58.895,39.104,58,38,58z M24,72h16v-6H24V72z"/>
	</g>
</g>
<g>
	<g>
		<path fill="#2CA4D5" d="M88,80h16v-6H88V80z M88,86c0,1.104,0.896,2,2,2h12c1.104,0,2-0.896,2-2v-4H88V86z M102,58H90
			c-1.104,0-2,0.896-2,2v4h16v-4C104,58.895,103.104,58,102,58z M88,72h16v-6H88V72z"/>
	</g>
</g>
<path fill="#EFC84A" d="M64,58c2.762,0,5,2.238,5,5c0,2.762-2.238,5-5,5c-2.762,0-5-2.238-5-5C59,60.238,61.238,58,64,58z"/>
<rect x="77" y="78" fill="#D7B442" width="2" height="3"/>
</svg>
