<svg xmlns="http://www.w3.org/2000/svg" width="128" height="128"><path fill="#334D5D" d="M64 0c35.346 0 64 28.654 64 64 0 35.346-28.654 64-64 64s-64-28.654-64-64c0-35.346 28.654-64 64-64z"/><path fill="#E6E6E6" d="M95.898 39.5c0-.828-.662-1.5-1.479-1.5h-11.823c-.815 0-1.478 1.172-1.478 2h10.839v1h-10.839v1h10.839v1h-10.839v1h10.839v1h-10.839v1h10.839v1h-10.839v1h10.839v1h-10.839v1h10.839v1h-10.839v1h10.839v1h-10.839v1h10.839v1h-10.839v1h10.839v1h-10.839v1h10.839v1h-10.839v1h10.839v1h-10.839v1h10.839v1h-10.839v1h10.839v1h-10.839v1h10.839v1h-10.839c0 .828.662 2 1.478 2-1.741 0 8.362 1.615 8.376 9.5 0 4.357-2.956 11-2.956 11 0 1.934 1.544 2.5 3.449 2.5.886 0 1.449-.248 1.812-.592.444-.19.891-.592 1.143-1.408.245-.79 1.479-16.672 1.479-17.5 0 0 .361-6.808.985-18.407 0-8.688-.986-14.593-.986-14.593z"/><path fill="#EFC84A" d="M40.95 78.971c-1.318-.382-.682-1.541-4.165-2.367-3.348-.787-6.778 2.034-7.502 5.442-.959 3.335.558 7.528 3.983 8.565 3.392 1.264 7.45-.783 8.673-4.254 1.281-2.874 1.454-5.522 3.975-8.964l-2.405-1.644c-1.46 2.789-1.58 3.513-2.559 3.222zm-1.191 7.209c-1.408 2.434-4.396 3.326-6.676 1.996-2.278-1.331-2.985-4.382-1.577-6.815 1.407-2.433 4.396-3.326 6.675-1.995 2.279 1.329 2.985 4.381 1.578 6.814zm35.977-4.248c-.686-3.404-4.094-6.242-7.442-5.461-3.495.804-2.873 1.969-4.189 2.349-.958.272-1.161-.041-2.526-2.707l-2.385 1.624c2.376 3.388 2.615 5.644 3.847 8.463 1.184 3.473 5.222 5.539 8.622 4.291 3.44-1.032 5-5.218 4.073-8.559zm-2.238 4.304c-1.407 2.433-4.505 3.263-6.918 1.854-1.889-1.396-3.228-4.523-1.82-6.957 1.408-2.433 4.505-3.262 6.918-1.854 2.413 1.409 3.227 4.524 1.82 6.957z"/><path fill="#E6E6E6" d="M69.847 37.967l-16.093 22.459 3.611 5.045 13.649-26.682c.001 0-1.164-.854-1.167-.822zm-21.072 29.377c-2 2.816-3.41 5.246-4.443 7.216l2.41 1.719c.93-1.235 2.084-2.46 3.565-3.629l1.855-1.21-3.281-4.241-.106.145z"/><path fill="#fff" d="M56.43 67.08l-3.84-5.418-17.455-24.65c-2.207 3.561-.902 7.312.76 10.137l18.913 25.306c1.551 1.239 2.743 2.542 3.684 3.85l2.385-1.691c-1.028-2.014-2.405-4.606-4.447-7.534zm-3.43-.08c-.553 0-1-.447-1-1s.447-1 1-1 1 .447 1 1-.447 1-1 1z"/></svg>