<svg xmlns="http://www.w3.org/2000/svg" width="128" height="128"><path fill="#DF5A48" d="M64 0c35.346 0 64 28.654 64 64 0 35.347-28.654 64-64 64-35.346 0-64-28.653-64-64 0-35.346 28.654-64 64-64z"/><path fill="#EBEEEE" d="M100 67c1.656 0 3-1.343 3-3s-1.344-3-3-3h-3.143c-.205-2.276-.639-4.486-1.282-6.605l3.521-1.443c1.562-.641 2.316-2.445 1.686-4.031s-2.41-2.352-3.973-1.711l-3.582 1.469c-1.079-2.053-2.361-3.979-3.831-5.749l2.728-2.728c1.194-1.194 1.194-3.13 0-4.324-1.193-1.194-3.13-1.194-4.324 0l-2.728 2.728c-1.776-1.475-3.712-2.762-5.772-3.843l1.461-3.57c.641-1.562-.125-3.342-1.707-3.973-1.583-.632-3.385.123-4.023 1.687l-1.441 3.513c-2.114-.641-4.318-1.073-6.59-1.278v-3.142c0-1.657-1.344-3-3-3-1.657 0-3 1.343-3 3v3.142c-2.276.206-4.486.64-6.606 1.283l-1.443-3.52c-.641-1.563-2.446-2.318-4.031-1.687-1.586.631-2.352 2.41-1.711 3.973l1.469 3.583c-2.052 1.078-3.98 2.361-5.749 3.83l-2.728-2.728c-1.194-1.194-3.13-1.194-4.324 0s-1.194 3.13 0 4.324l2.728 2.728c-1.475 1.776-2.762 3.712-3.843 5.772l-3.571-1.461c-1.562-.64-3.341.125-3.973 1.707-.631 1.583.124 3.385 1.687 4.024l3.515 1.438c-.641 2.114-1.073 4.319-1.278 6.59h-3.142c-1.657 0-3 1.343-3 3s1.343 3 3 3h3.142c.205 2.276.639 4.486 1.283 6.605l-3.52 1.443c-1.562.641-2.317 2.445-1.687 4.031.631 1.586 2.41 2.352 3.973 1.711l3.583-1.469c1.079 2.053 2.361 3.98 3.831 5.749l-2.696 2.696c-1.194 1.193-1.194 3.13 0 4.324 1.194 1.193 3.13 1.193 4.324 0l2.696-2.696c1.775 1.475 3.711 2.762 5.772 3.843l-1.461 3.57c-.64 1.563.125 3.342 1.708 3.973 1.583.632 3.384-.123 4.023-1.686l1.439-3.516c2.114.641 4.319 1.073 6.59 1.278v3.146c0 1.657 1.343 3 3 3 1.656 0 3-1.343 3-3v-3.142c2.276-.206 4.486-.639 6.605-1.283l1.443 3.521c.641 1.562 2.445 2.317 4.031 1.686 1.586-.631 2.352-2.409 1.711-3.973l-1.469-3.583c2.053-1.078 3.979-2.36 5.748-3.83l2.697 2.696c1.193 1.193 3.129 1.193 4.324 0 1.193-1.194 1.193-3.131 0-4.324l-2.697-2.696c1.476-1.775 2.762-3.711 3.844-5.772l3.57 1.462c1.562.639 3.342-.125 3.973-1.708s-.123-3.385-1.686-4.024l-3.514-1.44c.641-2.114 1.073-4.319 1.277-6.59h3.143zm-15.326-21.846c3.905 4.281 6.514 9.766 7.162 15.846h-4.029c-.621-4.978-2.762-9.481-5.949-13.03l2.816-2.816zm-18.674-9.075c5.976.422 11.429 2.723 15.783 6.31l-2.839 2.839c-3.612-2.879-8.07-4.735-12.944-5.138v-4.011zm-4 0v4.011c-4.874.402-9.333 2.259-12.944 5.138l-2.839-2.839c4.354-3.587 9.807-5.888 15.783-6.31zm-18.674 9.075l2.816 2.815c-3.188 3.549-5.328 8.053-5.949 13.03h-4.029c.648-6.079 3.257-11.563 7.162-15.845zm-.939 36.63c-3.786-4.596-6.139-10.417-6.363-16.784h4.001c.216 5.264 2.127 10.087 5.202 13.944l-2.84 2.84zm19.613 10.137c-6.477-.458-12.34-3.121-16.854-7.238l2.824-2.824c3.785 3.399 8.656 5.608 14.03 6.052v4.01zm-18-27.921c0-11.046 8.954-20 20-20s20 8.954 20 20-8.954 20-20 20-20-8.954-20-20zm22 27.921v-4.011c5.373-.443 10.244-2.652 14.029-6.052l2.824 2.824c-4.513 4.118-10.376 6.781-16.853 7.239zm19.613-10.137l-2.841-2.84c3.075-3.857 4.986-8.681 5.202-13.944h4.001c-.223 6.367-2.576 12.188-6.362 16.784z"/><path fill="#EBEEEE" d="M100 67c1.656 0 3-1.343 3-3s-1.344-3-3-3h-3.143c-.205-2.276-.639-4.486-1.282-6.605l3.521-1.443c1.562-.641 2.316-2.445 1.686-4.031s-2.41-2.352-3.973-1.711l-3.582 1.469c-1.079-2.053-2.361-3.979-3.831-5.749l2.728-2.728c1.194-1.194 1.194-3.13 0-4.324-1.193-1.194-3.13-1.194-4.324 0l-2.728 2.728c-1.776-1.475-3.712-2.762-5.772-3.843l1.461-3.57c.641-1.562-.125-3.342-1.707-3.973-1.583-.632-3.385.123-4.023 1.687l-1.441 3.513c-2.114-.641-4.318-1.073-6.59-1.278v-3.142c0-1.657-1.344-3-3-3-1.657 0-3 1.343-3 3v3.142c-2.276.206-4.486.64-6.606 1.283l-1.443-3.52c-.641-1.563-2.446-2.318-4.031-1.687-1.586.631-2.352 2.41-1.711 3.973l1.469 3.583c-2.052 1.078-3.98 2.361-5.749 3.83l-2.728-2.728c-1.194-1.194-3.13-1.194-4.324 0s-1.194 3.13 0 4.324l2.728 2.728c-1.475 1.776-2.762 3.712-3.843 5.772l-3.571-1.461c-1.562-.64-3.341.125-3.973 1.707-.631 1.583.124 3.385 1.687 4.024l3.515 1.438c-.641 2.114-1.073 4.319-1.278 6.59h-3.142c-1.657 0-3 1.343-3 3s1.343 3 3 3h3.142c.205 2.276.639 4.486 1.283 6.605l-3.52 1.443c-1.562.641-2.317 2.445-1.687 4.031.631 1.586 2.41 2.352 3.973 1.711l3.583-1.469c1.079 2.053 2.361 3.98 3.831 5.749l-2.696 2.696c-1.194 1.193-1.194 3.13 0 4.324 1.194 1.193 3.13 1.193 4.324 0l2.696-2.696c1.775 1.475 3.711 2.762 5.772 3.843l-1.461 3.57c-.64 1.563.125 3.342 1.708 3.973 1.583.632 3.384-.123 4.023-1.686l1.439-3.516c2.114.641 4.319 1.073 6.59 1.278v3.146c0 1.657 1.343 3 3 3 1.656 0 3-1.343 3-3v-3.142c2.276-.206 4.486-.639 6.605-1.283l1.443 3.521c.641 1.562 2.445 2.317 4.031 1.686 1.586-.631 2.352-2.409 1.711-3.973l-1.469-3.583c2.053-1.078 3.979-2.36 5.748-3.83l2.697 2.696c1.193 1.193 3.129 1.193 4.324 0 1.193-1.194 1.193-3.131 0-4.324l-2.697-2.696c1.476-1.775 2.762-3.711 3.844-5.772l3.57 1.462c1.562.639 3.342-.125 3.973-1.708s-.123-3.385-1.686-4.024l-3.514-1.44c.641-2.114 1.073-4.319 1.277-6.59h3.143zm-15.326-21.846c3.905 4.281 6.514 9.766 7.162 15.846h-4.029c-.621-4.978-2.762-9.481-5.949-13.03l2.816-2.816zm-18.674-9.075c5.976.422 11.429 2.723 15.783 6.31l-2.839 2.839c-3.612-2.879-8.07-4.735-12.944-5.138v-4.011zm-4 0v4.011c-4.874.402-9.333 2.259-12.944 5.138l-2.839-2.839c4.354-3.587 9.807-5.888 15.783-6.31zm-18.674 9.075l2.816 2.815c-3.188 3.549-5.328 8.053-5.949 13.03h-4.029c.648-6.079 3.257-11.563 7.162-15.845zm-.939 36.63c-3.786-4.596-6.139-10.417-6.363-16.784h4.001c.216 5.264 2.127 10.087 5.202 13.944l-2.84 2.84zm19.613 10.137c-6.477-.458-12.34-3.121-16.854-7.238l2.824-2.824c3.785 3.399 8.656 5.608 14.03 6.052v4.01zm-18-27.921c0-11.046 8.954-20 20-20s20 8.954 20 20-8.954 20-20 20-20-8.954-20-20zm22 27.921v-4.011c5.373-.443 10.244-2.652 14.029-6.052l2.824 2.824c-4.513 4.118-10.376 6.781-16.853 7.239zm19.613-10.137l-2.841-2.84c3.075-3.857 4.986-8.681 5.202-13.944h4.001c-.223 6.367-2.576 12.188-6.362 16.784z"/><path fill="#EFCECB" d="M78.017 62.771h-1.538c-.068-.704-.206-1.386-.386-2.051l1.318-.528c.501-.201.744-.769.542-1.267l-.184-.45c-.203-.498-.774-.739-1.276-.538l-1.263.507c-.426-.857-.935-1.665-1.536-2.397l1.102-1.102c.384-.384.384-1.008 0-1.392l-.349-.348c-.384-.385-1.008-.385-1.392 0l-1.101 1.101c-.66-.542-1.379-1.013-2.142-1.412l.577-1.429c.203-.504-.04-1.077-.543-1.28l-.455-.185c-.503-.203-1.076.04-1.279.544l-.578 1.429c-.742-.218-1.511-.374-2.304-.451v-1.538c0-.543-.44-.983-.983-.983h-.492c-.543 0-.983.44-.983.983v1.538c-.709.068-1.396.207-2.065.39l-.531-1.323c-.202-.502-.77-.745-1.268-.542l-.452.184c-.499.203-.74.774-.539 1.276l.511 1.271c-.852.424-1.654.931-2.382 1.529l-1.086-1.087c-.384-.384-1.007-.384-1.391 0l-.348.348c-.384.384-.384 1.007 0 1.391l1.087 1.087c-.539.655-1.007 1.369-1.405 2.126l-1.426-.576c-.504-.203-1.078.04-1.281.544l-.185.457c-.204.504.04 1.077.544 1.28l1.423.575c-.22.747-.378 1.521-.456 2.319h-1.537c-.543 0-.984.44-.984.983v.492c0 .543.44.983.984.983h1.537c.084.868.256 1.71.508 2.517l-1.432.574c-.502.201-.744.769-.542 1.267l.184.45c.203.499.774.739 1.276.538l1.464-.587c.38.698.825 1.356 1.327 1.966l-1.087 1.086c-.384.385-.384 1.008 0 1.393l.348.348c.384.385 1.007.385 1.392 0l1.086-1.086c.66.542 1.379 1.013 2.141 1.412l-.577 1.429c-.204.504.04 1.077.543 1.28l.456.184c.504.203 1.077-.04 1.28-.544l.577-1.429c.743.218 1.511.375 2.304.451v1.538c0 .543.44.983.983.983h.492c.543 0 .983-.44.983-.983v-1.538c.865-.084 1.706-.254 2.511-.505l.577 1.438c.202.502.77.745 1.269.542l.451-.184c.499-.203.74-.774.539-1.276l-.592-1.471c.701-.381 1.359-.827 1.971-1.33l1.086 1.087c.385.385 1.008.385 1.392 0l.348-.348c.384-.384.384-1.007 0-1.391l-1.087-1.087c.546-.664 1.02-1.389 1.42-2.156l1.45.586c.504.204 1.077-.039 1.281-.544l.185-.456c.203-.504-.04-1.078-.544-1.281l-1.453-.587c.215-.737.37-1.5.446-2.287h1.538c.543 0 .983-.44.983-.983v-.492c.001-.542-.439-.982-.982-.982zm-14.017 8.852c-4.21 0-7.623-3.413-7.623-7.623s3.413-7.623 7.623-7.623 7.623 3.413 7.623 7.623-3.413 7.623-7.623 7.623zm0-10.623c-1.657 0-3 1.343-3 3s1.343 3 3 3c1.656 0 3-1.343 3-3s-1.344-3-3-3z"/><path fill="#EFCECB" d="M78.017 62.771h-1.538c-.068-.704-.206-1.386-.386-2.051l1.318-.528c.501-.201.744-.769.542-1.267l-.184-.45c-.203-.498-.774-.739-1.276-.538l-1.263.507c-.426-.857-.935-1.665-1.536-2.397l1.102-1.102c.384-.384.384-1.008 0-1.392l-.349-.348c-.384-.385-1.008-.385-1.392 0l-1.101 1.101c-.66-.542-1.379-1.013-2.142-1.412l.577-1.429c.203-.504-.04-1.077-.543-1.28l-.455-.185c-.503-.203-1.076.04-1.279.544l-.578 1.429c-.742-.218-1.511-.374-2.304-.451v-1.538c0-.543-.44-.983-.983-.983h-.492c-.543 0-.983.44-.983.983v1.538c-.709.068-1.396.207-2.065.39l-.531-1.323c-.202-.502-.77-.745-1.268-.542l-.452.184c-.499.203-.74.774-.539 1.276l.511 1.271c-.852.424-1.654.931-2.382 1.529l-1.086-1.087c-.384-.384-1.007-.384-1.391 0l-.348.348c-.384.384-.384 1.007 0 1.391l1.087 1.087c-.539.655-1.007 1.369-1.405 2.126l-1.426-.576c-.504-.203-1.078.04-1.281.544l-.185.457c-.204.504.04 1.077.544 1.28l1.423.575c-.22.747-.378 1.521-.456 2.319h-1.537c-.543 0-.984.44-.984.983v.492c0 .543.44.983.984.983h1.537c.084.868.256 1.71.508 2.517l-1.432.574c-.502.201-.744.769-.542 1.267l.184.45c.203.499.774.739 1.276.538l1.464-.587c.38.698.825 1.356 1.327 1.966l-1.087 1.086c-.384.385-.384 1.008 0 1.393l.348.348c.384.385 1.007.385 1.392 0l1.086-1.086c.66.542 1.379 1.013 2.141 1.412l-.577 1.429c-.204.504.04 1.077.543 1.28l.456.184c.504.203 1.077-.04 1.28-.544l.577-1.429c.743.218 1.511.375 2.304.451v1.538c0 .543.44.983.983.983h.492c.543 0 .983-.44.983-.983v-1.538c.865-.084 1.706-.254 2.511-.505l.577 1.438c.202.502.77.745 1.269.542l.451-.184c.499-.203.74-.774.539-1.276l-.592-1.471c.701-.381 1.359-.827 1.971-1.33l1.086 1.087c.385.385 1.008.385 1.392 0l.348-.348c.384-.384.384-1.007 0-1.391l-1.087-1.087c.546-.664 1.02-1.389 1.42-2.156l1.45.586c.504.204 1.077-.039 1.281-.544l.185-.456c.203-.504-.04-1.078-.544-1.281l-1.453-.587c.215-.737.37-1.5.446-2.287h1.538c.543 0 .983-.44.983-.983v-.492c.001-.542-.439-.982-.982-.982zm-14.017 8.852c-4.21 0-7.623-3.413-7.623-7.623s3.413-7.623 7.623-7.623 7.623 3.413 7.623 7.623-3.413 7.623-7.623 7.623zm0-10.623c-1.657 0-3 1.343-3 3s1.343 3 3 3c1.656 0 3-1.343 3-3s-1.344-3-3-3z"/></svg>