<?xml version="1.0" encoding="utf-8"?>
<!-- Generator: Adobe Illustrator 16.2.1, SVG Export Plug-In . SVG Version: 6.00 Build 0)  -->
<!DOCTYPE svg PUBLIC "-//W3C//DTD SVG 1.1//EN" "http://www.w3.org/Graphics/SVG/1.1/DTD/svg11.dtd">
<svg version="1.1" id="Слой_1" xmlns="http://www.w3.org/2000/svg" xmlns:xlink="http://www.w3.org/1999/xlink" x="0px" y="0px"
	 width="128px" height="128px" viewBox="0 0 128 128" enable-background="new 0 0 128 128" xml:space="preserve">
<path fill="#DF5A48" d="M64,0c35.346,0,64,28.653,64,63.999C128,99.346,99.346,128,64,128C28.654,128,0,99.346,0,63.999
	C0,28.653,28.654,0,64,0z"/>
<path fill="#EBEEEE" d="M63.896,29.994c-0.863,0-1.727,0.246-2.477,0.736c-0.18,0.119-5.538,3.063-10.781,4.329
	c-3.432,0.83-7.126,0.954-8.98,0.954c-1.122,0-1.838,0.02-1.908,0.016c1.479,0.092-1.147-0.657-3.344,1.36
	c-0.901,0.828-1.416,2.236-1.416,3.449v14.153c0,40.522,26.973,45.739,28.117,45.942c0.262,0.045,0.65,0.069,0.914,0.069
	c0.263,0,0.528-0.024,0.788-0.069c1.146-0.203,28.189-5.42,28.189-45.942v-13.96c0-1.216-0.516-2.817-1.417-3.646
	c-2.187-2.007-4.812-1.269-3.351-1.354c-0.062,0.004-0.778-0.016-1.899-0.016c-1.856,0-5.481-0.06-8.916-0.454
	c-4.435-1.07-9.554-3.847-11.043-4.827C65.625,30.24,64.76,29.994,63.896,29.994L63.896,29.994z"/>
<path fill="#2CA4D5" d="M63.917,33.993c0.071,0,0.177,0.015,0.278,0.081c1.882,1.237,7.362,4.177,12.295,5.367l0.238,0.058
	l0.242,0.027c3.635,0.419,7.428,0.643,9.367,0.643c3.016,0,2.665,2.392,2.665,3.08v11.755c0,37.104-23.912,41.812-24.918,41.99
	c-0.055,0.01-0.091,0.011-0.104,0.011c-0.017,0-0.053-0.002-0.09-0.008c-1.013-0.181-24.863-4.858-24.863-41.993V43.058
	c0-0.329-0.471-2.889,2.664-2.889c2.058,0,6.084-0.3,9.912-1.227c5.777-1.394,11.574-4.565,12.023-4.863
	C63.713,34.023,63.815,33.993,63.917,33.993"/>
<path fill="#4DADDA" d="M64.01,34.004c-0.033-0.005-0.067-0.011-0.093-0.011c-0.102,0-0.204,0.03-0.288,0.086
	c-0.449,0.298-6.246,3.47-12.023,4.863c-3.828,0.927-7.854,1.227-9.912,1.227c-3.135,0-2.664,2.56-2.664,2.889v11.946
	c0,37.135,23.851,41.812,24.863,41.993c0.037,0.006,0.073,0.008,0.09,0.008c0.003,0,0.021-0.003,0.028-0.003V34.004H64.01z"/>
<path fill="#EBEEEE" d="M64,45.575c10.178,0,18.425,8.249,18.425,18.424S74.178,82.424,64,82.424
	c-10.176,0-18.425-8.25-18.425-18.425C45.575,53.823,53.824,45.575,64,45.575z"/>
<path fill="#EFC84A" d="M64,49c8.284,0,15,6.715,15,14.999s-6.716,15-15,15s-15-6.716-15-15S55.716,49,64,49z"/>
<g>
	<polygon fill="#334D5D" points="70.506,68.402 72.576,66.01 71.48,64.915 69.168,66.82 67.098,64.303 72.225,60.087 71.999,56.003 
		67.915,55.776 64,60.537 60.085,55.776 56.001,56.003 55.775,60.087 60.902,64.303 58.832,66.82 56.52,64.915 55.425,66.01 
		57.494,68.402 55.004,70.895 55.607,72.396 57.108,72.998 59.598,70.508 61.992,72.577 63.088,71.48 61.181,69.169 64,66.852 
		66.818,69.169 64.912,71.48 66.008,72.577 68.402,70.508 70.893,72.998 72.393,72.396 72.996,70.895 	"/>
</g>
<path fill="#EDEFF0" d="M45.575,63.999c0,10.175,8.25,18.425,18.425,18.425V45.575C53.824,45.575,45.575,53.823,45.575,63.999z"/>
<path fill="#F1CE5E" d="M49,63.999c0,8.284,6.716,15,15,15V49C55.716,49,49,55.715,49,63.999z"/>
<polygon fill="#4A606E" points="60.085,55.776 56.001,56.003 55.775,60.087 60.902,64.303 58.832,66.82 56.52,64.915 55.425,66.01 
	57.494,68.402 55.004,70.895 55.607,72.396 57.108,72.998 59.598,70.508 61.992,72.577 63.088,71.48 61.181,69.169 64,66.852 
	64,60.537 "/>
</svg>
