<svg xmlns="http://www.w3.org/2000/svg" xmlns:xlink="http://www.w3.org/1999/xlink" width="128" height="128"><path fill="#EFC84A" d="M64 0c35.346 0 64 28.654 64 64 0 35.347-28.654 64-64 64-35.346 0-64-28.653-64-64 0-35.346 28.654-64 64-64z"/><path fill="#fff" d="M44 41h42c1.104 0 2 .896 2 2v29c0 1.104-.896 2-2 2h-42c-1.104 0-2-.896-2-2v-29c0-1.104.896-2 2-2z"/><path fill="#F0F0F0" d="M65 41h23v25h-23v-25z"/><path fill="#fff" d="M52 48c-1.657 0-3 1.344-3 3 0 1.657 1.343 3 3 3s3-1.343 3-3c0-1.656-1.343-3-3-3zm26 0c-1.656 0-3 1.344-3 3 0 1.657 1.344 3 3 3s3-1.343 3-3c0-1.656-1.344-3-3-3z"/><circle fill="#BDC3C7" cx="52" cy="51" r="4.536"/><circle fill="#BDC3C7" cx="78" cy="51" r="4.536"/><polygon fill="#808C8D" points="58,27 58,32 59,32 59,41 71,41 71,32 72,32 72,27"/><path fill="#737E7F" d="M59 32h12v2h-12v-2z"/><path fill="#ECE6D1" d="M71 16c3.313 0 6 2.687 6 6-.038.011-11.992-.006-12 0 0-3.313 2.687-6 6-6z"/><path fill="#fff" d="M65 19c2.762 0 5 1.791 5 4-.031.007-9.993-.004-10 0 0-2.209 2.239-4 5-4z"/><path fill="#334D5D" d="M40.189 89.969l11.902 4.062 11.902-4.062 11.903 4.062s5.951-4.062 11.904-4.062c.963 0 1.758.114 2.46.293l6.74-24.262-32.041-11-31.959 11 6.664 23.991.525-.022z"/><path fill="#2D4453" d="M65 90.013c4.964.431 5.302 4.019 10.896 4.019 5.951 0 5.951-4.062 11.904-4.062.963 0 1.758.114 2.46.293l6.74-24.263-32-10.986v34.999z"/><circle fill="#fff" cx="52" cy="51" r="3"/><circle fill="#fff" cx="78" cy="51" r="3"/><defs><path id="a" d="M64 0c35.346 0 64 28.654 64 64 0 35.347-28.654 64-64 64-35.346 0-64-28.653-64-64 0-35.346 28.654-64 64-64z"/></defs><clipPath id="b"><use xlink:href="#a" overflow="visible"/></clipPath><g clip-path="url(#b)"><path fill="#2CA4D5" d="M135.96 145.526h-143.919v-55.462s6.493 3.967 12.443 3.967l11.902-4.062 11.903 4.062 11.901-4.062s5.951 4.062 11.902 4.062l11.902-4.062 11.903 4.062s5.951-4.062 11.904-4.062l11.903 4.062s5.952-4.062 11.903-4.062l11.906 4.062c5.952 0 12.445-3.967 12.445-3.967l.002 55.462z"/><path fill="#2993C0" d="M124.96 162.526h-143.919v-55.462s6.493 3.967 12.443 3.967l11.902-4.062 11.903 4.062 11.9-4.062c5.952 0 5.952 4.062 11.902 4.062s5.951-4.062 11.902-4.062l11.903 4.062c5.951 0 5.951-4.062 11.904-4.062l11.903 4.062s5.952-4.062 11.903-4.062l11.906 4.062c5.952 0 12.445-3.967 12.445-3.967l.003 55.462z"/></g></svg>