<svg xmlns="http://www.w3.org/2000/svg" xmlns:xlink="http://www.w3.org/1999/xlink" width="128" height="128"><path fill="#334D5D" d="M64 0c35.346 0 64 28.654 64 64 0 35.347-28.654 64-64 64s-64-28.653-64-64c0-35.346 28.654-64 64-64z"/><defs><path id="a" d="M64 0c35.346 0 64 28.654 64 64 0 35.347-28.654 64-64 64s-64-28.653-64-64c0-35.346 28.654-64 64-64z"/></defs><clipPath id="b"><use xlink:href="#a" overflow="visible"/></clipPath><g clip-path="url(#b)"><path fill="#2CA4D5" d="M95-10c11.046 0 20 8.954 20 20s-8.954 20-20 20-20-8.954-20-20 8.954-20 20-20z"/><path fill="#2993C0" d="M89 12c0-2.209-1.791-4-4-4s-4 1.791-4 4 1.791 4 4 4 4-1.791 4-4zm0 9c-1.104 0-2 .896-2 2s.896 2 2 2 2-.896 2-2-.896-2-2-2zm9.5-6c-1.933 0-3.5 1.567-3.5 3.5 0 1.934 1.567 3.5 3.5 3.5 1.934 0 3.5-1.566 3.5-3.5 0-1.933-1.566-3.5-3.5-3.5z"/><path fill="#EFC84A" d="M64 67c35.347 0 64 28.654 64 64.001 0 35.346-28.653 63.999-64 63.999-35.346 0-64-28.653-64-63.999 0-35.347 28.654-64.001 64-64.001z"/><path fill="#93A0A6" d="M119.002 58.503v-.003s-5.82-.102-6.26-.812l1.593-3.019s-2.311 2.03-3.021 1.591c-.71-.44-.813-6.257-.813-6.257s-.103 5.816-.813 6.257c-.71.439-3.02-1.592-3.02-1.592s2.031 2.31 1.591 3.021c-.439.71-6.26.812-6.26.812v.002s5.82.102 6.26.812c.44.711-1.593 3.019-1.593 3.019s2.312-2.03 3.021-1.59c.71.439.813 6.256.813 6.256s.104-5.817.813-6.257c.711-.44 3.02 1.592 3.02 1.592s-2.03-2.31-1.591-3.021c.44-.71 6.26-.811 6.26-.811zm-72.667-29.833s-2.311 2.03-3.021 1.591c-.71-.44-.813-6.257-.813-6.257s-.103 5.816-.813 6.257c-.71.439-3.02-1.592-3.02-1.592s2.031 2.31 1.591 3.02c-.439.711-6.26.812-6.26.812v.003s5.82.101 6.26.812c.44.71-1.593 3.019-1.593 3.019s2.312-2.03 3.021-1.59c.71.437.813 6.255.813 6.255s.104-5.817.813-6.257c.711-.44 3.02 1.592 3.02 1.592s-2.03-2.311-1.591-3.021l6.26-.812v-.002s-5.82-.102-6.26-.812l1.593-3.018zm-21.354 30.352s-1.495 1.312-1.955 1.028c-.459-.284-.526-4.049-.526-4.049s-.066 3.765-.526 4.049c-.46.285-1.954-1.029-1.954-1.029s1.314 1.494 1.03 1.954c-.285.459-4.051.524-4.051.524v.002s3.766.065 4.05.525c.285.459-1.03 1.953-1.03 1.953s1.495-1.313 1.955-1.029l.526 4.05s.066-3.764.526-4.049c.46-.284 1.954 1.03 1.954 1.03s-1.313-1.495-1.029-1.954c.284-.46 4.051-.525 4.051-.525v-.002s-3.767-.065-4.051-.525c-.284-.459 1.03-1.953 1.03-1.953zm55-17s-1.495 1.313-1.955 1.028c-.46-.284-.526-4.049-.526-4.049s-.066 3.765-.526 4.049c-.46.285-1.954-1.03-1.954-1.03s1.314 1.495 1.03 1.954c-.285.46-4.051.526-4.051.526v.001s3.766.065 4.05.525c.285.459-1.03 1.953-1.03 1.953s1.495-1.313 1.955-1.029c.46.286.526 4.05.526 4.05s.066-3.764.526-4.049c.46-.284 1.954 1.03 1.954 1.03s-1.313-1.495-1.029-1.954l4.051-.525v-.002s-3.767-.065-4.051-.525c-.284-.459 1.03-1.953 1.03-1.953z"/><path fill="#D7B442" d="M64 67c-.839 0-1.669.031-2.5.062 34.187 1.316 61.5 29.43 61.5 63.938 0 34.507-27.313 62.621-61.5 63.936.831.033 1.661.064 2.5.064 35.347 0 64-28.653 64-63.999 0-35.347-28.653-64.001-64-64.001z"/><path fill="#EAA344" d="M59 113c-6.627 0-12 4.478-12 10 0 5.523 5.373 10 12 10 6.628 0 12-4.477 12-10 0-5.522-5.372-10-12-10zm-25-24c-4.971 0-9 3.358-9 7.5 0 4.143 4.029 7.5 9 7.5s9-3.357 9-7.5c0-4.142-4.029-7.5-9-7.5zm30-22c-6.982 0-13.697 1.134-19.988 3.201.021.633.126 1.252.325 1.852 1.515 4.538 7.952 7.947 15.663 7.947 8.837 0 16-4.477 16-10 0-.655-.111-1.295-.304-1.914-3.794-.701-7.699-1.086-11.696-1.086zm32.466 24.562c-6.23-5.197-14.175-6.081-17.746-1.974-3.57 4.107-1.415 11.651 4.814 16.849 6.23 5.198 14.175 6.082 17.746 1.975 3.571-4.108 1.415-11.651-4.814-16.85z"/><path d="M49 123c0-5.241 4.842-9.533 11-9.958-.33-.022-.662-.042-1-.042-6.627 0-12 4.478-12 10 0 5.523 5.373 10 12 10 .338 0 .67-.02 1-.042-6.158-.425-11-4.716-11-9.958zm-22-26.5c0-3.859 3.501-7.036 8-7.451-.329-.03-.661-.049-1-.049-4.971 0-9 3.358-9 7.5 0 4.143 4.029 7.5 9 7.5.339 0 .671-.019 1-.049-4.499-.415-8-3.591-8-7.451zm58.534 9.938c-6.229-5.197-8.385-12.741-4.814-16.849 1.312-1.509 3.217-2.339 5.408-2.534-3.021-.23-5.711.582-7.408 2.534-3.57 4.107-1.415 11.651 4.814 16.849 3.941 3.289 8.566 4.844 12.338 4.508-3.333-.255-7.069-1.782-10.338-4.508zm-24.603-26.467c-7.229-.299-13.149-3.592-14.594-7.918-.213-.641-.329-1.303-.337-1.981v-.071l.036-.421c-.679.198-1.355.402-2.024.622l.001.011c.011.312.041.622.095.927.056.309.13.614.229.914 1.515 4.537 7.952 7.946 15.663 7.946.314 0 .621-.018.931-.029z" fill-rule="evenodd" clip-rule="evenodd" fill="#D1933B"/></g></svg>