<svg xmlns="http://www.w3.org/2000/svg" width="128" height="128"><path fill="#E27C3F" d="M64 0c35.346 0 64 28.654 64 64 0 35.347-28.654 64-64 64s-64-28.653-64-64c0-35.346 28.653-64 64-64z"/><path fill="#334D5D" d="M41 27h46c1.656 0 3 1.344 3 3v68c0 1.657-1.344 3-3 3h-46c-1.657 0-3-1.343-3-3v-68c0-1.656 1.343-3 3-3z"/><path fill="#3B5766" d="M45 31h38c1.656 0 3 1.343 3 3v60c0 1.657-1.344 3-3 3h-38c-1.657 0-3-1.343-3-3v-60c0-1.657 1.343-3 3-3z"/><path fill="#EBEEEE" d="M64 36c4.971 0 9 4.029 9 9s-4.029 9-9 9-9-4.029-9-9 4.029-9 9-9z"/><path fill="#334D5D" d="M64 39c3.313 0 6 2.687 6 6 0 3.314-2.688 6-6 6-3.313 0-6-2.686-6-6 0-3.313 2.686-6 6-6z"/><path fill="#EFC84A" d="M64 42c1.657 0 3 1.343 3 3s-1.344 3-3 3-3-1.343-3-3 1.343-3 3-3z"/><path fill="#334D5D" d="M64 58c9.389 0 17 7.611 17 17s-7.611 17-17 17-17-7.611-17-17 7.611-17 17-17z"/><path fill="#EFC84A" d="M64 61c7.732 0 14 6.269 14 14 0 7.732-6.269 14-14 14s-14-6.268-14-14c0-7.731 6.268-14 14-14z"/><path fill="#334D5D" d="M64 66c4.971 0 9 4.029 9 9s-4.029 9-9 9-9-4.029-9-9 4.029-9 9-9z"/><path fill="#F0F0F0" d="M64 72c1.657 0 3 1.344 3 3 0 1.657-1.344 3-3 3s-3-1.343-3-3c0-1.656 1.343-3 3-3z"/><path fill="#72848F" d="M80.5 40c.828 0 1.5-.672 1.5-1.5s-.672-1.5-1.5-1.5c-.829 0-1.5.672-1.5 1.5s.671 1.5 1.5 1.5zm-33-3c-.829 0-1.5.672-1.5 1.5s.671 1.5 1.5 1.5 1.5-.672 1.5-1.5-.672-1.5-1.5-1.5zm0 51c-.829 0-1.5.672-1.5 1.5s.671 1.5 1.5 1.5 1.5-.672 1.5-1.5-.672-1.5-1.5-1.5zm33 0c-.829 0-1.5.672-1.5 1.5s.671 1.5 1.5 1.5c.828 0 1.5-.672 1.5-1.5s-.672-1.5-1.5-1.5z"/></svg>