<?xml version="1.0" encoding="utf-8"?>
<!-- Generator: Adobe Illustrator 16.2.1, SVG Export Plug-In . SVG Version: 6.00 Build 0)  -->
<!DOCTYPE svg PUBLIC "-//W3C//DTD SVG 1.1//EN" "http://www.w3.org/Graphics/SVG/1.1/DTD/svg11.dtd">
<svg version="1.1" id="Слой_1" xmlns="http://www.w3.org/2000/svg" xmlns:xlink="http://www.w3.org/1999/xlink" x="0px" y="0px"
	 width="128px" height="128px" viewBox="0 0 128 128" enable-background="new 0 0 128 128" xml:space="preserve">
<path fill="#334D5D" d="M64,0c35.346,0,64,28.654,64,64c0,35.348-28.654,64-64,64C28.654,128,0,99.348,0,64C0,28.654,28.654,0,64,0z
	"/>
<path fill="#EBEEEE" d="M33,38.001h62v59H33V38.001z"/>
<path fill="#CCD1D3" d="M37.036,34.001H90.9l4.103,3.992H32.998L37.036,34.001z"/>
<g>
	<path fill="#2CA4D5" d="M37,94.001h14v-40H37V94.001z M55,97.001h18v-43H55V97.001z M77,54.001v40h14v-40H77z"/>
</g>
<path fill="#BDBFBF" d="M33,54.001h62v3H33V54.001z"/>
<path fill="#45B39C" d="M60,65h8c1.104,0,2,0.896,2,2v3c0,1.104-0.896,2-2,2h-8c-1.104,0-2-0.896-2-2v-3C58,65.896,58.896,65,60,65z
	"/>
<path fill="#E4E8E8" d="M101.982,47.982l-6.043-5.985H31.998l-5.981,5.985H26v4.007c0,1.104,0.896,2.002,2,2.002h72
	c1.105,0,2-0.896,2-2.002v-4.007H101.982z"/>
<g>
	<polygon fill="#2993C0" points="51,79.001 45,79.001 45,73.001 37,73.001 37,94.001 51,94.001 	"/>
	<rect x="68" y="83.001" fill="#2993C0" width="5" height="14"/>
	<rect x="55" y="79.001" fill="#2993C0" width="7" height="18"/>
	<rect x="77" y="73.001" fill="#2993C0" width="14" height="21"/>
</g>
<path fill="#E4E8E8" d="M68,65h-8c-1.104,0-2,0.896-2,2v3c0,1.104,0.896,2,2,2h8c1.104,0,2-0.896,2-2v-3C70,65.896,69.104,65,68,65z
	 M68.5,70c0,0.275-0.225,0.5-0.5,0.5h-8c-0.276,0-0.5-0.225-0.5-0.5v-3c0-0.275,0.224-0.5,0.5-0.5h8c0.275,0,0.5,0.225,0.5,0.5V70z"
	/>
<g>
	<path fill="#45B39C" d="M95.005,85c-3.472,0-6.343,2.531-6.894,5.85c-0.737-0.533-1.637-0.854-2.616-0.854
		c-2.481,0-4.495,2.017-4.495,4.503S83.014,99,85.495,99c0.371,0,9.226,0,9.51,0c3.863,0,6.995-3.134,6.995-7S98.868,85,95.005,85z"
		/>
</g>
<g>
	<path fill="#45B39C" d="M42.505,89.994c-0.979,0-1.879,0.322-2.617,0.854C39.338,87.531,36.467,85,32.996,85
		C29.132,85,26,88.134,26,92s3.132,7,6.996,7c0.284,0,9.138,0,9.509,0C44.987,99,47,96.984,47,94.497
		C47,92.011,44.987,89.994,42.505,89.994z"/>
</g>
<path fill="#3CA18C" d="M95.005,97c-0.284,0-9.139,0-9.51,0c-2.138,0-3.92-1.499-4.375-3.503c-0.073,0.323-0.12,0.655-0.12,1
	C81,96.984,83.014,99,85.495,99c0.371,0,9.226,0,9.51,0c3.863,0,6.995-3.134,6.995-7c0-0.341-0.032-0.673-0.079-1
	C101.436,94.391,98.527,97,95.005,97z"/>
<path fill="#3CA18C" d="M42.505,97c-0.371,0-9.225,0-9.509,0c-3.524,0-6.431-2.609-6.917-6C26.033,91.327,26,91.659,26,92
	c0,3.866,3.132,7,6.996,7c0.284,0,9.138,0,9.509,0C44.987,99,47,96.984,47,94.497c0-0.345-0.047-0.677-0.12-1
	C46.425,95.501,44.643,97,42.505,97z"/>
<g>
	<polygon fill="#DF5A48" points="51,42.001 50,48 50,53.991 54,53.991 54,48 55,42.001 	"/>
	<polygon fill="#DF5A48" points="44,42.001 42,48 42,53.991 46,53.991 46,48 48,42.001 	"/>
	<rect x="58" y="42.001" fill="#DF5A48" width="4" height="11.99"/>
	<polygon fill="#DF5A48" points="38,42.001 34,48 34,53.991 38,53.991 38,48 41,42.001 	"/>
	<polygon fill="#DF5A48" points="87,42.001 90,48 90,53.991 94,53.991 94,48 91,42.001 	"/>
	<path fill="#DF5A48" d="M101.982,47.982l-6.039-5.981H94L98,48v5.991h2c1.105,0,2-0.896,2-2.002V48l-0.012-0.018H101.982z"/>
	<path fill="#DF5A48" d="M28,53.991h2V48l4-5.999h-2.006l-5.978,5.981h-0.002L26,48v3.989C26,53.095,26.896,53.991,28,53.991z"/>
	<rect x="66" y="42.001" fill="#DF5A48" width="4" height="11.99"/>
	<polygon fill="#DF5A48" points="86,53.991 86,48 84,42.001 80,42.001 82,48 82,53.991 	"/>
	<polygon fill="#DF5A48" points="78,53.991 78,48 77,42.001 73,42.001 74,48 74,53.991 	"/>
</g>
<polygon fill="#C2C6C6" points="95.941,42 31.995,42 26.017,47.982 26,47.982 26,48 102,48 102,47.982 101.982,47.982 "/>
<g>
	<polygon fill="#BF4B3D" points="50,48 54,48 55,42.001 51,42.001 	"/>
	<rect x="66" y="42.001" fill="#BF4B3D" width="4" height="5.999"/>
	<polygon fill="#BF4B3D" points="42,48 46,48 48,42.001 44,42.001 	"/>
	<polygon fill="#BF4B3D" points="87,42.001 90,48 94,48 91,42.001 	"/>
	<rect x="58" y="42.001" fill="#BF4B3D" width="4" height="5.999"/>
	<polygon fill="#BF4B3D" points="94,42.001 98,48 102,48 101.988,47.982 101.982,47.982 95.943,42.001 	"/>
	<polygon fill="#BF4B3D" points="77,42.001 73,42.001 74,48 78,48 	"/>
	<polygon fill="#BF4B3D" points="34,42.001 31.994,42.001 26.017,47.982 26.015,47.982 26,48 30,48 	"/>
	<polygon fill="#BF4B3D" points="84,42.001 80,42.001 82,48 86,48 	"/>
	<polygon fill="#BF4B3D" points="38,48 41,42.001 38,42.001 34,48 	"/>
</g>
<g>
	<rect x="55" y="54.001" fill="#2283AB" width="18" height="3"/>
	<rect x="77" y="54.001" fill="#2283AB" width="14" height="3"/>
	<rect x="37" y="54.001" fill="#2283AB" width="14" height="3"/>
</g>
</svg>
