<svg xmlns="http://www.w3.org/2000/svg" width="128" height="128"><path fill="#ECF0F0" d="M64 0c35.347 0 64 28.654 64 64 0 35.346-28.653 64-64 64-35.346 0-64-28.654-64-64 0-35.346 28.654-64 64-64z"/><path fill="#314B59" d="M90.822 62.868l-.822-9.868h-52l-.766 9.183h.001l-1.215 14.585-.018.209-.002.023h.036c.744 5.731 14.013 13 27.964 13s27.22-7.269 27.964-13l.011-.148-1.153-13.984z"/><path fill="#3A5261" d="M63.842 61.604h-26.559l-.048.579-1.215 14.585-.018.209-.002.023h.036c.693 5.337 12.246 12.004 25.098 12.896h2.874l-.166-28.292z"/><path fill="#2B4250" d="M91.01 65.111l-1.01-12.111h-52l-1.008 12.094c12.553 4.592 27.058 9.896 27.008 9.906.006 0 14.48-5.297 27.01-9.889z"/><path fill="#3B5766" d="M64 39c.027 0 34.235 12.541 42.982 15.756-.002.018.002 1.48-.014 1.499-8.77 3.233-42.959 15.744-42.968 15.745.077-.014-34.271-12.554-43.001-15.76l.011-1.475c8.74-3.201 43.008-15.767 42.99-15.765z"/><path fill="#425D6B" d="M106.969 54.786c-8.771 3.233-42.96 15.744-42.969 15.745.077-.014-34.243-12.544-42.99-15.756l-.011 1.465c8.73 3.206 43.078 15.746 43.001 15.76.009-.001 34.198-12.512 42.969-15.745.016-.019.012-1.481.014-1.499l-.011-.004-.003.034z"/><path fill="#2B4250" d="M64 53c1.104 0 2 .672 2 1.5s-.896 1.5-2 1.5-2-.671-2-1.5.896-1.5 2-1.5z"/><path fill="#EFCD5F" d="M63.654 55.938l.691-1.876 22.655 8.938-1.908 1.064-21.438-8.126z"/><path fill="#EFC84A" d="M89 79c0-1.305-.837-2.403-2-2.816v-13.184l-2 1v12.184c-1.163.413-2 1.512-2 2.816 0 1.238.751 2.301 1.822 2.758-.31 1.264-.998 3.81-1.822 5.242.052-.041 5 2 5 2s-1.144-4.186-1.059-7.166c1.194-.396 2.059-1.508 2.059-2.834z"/></svg>