<svg xmlns="http://www.w3.org/2000/svg" width="128" height="128"><path fill="#45B39C" d="M64 0c35.346 0 64 28.653 64 64s-28.654 64-64 64-64-28.653-64-64 28.654-64 64-64z"/><path fill="#fff" d="M64.424 59.043c1.688 0 2.97.787 2.97 2.213 0 1.228-1.487 1.666-2.8 2.644-1.527 1.14-3.258 2.432-3.258 4.645 0 1.267.91 2.548 2.6 2.548 1.89 0 2.314-1.022 2.657-1.894.128-.331.249-.642.439-.91.263-.374.923-.826 1.62-1.307 1.844-1.271 4.369-3.012 4.369-6.132 0-5.022-4.736-6.805-8.791-6.805-4.338 0-8.206 3.21-8.206 6.582 0 1.427 1.082 2.485 2.632 2.485 1.8 0 2.447-1.051 2.933-2.061.518-1.076.934-2.008 2.835-2.008zm35.577-.978l-.218.031c2.665-.005 4.218-.015 4.217-.031 0-22.131-17.9-40.071-39.982-40.071s-39.982 17.94-39.982 40.071c-.035-.015 1.439-.021 3.998-.024.014-19.906 16.119-36.039 35.984-36.039 19.873 0 35.983 16.146 35.983 36.063zm1.068 15.475c-.9 8.075-6.161 28.464-36.201 30.446-2.045-.299-.772 1.729.063 2.005 32.069-2.062 37.324-24.284 38.162-32.61-.441-1.998-1.289-1.576-2.024.159zm-34.053 2.557c0-1.66-1.342-3.005-2.998-3.005s-2.999 1.345-2.999 3.005 1.343 3.006 2.999 3.006 2.998-1.346 2.998-3.006z"/><path fill="#EFC84A" d="M64 98c3.313 0 6 2.687 6 6s-2.687 6-6 6-6-2.687-6-6 2.687-6 6-6z"/><path fill="#2C3E50" d="M26 53c-5.523 0-10 4.478-10 10v6c0 5.523 4.477 10 10 10s10-4.477 10-10v-6c0-5.522-4.477-10-10-10zm76 0c-5.522 0-10 4.478-10 10v6c0 5.523 4.478 10 10 10s10-4.477 10-10v-6c0-5.522-4.478-10-10-10z"/><path d="M30 53.838c-1.226-.536-2.577-.838-4-.838-5.523 0-10 4.478-10 10v6c0 5.523 4.477 10 10 10 1.423 0 2.774-.302 4-.838v-24.324zm72-.838c-1.423 0-2.774.302-4 .838v24.324c1.226.536 2.577.838 4 .838 5.522 0 10-4.477 10-10v-6c0-5.522-4.478-10-10-10z" fill="#EFC84A"/><path d="M30 53.838c-1.226-.536-2.577-.838-4-.838v26c1.423 0 2.774-.302 4-.838v-24.324zm68 0v24.324c1.226.536 2.577.838 4 .838v-26c-1.423 0-2.774.302-4 .838z" fill="#D9AD14"/></svg>