<svg xmlns="http://www.w3.org/2000/svg" width="128" height="128"><path fill="#E27C3F" d="M64 0c35.346 0 64 28.654 64 64 0 35.347-28.654 64-64 64s-64-28.652-64-64c0-35.345 28.654-64 64-64z"/><path fill="#fff" d="M43 69.859c0-.553-.225-1.051-.588-1.412l-4.084-4.074 4.084-4.074c.363-.36.588-.86.588-1.411 0-1.102-.896-1.995-2-1.995-.553 0-1.053.225-1.416.585l-4.084 4.075-4.085-4.074c-.362-.361-.862-.585-1.415-.585-1.104 0-2 .893-2 1.995 0 .551.225 1.051.588 1.411l4.084 4.074-4.084 4.074c-.363.361-.588.859-.588 1.411 0 1.102.896 1.994 2 1.994.553 0 1.053-.225 1.415-.586l4.085-4.074 4.084 4.074c.363.361.863.586 1.416.586 1.104.001 2-.892 2-1.994zm16.5-32.912c4.694 0 8.5-3.796 8.5-8.478s-3.806-8.478-8.5-8.478-8.5 3.797-8.5 8.478 3.806 8.478 8.5 8.478zm0-12.966c2.485 0 4.5 2.009 4.5 4.488 0 2.479-2.015 4.488-4.5 4.488s-4.5-2.01-4.5-4.488c0-2.479 2.015-4.488 4.5-4.488zm36.828 61.337l4.086-4.074c.361-.361.586-.861.586-1.412 0-1.102-.896-1.994-2-1.994-.553 0-1.054.225-1.415.586l-4.085 4.074-4.085-4.074c-.361-.361-.862-.586-1.415-.586-1.104 0-2 .893-2 1.994 0 .551.225 1.051.586 1.412l4.086 4.074-4.085 4.074c-.362.36-.587.86-.587 1.411 0 1.102.896 1.996 2 1.996.553 0 1.054-.225 1.415-.586l4.085-4.074 4.085 4.074c.361.361.862.586 1.415.586 1.104 0 2-.895 2-1.996 0-.551-.225-1.051-.587-1.41l-4.085-4.075zm-16.123-29.96l.178-.278-14.215-8.672-.404.663-.356-.205-.763 2.043-.553.908.175.106-4.323 11.58.104.031c-.027.128-.041.263-.041.401 0 1.102.896 1.996 2.002 1.996 1.002 0 1.825-.738 1.971-1.697l2.584-6.602c5.332 12.555 1.32 27.537-10.357 35.619-2.791 1.934-6.765 3.797-10.453 4.953l-.143.316-.109-.016c-1.381 0-3.562 1.305-3.562 2.682s1.2 2.811 2.562 2.586c2.057-.336 3.107-.582 3.621-1.029 3.794-.92 7.031-2.693 10.936-5.395 13.479-9.33 18.221-26.52 12.346-41.083l5.798 3.527c.319.679 1.006 1.152 1.808 1.152 1.105 0 2.001-.894 2.001-1.997-.003-.651-.322-1.224-.807-1.589z"/></svg>