<svg xmlns="http://www.w3.org/2000/svg" xmlns:xlink="http://www.w3.org/1999/xlink" width="128" height="128"><path fill="#BD3E25" d="M64 0c35.346 0 64 28.654 64 64 0 35.347-28.654 64-64 64s-64-28.652-64-64c0-35.345 28.654-64 64-64z"/><path fill="#A2331E" d="M62.655 65.191l45.302 45.301c1.178-1.113 2.326-2.26 3.417-3.461l-45.279-45.278-3.44 3.438z"/><path fill="#E45136" d="M63.877 11.809c-28.757 0-52.068 23.312-52.068 52.068 0 28.755 23.312 52.068 52.068 52.068 28.756 0 52.067-23.312 52.067-52.068 0-28.756-23.311-52.068-52.067-52.068zm.131 92.046c-22.087 0-39.991-17.762-39.991-39.847 0-22.086 17.904-39.991 39.991-39.991 22.086 0 39.848 17.905 39.848 39.991-.001 22.086-17.762 39.847-39.848 39.847zm.011-67.832c-15.462 0-27.997 12.535-27.997 27.997s12.535 27.996 27.997 27.996 27.997-12.534 27.997-27.996c0-15.462-12.536-27.997-27.997-27.997zm-.019 43.036c-8.395 0-15.199-6.662-15.199-15.058 0-8.395 6.805-15.2 15.199-15.2s15.057 6.805 15.057 15.2-6.662 15.058-15.057 15.058z"/><path fill="#F4BD48" d="M108.992.161l-21.03 20.589v17.107l21.03-21.28v-16.416zm2.432 18.848l-21.888 21.971h17.632l20.672-21.972h-16.416z"/><path fill="#E7B442" d="M88.928 40.897h4.864l21.888-21.888h-4.863l-21.889 21.888z"/><path fill="#EBEEEE" d="M120.594 9.821c0-1.346-1.091-2.438-2.438-2.438-.688 0-1.308.288-1.751.747l-53.7 53.688.009.008c-.442.442-.714 1.051-.714 1.724 0 1.345 1.091 2.437 2.438 2.437.688 0 1.308-.287 1.751-.746l53.7-53.688-.009-.008c.441-.442.714-1.051.714-1.724z"/><path fill="#E0E1E2" d="M64.438 65.986c.688 0 1.308-.287 1.751-.746l53.7-53.688-.009-.008c.441-.441.714-1.051.714-1.724 0-.302-.062-.587-.162-.854l-56.858 56.856c.27.102.559.164.864.164z"/><defs><path id="a" d="M64.019 36.023c-15.462 0-27.997 12.535-27.997 27.997s12.535 27.996 27.997 27.996 27.997-12.534 27.997-27.996c0-15.462-12.536-27.997-27.997-27.997zm-.019 43.036c-8.395 0-15.199-6.662-15.199-15.058 0-8.395 6.805-15.2 15.199-15.2s15.057 6.805 15.057 15.2-6.662 15.058-15.057 15.058zm-.123-67.25c-28.757 0-52.068 23.312-52.068 52.068 0 28.755 23.312 52.068 52.068 52.068 28.756 0 52.067-23.312 52.067-52.068 0-28.756-23.311-52.068-52.067-52.068zm.131 92.046c-22.087 0-39.991-17.762-39.991-39.847 0-22.086 17.904-39.991 39.991-39.991 22.086 0 39.848 17.905 39.848 39.991-.001 22.086-17.762 39.847-39.848 39.847z"/></defs><clipPath id="b"><use xlink:href="#a" overflow="visible"/></clipPath><path clip-path="url(#b)" fill="#C2442C" d="M62.655 65.191l3.439-3.438 45.601 45.601-3.439 3.438-45.601-45.601z"/></svg>