<?xml version="1.0" encoding="utf-8"?>
<!-- Generator: Adobe Illustrator 16.2.1, SVG Export Plug-In . SVG Version: 6.00 Build 0)  -->
<!DOCTYPE svg PUBLIC "-//W3C//DTD SVG 1.1//EN" "http://www.w3.org/Graphics/SVG/1.1/DTD/svg11.dtd">
<svg version="1.1" id="Слой_1" xmlns="http://www.w3.org/2000/svg" xmlns:xlink="http://www.w3.org/1999/xlink" x="0px" y="0px"
	 width="128px" height="128px" viewBox="0 0 128 128" enable-background="new 0 0 128 128" xml:space="preserve">
<path fill="#3E4E5C" d="M64,0c35.346,0,64,28.653,64,64c0,35.346-28.654,64-64,64C28.655,128,0,99.346,0,64C0,28.654,28.655,0,64,0z
	"/>
<g>
	<defs>
		<path id="SVGID_1_" d="M64,0c35.346,0,64,28.653,64,64c0,35.346-28.654,64-64,64C28.655,128,0,99.346,0,64C0,28.654,28.655,0,64,0
			z"/>
	</defs>
	<clipPath id="SVGID_2_">
		<use xlink:href="#SVGID_1_"  overflow="visible"/>
	</clipPath>
	<g clip-path="url(#SVGID_2_)">
		<g>
			<path fill="#2CA4D5" d="M41,31c0,6.075-4.925,11-11,11v4c1.104,0,2,0.896,2,2s-0.896,2-2,2v4c1.104,0,2,0.896,2,2s-0.896,2-2,2v4
				c1.104,0,2,0.895,2,2c0,1.104-0.896,2-2,2v4c1.104,0,2,0.895,2,2c0,1.104-0.896,2-2,2v4c1.104,0,2,0.895,2,2c0,1.104-0.896,2-2,2
				v4c6.075,0,11,4.924,11,11h88V31H41z"/>
		</g>
		<g>
			<path fill="#EBEDEE" d="M67.014,69.713h3.824c-0.789,1-1.42,2.137-1.893,3.406c-0.475,1.27-0.725,2.514-0.752,3.736h1.621
				c-0.004-0.779,0.123-1.664,0.381-2.654c0.258-0.992,0.631-1.926,1.123-2.807c0.49-0.879,0.973-1.556,1.447-2.025v-1.229h-5.752
				V69.713L67.014,69.713z M87.027,67.984h-1.414l-3.807,5.608v1.482h3.592v1.778h1.629v-1.778h1.088v-1.488h-1.088V67.984z
				 M85.398,73.588H83.38l2.019-3.02V73.588z M94.4,72.088c0.383-0.17,0.68-0.412,0.891-0.732c0.211-0.319,0.318-0.684,0.318-1.094
				c0-0.658-0.23-1.203-0.691-1.633s-1.109-0.645-1.943-0.645c-0.842,0-1.49,0.215-1.947,0.645s-0.686,0.975-0.686,1.633
				c0,0.385,0.098,0.74,0.295,1.064c0.199,0.322,0.514,0.576,0.949,0.762c-0.506,0.217-0.877,0.525-1.113,0.926
				c-0.234,0.398-0.354,0.838-0.354,1.316c0,0.867,0.314,1.551,0.941,2.049c0.528,0.422,1.192,0.633,1.992,0.633
				c0.856,0,1.545-0.256,2.061-0.766c0.517-0.51,0.775-1.174,0.775-1.988c0-0.494-0.127-0.93-0.381-1.309
				C95.256,72.572,94.887,72.285,94.4,72.088z M92.221,69.617c0.191-0.193,0.449-0.289,0.771-0.289c0.312,0,0.562,0.096,0.752,0.285
				c0.189,0.191,0.285,0.445,0.285,0.764c0,0.336-0.096,0.602-0.289,0.791c-0.191,0.191-0.445,0.287-0.766,0.287
				c-0.314,0-0.566-0.094-0.757-0.283s-0.284-0.453-0.284-0.789C91.934,70.064,92.029,69.809,92.221,69.617z M93.885,75.273
				c-0.227,0.25-0.516,0.377-0.861,0.377c-0.354,0-0.651-0.131-0.889-0.394c-0.238-0.262-0.357-0.625-0.357-1.09
				c0-0.334,0.103-0.646,0.304-0.931c0.201-0.284,0.508-0.428,0.918-0.428c0.354,0,0.647,0.127,0.881,0.377
				c0.229,0.252,0.349,0.584,0.349,0.998C94.227,74.66,94.111,75.021,93.885,75.273z M101.438,70.943
				c-0.391,0-0.774,0.094-1.149,0.283l0.265-1.502h3.174v-1.584h-4.447l-0.863,4.598l1.365,0.199
				c0.383-0.431,0.816-0.646,1.299-0.646c0.387,0,0.701,0.135,0.943,0.406c0.24,0.271,0.36,0.678,0.36,1.221
				c0,0.578-0.12,1.013-0.364,1.299c-0.244,0.287-0.541,0.433-0.894,0.433c-0.308,0-0.578-0.113-0.812-0.336
				c-0.236-0.224-0.377-0.525-0.426-0.906l-1.677,0.174c0.101,0.74,0.404,1.328,0.916,1.768c0.511,0.438,1.172,0.656,1.979,0.656
				c1.015,0,1.808-0.391,2.377-1.17c0.418-0.57,0.629-1.219,0.629-1.945c0-0.873-0.26-1.582-0.778-2.129
				C102.816,71.217,102.184,70.943,101.438,70.943z M111.549,72.836c-0.303-0.379-0.703-0.621-1.207-0.73
				c0.842-0.461,1.264-1.08,1.264-1.854c0-0.547-0.205-1.037-0.617-1.472c-0.497-0.53-1.159-0.795-1.985-0.795
				c-0.481,0-0.92,0.091-1.31,0.273c-0.389,0.184-0.69,0.434-0.909,0.754c-0.218,0.318-0.38,0.746-0.486,1.279l1.55,0.266
				c0.045-0.385,0.168-0.678,0.37-0.879c0.205-0.201,0.449-0.303,0.736-0.303c0.291,0,0.524,0.09,0.7,0.266
				c0.177,0.178,0.265,0.414,0.265,0.711c0,0.351-0.121,0.631-0.358,0.842c-0.24,0.211-0.588,0.312-1.041,0.298l-0.187,1.381
				c0.299-0.084,0.558-0.127,0.771-0.127c0.326,0,0.604,0.125,0.832,0.375c0.228,0.248,0.342,0.586,0.342,1.012
				c0,0.449-0.118,0.808-0.356,1.072c-0.235,0.266-0.528,0.397-0.877,0.397c-0.321,0-0.599-0.11-0.825-0.332
				c-0.228-0.221-0.367-0.539-0.419-0.957l-1.629,0.197c0.084,0.744,0.388,1.346,0.91,1.807c0.522,0.459,1.183,0.689,1.976,0.689
				c0.838,0,1.539-0.273,2.102-0.82S112,74.979,112,74.203C112,73.668,111.85,73.213,111.549,72.836z M77.438,70.943
				c-0.391,0-0.774,0.094-1.149,0.283l0.265-1.502h3.174v-1.584h-4.447l-0.863,4.598l1.365,0.199
				c0.383-0.431,0.816-0.646,1.299-0.646c0.387,0,0.701,0.135,0.943,0.406c0.24,0.271,0.36,0.678,0.36,1.221
				c0,0.578-0.12,1.013-0.364,1.299c-0.244,0.287-0.541,0.433-0.894,0.433c-0.308,0-0.578-0.113-0.812-0.336
				c-0.236-0.224-0.377-0.525-0.426-0.906l-1.677,0.174c0.101,0.74,0.404,1.328,0.916,1.768c0.511,0.438,1.172,0.656,1.979,0.656
				c1.015,0,1.808-0.391,2.377-1.17c0.418-0.57,0.629-1.219,0.629-1.945c0-0.873-0.26-1.582-0.778-2.129
				C78.816,71.217,78.184,70.943,77.438,70.943z"/>
		</g>
		<g>
			<path fill="#70BCDF" d="M74.057,53.887L72,50l-2.08,3.888l-3.922,0.268l2.627,3.001L67.875,61L72,59.23l4.127,1.769l-0.764-3.843
				l2.639-3.001L74.057,53.887z M91.057,53.887L89,50l-2.08,3.888l-3.922,0.268l2.627,3.001L84.873,61L89,59.23l4.127,1.769
				l-0.764-3.843l2.639-3.001L91.057,53.887z M112.002,54.155l-3.945-0.268L106,50l-2.08,3.888l-3.922,0.268l2.627,3.001L101.873,61
				L106,59.23l4.127,1.769l-0.764-3.843L112.002,54.155z"/>
		</g>
		<path fill="#70BCDF" d="M129,85H49c-1.104,0-2-0.896-2-2V45c0-1.104,0.896-2,2-2h80v-3H48c-2.209,0-4,1.791-4,4v40
			c0,2.209,1.791,4,4,4h81V85z"/>
		<path fill="#EFC84A" d="M28,46v-4c-6.075,0-11-4.925-11-11H-1v66h18c0-6.076,4.925-11,11-11v-4c-1.104,0-2-0.896-2-2
			c0-1.105,0.896-2,2-2v-4c-1.104,0-2-0.896-2-2c0-1.105,0.896-2,2-2v-4c-1.104,0-2-0.896-2-2c0-1.105,0.896-2,2-2v-4
			c-1.104,0-2-0.896-2-2s0.896-2,2-2v-4c-1.104,0-2-0.896-2-2S26.896,46,28,46z"/>
		<path fill="#D7B442" d="M10,40H-1v3H9c1.104,0,2,0.896,2,2v38c0,1.104-0.896,2-2,2H-1v3h11c2.209,0,4-1.791,4-4V44
			C14,41.791,12.209,40,10,40z"/>
	</g>
</g>
</svg>
