<svg xmlns="http://www.w3.org/2000/svg" width="128" height="128"><path fill="#EFC84A" d="M64 0c35.346 0 64 28.654 64 64 0 35.347-28.654 64-64 64-35.346 0-64-28.653-64-64 0-35.346 28.654-64 64-64z"/><path fill="#1E3C4F" d="M64 20c-6.627 0-12 5.373-12 12 0 6.628 5.373 12 12 12s12-5.372 12-12c0-6.627-5.373-12-12-12zm0 22c-5.523 0-10-4.477-10-10 0-5.522 4.477-10 10-10s10 4.478 10 10c0 5.523-4.477 10-10 10z"/><path fill="#334D5D" d="M86.26 53.89l2.746-2.747-2.148-2.148-2.746 2.747c-4.859-4.393-11.163-7.21-18.112-7.668v-5.074h-4v5.074c-6.949.458-13.253 3.275-18.111 7.667l-2.747-2.747-2.148 2.148 2.747 2.747c-4.81 5.321-7.741 12.374-7.741 20.111 0 16.568 13.432 30 30 30s30-13.432 30-30c0-7.737-2.931-14.79-7.74-20.11z"/><path fill="#EBEEEE" d="M64 48.488c14.09 0 25.512 11.423 25.512 25.512s-11.422 25.512-25.512 25.512-25.512-11.423-25.512-25.512 11.422-25.512 25.512-25.512z"/><path fill="#9E9E9E" d="M64 51c-.552 0-1 .448-1 1 0 .553.448 1 1 1 .553 0 1-.447 1-1 0-.552-.447-1-1-1zm22 22c-.553 0-1 .448-1 1 0 .553.447 1 1 1s1-.447 1-1c0-.552-.447-1-1-1zm-44 0c-.552 0-1 .448-1 1 0 .553.448 1 1 1s1-.447 1-1c0-.552-.448-1-1-1zm6-15c-.552 0-1 .448-1 1 0 .553.448 1 1 1s1-.447 1-1c0-.552-.448-1-1-1zm32 0c-.553 0-1 .448-1 1 0 .553.447 1 1 1s1-.447 1-1c0-.552-.447-1-1-1zm0 30c-.553 0-1 .448-1 1 0 .553.447 1 1 1s1-.447 1-1c0-.552-.447-1-1-1zm-32 0c-.552 0-1 .448-1 1 0 .553.448 1 1 1s1-.447 1-1c0-.552-.448-1-1-1zm16 7c-.552 0-1 .448-1 1 0 .553.448 1 1 1 .553 0 1-.447 1-1 0-.552-.447-1-1-1z"/><path fill="#334D5D" d="M60 30h8c1.656 0 3 1.344 3 3v3c0 1.657-1.344 3-3 3h-8c-1.657 0-3-1.343-3-3v-3c0-1.656 1.343-3 3-3z"/><path fill="#DF5A48" d="M90.924 44.886l2.158 2.159c1.192 1.192 1.192 3.125 0 4.317l-.72.72c-1.192 1.192-3.125 1.192-4.317 0l-2.158-2.158c-1.193-1.192-1.193-3.126 0-4.318l.719-.72c1.192-1.192 3.124-1.192 4.318 0z"/><path fill="#45B39C" d="M37.077 44.886l-2.159 2.159c-1.192 1.192-1.192 3.125 0 4.317l.72.72c1.192 1.192 3.125 1.192 4.317 0l2.159-2.158c1.192-1.192 1.192-3.126 0-4.318l-.719-.72c-1.193-1.192-3.126-1.192-4.318 0z"/><g fill="#4A606E"><rect x="64" y="32" width="1" height="7"/><rect x="62" y="32" width="1" height="7"/><path d="M58 38.222c.289.26.626.462 1 .595v-6.817h-1v6.222z"/><rect x="60" y="32" width="1" height="7"/><rect x="66" y="32" width="1" height="7"/><path d="M70 32v6.222c.609-.549 1-1.336 1-2.222v-3c0-.353-.072-.686-.184-1h-.816zm-1 0h-1v7c.353 0 .686-.072 1-.184v-6.816z"/></g><path fill="#E74C3C" d="M65 57c-.094-.453-.312-1-.906-1l-.064.014-.005-.003v-.009l-.01.005-.01-.005v.009l-.005.003-.064-.014c-.594 0-.812.547-.906 1l-3 17c-.271 1.688 1.823 4 3.906 4l.062-.005.007.001v.003l.01-.001.01.001v-.003l.007-.001.062.005c2.084 0 4.178-2.312 3.906-4l-3-17zm-.985 18.999c-1.098-.009-1.986-.899-1.986-1.999s.888-1.99 1.985-1.999c1.097.009 1.986.899 1.986 1.999s-.889 1.99-1.985 1.999z"/></svg>