<svg xmlns="http://www.w3.org/2000/svg" width="128" height="128"><path fill="#45B39C" d="M64 0c35.347 0 64 28.654 64 64 0 35.347-28.653 64-64 64-35.346 0-64-28.653-64-64 0-35.346 28.654-64 64-64z"/><path fill="#2B414F" d="M32 32h64s1.851.851 3.028 2.028l6.972 6.972h-84s6.969-6.938 6.977-6.976c1.164-1.117 3.023-2.024 3.023-2.024z"/><path fill="#334D5D" d="M25.231 39.145h77.482c2.351 0 4.256 1.905 4.256 4.256v50.331c0 2.351-1.905 4.257-4.256 4.257h-77.482c-2.351 0-4.256-1.906-4.256-4.257v-50.332c.001-2.35 1.906-4.255 4.256-4.255z"/><rect x="39.073" y="39.145" fill="#E27C3F" width="5.864" height="58.788"/><polygon fill="#C15426" points="42.812,32.01 39.073,39.145 44.938,39.145 48.786,32.01"/><path fill="#ECF0F0" d="M25.169 39.02c-2.351 0-4.257 1.905-4.257 4.256v5.258c-.021.049 9.493-9.515 9.606-9.514h-5.349zm77.495 58.975c2.378 0 4.306-1.822 4.306-4.225v-5.373c.023-.05-9.604 9.599-9.72 9.598h5.414zm-81.688-9.598v5.373c0 2.402 1.865 4.225 4.243 4.225h5.413c-.114.001-9.68-9.647-9.656-9.598zm81.688-49.377h-5.414c.115-.001 9.743 9.897 9.72 9.848v-5.373c0-2.403-1.928-4.475-4.306-4.475z"/><path fill="#EFC84A" d="M71.783 25.879h-15.566c-.672 0-1.217.54-1.217 1.206v8.143c0 .666.545.603 1.217.603h.608c.672 0 1.186.063 1.186-.603v-6.332h11.948v6.331c0 .666.544.603 1.216.603h.608c.672 0 1.217.063 1.217-.603v-8.142c0-.666-.545-1.206-1.217-1.206z"/><rect x="83.073" y="39.145" fill="#E27C3F" width="5.864" height="58.788"/><polygon fill="#C15426" points="85.198,32.01 88.938,39.145 83.073,39.145 79.225,32.01"/><path fill="#EBEEEE" d="M46.795 48.994h-9.955c-.671 0-.872.545-.872 1.217v9.594c0 .672.545 1.217 1.216 1.217h3.839v.965h1.966v-.965h3.807c.672 0 1.216-.545 1.216-1.217v-9.594c-.001-.672-.545-1.217-1.217-1.217zm-.813 8.782c0 .672-.544 1.216-1.216 1.216h-1.778v-5.022h-1.966v5.022h-1.811c-.671 0-1.216-.544-1.216-1.216v-5.568c0-.672.545-1.216 1.216-1.216h5.555c.672 0 1.216.544 1.216 1.216v5.568zm44.813-8.782h-9.955c-.671 0-.872.545-.872 1.217v9.594c0 .672.545 1.217 1.216 1.217h3.839v.965h1.966v-.965h3.807c.672 0 1.216-.545 1.216-1.217v-9.594c-.001-.672-.545-1.217-1.217-1.217zm-.813 8.782c0 .672-.544 1.216-1.216 1.216h-1.778v-5.022h-1.966v5.022h-1.811c-.671 0-1.216-.544-1.216-1.216v-5.568c0-.672.545-1.216 1.216-1.216h5.555c.672 0 1.216.544 1.216 1.216v5.568z"/><path fill="#F3B647" d="M73.153 69.852s-1.013-.43-1.856.246l-4.097 3.199-2.297-.5.923-1.369c.285-.398-.115-.618-.279-.678-.344-.125-.941.512-.941.512l-1.14 1.241-2.517-.331.828-1.113c.437-.589-.127-.877-.127-.877-.494-.151-1.002.54-1.002.54l-1.149 1.312-2.917-.404s-.707-.098-.79.141c0 0-.219.542.262.749 1.248.714 7.464 3.627 7.464 3.627l-5.427 5.202s-1.449-.429-1.948-.474c-.164-.015-1.416.856-.745 1.435.338.369 1.307.67 1.885 1.208.498.643.743 1.748 1.075 2.149.479.745 1.516-.373 1.524-.537.026-.501-.196-1.996-.196-1.996l5.909-4.646s2.016 6.562 2.548 7.898c.139.504.705.363.705.363.248-.049.25-.763.25-.763l.008-2.944 1.459-.955s.756-.406.675-.917c0 0-.207-.598-.851-.248l-1.218.664.023-2.538 1.389-.955s.714-.502.638-.86c-.036-.171-.197-.598-.632-.371l-1.484.723-.174-2.345 3.74-3.609c.767-.756.482-1.779.482-1.779z"/></svg>