<svg xmlns="http://www.w3.org/2000/svg" width="128" height="128"><path fill="#ECF0F0" d="M64 0c35.346 0 64 28.654 64 64 0 35.346-28.654 64-64 64s-64-28.654-64-64c0-35.346 28.654-64 64-64z"/><path fill="#3B5766" d="M102.621 38.233c-.232-1.914-1.318-3.122-3.357-3.356 0 0-21.461-2.368-35.264-2.368-14.866 0-35.263 2.368-35.263 2.368-1.698.309-3.125 1.492-3.357 3.356 0 0-2.368 16.145-2.368 25.766 0 10.312 2.368 25.767 2.368 25.767.356 2.024 1.208 3.061 3.357 3.357 0 0 20.165 2.367 35.306 2.367 14.369 0 35.221-2.367 35.221-2.367 2.075-.26 2.996-1.596 3.357-3.357 0 0 2.368-15.455 2.368-25.766 0-9.66-2.368-25.767-2.368-25.767z"/><path fill="#203D4D" d="M96.614 42.241c-.196-1.616-1.113-2.637-2.835-2.835 0 0-18.123-2-29.779-2-12.554 0-29.778 2-29.778 2-1.434.261-2.639 1.26-2.835 2.835 0 0-2 13.633-2 21.758 0 8.708 2 21.759 2 21.759.301 1.709 1.02 2.584 2.835 2.836 0 0 17.028 2 29.814 2 12.135 0 29.743-2 29.743-2 1.752-.221 2.53-1.348 2.835-2.836 0 0 2-13.051 2-21.758 0-8.158-2-21.759-2-21.759z"/><path fill="#2CA4D5" d="M77.29 77.195c-.499 4.756-3.957 7.84-8.454 8.455 0 0-7.545 1-13.171 1-5.541 0-13.17-1-13.17-1-4.662-.699-7.746-3.781-8.455-8.455 0 0-1-7.742-1-13.169 0-5.907 1-13.17 1-13.17.488-4.602 3.685-7.622 8.455-8.455 0 0 6.287-1 12.795-1 7.981 0 13.546 1 13.546 1 5.109.719 7.913 3.844 8.454 8.455 0 0 1 6.222 1 13.17 0 6.802-1 13.169-1 13.169z"/><path fill="#182F3C" d="M83.688 61.052v1h8v-1h-8zm0 3h8v-1h-8v1zm0 2h8v-1h-8v1zm0 2h8v-.999h-8v.999z"/><linearGradient id="a" gradientUnits="userSpaceOnUse" x1="55.626" y1="55.176" x2="55.626" y2="45.301"><stop offset="0" stop-color="#2CA4D5"/><stop offset=".2" stop-color="#2FA5D6" stop-opacity=".9"/><stop offset=".343" stop-color="#38A9D7" stop-opacity=".829"/><stop offset=".468" stop-color="#48B0DB" stop-opacity=".766"/><stop offset=".583" stop-color="#5EBADF" stop-opacity=".709"/><stop offset=".691" stop-color="#7BC6E5" stop-opacity=".654"/><stop offset=".794" stop-color="#9ED5EC" stop-opacity=".603"/><stop offset=".892" stop-color="#C8E7F4" stop-opacity=".554"/><stop offset=".986" stop-color="#F7FCFD" stop-opacity=".507"/><stop offset="1" stop-color="#fff" stop-opacity=".5"/></linearGradient><path fill="url(#a)" d="M73.78 50.739c0 2.451-1.986 4.438-4.438 4.438h-27.435c-2.451 0-4.438-1.987-4.438-4.438 0-2.451 1.989-4.021 4.438-4.438 0 0 7.915-1 13.735-1 6.357 0 13.7 1 13.7 1 2.908.583 4.438 1.987 4.438 4.438z"/><path fill="#fff" d="M49.647 54.026c.871-.015 13 8 13 8 2.309 2.291.044 3.938 0 4 0 0-11.992 7.957-13 8-1.897.021-2-2.195-2-3v-14c-.015-.896.049-3.033 2-3z"/><path fill="#2993C0" d="M62.647 66.025s-11.992 7.957-13 8c-1.897.021-2-2.195-2-3v1c0 .805.103 3.021 2 3 1.008-.043 13-8 13-8 .033-.047 1.326-.996.973-2.441-.222.871-.948 1.406-.973 1.441z"/><path fill="#182F3C" d="M87.688 57.052c-2.591 0-4.695-1.977-4.949-4.5-.018.167-.051.329-.051.5 0 2.761 2.238 5 5 5s5-2.239 5-5c0-.171-.033-.333-.051-.5-.254 2.523-2.359 4.5-4.949 4.5z"/><path fill="#182F3C" d="M87.688 81.053c-2.591 0-4.695-1.979-4.949-4.501-.018.167-.051.329-.051.5 0 2.761 2.238 5.001 5 5.001s5-2.24 5-5.001c0-.171-.033-.333-.051-.5-.254 2.522-2.359 4.501-4.949 4.501z"/><path fill="#45B39C" d="M87.688 71.053c2.762 0 5 2.238 5 4.999s-2.238 5.001-5 5.001-5-2.24-5-5.001 2.238-4.999 5-4.999z"/><path fill="#81D5C2" d="M82.788 75.052c-.065.323-.101.657-.101 1s.035.677.101 1.001h9.799c.065-.324.101-.658.101-1.001s-.035-.677-.101-1h-9.799z"/><path fill="#45B39C" d="M87.688 47.051c2.762 0 5 2.239 5 5s-2.238 5-5 5-5-2.239-5-5 2.238-5 5-5z"/><path fill="#81D5C2" d="M82.788 51.052c-.065.323-.101.658-.101 1s.035.677.101 1h9.799c.065-.323.101-.658.101-1s-.035-.677-.101-1h-9.799z"/></svg>