<svg xmlns="http://www.w3.org/2000/svg" width="128" height="128"><path fill="#334D5D" d="M64 0c35.346 0 64 28.654 64 64 0 35.346-28.654 64-64 64s-64-28.654-64-64c0-35.345 28.654-64 64-64z"/><path fill="#5F727F" d="M31.53 119.146c9.521 5.618 20.616 8.854 32.47 8.854 11.855 0 22.949-3.236 32.471-8.854l-15.471-54.146h-34l-15.47 54.146z"/><path fill="#DF5A48" d="M64 53.001c25.957 0 47 6.716 47 14.999 0 8.285-21.043 15-47 15s-47-6.715-47-15c0-8.283 21.043-14.999 47-14.999z"/><path fill="#EFC84A" d="M88.441 53.464c-6.826-1.547-15.283-2.463-24.441-2.463-9.121 0-17.549.909-24.359 2.444-10.095 2.277-16.641 5.934-16.641 10.055 0 6.904 18.357 12.5 41 12.5 22.645 0 41-5.596 41-12.5 0-4.111-6.51-7.758-16.559-10.036zm-24.441 16.981c-17.747 0-32.135-3.109-32.135-6.945 0-1.719 2.894-3.293 7.687-4.506 5.894-1.492 14.661-2.438 24.448-2.438 9.693 0 18.383.927 24.275 2.393 4.896 1.218 7.859 2.81 7.859 4.55.001 3.837-14.386 6.946-32.134 6.946z"/><path fill="#DCDFE0" d="M64 38.001c12.703 0 22.074 10.332 23 22.999.129 2.051-10.297 4-23 4-12.702 0-22.971-2.229-23-4 0-12.702 10.298-22.999 23-22.999z"/><path fill="#EEEFEF" d="M65 41.001c.354 0-6.916 8.25-7 19.999-6.947-.391-9.979-.65-10-1.963 0-9.409 7.611-18.036 17-18.036z"/><path fill="#EFC84A" d="M108.002 38.503v-.002s-5.82-.101-6.26-.812c-.439-.71 1.594-3.019 1.594-3.019s-2.311 2.03-3.021 1.591c-.711-.44-.814-6.257-.814-6.257s-.102 5.817-.812 6.257c-.711.439-3.02-1.592-3.02-1.592s2.029 2.31 1.59 3.02l-6.26.812v.002s5.82.101 6.26.812c.439.71-1.592 3.019-1.592 3.019s2.311-2.03 3.021-1.59c.71.439.812 6.256.812 6.256s.104-5.817.814-6.257l3.02 1.592s-2.031-2.311-1.592-3.021l6.26-.811zm-76.666-30.833s-2.311 2.03-3.021 1.591c-.71-.44-.813-6.257-.813-6.257s-.103 5.817-.813 6.257c-.71.439-3.02-1.592-3.02-1.592s2.031 2.31 1.591 3.02c-.44.71-6.26.812-6.26.812v.002s5.82.101 6.26.812c.44.71-1.592 3.019-1.592 3.019s2.311-2.03 3.021-1.59c.709.439.811 6.256.811 6.256s.103-5.817.813-6.257c.711-.44 3.02 1.592 3.02 1.592s-2.031-2.31-1.591-3.021c.439-.709 6.26-.811 6.26-.811v-.002s-5.82-.101-6.26-.812c-.439-.71 1.594-3.019 1.594-3.019zm1.646 28.352s-1.496 1.313-1.956 1.029c-.459-.284-.526-4.048-.526-4.048s-.067 3.764-.526 4.048c-.46.285-1.954-1.029-1.954-1.029s1.314 1.494 1.029 1.954c-.285.459-4.051.525-4.051.525v.001s3.766.065 4.051.525c.285.459-1.03 1.953-1.03 1.953s1.495-1.313 1.955-1.029c.46.285.526 4.049.526 4.049s.067-3.764.526-4.049c.46-.284 1.954 1.03 1.954 1.03s-1.314-1.495-1.029-1.954c.284-.46 4.05-.525 4.05-.525v-.001s-3.766-.066-4.05-.526c-.284-.459 1.031-1.953 1.031-1.953zm42-20s-1.496 1.314-1.955 1.029c-.461-.285-.527-4.049-.527-4.049s-.066 3.764-.525 4.049c-.461.285-1.955-1.031-1.955-1.031s1.314 1.495 1.029 1.955c-.283.459-4.051.525-4.051.525v.001s3.768.065 4.051.525c.285.459-1.029 1.953-1.029 1.953s1.494-1.313 1.955-1.028c.459.285.525 4.049.525 4.049s.066-3.764.527-4.048c.459-.285 1.953 1.03 1.953 1.03s-1.314-1.495-1.029-1.954c.285-.459 4.051-.525 4.051-.525v-.001s-3.766-.066-4.051-.525c-.285-.461 1.031-1.955 1.031-1.955z"/><path fill="#B44738" d="M64 65c-12.428 0-22.521-2.133-22.977-3.885-.011.295-.023.588-.023.885.028 1.771 10.297 4 23 4s23.129-1.949 23-4l-.064-.693c-.86 1.933-10.866 3.693-22.936 3.693z"/></svg>