<svg xmlns="http://www.w3.org/2000/svg" width="128" height="128"><path fill="#EBEEEE" d="M64 0c35.346 0 64 28.654 64 64 0 35.347-28.654 64-64 64s-64-28.653-64-64c0-35.346 28.654-64 64-64z"/><path fill="#334D5D" d="M62 33v68c0 2.209-1.791 4-4 4s-4-1.791-4-4h-.092c-.207-.581-.756-1-1.408-1s-1.201.419-1.408 1h-.092l.017.334-.017.166c0 .147.027.287.067.422.453 3.43 3.38 6.078 6.933 6.078 3.866 0 7-3.134 7-7v-68h-3z"/><path fill="#BD3E25" d="M45.772 67.812h.842c2.339-3.96 8.901-6.815 16.647-6.815s14.309 2.855 16.647 6.815h.842c2.339-3.96 8.902-6.815 16.648-6.815 3.366 0 6.5.549 9.173 1.482-2.72-21.138-20.842-37.479-42.807-37.479-21.846 0-39.892 16.164-42.764 37.136 2.432-.724 5.19-1.139 8.125-1.139 7.745 0 14.309 2.856 16.647 6.815z"/><path fill="#DF5A48" d="M46.614 67.812c2.339-3.96 8.901-6.815 16.647-6.815s14.309 2.855 16.647 6.815h.417c-.253-23.462-5.298-36.08-16.506-42.812h-.004c-11.161 6.175-17.231 19.32-17.537 42.812h.336z"/></svg>