<svg xmlns="http://www.w3.org/2000/svg" width="128" height="128"><path fill="#EFC84A" d="M64 0c35.346 0 64 28.654 64 64 0 35.346-28.654 64-64 64-35.346 0-64-28.654-64-64 0-35.346 28.654-64 64-64z"/><path fill="#334D5D" d="M81.865 103.288l.006-.003-.014-.027c-.062-.157-.145-.305-.242-.44l-14.875-27.109-2.724.938-2.725-.938-14.874 27.108c-.099.136-.18.283-.242.44l-.015.027.006.003c-.083.22-.134.455-.134.703 0 1.109.899 2.009 2.009 2.009.84 0 1.558-.517 1.857-1.248l12.117-22.207v19.519c0 1.083.896 1.961 2 1.961 1.103 0 2-.878 2-1.961v-19.444l.018.034v-.076l12.1 22.175c.301.731 1.017 1.248 1.857 1.248 1.109 0 2.01-.899 2.01-2.009 0-.248-.051-.483-.135-.703z"/><path fill="#2F3A40" d="M59 75h10c2.209 0 4 1.791 4 4s-1.791 4-4 4h-10c-2.209 0-4-1.791-4-4s1.791-4 4-4z"/><path fill="#334D5D" d="M97.857 53c-1.066 0-2.002.237-2.57.819l.002-.009-.029.031-.014.014-5.246 5.431v-8.286c0-1.657-1.344-3-3-3h-50c-1.656 0-3 1.343-3 3v26c0 1.657 1.344 3 3 3h50c1.656 0 3-1.343 3-3v-8.285l5.25 5.437.002.001.016.018-.002-.005c.566.594 1.515.834 2.591.834 1.734 0 2.143-1.406 2.143-3.143v-15.714c0-1.735-.408-3.143-2.143-3.143z"/><path fill="#5F727F" d="M34 70h56v1h-56v-1z"/><path fill="#FFFCF6" d="M74.5 31c-5.654 0-10.491 3.479-12.5 8.412-2.01-4.933-6.846-8.412-12.5-8.412-7.457 0-13.5 6.044-13.5 13.5s6.043 13.5 13.5 13.5c5.654 0 10.49-3.479 12.5-8.412 2.009 4.933 6.846 8.412 12.5 8.412 7.455 0 13.5-6.044 13.5-13.5s-6.045-13.5-13.5-13.5z"/><path fill="#CCD0D2" d="M49.5 34c-5.799 0-10.5 4.701-10.5 10.5s4.701 10.5 10.5 10.5 10.5-4.701 10.5-10.5-4.702-10.5-10.5-10.5zm25 0c-5.799 0-10.5 4.701-10.5 10.5s4.701 10.5 10.5 10.5 10.5-4.701 10.5-10.5-4.701-10.5-10.5-10.5z"/><path fill="#868686" d="M49.5 36c-.828 0-1.5.671-1.5 1.5s.672 1.5 1.5 1.5 1.5-.671 1.5-1.5c0-.828-.672-1.5-1.5-1.5zm7 7c-.828 0-1.5.672-1.5 1.5 0 .829.672 1.5 1.5 1.5s1.5-.671 1.5-1.5c0-.828-.672-1.5-1.5-1.5zm-7 7c-.828 0-1.5.672-1.5 1.5 0 .829.672 1.5 1.5 1.5s1.5-.672 1.5-1.5-.672-1.5-1.5-1.5zm-5.5-5.5c0-.828-.672-1.5-1.5-1.5s-1.5.672-1.5 1.5c0 .829.672 1.5 1.5 1.5s1.5-.671 1.5-1.5zm.5-6.5c-.828 0-1.5.672-1.5 1.5 0 .829.672 1.5 1.5 1.5s1.5-.671 1.5-1.5c0-.828-.672-1.5-1.5-1.5zm10 3c.828 0 1.5-.671 1.5-1.5 0-.828-.672-1.5-1.5-1.5s-1.5.672-1.5 1.5c0 .829.671 1.5 1.5 1.5zm0 7c-.828 0-1.5.672-1.5 1.5 0 .829.672 1.5 1.5 1.5s1.5-.671 1.5-1.5c0-.828-.672-1.5-1.5-1.5zm-10 0c-.828 0-1.5.672-1.5 1.5 0 .829.672 1.5 1.5 1.5s1.5-.671 1.5-1.5c0-.828-.672-1.5-1.5-1.5zm30-12c-.828 0-1.5.671-1.5 1.5s.672 1.5 1.5 1.5 1.5-.671 1.5-1.5c0-.828-.672-1.5-1.5-1.5zm7 7c-.828 0-1.5.672-1.5 1.5 0 .829.672 1.5 1.5 1.5s1.5-.671 1.5-1.5c0-.828-.672-1.5-1.5-1.5zm-7 7c-.828 0-1.5.672-1.5 1.5 0 .829.672 1.5 1.5 1.5s1.5-.672 1.5-1.5-.672-1.5-1.5-1.5zm-5.5-5.5c0-.828-.672-1.5-1.5-1.5s-1.5.672-1.5 1.5c0 .829.672 1.5 1.5 1.5s1.5-.671 1.5-1.5zm.5-6.5c-.828 0-1.5.672-1.5 1.5 0 .829.672 1.5 1.5 1.5s1.5-.671 1.5-1.5c0-.828-.672-1.5-1.5-1.5zm10 3c.828 0 1.5-.671 1.5-1.5 0-.828-.672-1.5-1.5-1.5s-1.5.672-1.5 1.5c0 .829.672 1.5 1.5 1.5zm0 7c-.828 0-1.5.672-1.5 1.5 0 .829.672 1.5 1.5 1.5s1.5-.671 1.5-1.5c0-.828-.672-1.5-1.5-1.5zm-10 0c-.828 0-1.5.672-1.5 1.5 0 .829.672 1.5 1.5 1.5s1.5-.671 1.5-1.5c0-.828-.672-1.5-1.5-1.5z"/><path fill="#475A66" d="M34 77c0 1.657 1.344 3 3 3h50c1.656 0 3-1.343 3-3v-6h-56v6z"/><path fill="#45B39C" d="M39.5 74c.828 0 1.5.672 1.5 1.5 0 .829-.672 1.5-1.5 1.5s-1.5-.671-1.5-1.5c0-.828.671-1.5 1.5-1.5z"/><polygon fill="#2F3A40" points="92,57.216 90,59.286 90,68.715 92,70.785"/></svg>