<svg xmlns="http://www.w3.org/2000/svg" width="128" height="128"><path fill="#DF5A48" d="M64 0c35.347 0 64 28.654 64 64 0 35.346-28.653 64-64 64-35.346 0-64-28.654-64-64 0-35.346 28.654-64 64-64z"/><path fill="#E56F5F" d="M59.5 25c16.293 0 29.5 13.208 29.5 29.5 0 16.293-13.207 29.5-29.5 29.5-16.292 0-29.5-13.207-29.5-29.5 0-16.292 13.208-29.5 29.5-29.5z"/><path fill="#F7F7F7" d="M59.035 59.992c.075-.449.123-.908.123-1.378 0-4.595-3.715-8.319-8.299-8.319-2.402 0-4.559 1.029-6.074 2.664-1.261-4.033-5.015-6.959-9.453-6.959-5.471 0-9.906 4.446-9.906 9.93 0 1.308.259 2.553.717 3.697-3.174.765-5.536 3.622-5.536 7.038 0 4.002 3.236 7.338 7.229 7.338h28.377c3.992 0 7.229-3.336 7.229-7.338-.001-2.998-1.817-5.571-4.407-6.673z"/><path fill="#EFC84A" d="M59.5 34c11.322 0 20.5 9.178 20.5 20.5s-9.178 20.5-20.5 20.5c-11.321 0-20.5-9.178-20.5-20.5s9.179-20.5 20.5-20.5z"/><path fill="#D9D9D9" d="M97.562 71.459c.568-1.548.895-3.229.895-5.028 0-8.523-6.936-15.431-15.49-15.431h-2.016c-6.418 0-11.924 3.888-14.274 9.43-2.204-1.722-4.975-2.757-7.993-2.757-7.168 0-12.979 5.789-12.979 12.929 0 .73.076 1.443.193 2.143-4.051 1.711-6.892 5.709-6.892 10.369 0 6.219 5.061 10.885 11.304 10.885h44.378c6.244-.001 11.312-4.78 11.312-10.999 0-5.229-3.589-10.086-8.438-11.541z"/><path fill="#fff" d="M56.672 57.674c3.758 0 7.121 1.591 9.498 4.134-.453 1.461-.705 3.013-.705 4.624 0 4.525 1.965 8.578 5.076 11.4-2.527-2.742-4.068-6.385-4.068-10.398 0-8.528 6.928-15.434 15.479-15.434 4.019 0 7.665 1.531 10.414 4.033-1.239-1.351-2.71-2.482-4.361-3.333 5.006 2.542 8.431 7.737 8.431 13.731 0 2.033-.403 3.965-1.118 5.746 4.965 1.182 8.661 5.625 8.661 10.93 0 6.227-5.066 10.891-11.311 10.891h-44.375c-6.244 0-11.301-4.664-11.301-10.891 0-4.654 2.841-8.648 6.889-10.369-.109-.691-.19-1.411-.19-2.143-.001-7.135 5.811-12.921 12.981-12.921z"/></svg>