<svg xmlns="http://www.w3.org/2000/svg" width="128" height="128"><path fill="#E27C3F" d="M64 0c35.347 0 64 28.654 64 64 0 35.345-28.653 64-64 64s-64-28.654-64-64c0-35.346 28.654-64 64-64z"/><path fill="#334D5D" d="M39 79h50c2.209 0 4 1.791 4 4v9c0 2.209-1.791 4-4 4h-50c-2.209 0-4-1.791-4-4v-9c0-2.209 1.792-4 4-4z"/><path fill="#89898A" d="M84.5 85c-1.381 0-2.5 1.119-2.5 2.5s1.119 2.5 2.5 2.5 2.5-1.119 2.5-2.5-1.119-2.5-2.5-2.5zm-10 0c-1.381 0-2.5 1.119-2.5 2.5s1.119 2.5 2.5 2.5 2.5-1.119 2.5-2.5-1.119-2.5-2.5-2.5z"/><path fill="#2CCD71" d="M44.5 85c-1.381 0-2.5 1.119-2.5 2.5s1.12 2.5 2.5 2.5 2.5-1.119 2.5-2.5-1.119-2.5-2.5-2.5zm10 0c-1.381 0-2.5 1.119-2.5 2.5s1.12 2.5 2.5 2.5 2.5-1.119 2.5-2.5-1.119-2.5-2.5-2.5zm10 0c-1.38 0-2.5 1.119-2.5 2.5s1.12 2.5 2.5 2.5c1.381 0 2.5-1.119 2.5-2.5s-1.119-2.5-2.5-2.5z"/><path fill="#EBEEEE" d="M64 60c-2.209 0-4 1.791-4 4s1.791 4 4 4c2.208 0 4-1.791 4-4s-1.791-4-4-4zm28.967-24.212c-7.74-7.604-18.031-11.791-28.977-11.791-10.946 0-21.238 4.188-28.979 11.794-1.366 1.344-1.366 3.52 0 4.862.683.671 1.578 1.007 2.474 1.007s1.792-.336 2.475-1.007c6.419-6.308 14.953-9.781 24.031-9.781 9.077 0 17.611 3.473 24.029 9.778 1.367 1.343 3.582 1.343 4.947 0 1.367-1.343 1.367-3.52 0-4.862zm-28.977.213c-7.552 0-14.651 2.917-19.992 8.214-1.332 1.321-1.332 3.465 0 4.786.667.661 1.54.992 2.414.992.873 0 1.747-.331 2.413-.992 4.051-4.018 9.437-6.23 15.166-6.23 5.729 0 11.115 2.212 15.165 6.23 1.333 1.321 3.494 1.321 4.825 0 1.332-1.323 1.332-3.466 0-4.787-5.34-5.296-12.439-8.213-19.991-8.213zm.001 12.01c-4.534 0-8.797 1.795-12.003 5.055-1.328 1.351-1.328 3.54 0 4.89.664.675 1.534 1.013 2.404 1.013.87 0 1.74-.338 2.404-1.013 1.921-1.954 4.476-3.029 7.194-3.029 2.716 0 5.272 1.075 7.194 3.027 1.327 1.351 3.48 1.351 4.809 0 1.326-1.35 1.326-3.539-.002-4.89-3.204-3.259-7.468-5.053-12-5.053z"/></svg>