<svg xmlns="http://www.w3.org/2000/svg" xmlns:xlink="http://www.w3.org/1999/xlink" width="128" height="128"><path fill="#EBEEEE" d="M64 0c35.347 0 64 28.654 64 64 0 35.347-28.653 64-64 64-35.346 0-64-28.653-64-64 0-35.346 28.654-64 64-64z"/><defs><path id="a" d="M64 0c35.347 0 64 28.654 64 64 0 35.347-28.653 64-64 64-35.346 0-64-28.653-64-64 0-35.346 28.654-64 64-64z"/></defs><clipPath id="b"><use xlink:href="#a" overflow="visible"/></clipPath><g clip-path="url(#b)"><path fill="#3B5766" d="M71.98 55.848s.808 5.718 4.737 9.528c3.931 3.811 8.168 9.188 8.246 19.262.028-.023-.009 73.104-.009 73.104v.545c-.002 3.707-9.392 6.713-20.976 6.713s-20.977-3.006-20.977-6.709v-.544s.018-73.096.022-73.105c.077-10.073 4.284-15.451 8.214-19.262l4.77-9.528-.006-33.839 15.979-.001v33.836z"/><path fill="#9F4238" d="M71.96 19c-.233-1.46-3.469-3-7.968-3-4.502 0-7.737 1.539-7.971 3h-.021v.162l-.001.007h.001v29.831h16v-30h-.04z"/><path fill="#374F5E" d="M84.964 84.638c-.078-10.073-4.315-15.451-8.246-19.262-3.93-3.811-4.737-9.528-4.737-9.528v-6.848h-4v6.848s.808 5.718 4.737 9.528c3.931 3.811 8.168 9.188 8.246 19.262.028-.023-.009 73.104-.009 73.104v.545c-.003 3.491-8.333 6.357-18.978 6.681.659.02 1.325.032 2 .032 11.584 0 20.975-3.006 20.978-6.713v-.545s.037-73.128.009-73.104z"/><path fill="#923C32" d="M71.96 19c-.233-1.46-3.469-3-7.968-3-.701 0-1.367.041-2.001.11 3.431.372 5.771 1.657 5.969 2.89h.04v30h4v-30h-.04z"/><path fill="#8F3A31" d="M56 21h16v10h-16v-10z"/><rect x="68" y="21" fill="#83372C" width="4" height="10"/><path fill="#9B3C32" d="M57 22h14c1.104 0 2 .896 2 2v4c0 1.104-.896 2-2 2h-14c-1.104 0-2-.896-2-2v-4c0-1.104.896-2 2-2z"/><path fill="#45B39C" d="M43 85h42v50h-42v-50z"/><path fill="#BADED5" d="M78.96 99.982c-.4-3.925-3.723-6.986-7.764-6.986-3.238 0-6.015 1.967-7.196 4.768-1.182-2.801-3.958-4.768-7.196-4.768-4.04 0-7.364 3.062-7.764 6.986-.026.262-.04.527-.04.796 0 9.455 11.637 13.918 15 20.225 3.363-6.307 15-10.77 15-20.225 0-.268-.014-.534-.04-.796z"/><path fill="#B1D6CE" d="M71.279 93h-.135c-3.216.021-5.97 1.979-7.145 4.764v23.236h.002c3.366-6.305 14.999-10.768 14.999-20.222 0-.269-.014-.534-.04-.796-.398-3.897-3.678-6.94-7.681-6.982z"/><path fill="#3FA590" d="M80.965 135h4c.008-20.076.016-46.655.002-50h-4c.013 3.345.006 29.924-.002 50z"/><path fill="#923C32" d="M71 22h-4c1.104 0 2 .896 2 2v4c0 1.104-.896 2-2 2h4c1.104 0 2-.896 2-2v-4c0-1.104-.896-2-2-2z"/></g></svg>