<svg xmlns="http://www.w3.org/2000/svg" xmlns:xlink="http://www.w3.org/1999/xlink" width="128" height="128"><path fill="#45B39C" d="M64 0c35.348 0 64 28.654 64 64 0 35.348-28.652 64-64 64-35.346 0-64-28.652-64-64 0-35.346 28.654-64 64-64z"/><defs><circle id="a" cx="64" cy="64" r="64"/></defs><clipPath id="b"><use xlink:href="#a" overflow="visible"/></clipPath><g clip-path="url(#b)"><path fill="#EFC84A" d="M64 75c20.436 0 37 14.999 37 33.5 0 18.502-16.564 33.5-37 33.5s-37-14.998-37-33.5c0-18.501 16.564-33.5 37-33.5z"/><path fill="#DF5A48" d="M80 98c1.229 0 2.227.98 2.227 2.189 0 .248-.043.485-.119.707.406-.453 1.004-.739 1.668-.739 1.229 0 2.226.981 2.226 2.19 0 1.067-.774 1.957-1.801 2.151 1.026.194 1.801 1.084 1.801 2.149 0 1.211-.996 2.191-2.226 2.191-.664 0-1.262-.285-1.668-.74.076.223.119.461.119.707 0 1.211-.996 2.191-2.227 2.191s-2.227-.98-2.227-2.191c0-.248.041-.484.119-.707-.408.455-1.004.74-1.67.74-1.229 0-2.226-.98-2.226-2.191 0-1.065.774-1.955 1.802-2.149-1.025-.194-1.802-1.084-1.802-2.151 0-1.209.997-2.19 2.226-2.19.666 0 1.262.286 1.67.739-.078-.222-.119-.459-.119-.707 0-1.209.998-2.189 2.227-2.189zm0 4.18c-1.303 0-2.357 1.038-2.357 2.32 0 1.281 1.055 2.32 2.357 2.32 1.301 0 2.355-1.039 2.355-2.32 0-1.282-1.052-2.32-2.355-2.32z"/><path fill="#414443" d="M39.5 41h49c5.247 0 9.5 4.254 9.5 9.5 0 5.247-4.253 9.5-9.5 9.5h-49c-5.247 0-9.5-4.253-9.5-9.5 0-5.246 4.253-9.5 9.5-9.5z"/><path fill="#E09274" d="M64 24c16.568 0 30 15.223 30 34s-13.432 34-30 34-30-15.223-30-34 13.432-34 30-34z"/><path fill="#414443" d="M34.002 47.997l.185.003c10.958 0 20.565-3.774 25.971-9.444 5.555 5.062 14.613 8.361 24.857 8.361 2.764 0 5.438-.243 7.981-.693-4.35-14.132-15.801-24.224-29.246-24.224-13.999 0-25.839 10.943-29.748 25.997z"/><path fill="#fff" d="M73.5 55c-3.037 0-5.5 2.463-5.5 5.5 0 3.038 2.463 5.5 5.5 5.5s5.5-2.462 5.5-5.5c0-3.037-2.463-5.5-5.5-5.5zm-19 0c-3.037 0-5.5 2.463-5.5 5.5 0 3.038 2.463 5.5 5.5 5.5s5.5-2.462 5.5-5.5c0-3.037-2.463-5.5-5.5-5.5z"/><path fill="#334D5D" d="M54.5 58c-1.381 0-2.5 1.119-2.5 2.5s1.119 2.5 2.5 2.5 2.5-1.119 2.5-2.5-1.119-2.5-2.5-2.5zm19 0c-1.381 0-2.5 1.119-2.5 2.5s1.119 2.5 2.5 2.5 2.5-1.119 2.5-2.5-1.119-2.5-2.5-2.5z"/></g><path fill="#9C6550" d="M64.114 80.036c-2.745 0-4.874-1.385-5.007-1.474-.69-.459-.877-1.39-.419-2.08.458-.687 1.386-.874 2.073-.422.139.089 3.312 2.11 6.195.035.671-.481 1.608-.33 2.094.342.483.672.331 1.609-.342 2.094-1.567 1.129-3.164 1.505-4.594 1.505z"/></svg>