<?xml version="1.0" encoding="iso-8859-1"?>
<!-- Generator: Adobe Illustrator 16.0.2, SVG Export Plug-In . SVG Version: 6.00 Build 0)  -->
<!DOCTYPE svg PUBLIC "-//W3C//DTD SVG 1.1//EN" "http://www.w3.org/Graphics/SVG/1.1/DTD/svg11.dtd">
<svg version="1.1" id="co_x5F_finance" xmlns="http://www.w3.org/2000/svg" xmlns:xlink="http://www.w3.org/1999/xlink" x="0px"
	 y="0px" width="40px" height="40px" fill="black"  viewBox="0 0 40 40" style="enable-background:new 0 0 40 40;" xml:space="preserve">
<path style="fill-rule:evenodd;clip-rule:evenodd;" d="M3.394,11.701l10.989-9.19c0.412-0.343,0.873-0.509,1.409-0.509h8.405
	c0.535,0,0.996,0.167,1.408,0.509l10.989,9.19c0.259,0.216,0.396,0.507,0.396,0.845v0.353c0,0.606-0.494,1.101-1.1,1.101H4.098
	c-0.605,0-1.1-0.495-1.1-1.101v-0.353C2.998,12.208,3.135,11.917,3.394,11.701L3.394,11.701z M6.657,16.031h2.679
	c0.363,0,0.66,0.296,0.66,0.659v13.646c0,0.363-0.297,0.66-0.66,0.66H6.657c-0.363,0-0.66-0.297-0.66-0.66V16.69
	C5.997,16.327,6.294,16.031,6.657,16.031L6.657,16.031z M30.652,16.031h2.679c0.363,0,0.66,0.296,0.66,0.659L33.99,28.996v1.34
	c0,0.363-0.297,0.66-0.659,0.66h-2.679c-0.363,0-0.66-0.297-0.66-0.66V16.69C29.992,16.327,30.289,16.031,30.652,16.031
	L30.652,16.031z M24.653,16.031h2.679c0.363,0,0.66,0.296,0.66,0.659v13.646c0,0.363-0.297,0.66-0.66,0.66h-2.679
	c-0.363,0-0.66-0.297-0.66-0.66V16.69C23.993,16.327,24.29,16.031,24.653,16.031L24.653,16.031z M18.654,16.031h2.68
	c0.363,0,0.66,0.296,0.66,0.659v13.646c0,0.363-0.297,0.66-0.66,0.66h-2.68c-0.363,0-0.66-0.297-0.66-0.66V16.69
	C17.994,16.327,18.291,16.031,18.654,16.031L18.654,16.031z M12.656,16.031h2.679c0.363,0,0.66,0.296,0.66,0.659v13.646
	c0,0.363-0.297,0.66-0.66,0.66h-2.679c-0.363,0-0.66-0.297-0.66-0.66V16.69C11.996,16.327,12.292,16.031,12.656,16.031
	L12.656,16.031z M4.098,33.026h2.899h28.894c0.605,0,1.1,0.494,1.1,1.1v1.769c0,0.605-0.494,1.099-1.1,1.099H4.098
	c-0.605,0-1.1-0.494-1.1-1.099v-1.769C2.998,33.521,3.492,33.026,4.098,33.026L4.098,33.026z M16.645,5.381l-5.783,4.837
	c-0.465,0.438-0.122,0.774,0.287,0.774h17.545c0.584,0,0.836-0.35,0.412-0.774l-5.889-4.836c-0.291-0.25-0.621-0.374-1.006-0.374
	h-4.562C17.266,5.009,16.936,5.131,16.645,5.381z"/>
</svg>
