<?xml version="1.0" encoding="iso-8859-1"?>
<!-- Generator: Adobe Illustrator 16.0.2, SVG Export Plug-In . SVG Version: 6.00 Build 0)  -->
<!DOCTYPE svg PUBLIC "-//W3C//DTD SVG 1.1//EN" "http://www.w3.org/Graphics/SVG/1.1/DTD/svg11.dtd">
<svg version="1.1" id="co_x5F_layout_x5F_1_x5C_2" xmlns="http://www.w3.org/2000/svg" xmlns:xlink="http://www.w3.org/1999/xlink"
	 x="0px" y="0px" width="40px" height="40px" viewBox="0 0 40 40" style="enable-background:new 0 0 40 40;" xml:space="preserve">
<path style="fill-rule:evenodd;clip-rule:evenodd;" d="M31.328,30.126l-5.245,2.421l-5.154,2.379
	c-0.21,0.097-0.437,0.081-0.632-0.043s-0.304-0.324-0.304-0.556V21.628c0-0.791,0.433-1.467,1.15-1.797l4.941-2.28l5.97-2.756
	c0.21-0.097,0.437-0.082,0.632,0.043c0.195,0.125,0.304,0.324,0.304,0.557V27.53C32.989,28.671,32.364,29.648,31.328,30.126z
	 M31.809,11.954l-5.726,2.863l-5.713,2.857c-0.896,0.448-1.859,0.448-2.755,0l-5.713-2.857l-5.726-2.863
	c-0.229-0.115-0.365-0.334-0.365-0.591c0-0.256,0.136-0.475,0.365-0.59l5.726-2.863l5.615-2.808c0.959-0.479,1.992-0.479,2.952,0
	l5.614,2.808l5.726,2.863c0.229,0.115,0.365,0.334,0.365,0.59C32.173,11.62,32.038,11.839,31.809,11.954z M11.901,17.55l4.941,2.28
	c0.717,0.331,1.15,1.008,1.15,1.797v12.699c0,0.232-0.109,0.431-0.304,0.556c-0.195,0.125-0.422,0.141-0.632,0.043l-5.155-2.379
	l-5.245-2.421c-1.037-0.478-1.662-1.455-1.662-2.596V15.394c0-0.232,0.109-0.432,0.305-0.557c0.195-0.125,0.422-0.14,0.632-0.043
	L11.901,17.55z"/>
</svg>
