<?xml version="1.0" encoding="iso-8859-1"?>
<!-- Generator: Adobe Illustrator 16.0.2, SVG Export Plug-In . SVG Version: 6.00 Build 0)  -->
<!DOCTYPE svg PUBLIC "-//W3C//DTD SVG 1.1//EN" "http://www.w3.org/Graphics/SVG/1.1/DTD/svg11.dtd">
<svg version="1.1" id="co_x5F_devices" xmlns="http://www.w3.org/2000/svg" xmlns:xlink="http://www.w3.org/1999/xlink" x="0px"
	 y="0px" width="40px" height="40px" viewBox="0 0 40 40" style="enable-background:new 0 0 40 40;" xml:space="preserve">
<path style="fill-rule:evenodd;clip-rule:evenodd;" d="M12.398,3h15.196c2.423,0,4.398,1.976,4.398,4.399v25.194
	c0,2.423-1.976,4.399-4.398,4.399H12.398c-2.423,0-4.399-1.976-4.399-4.399V7.398C7.999,4.976,9.976,3,12.398,3L12.398,3z
	 M12.329,15.997c-0.727,0-1.319,0.592-1.319,1.319v0.349c0,0.727,0.593,1.32,1.319,1.32h0.349c0.728,0,1.32-0.593,1.32-1.32v-0.349
	c0-0.727-0.593-1.319-1.32-1.319H12.329L12.329,15.997z M12.318,5.998c-0.727,0-1.319,0.593-1.319,1.32v4.359
	c0,0.727,0.593,1.32,1.319,1.32h15.356c0.727,0,1.32-0.593,1.32-1.32V7.318c0-0.727-0.594-1.32-1.32-1.32H12.318L12.318,5.998z
	 M27.305,31.004c-0.728,0-1.32,0.593-1.32,1.32v0.349c0,0.727,0.593,1.32,1.32,1.32h0.348c0.728,0,1.319-0.593,1.319-1.32v-0.349
	c0-0.727-0.592-1.32-1.319-1.32H27.305L27.305,31.004z M27.305,26.002c-0.728,0-1.32,0.593-1.32,1.32v0.349
	c0,0.727,0.593,1.319,1.32,1.319h0.348c0.728,0,1.319-0.593,1.319-1.319v-0.349c0-0.727-0.592-1.32-1.319-1.32H27.305L27.305,26.002
	z M27.305,21c-0.728,0-1.32,0.592-1.32,1.319v0.349c0,0.727,0.593,1.32,1.32,1.32h0.348c0.728,0,1.319-0.593,1.319-1.32v-0.349
	c0-0.727-0.592-1.319-1.319-1.319H27.305L27.305,21z M22.316,31.004c-0.727,0-1.32,0.593-1.32,1.32v0.349
	c0,0.727,0.594,1.32,1.32,1.32h0.349c0.727,0,1.32-0.593,1.32-1.32v-0.349c0-0.727-0.594-1.32-1.32-1.32H22.316L22.316,31.004z
	 M22.316,26.002c-0.727,0-1.32,0.593-1.32,1.32v0.349c0,0.727,0.594,1.319,1.32,1.319h0.349c0.727,0,1.32-0.593,1.32-1.319v-0.349
	c0-0.727-0.594-1.32-1.32-1.32H22.316L22.316,26.002z M22.316,21c-0.727,0-1.32,0.592-1.32,1.319v0.349
	c0,0.727,0.594,1.32,1.32,1.32h0.349c0.727,0,1.32-0.593,1.32-1.32v-0.349c0-0.727-0.594-1.319-1.32-1.319H22.316L22.316,21z
	 M17.329,31.004c-0.728,0-1.32,0.593-1.32,1.32v0.349c0,0.727,0.593,1.32,1.32,1.32h0.348c0.728,0,1.32-0.593,1.32-1.32v-0.349
	c0-0.727-0.593-1.32-1.32-1.32H17.329L17.329,31.004z M17.329,26.002c-0.728,0-1.32,0.593-1.32,1.32v0.349
	c0,0.727,0.593,1.319,1.32,1.319h0.348c0.728,0,1.32-0.593,1.32-1.319v-0.349c0-0.727-0.593-1.32-1.32-1.32H17.329L17.329,26.002z
	 M17.329,21c-0.728,0-1.32,0.592-1.32,1.319v0.349c0,0.727,0.593,1.32,1.32,1.32h0.348c0.728,0,1.32-0.593,1.32-1.32v-0.349
	c0-0.727-0.593-1.319-1.32-1.319H17.329L17.329,21z M12.329,31.004c-0.727,0-1.319,0.593-1.319,1.32v0.349
	c0,0.727,0.593,1.32,1.319,1.32h0.349c0.728,0,1.32-0.593,1.32-1.32v-0.349c0-0.727-0.593-1.32-1.32-1.32H12.329L12.329,31.004z
	 M12.329,26.002c-0.727,0-1.319,0.593-1.319,1.32v0.349c0,0.727,0.593,1.319,1.319,1.319h0.349c0.728,0,1.32-0.593,1.32-1.319
	v-0.349c0-0.727-0.593-1.32-1.32-1.32H12.329L12.329,26.002z M12.329,21c-0.727,0-1.319,0.592-1.319,1.319v0.349
	c0,0.727,0.593,1.32,1.319,1.32h0.349c0.728,0,1.32-0.593,1.32-1.32v-0.349c0-0.727-0.593-1.319-1.32-1.319H12.329L12.329,21z
	 M27.305,15.997c-0.728,0-1.32,0.592-1.32,1.319v0.349c0,0.727,0.593,1.32,1.32,1.32h0.348c0.728,0,1.319-0.593,1.319-1.32v-0.349
	c0-0.727-0.592-1.319-1.319-1.319H27.305L27.305,15.997z M22.316,15.997c-0.727,0-1.32,0.592-1.32,1.319v0.349
	c0,0.727,0.594,1.32,1.32,1.32h0.349c0.727,0,1.32-0.593,1.32-1.32v-0.349c0-0.727-0.594-1.319-1.32-1.319H22.316L22.316,15.997z
	 M17.329,15.997c-0.728,0-1.32,0.592-1.32,1.319v0.349c0,0.727,0.593,1.32,1.32,1.32h0.348c0.728,0,1.32-0.593,1.32-1.32v-0.349
	c0-0.727-0.593-1.319-1.32-1.319H17.329z"/>
</svg>
