<?xml version="1.0" encoding="iso-8859-1"?>
<!-- Generator: Adobe Illustrator 16.0.2, SVG Export Plug-In . SVG Version: 6.00 Build 0)  -->
<!DOCTYPE svg PUBLIC "-//W3C//DTD SVG 1.1//EN" "http://www.w3.org/Graphics/SVG/1.1/DTD/svg11.dtd">
<svg version="1.1" id="co_x5F_education_x5F_1_x5C_2"
	 xmlns="http://www.w3.org/2000/svg" xmlns:xlink="http://www.w3.org/1999/xlink" x="0px" y="0px" width="40px" height="40px"
	 viewBox="0 0 40 40" style="enable-background:new 0 0 40 40;" xml:space="preserve">
<path style="fill-rule:evenodd;clip-rule:evenodd;" d="M34.034,37.007c-8.691,0-19.383,0-28.073,0c-2.181,0-3.96-1.779-3.96-3.961
	v-2.781c0-0.854,0.233-1.587,0.725-2.283l11.272-15.97V6.013c-0.226,0-0.466,0-0.68,0c-0.727,0-1.32-0.593-1.32-1.32V3.333
	c0-0.727,0.593-1.319,1.32-1.319c3.786,0,9.572,0,13.358,0c0.727,0,1.319,0.593,1.319,1.319v1.359c0,0.728-0.593,1.32-1.319,1.32
	c-0.214,0-0.454,0-0.68,0v5.999l11.273,15.97c0.492,0.696,0.724,1.43,0.724,2.283v2.781C37.993,35.228,36.215,37.006,34.034,37.007z
	 M33.994,30.496c0-0.332-0.09-0.617-0.282-0.888L21.997,13.011V6.013c-1.32,0-2.678,0-3.999,0v6.998L6.283,29.608
	C6.091,29.879,6,30.164,6,30.496v0.97c0,0.849,0.692,1.541,1.54,1.541h24.915c0.848,0,1.54-0.692,1.54-1.541V30.496z M30.002,31.007
	H9.993c-0.714,0-1.13-0.805-0.719-1.388l5.044-7.146c0,0,1.024,1.08,2.118,0.592l2.677-1.196c0.592-0.266,1.204-0.267,1.796-0.001
	l2.676,1.197c1.101,0.492,2.098-0.583,2.098-0.583l5.038,7.137C31.13,30.201,30.717,31.007,30.002,31.007z"/>
</svg>
