<?xml version="1.0" encoding="iso-8859-1"?>
<!-- Generator: Adobe Illustrator 16.0.2, SVG Export Plug-In . SVG Version: 6.00 Build 0)  -->
<!DOCTYPE svg PUBLIC "-//W3C//DTD SVG 1.1//EN" "http://www.w3.org/Graphics/SVG/1.1/DTD/svg11.dtd">
<svg version="1.1" id="co_x5F_devices" xmlns="http://www.w3.org/2000/svg" xmlns:xlink="http://www.w3.org/1999/xlink" x="0px"
	 y="0px" width="40px" height="40px" viewBox="0 0 40 40" style="enable-background:new 0 0 40 40;" xml:space="preserve">
<path style="fill-rule:evenodd;clip-rule:evenodd;" d="M5.292,11.997h16.396c1.817,0,3.299,1.482,3.299,3.299v11.397
	c0,1.818-1.482,3.3-3.299,3.3h-5.699v3.999h1.68c0.727,0,1.32,0.593,1.32,1.32v0.359c0,0.728-0.593,1.32-1.32,1.32H9.311
	c-0.727,0-1.32-0.592-1.32-1.32v-0.359c0-0.728,0.593-1.32,1.32-1.32h1.68v-3.999H5.292c-1.817,0-3.3-1.482-3.3-3.3V15.296
	C1.992,13.479,3.475,11.997,5.292,11.997L5.292,11.997z M30.286,3h4.398c1.817,0,3.299,1.482,3.299,3.299v27.394
	c0,1.817-1.482,3.299-3.299,3.299h-4.398c-1.817,0-3.3-1.482-3.3-3.299V6.299C26.986,4.481,28.469,3,30.286,3L30.286,3z
	 M32.485,31.873c-0.829,0-1.5,0.672-1.5,1.5s0.671,1.5,1.5,1.5c0.828,0,1.5-0.671,1.5-1.5S33.313,31.873,32.485,31.873
	L32.485,31.873z M29.986,25.994v2h4.999v-2H29.986L29.986,25.994z M29.986,21.995v1.999h4.999v-1.999H29.986L29.986,21.995z
	 M29.986,17.996v2h4.999v-2H29.986L29.986,17.996z M29.986,13.997v1.999h4.999v-1.999H29.986L29.986,13.997z M29.986,9.998v2h4.999
	v-2H29.986L29.986,9.998z M29.986,5.998v2h4.999v-2H29.986L29.986,5.998z M5.991,15.996v9.998h14.997v-9.998H5.991z"/>
</svg>
