<?xml version="1.0" encoding="iso-8859-1"?>
<!-- Generator: Adobe Illustrator 16.0.2, SVG Export Plug-In . SVG Version: 6.00 Build 0)  -->
<!DOCTYPE svg PUBLIC "-//W3C//DTD SVG 1.1//EN" "http://www.w3.org/Graphics/SVG/1.1/DTD/svg11.dtd">
<svg version="1.1" id="co_x5F_finance" xmlns="http://www.w3.org/2000/svg" xmlns:xlink="http://www.w3.org/1999/xlink" x="0px"
	 y="0px" width="40px" height="40px" viewBox="0 0 40 40" style="enable-background:new 0 0 40 40;" xml:space="preserve">
<path style="fill-rule:evenodd;clip-rule:evenodd;" d="M9.006,17.904l7.557-6.665c0.268-0.229,0.619-0.277,0.939-0.13
	c0.318,0.147,0.512,0.448,0.512,0.799v6.09l7.541-6.759c0.268-0.229,0.621-0.277,0.939-0.13c0.32,0.147,0.512,0.448,0.512,0.799
	v6.09l7.541-6.759c0.268-0.229,0.623-0.277,0.941-0.13C35.807,11.256,36,11.557,36,11.908v22.887c0,1.211-0.988,2.198-2.201,2.198
	H5.207c-1.213,0-2.201-0.987-2.201-2.198V8h6V17.904L9.006,17.904z M6.445,23.996c-0.242,0-0.439,0.198-0.439,0.441v2.12
	c0,0.242,0.197,0.439,0.439,0.439h2.121c0.24,0,0.439-0.198,0.439-0.439v-2.12c0-0.243-0.199-0.441-0.439-0.441H6.445L6.445,23.996z
	 M30.441,29.995c-0.242,0-0.441,0.198-0.441,0.44v2.119c0,0.242,0.199,0.44,0.441,0.44h2.119c0.242,0,0.439-0.198,0.439-0.44v-2.119
	c0-0.242-0.197-0.44-0.439-0.44H30.441L30.441,29.995z M24.441,29.995c-0.242,0-0.439,0.198-0.439,0.44v2.119
	c0,0.242,0.197,0.44,0.439,0.44h2.119c0.244,0,0.439-0.198,0.439-0.44v-2.119c0-0.242-0.195-0.44-0.439-0.44H24.441L24.441,29.995z
	 M18.412,29.995c-0.242,0-0.439,0.198-0.439,0.44v2.119c0,0.242,0.197,0.44,0.439,0.44h2.119c0.242,0,0.439-0.198,0.439-0.44v-2.119
	c0-0.242-0.197-0.44-0.439-0.44H18.412L18.412,29.995z M12.445,29.995c-0.244,0-0.439,0.198-0.439,0.44v2.119
	c0,0.242,0.195,0.44,0.439,0.44h2.119c0.242,0,0.439-0.198,0.439-0.44v-2.119c0-0.242-0.197-0.44-0.439-0.44H12.445L12.445,29.995z
	 M30.441,23.996c-0.242,0-0.441,0.198-0.441,0.441v2.12c0,0.242,0.199,0.439,0.441,0.439h2.119c0.242,0,0.439-0.198,0.439-0.439
	v-2.12c0-0.243-0.197-0.441-0.439-0.441H30.441L30.441,23.996z M24.441,23.996c-0.242,0-0.439,0.198-0.439,0.441v2.12
	c0,0.242,0.197,0.439,0.439,0.439h2.119c0.242,0,0.439-0.198,0.439-0.439v-2.12c0-0.243-0.197-0.441-0.439-0.441H24.441
	L24.441,23.996z M18.412,23.996c-0.242,0-0.439,0.198-0.439,0.441v2.12c0,0.242,0.197,0.439,0.439,0.439h2.119
	c0.242,0,0.439-0.198,0.439-0.439v-2.12c0-0.243-0.197-0.441-0.439-0.441H18.412L18.412,23.996z M12.445,23.996
	c-0.244,0-0.439,0.198-0.439,0.441v2.12c0,0.242,0.195,0.439,0.439,0.439h2.119c0.242,0,0.439-0.198,0.439-0.439v-2.12
	c0-0.243-0.197-0.441-0.439-0.441H12.445L12.445,23.996z M6.445,29.995c-0.242,0-0.439,0.198-0.439,0.44v2.119
	c0,0.242,0.197,0.44,0.439,0.44h2.121c0.24,0,0.439-0.198,0.439-0.44v-2.119c0-0.242-0.199-0.44-0.439-0.44H6.445L6.445,29.995z
	 M3.006,6.001V4.542c0-0.848,0.693-1.54,1.541-1.54h2.918c0.848,0,1.541,0.692,1.541,1.54v1.459H3.006z"/>
</svg>
