<?xml version="1.0" encoding="iso-8859-1"?>
<!-- Generator: Adobe Illustrator 16.0.2, SVG Export Plug-In . SVG Version: 6.00 Build 0)  -->
<!DOCTYPE svg PUBLIC "-//W3C//DTD SVG 1.1//EN" "http://www.w3.org/Graphics/SVG/1.1/DTD/svg11.dtd">
<svg version="1.1" id="co_x5F_devices" xmlns="http://www.w3.org/2000/svg" xmlns:xlink="http://www.w3.org/1999/xlink" x="0px"
	 y="0px" width="40px" height="40px" viewBox="0 0 40 40" style="enable-background:new 0 0 40 40;" xml:space="preserve">
<path style="fill-rule:evenodd;clip-rule:evenodd;" d="M25.313,7.898l0.857-3.2c0.457-1.709-2.439-2.486-2.897-0.775l-0.862,3.215
	C21.949,8.863,24.857,9.6,25.313,7.898L25.313,7.898z M14.704,24.353c0.935,0.934,0.935,2.45,0,3.383
	c-0.935,0.935-2.45,0.935-3.384,0c-0.935-0.934-0.935-2.449,0-3.383C12.254,23.418,13.77,23.418,14.704,24.353L14.704,24.353z
	 M26.267,12.608c1.61,1.611,2.181,3.867,1.714,5.937l2.525,2.524c0.601,0.6,0.601,1.578,0,2.178l-1.456,1.456
	c-1.714,1.714-4.509,1.714-6.223,0c-2.875-2.875-5.75-5.75-8.625-8.625c-1.714-1.714-1.714-4.509,0-6.223L15.658,8.4
	c0.6-0.6,1.578-0.6,2.178,0l2.495,2.495C22.4,10.427,24.656,10.999,26.267,12.608L26.267,12.608z M13.162,17.867l-9.788,9.788
	c-1.714,1.714-1.714,4.51,0,6.223l1.604,1.604c1.714,1.713,4.509,1.713,6.223,0l9.789-9.788L13.162,17.867L13.162,17.867z
	 M29.834,11.303c-1.26,1.259-3.372-0.871-2.118-2.124l2.294-2.294c1.252-1.251,3.372,0.869,2.121,2.121L29.834,11.303L29.834,11.303
	z M31.025,13.773c-1.696,0.455-0.981,3.369,0.752,2.904l3.353-0.898c1.71-0.458,0.933-3.356-0.776-2.897L31.025,13.773z"/>
</svg>
