<?xml version="1.0" encoding="iso-8859-1"?>
<!-- Generator: Adobe Illustrator 16.0.2, SVG Export Plug-In . SVG Version: 6.00 Build 0)  -->
<!DOCTYPE svg PUBLIC "-//W3C//DTD SVG 1.1//EN" "http://www.w3.org/Graphics/SVG/1.1/DTD/svg11.dtd">
<svg version="1.1" id="co_x5F_education_x5F_1_x5C_2"
	 xmlns="http://www.w3.org/2000/svg" xmlns:xlink="http://www.w3.org/1999/xlink" x="0px" y="0px" width="40px" height="40px"
	 viewBox="0 0 40 40" style="enable-background:new 0 0 40 40;" xml:space="preserve">
<path style="fill-rule:evenodd;clip-rule:evenodd;" d="M31.252,5.073c5.365,5.952,5.182,15.135-0.551,20.865
	c-2.453,2.451-5.535,3.887-8.729,4.308v2.759h3.02c1.09,0,1.98,0.89,1.98,1.979v0.04c0,1.09-0.891,1.979-1.98,1.979H14.955
	c-1.092,0-1.98-0.889-1.98-1.979v-0.04c0-1.09,0.889-1.979,1.98-1.979h3.057v-2.754c-2.957-0.384-5.822-1.637-8.182-3.762
	l-0.654,0.655c-0.258,0.257-0.678,0.257-0.934,0l-0.199-0.198c-0.256-0.257-0.256-0.676,0-0.933l3.389-3.387
	C7.57,18.185,7.75,11.443,11.979,7.218c4.227-4.226,10.969-4.407,15.41-0.546l3.389-3.387c0.256-0.257,0.676-0.257,0.934,0
	l0.197,0.198c0.258,0.258,0.258,0.677,0,0.933L31.252,5.073z M13.914,9.024c-2.457,2.457-3.113,6.026-1.986,9.086
	c1.379-0.13,2.096-0.447,2.41-2.621c0.244-1.675,3.223-1.748,3.223-3.574c0-1.679-0.668-3.199-1.748-4.318
	C15.135,7.976,14.492,8.446,13.914,9.024z M16.717,19.823c-0.383-1.02-2.775-0.088-3.463,0.652c0.205,0.258,0.422,0.51,0.66,0.748
	c1.604,1.604,3.684,2.435,5.785,2.512c0.043-0.229,0.121-0.468,0.07-0.703C19.379,21.231,17.551,22.043,16.717,19.823z
	 M17.088,17.663c0-0.366-0.299-0.664-0.666-0.664s-0.664,0.298-0.664,0.664c0,0.368,0.297,0.666,0.664,0.666
	S17.088,18.031,17.088,17.663z M16.813,7.113c0.301,0.999,0.863,1.847,1.959,1.847c1.266,0,2.648-1.087,2.762-2.323
	C19.957,6.356,18.318,6.514,16.813,7.113z M22.063,11.587c-0.813,0-1.914,1.407-1.914,2.219c0,0.811,1.072,1.622,1.699,0.906
	c0.535-0.61,1.539-0.324,1.539-1.135C23.387,12.766,22.873,11.587,22.063,11.587z M20.566,19.576c0,1.565,0.766,2.949,1.941,3.807
	c1.32-0.396,2.566-1.115,3.609-2.159c1.41-1.409,2.221-3.188,2.451-5.023c-1.713-0.927-2.127,2.152-4.125,1.621
	C22.516,17.31,20.566,16.972,20.566,19.576z M26.117,9.024c-0.41-0.41-0.85-0.767-1.314-1.076c-0.926,0.617-1.539,1.67-1.539,2.867
	c0,1.903,1.543,3.445,3.445,3.445c0.668,0,1.287-0.198,1.814-0.526C28.242,12.01,27.447,10.354,26.117,9.024z M29.738,6.587
	l-1.217,1.217c3.861,4.442,3.68,11.184-0.547,15.409s-10.969,4.407-15.412,0.545l-1.217,1.217c5.117,4.532,12.945,4.35,17.844-0.547
	C34.088,19.53,34.27,11.703,29.738,6.587z"/>
</svg>
