<?xml version="1.0" encoding="iso-8859-1"?>
<!-- Generator: Adobe Illustrator 16.0.2, SVG Export Plug-In . SVG Version: 6.00 Build 0)  -->
<!DOCTYPE svg PUBLIC "-//W3C//DTD SVG 1.1//EN" "http://www.w3.org/Graphics/SVG/1.1/DTD/svg11.dtd">
<svg version="1.1" id="co_x5F_devices" xmlns="http://www.w3.org/2000/svg" xmlns:xlink="http://www.w3.org/1999/xlink" x="0px"
	 y="0px" width="40px" height="40px" viewBox="0 0 40 40" style="enable-background:new 0 0 40 40;" xml:space="preserve">
<path style="fill-rule:evenodd;clip-rule:evenodd;" d="M12.302,3.009h16.396c1.817,0,3.299,1.482,3.299,3.3v27.393
	c0,1.818-1.482,3.3-3.299,3.3H12.302c-1.817,0-3.3-1.482-3.3-3.3V6.309C9.002,4.491,10.485,3.009,12.302,3.009L12.302,3.009z
	 M13.102,9.008c-0.606,0-1.1,0.495-1.1,1.1v19.795c0,0.606,0.494,1.1,1.1,1.1h14.797c0.605,0,1.1-0.494,1.1-1.1V10.108
	c0-0.605-0.494-1.1-1.1-1.1H13.102L13.102,9.008z M20.5,32.442c-0.828,0-1.5,0.671-1.5,1.5c0,0.828,0.671,1.5,1.5,1.5
	s1.5-0.672,1.5-1.5C21.999,33.114,21.328,32.442,20.5,32.442L20.5,32.442z M20.5,5.009c-0.548,0-0.993,0.445-0.993,0.993
	s0.445,0.993,0.993,0.993c0.548,0,0.993-0.445,0.993-0.993S21.048,5.009,20.5,5.009z"/>
</svg>
