<?xml version="1.0" encoding="iso-8859-1"?>
<!-- Generator: Adobe Illustrator 16.0.2, SVG Export Plug-In . SVG Version: 6.00 Build 0)  -->
<!DOCTYPE svg PUBLIC "-//W3C//DTD SVG 1.1//EN" "http://www.w3.org/Graphics/SVG/1.1/DTD/svg11.dtd">
<svg version="1.1" id="co_x5F_devices" xmlns="http://www.w3.org/2000/svg" xmlns:xlink="http://www.w3.org/1999/xlink" x="0px"
	 y="0px" width="40px" height="40px" viewBox="0 0 40 40" style="enable-background:new 0 0 40 40;" xml:space="preserve">
<path style="fill-rule:evenodd;clip-rule:evenodd;" d="M24.864,30.161l1.559,2.923c2.608,4.891,10.55,3.278,10.55-2.587
	c0-4.447,0-7.923,0-12.37c0-3.394-2.767-6.162-6.159-6.162H9.141c-3.392,0-6.159,2.768-6.159,6.162c0,4.446,0,7.922,0,12.37
	c0,5.864,7.942,7.48,10.55,2.587l1.559-2.923c0.393-0.736,1.107-1.165,1.941-1.165h5.892C23.757,28.996,24.472,29.425,24.864,30.161
	L24.864,30.161z M11.31,15.966h1.349c0.728,0,1.32,0.593,1.32,1.321v1.68h1.68c0.727,0,1.32,0.593,1.32,1.32v1.359
	c0,0.728-0.593,1.321-1.32,1.321h-1.68v1.68c0,0.728-0.592,1.32-1.32,1.32H11.31c-0.727,0-1.32-0.592-1.32-1.32v-1.68H8.3
	c-0.727,0-1.32-0.593-1.32-1.321v-1.359c0-0.728,0.593-1.32,1.32-1.32h1.69v-1.68C9.99,16.559,10.583,15.966,11.31,15.966
	L11.31,15.966z M30.043,22.051c-0.649-0.649-0.649-1.703,0-2.353c0.649-0.649,1.703-0.649,2.352,0c0.649,0.65,0.649,1.703,0,2.353
	C31.746,22.701,30.692,22.701,30.043,22.051L30.043,22.051z M23.555,22.051c-0.649-0.649-0.649-1.703,0-2.353
	c0.649-0.649,1.702-0.649,2.351,0c0.65,0.65,0.65,1.703,0,2.353C25.257,22.701,24.205,22.701,23.555,22.051L23.555,22.051z
	 M26.799,22.944c0.649-0.65,1.702-0.65,2.352,0c0.649,0.649,0.649,1.703,0,2.353c-0.649,0.649-1.703,0.649-2.352,0
	C26.15,24.647,26.15,23.593,26.799,22.944L26.799,22.944z M26.799,16.453c0.649-0.649,1.702-0.649,2.352,0
	c0.649,0.65,0.649,1.703,0,2.353c-0.649,0.65-1.703,0.65-2.352,0C26.15,18.156,26.15,17.104,26.799,16.453L26.799,16.453z
	 M19.738,2.964h0.479c0.969,0,1.76,0.791,1.76,1.761v3.479c0,0.97-0.791,1.761-1.76,1.761h-0.479c-0.969,0-1.76-0.792-1.76-1.761
	V4.725C17.978,3.755,18.769,2.964,19.738,2.964z"/>
</svg>
