<?xml version="1.0" encoding="iso-8859-1"?>
<!-- Generator: Adobe Illustrator 16.0.2, SVG Export Plug-In . SVG Version: 6.00 Build 0)  -->
<!DOCTYPE svg PUBLIC "-//W3C//DTD SVG 1.1//EN" "http://www.w3.org/Graphics/SVG/1.1/DTD/svg11.dtd">
<svg version="1.1" id="co_x5F_devices" xmlns="http://www.w3.org/2000/svg" xmlns:xlink="http://www.w3.org/1999/xlink" x="0px"
	 y="0px" width="40px" height="40px" viewBox="0 0 40 40" style="enable-background:new 0 0 40 40;" xml:space="preserve">
<path style="fill-rule:evenodd;clip-rule:evenodd;" d="M11.393,1.993h17.196c2.423,0,4.399,1.978,4.399,4.401v27.203
	c0,2.425-1.977,4.402-4.399,4.402H11.394c-2.423,0-4.4-1.977-4.4-4.402V6.395C6.994,3.971,8.97,1.993,11.393,1.993L11.393,1.993z
	 M20.015,21.809c-2.052,0-3.716,1.665-3.716,3.718c0,2.052,1.664,3.717,3.716,3.717c2.053,0,3.716-1.665,3.716-3.717
	C23.73,23.473,22.067,21.809,20.015,21.809L20.015,21.809z M19.984,7.979c-1.091,0-1.976,0.886-1.976,1.977
	c0,1.092,0.884,1.977,1.976,1.977c1.09,0,1.975-0.885,1.975-1.977C21.959,8.865,21.074,7.979,19.984,7.979L19.984,7.979z
	 M19.984,4.98c-2.747,0-4.975,2.228-4.975,4.976s2.228,4.977,4.975,4.977c2.747,0,4.974-2.229,4.974-4.977S22.73,4.98,19.984,4.98
	L19.984,4.98z M20.015,16.809c-4.812,0-8.714,3.904-8.714,8.718c0,4.814,3.902,8.719,8.714,8.719c4.813,0,8.715-3.904,8.715-8.719
	C28.729,20.712,24.827,16.809,20.015,16.809z"/>
</svg>
