<?xml version="1.0" encoding="iso-8859-1"?>
<!-- Generator: Adobe Illustrator 16.0.2, SVG Export Plug-In . SVG Version: 6.00 Build 0)  -->
<!DOCTYPE svg PUBLIC "-//W3C//DTD SVG 1.1//EN" "http://www.w3.org/Graphics/SVG/1.1/DTD/svg11.dtd">
<svg version="1.1" id="co_x5F_devices" xmlns="http://www.w3.org/2000/svg" xmlns:xlink="http://www.w3.org/1999/xlink" x="0px"
	 y="0px" width="40px" height="40px" viewBox="0 0 40 40" style="enable-background:new 0 0 40 40;" xml:space="preserve">
<path style="fill-rule:evenodd;clip-rule:evenodd;" d="M6.405,2h27.193c2.424,0,4.399,1.976,4.399,4.399v18.195
	c0,2.424-1.976,4.4-4.399,4.4H22.001v4.999h2.239c0.97,0,1.76,0.791,1.76,1.76v0.479c0,0.969-0.79,1.759-1.76,1.759h-9.478
	c-0.969,0-1.76-0.79-1.76-1.759v-0.479c0-0.969,0.791-1.76,1.76-1.76h2.239v-4.999H6.405c-2.423,0-4.399-1.976-4.399-4.4V6.399
	C2.005,3.976,3.981,2,6.405,2L6.405,2z M6.004,5.998v18.997h27.994V5.998H6.004z"/>
</svg>
