<?xml version="1.0" encoding="iso-8859-1"?>
<!-- Generator: Adobe Illustrator 16.0.2, SVG Export Plug-In . SVG Version: 6.00 Build 0)  -->
<!DOCTYPE svg PUBLIC "-//W3C//DTD SVG 1.1//EN" "http://www.w3.org/Graphics/SVG/1.1/DTD/svg11.dtd">
<svg version="1.1" id="co_x5F_education_x5F_1_x5C_2"
	 xmlns="http://www.w3.org/2000/svg" xmlns:xlink="http://www.w3.org/1999/xlink" x="0px" y="0px" width="40px" height="40px"
	 viewBox="0 0 40 40" style="enable-background:new 0 0 40 40;" xml:space="preserve">
<path style="fill-rule:evenodd;clip-rule:evenodd;" d="M13.185,24.701c1.651-0.653,3.346-0.761,4.825-0.465V5.389
	c0-0.918,0.486-1.705,1.308-2.116c0.821-0.41,1.743-0.327,2.478,0.225c1.158,0.868,2.456,1.657,3.982,2.675
	c5.078,3.386,10.527,10.278,3.462,19.023c2.152-7.992-2.105-10.944-7.229-13.116v17.304h-0.017c-0.186,2.377-1.728,4.773-4.63,5.921
	c-3.752,1.483-7.888,0.32-9.042-2.599C7.169,29.786,9.432,26.185,13.185,24.701z"/>
</svg>
