<?xml version="1.0" encoding="iso-8859-1"?>
<!-- Generator: Adobe Illustrator 16.0.2, SVG Export Plug-In . SVG Version: 6.00 Build 0)  -->
<!DOCTYPE svg PUBLIC "-//W3C//DTD SVG 1.1//EN" "http://www.w3.org/Graphics/SVG/1.1/DTD/svg11.dtd">
<svg version="1.1" id="co_x5F_devices" xmlns="http://www.w3.org/2000/svg" xmlns:xlink="http://www.w3.org/1999/xlink" x="0px"
	 y="0px" width="40px" height="40px" viewBox="0 0 40 40" style="enable-background:new 0 0 40 40;" xml:space="preserve">
<path style="fill-rule:evenodd;clip-rule:evenodd;" d="M15.549,5.996h8.891c1.622,0,3.015,0.808,3.82,2.217l2.161,3.782h2.17
	c2.423,0,4.399,1.976,4.399,4.399v12.197c0,2.422-1.976,4.399-4.399,4.399H7.398c-2.423,0-4.399-1.977-4.399-4.399V16.394
	c0-2.423,1.977-4.399,4.399-4.399h2.17l2.161-3.782C12.534,6.804,13.927,5.996,15.549,5.996L15.549,5.996z M16.875,8.996
	c-0.484,0-0.88,0.394-0.88,0.879v0.24c0,0.484,0.396,0.879,0.88,0.879h6.238c0.485,0,0.88-0.395,0.88-0.879v-0.24
	c0-0.485-0.395-0.879-0.88-0.879H16.875L16.875,8.996z M19.995,13.994c-4.417,0-7.998,3.582-7.998,7.999
	c0,4.417,3.582,7.999,7.998,7.999s7.998-3.582,7.998-7.999C27.993,17.575,24.411,13.994,19.995,13.994L19.995,13.994z
	 M19.995,21.992l-4.531-2.113c-0.308,0.662-0.468,1.383-0.468,2.113c0,2.761,2.239,4.999,4.999,4.999s4.999-2.238,4.999-4.999
	c0-2.76-2.239-4.999-4.999-4.999c-0.583,0-1.162,0.102-1.709,0.301L19.995,21.992z"/>
</svg>
