<?xml version="1.0" encoding="iso-8859-1"?>
<!-- Generator: Adobe Illustrator 16.0.2, SVG Export Plug-In . SVG Version: 6.00 Build 0)  -->
<!DOCTYPE svg PUBLIC "-//W3C//DTD SVG 1.1//EN" "http://www.w3.org/Graphics/SVG/1.1/DTD/svg11.dtd">
<svg version="1.1" id="co_x5F_education_x5F_1_x5C_2"
	 xmlns="http://www.w3.org/2000/svg" xmlns:xlink="http://www.w3.org/1999/xlink" x="0px" y="0px" width="40px" height="40px"
	 viewBox="0 0 40 40" style="enable-background:new 0 0 40 40;" xml:space="preserve">
<path style="fill-rule:evenodd;clip-rule:evenodd;" d="M5.835,30.642l9.166-3.727h0.001v-2.499c-0.71-0.588-1.326-1.335-1.867-2.233
	c-0.841-1.397-1.145-3.084-1.146-4.903h0.004v-0.003v-0.002H11.99V13.54l-5.564-2.733c-0.378-0.192-0.602-0.556-0.602-0.98
	s0.223-0.788,0.602-0.98l12.569-6.388c0.324-0.164,0.674-0.164,0.997,0l13.408,6.864c0.377,0.191,0.6,0.554,0.602,0.977
	l-0.008,5.716c0.616,0.218,1.09,0.806,1.09,1.496c0,0.877-0.712,1.589-1.589,1.589c-0.876,0-1.588-0.712-1.588-1.589
	c0-0.691,0.474-1.278,1.091-1.497v-5.495l-6.002,3.021v3.732h-0.004v0.004v0.002h0.004c0,1.818-0.305,3.507-1.146,4.904
	c-0.532,0.884-1.144,1.664-1.867,2.285v2.447h0.002l9.165,3.727c1.478,0.6,2.302,2.125,1.995,3.689
	c-0.305,1.564-1.644,2.666-3.238,2.666H7.078c-1.594,0-2.932-1.102-3.238-2.666S4.359,31.241,5.835,30.642z"/>
</svg>
