<?xml version="1.0" encoding="iso-8859-1"?>
<!-- Generator: Adobe Illustrator 16.0.2, SVG Export Plug-In . SVG Version: 6.00 Build 0)  -->
<!DOCTYPE svg PUBLIC "-//W3C//DTD SVG 1.1//EN" "http://www.w3.org/Graphics/SVG/1.1/DTD/svg11.dtd">
<svg version="1.1" id="co_x5F_devices" xmlns="http://www.w3.org/2000/svg" xmlns:xlink="http://www.w3.org/1999/xlink" x="0px"
	 y="0px" width="40px" height="40px" viewBox="0 0 40 40" style="enable-background:new 0 0 40 40;" xml:space="preserve">
<path style="fill-rule:evenodd;clip-rule:evenodd;" d="M33.991,12.515v0.604c0,0.484-0.395,0.88-0.88,0.88h-1.238
	c-0.485,0-0.88-0.396-0.88-0.88v-0.244c0-0.485-0.396-0.88-0.88-0.88H16.876c-0.485,0-0.88,0.395-0.88,0.88v0.244
	c0,0.484-0.396,0.88-0.881,0.88h-1.238c-0.485,0-0.88-0.396-0.88-0.88v-0.604c0-1.939,1.58-3.521,3.519-3.521
	c4.864,0,9.093,0,13.957,0C32.411,8.995,33.991,10.576,33.991,12.515L33.991,12.515z M12.997,24.012
	c1.648,0,2.984,1.337,2.984,2.985c0,1.648-1.336,2.984-2.984,2.984c-1.647,0-2.983-1.336-2.983-2.984
	C10.014,25.349,11.35,24.012,12.997,24.012L12.997,24.012z M6.398,15.996c-2.423,0-4.399,1.977-4.399,4.401v13.202
	c0,2.424,1.977,4.401,4.399,4.401h26.193c2.423,0,4.399-1.977,4.399-4.401V20.396c0-2.424-1.977-4.401-4.399-4.401H6.398
	L6.398,15.996z M12.997,19.997c-3.864,0-6.998,3.135-6.998,7.001c0,3.866,3.134,7.001,6.998,7.001s6.998-3.135,6.998-7.001
	C19.995,23.131,16.861,19.997,12.997,19.997L12.997,19.997z M31.873,19.997h0.239c0.484,0,0.88,0.396,0.88,0.88v0.24
	c0,0.485-0.396,0.881-0.88,0.881h-0.239c-0.485,0-0.88-0.396-0.88-0.881v-0.24C30.993,20.392,31.388,19.997,31.873,19.997
	L31.873,19.997z M27.874,19.997h0.239c0.484,0,0.88,0.396,0.88,0.88v0.24c0,0.485-0.396,0.881-0.88,0.881h-0.239
	c-0.485,0-0.88-0.396-0.88-0.881v-0.24C26.994,20.392,27.389,19.997,27.874,19.997L27.874,19.997z M23.875,31.998h8.237
	c0.484,0,0.88,0.396,0.88,0.88v0.24c0,0.485-0.396,0.88-0.88,0.88h-8.237c-0.485,0-0.881-0.396-0.881-0.88v-0.24
	C22.994,32.394,23.39,31.998,23.875,31.998L23.875,31.998z M23.875,27.998h8.237c0.484,0,0.88,0.396,0.88,0.88v0.24
	c0,0.484-0.396,0.88-0.88,0.88h-8.237c-0.485,0-0.881-0.396-0.881-0.88v-0.24C22.994,28.394,23.39,27.998,23.875,27.998
	L23.875,27.998z M23.875,23.997h8.237c0.484,0,0.88,0.396,0.88,0.88v0.239c0,0.485-0.396,0.881-0.88,0.881h-8.237
	c-0.485,0-0.881-0.396-0.881-0.881v-0.239C22.994,24.393,23.39,23.997,23.875,23.997L23.875,23.997z M23.875,19.997h0.239
	c0.484,0,0.88,0.396,0.88,0.88v0.24c0,0.485-0.396,0.881-0.88,0.881h-0.239c-0.485,0-0.881-0.396-0.881-0.881v-0.24
	C22.994,20.392,23.39,19.997,23.875,19.997L23.875,19.997z M5.879,10.995h1.119V7.823c-0.65-0.229-1.227-0.684-1.599-1.329
	C4.571,5.06,5.063,3.224,6.498,2.396s3.27-0.337,4.098,1.098s-0.3,3.639-1.098,4.099c-0.799,0.461-0.33,0.17-0.5,0.231v3.171h1.119
	c0.484,0,0.88,0.395,0.88,0.881v1.244c0,0.484-0.396,0.88-0.88,0.88H5.879c-0.485,0-0.88-0.396-0.88-0.88v-1.244
	C4.999,11.39,5.394,10.995,5.879,10.995z"/>
</svg>
