<?xml version="1.0" encoding="iso-8859-1"?>
<!-- Generator: Adobe Illustrator 16.0.2, SVG Export Plug-In . SVG Version: 6.00 Build 0)  -->
<!DOCTYPE svg PUBLIC "-//W3C//DTD SVG 1.1//EN" "http://www.w3.org/Graphics/SVG/1.1/DTD/svg11.dtd">
<svg version="1.1" id="co_x5F_education_x5F_1_x5C_2"
	 xmlns="http://www.w3.org/2000/svg" xmlns:xlink="http://www.w3.org/1999/xlink" x="0px" y="0px" width="40px" height="40px"
	 viewBox="0 0 40 40" style="enable-background:new 0 0 40 40;" xml:space="preserve">
<path style="fill-rule:evenodd;clip-rule:evenodd;" d="M6.09,19.013h4.918l3.999-3.999v-4.999h-2.406
	c-0.273,0-0.505-0.156-0.61-0.408c-0.104-0.251-0.05-0.525,0.143-0.719l7.405-7.404c0.257-0.258,0.677-0.258,0.933,0l7.405,7.404
	c0.193,0.193,0.248,0.468,0.144,0.719c-0.104,0.252-0.337,0.408-0.61,0.408h-2.406v4.999l3.999,3.999h4.919
	c1.696,0,3.08,1.383,3.08,3.08v13.036c0,0.484-0.396,0.88-0.88,0.88H3.89c-0.485,0-0.88-0.396-0.88-0.88V22.093
	C3.01,20.396,4.393,19.013,6.09,19.013L6.09,19.013z M29.004,26.011h0.876c0.363,0,0.674-0.208,0.813-0.543
	c0.139-0.336,0.066-0.701-0.191-0.959l-9.873-9.873c-0.342-0.343-0.902-0.343-1.244,0l-9.873,9.873
	c-0.257,0.258-0.33,0.623-0.191,0.959s0.449,0.543,0.813,0.543h0.875v7.998h5.999v-8.998h5.999v8.998h5.999V26.011L29.004,26.011z
	 M8.009,31.987v-3.977H5.01v3.977H8.009L8.009,31.987z M35.003,31.987v-3.977h-3v3.977H35.003L35.003,31.987z M21.006,28.011v2.999
	h1v-2.999H21.006L21.006,28.011z M22.006,23.012v-4.009h-3.999v4.009H22.006z"/>
</svg>
