<?xml version="1.0" encoding="iso-8859-1"?>
<!-- Generator: Adobe Illustrator 16.0.2, SVG Export Plug-In . SVG Version: 6.00 Build 0)  -->
<!DOCTYPE svg PUBLIC "-//W3C//DTD SVG 1.1//EN" "http://www.w3.org/Graphics/SVG/1.1/DTD/svg11.dtd">
<svg version="1.1" id="co_x5F_finance" xmlns="http://www.w3.org/2000/svg" xmlns:xlink="http://www.w3.org/1999/xlink" x="0px"
	 y="0px" width="40px" height="40px" viewBox="0 0 40 40" style="enable-background:new 0 0 40 40;" xml:space="preserve">
<path style="fill-rule:evenodd;clip-rule:evenodd;" d="M36,37h-3c-0.553,0-1-0.447-1-1V24c0-0.552,0.447-1,1-1h3
	c0.553,0,1,0.448,1,1v12C37,36.552,36.553,37,36,37z M28,37H13c-1.104,0-2-0.895-2-2V5c0-1.104,0.896-2,2-2h15c1.105,0,2,0.896,2,2
	v30C30,36.104,29.105,37,28,37z M17.008,6.63c0-0.364-0.297-0.66-0.659-0.66h-1.68c-0.364,0-0.66,0.296-0.66,0.66v1.68
	c0,0.363,0.296,0.659,0.66,0.659h1.68c0.362,0,0.659-0.296,0.659-0.659V6.63z M17.008,11.628c0-0.363-0.297-0.66-0.659-0.66h-1.68
	c-0.364,0-0.66,0.296-0.66,0.66v1.679c0,0.364,0.296,0.661,0.66,0.661h1.68c0.362,0,0.659-0.296,0.659-0.661V11.628z M17.008,16.628
	c0-0.363-0.297-0.66-0.659-0.66h-1.68c-0.364,0-0.66,0.296-0.66,0.66v1.679c0,0.363,0.296,0.659,0.66,0.659h1.68
	c0.362,0,0.659-0.296,0.659-0.659V16.628z M17.008,21.627c0-0.364-0.297-0.661-0.659-0.661h-1.68c-0.364,0-0.66,0.297-0.66,0.661
	v1.679c0,0.363,0.296,0.66,0.66,0.66h1.68c0.362,0,0.659-0.297,0.659-0.66V21.627z M17.008,26.625c0-0.363-0.297-0.661-0.659-0.661
	h-1.68c-0.364,0-0.66,0.297-0.66,0.661v1.679c0,0.364,0.296,0.66,0.66,0.66h1.68c0.362,0,0.659-0.296,0.659-0.66V26.625z
	 M17.008,31.624c0-0.363-0.297-0.659-0.659-0.659h-1.68c-0.364,0-0.66,0.296-0.66,0.659v1.68c0,0.363,0.296,0.659,0.66,0.659h1.68
	c0.362,0,0.659-0.296,0.659-0.659V31.624z M22.008,6.63c0-0.364-0.297-0.66-0.66-0.66h-1.68c-0.363,0-0.66,0.296-0.66,0.66v1.68
	c0,0.363,0.297,0.659,0.66,0.659h1.68c0.363,0,0.66-0.296,0.66-0.659V6.63z M22.008,11.628c0-0.363-0.297-0.66-0.66-0.66h-1.68
	c-0.363,0-0.66,0.296-0.66,0.66v1.679c0,0.364,0.297,0.661,0.66,0.661h1.68c0.363,0,0.66-0.296,0.66-0.661V11.628z M22.008,16.628
	c0-0.363-0.297-0.66-0.66-0.66h-1.68c-0.363,0-0.66,0.296-0.66,0.66v1.679c0,0.363,0.297,0.659,0.66,0.659h1.68
	c0.363,0,0.66-0.296,0.66-0.659V16.628z M22.008,21.627c0-0.364-0.297-0.661-0.66-0.661h-1.68c-0.363,0-0.66,0.297-0.66,0.661v1.679
	c0,0.363,0.297,0.66,0.66,0.66h1.68c0.363,0,0.66-0.297,0.66-0.66V21.627z M22.008,26.625c0-0.363-0.297-0.661-0.66-0.661h-1.68
	c-0.363,0-0.66,0.297-0.66,0.661v1.679c0,0.364,0.297,0.66,0.66,0.66h1.68c0.363,0,0.66-0.296,0.66-0.66V26.625z M22.008,31.624
	c0-0.363-0.297-0.659-0.66-0.659h-1.68c-0.363,0-0.66,0.296-0.66,0.659v1.68c0,0.363,0.297,0.659,0.66,0.659h1.68
	c0.363,0,0.66-0.296,0.66-0.659V31.624z M27.006,6.63c0-0.364-0.297-0.66-0.66-0.66h-1.68c-0.363,0-0.66,0.296-0.66,0.66v1.68
	c0,0.363,0.297,0.659,0.66,0.659h1.68c0.363,0,0.66-0.296,0.66-0.659V6.63z M27.006,11.628c0-0.363-0.297-0.66-0.66-0.66h-1.68
	c-0.363,0-0.66,0.296-0.66,0.66v1.679c0,0.364,0.297,0.661,0.66,0.661h1.68c0.363,0,0.66-0.296,0.66-0.661V11.628z M27.006,16.628
	c0-0.363-0.297-0.66-0.66-0.66h-1.68c-0.363,0-0.66,0.296-0.66,0.66v1.679c0,0.363,0.297,0.659,0.66,0.659h1.68
	c0.363,0,0.66-0.296,0.66-0.659V16.628z M27.006,21.627c0-0.364-0.297-0.661-0.66-0.661h-1.68c-0.363,0-0.66,0.297-0.66,0.661v1.679
	c0,0.363,0.297,0.66,0.66,0.66h1.68c0.363,0,0.66-0.297,0.66-0.66V21.627z M27.006,26.625c0-0.363-0.297-0.661-0.66-0.661h-1.68
	c-0.363,0-0.66,0.297-0.66,0.661v1.679c0,0.364,0.297,0.66,0.66,0.66h1.68c0.363,0,0.66-0.296,0.66-0.66V26.625z M27.006,31.624
	c0-0.363-0.297-0.659-0.66-0.659h-1.68c-0.363,0-0.66,0.296-0.66,0.659v1.68c0,0.363,0.297,0.659,0.66,0.659h1.68
	c0.363,0,0.66-0.296,0.66-0.659V31.624z M8,37H5c-0.553,0-1-0.447-1-1V24c0-0.552,0.447-1,1-1h3c0.553,0,1,0.448,1,1v12
	C9,36.552,8.553,37,8,37z"/>
</svg>
