<?xml version="1.0" encoding="iso-8859-1"?>
<!-- Generator: Adobe Illustrator 16.0.2, SVG Export Plug-In . SVG Version: 6.00 Build 0)  -->
<!DOCTYPE svg PUBLIC "-//W3C//DTD SVG 1.1//EN" "http://www.w3.org/Graphics/SVG/1.1/DTD/svg11.dtd">
<svg version="1.1" id="co_x5F_education_x5F_1_x5C_2"
	 xmlns="http://www.w3.org/2000/svg" xmlns:xlink="http://www.w3.org/1999/xlink" x="0px" y="0px" width="40px" height="40px"
	 viewBox="0 0 40 40" style="enable-background:new 0 0 40 40;" xml:space="preserve">
<path style="fill-rule:evenodd;clip-rule:evenodd;" d="M32.708,32.694c-7.01,7.01-18.38,7.01-25.39,0
	c-7.01-7.011-7.01-18.381,0-25.392c7.01-7.01,18.38-7.01,25.39,0C39.719,14.313,39.719,25.684,32.708,32.694z M24.777,34.023
	l-1.299-0.95c-0.216-0.159-0.446-0.234-0.714-0.234l-5.573-0.018c-0.269,0-0.499,0.074-0.716,0.231l-1.304,0.943
	C18.277,35.069,21.668,35.079,24.777,34.023z M10.375,26.64l3.827,0.01c0.366,0,0.681-0.144,0.921-0.42l1.173-1.35
	c0.288-0.332,0.373-0.756,0.238-1.173l-1.281-3.942c-0.11-0.34-0.336-0.59-0.664-0.736l-1.992-0.883
	c-0.496-0.22-1.034-0.15-1.458,0.187l-2.651,2.111c-0.391,0.311-0.548,0.799-0.413,1.28l1.134,4.03
	C9.356,26.284,9.822,26.639,10.375,26.64z M7.25,21.432c-0.076-0.272-0.222-0.483-0.45-0.651l-1.564-1.15
	c-0.086,3.257,0.898,6.536,2.951,9.267l0.511-1.56c0.078-0.239,0.083-0.465,0.015-0.707L7.25,21.432z M9.56,9.571
	c-0.621,0.621-1.174,1.283-1.662,1.979l1.568,0.033c0.277,0.006,0.518-0.069,0.742-0.234l4.544-3.316
	c0.216-0.158,0.357-0.353,0.44-0.606l0.5-1.54C13.447,6.569,11.333,7.797,9.56,9.571z M19.657,12.189
	c0-0.401-0.176-0.747-0.501-0.983L16.09,8.979c-0.434-0.315-0.998-0.313-1.431,0.003l-3.535,2.58
	c-0.433,0.316-0.606,0.854-0.438,1.363l1.175,3.563c0.128,0.389,0.384,0.674,0.756,0.845l2.07,0.948
	c0.41,0.188,0.856,0.144,1.221-0.122l3.248-2.36c0.325-0.235,0.5-0.581,0.5-0.982V12.189z M17.863,24.799
	c-0.365,0-0.679,0.144-0.918,0.419L15.77,26.57c-0.287,0.331-0.373,0.755-0.239,1.171l1.138,3.528
	c0.165,0.51,0.618,0.841,1.153,0.842l4.314,0.013c0.535,0.002,0.991-0.327,1.158-0.836l1.161-3.529
	c0.136-0.412,0.054-0.832-0.226-1.164l-1.153-1.365c-0.239-0.282-0.558-0.431-0.929-0.431H17.863z M20.873,11.206
	c-0.325,0.236-0.501,0.582-0.501,0.983v2.626c0,0.401,0.176,0.747,0.501,0.982l3.244,2.359c0.365,0.264,0.811,0.309,1.221,0.12
	l2.154-0.985c0.318-0.146,0.538-0.392,0.648-0.725l1.202-3.644c0.168-0.509-0.004-1.046-0.438-1.362l-3.535-2.58
	c-0.434-0.316-0.997-0.317-1.432-0.002L20.873,11.206z M30.468,9.571c-1.751-1.751-3.831-2.97-6.042-3.658l0.492,1.513
	C25,7.68,25.142,7.874,25.357,8.032l4.543,3.316c0.224,0.165,0.465,0.24,0.743,0.234l1.487-0.032
	C31.644,10.855,31.09,10.192,30.468,9.571z M31.741,20.397l-2.949-2.182c-0.361-0.268-0.805-0.316-1.216-0.134l-2.146,0.95
	c-0.327,0.146-0.553,0.396-0.664,0.736l-1.278,3.936c-0.136,0.416-0.05,0.84,0.237,1.172l1.179,1.36
	c0.237,0.273,0.547,0.417,0.909,0.421l3.845,0.031c0.538,0.005,0.997-0.324,1.165-0.835l1.35-4.098
	C32.339,21.249,32.17,20.716,31.741,20.397z M33.051,21.372l-1.749,5.311c-0.083,0.254-0.084,0.496-0.002,0.752l0.492,1.529
	c2.052-2.698,3.054-5.939,3.003-9.17l-1.316,0.983C33.27,20.934,33.132,21.124,33.051,21.372z"/>
</svg>
