<?xml version="1.0" encoding="iso-8859-1"?>
<!-- Generator: Adobe Illustrator 16.0.2, SVG Export Plug-In . SVG Version: 6.00 Build 0)  -->
<!DOCTYPE svg PUBLIC "-//W3C//DTD SVG 1.1//EN" "http://www.w3.org/Graphics/SVG/1.1/DTD/svg11.dtd">
<svg version="1.1" id="co_x5F_devices" xmlns="http://www.w3.org/2000/svg" xmlns:xlink="http://www.w3.org/1999/xlink" x="0px"
	 y="0px" width="40px" height="40px" viewBox="0 0 40 40" style="enable-background:new 0 0 40 40;" xml:space="preserve">
<path style="fill-rule:evenodd;clip-rule:evenodd;" d="M15.831,13.99l8.353-0.001c1.211,0,2.254,0.432,3.11,1.29l8.421,8.42
	c0.856,0.857,1.289,1.899,1.289,3.111v2.776c0,2.422-1.977,4.399-4.399,4.399c-6.398,0-18.795,0-25.194,0
	c-2.423,0-4.399-1.977-4.399-4.399V26.81c0-1.212,0.432-2.253,1.288-3.111l8.42-8.42C13.577,14.421,14.619,13.99,15.831,13.99
	L15.831,13.99z M8.41,5.991c-2.423,0-4.399,1.977-4.399,4.4c0,1.132,0,2.265,0,3.398c0,1.212,0.988,2.2,2.199,2.2h1.888
	c0.606,0,1.127-0.216,1.556-0.644l3.355-3.355h13.997l3.339,3.34c0.438,0.437,0.973,0.654,1.592,0.644l1.903-0.031
	c1.199-0.02,2.164-1,2.164-2.199c0-1.118,0-2.235,0-3.352c0-2.424-1.977-4.4-4.4-4.4H8.41L8.41,5.991z M20.007,16.989
	c-3.865,0-6.999,3.134-6.999,6.999c0,3.864,3.134,6.999,6.999,6.999c3.864,0,6.999-3.134,6.999-6.999
	C27.006,20.123,23.872,16.989,20.007,16.989L20.007,16.989z M20.007,20.988c-1.656,0-2.999,1.344-2.999,3
	c0,1.655,1.343,2.999,2.999,2.999s3-1.344,3-2.999C23.007,22.332,21.664,20.988,20.007,20.988z"/>
</svg>
