<?xml version="1.0" encoding="iso-8859-1"?>
<!-- Generator: Adobe Illustrator 16.0.2, SVG Export Plug-In . SVG Version: 6.00 Build 0)  -->
<!DOCTYPE svg PUBLIC "-//W3C//DTD SVG 1.1//EN" "http://www.w3.org/Graphics/SVG/1.1/DTD/svg11.dtd">
<svg version="1.1" id="co_x5F_devices" xmlns="http://www.w3.org/2000/svg" xmlns:xlink="http://www.w3.org/1999/xlink" x="0px"
	 y="0px" width="40px" height="40px" viewBox="0 0 40 40" style="enable-background:new 0 0 40 40;" xml:space="preserve">
<path style="fill-rule:evenodd;clip-rule:evenodd;" d="M8.397,13.997h9.597L9.93,5.932c-0.514-0.514-0.514-1.352,0-1.866
	l0.133-0.133c0.515-0.514,1.353-0.515,1.867,0l8.064,8.064l8.064-8.064c0.514-0.515,1.353-0.515,1.866,0l0.133,0.133
	c0.514,0.514,0.514,1.353,0,1.866l-8.065,8.065h9.598c2.423,0,4.399,1.976,4.399,4.399v14.197c0,2.423-1.977,4.399-4.399,4.399
	H8.397c-2.423,0-4.399-1.976-4.399-4.399V18.396C3.998,15.973,5.974,13.997,8.397,13.997L8.397,13.997z M9.757,17.996
	c-0.969,0-1.76,0.791-1.76,1.76v2.239v9.238c0,0.969,0.792,1.759,1.76,1.759h17.476c0.969,0,1.76-0.792,1.76-1.759V19.756
	c0-0.969-0.791-1.76-1.76-1.76H9.757L9.757,17.996z M32.432,28.27c-0.818,0-1.481,0.672-1.481,1.501s0.664,1.501,1.481,1.501
	s1.481-0.672,1.481-1.501S33.25,28.27,32.432,28.27L32.432,28.27z M32.432,23.992c-0.818,0-1.481,0.672-1.481,1.502
	c0,0.828,0.664,1.5,1.481,1.5s1.481-0.672,1.481-1.5C33.913,24.664,33.25,23.992,32.432,23.992L32.432,23.992z M32.432,19.714
	c-0.818,0-1.481,0.672-1.481,1.501s0.664,1.5,1.481,1.5s1.481-0.671,1.481-1.5S33.25,19.714,32.432,19.714z"/>
</svg>
