<?xml version="1.0" encoding="iso-8859-1"?>
<!-- Generator: Adobe Illustrator 16.0.2, SVG Export Plug-In . SVG Version: 6.00 Build 0)  -->
<!DOCTYPE svg PUBLIC "-//W3C//DTD SVG 1.1//EN" "http://www.w3.org/Graphics/SVG/1.1/DTD/svg11.dtd">
<svg version="1.1" id="co_x5F_devices" xmlns="http://www.w3.org/2000/svg" xmlns:xlink="http://www.w3.org/1999/xlink" x="0px"
	 y="0px" width="40px" height="40px" viewBox="0 0 40 40" style="enable-background:new 0 0 40 40;" xml:space="preserve">
<path style="fill-rule:evenodd;clip-rule:evenodd;" d="M26.976,12.229l6.504-4.848c0.583-0.434,1.366-0.408,1.92,0.064
	c0.351,0.299,0.573,0.734,0.573,1.29v11.478c0,0.554-0.223,0.989-0.571,1.289c-0.554,0.473-1.338,0.5-1.922,0.065l-6.504-4.848
	v2.254c0,1.65-1.35,3-3,3h-3.491l3.899,7.149c0.345,0.631,0.331,1.341-0.035,1.959c-0.367,0.618-0.984,0.969-1.703,0.969h-0.493
	c-0.744,0-1.382-0.379-1.738-1.032l-4.934-9.046h-0.005l-4.934,9.046c-0.356,0.653-0.994,1.032-1.738,1.032H8.32
	c-0.718,0-1.335-0.352-1.702-0.969c-0.367-0.618-0.38-1.328-0.036-1.959l3.899-7.149H6.98c-1.65,0-3-1.35-3-3V9.974
	c0-1.65,1.35-3,3-3h16.996c1.65,0,3,1.35,3,3V12.229z"/>
</svg>
