<?xml version="1.0" encoding="iso-8859-1"?>
<!-- Generator: Adobe Illustrator 16.0.2, SVG Export Plug-In . SVG Version: 6.00 Build 0)  -->
<!DOCTYPE svg PUBLIC "-//W3C//DTD SVG 1.1//EN" "http://www.w3.org/Graphics/SVG/1.1/DTD/svg11.dtd">
<svg version="1.1" id="co_x5F_devices" xmlns="http://www.w3.org/2000/svg" xmlns:xlink="http://www.w3.org/1999/xlink" x="0px"
	 y="0px" width="40px" height="40px" viewBox="0 0 40 40" style="enable-background:new 0 0 40 40;" xml:space="preserve">
<path style="fill-rule:evenodd;clip-rule:evenodd;" d="M20.003,17.985l-2.254-4.833c0.706-0.329,1.475-0.499,2.254-0.499
	c2.944,0,5.332,2.388,5.332,5.333s-2.388,5.332-5.332,5.332c-2.945,0-5.333-2.387-5.333-5.332c0-0.623,0.109-1.24,0.322-1.823
	L20.003,17.985L20.003,17.985z M27.155,29.861c4.021-2.427,6.71-6.838,6.71-11.876c0-7.656-6.207-13.864-13.862-13.864
	S6.139,10.33,6.139,17.985c0,5.038,2.69,9.449,6.711,11.876c-1.088,0.517-1.846,1.627-1.846,2.906l0,0
	c0,1.768,1.446,3.214,3.214,3.214h11.569c1.768,0,3.213-1.446,3.213-3.214l0,0C29,31.489,28.243,30.378,27.155,29.861L27.155,29.861
	z M20.003,9.454c-4.712,0-8.532,3.821-8.532,8.532s3.82,8.531,8.532,8.531c4.711,0,8.53-3.82,8.53-8.531S24.714,9.454,20.003,9.454z
	"/>
</svg>
