<?xml version="1.0" encoding="utf-8"?>
<!-- Generator: Adobe Illustrator 17.0.0, SVG Export Plug-In . SVG Version: 6.00 Build 0)  -->
<!DOCTYPE svg PUBLIC "-//W3C//DTD SVG 1.1//EN" "http://www.w3.org/Graphics/SVG/1.1/DTD/svg11.dtd">
<svg version="1.1" id="Layer_1" xmlns="http://www.w3.org/2000/svg" xmlns:xlink="http://www.w3.org/1999/xlink" x="0px" y="0px"
	 width="142.678px" height="143.789px" viewBox="0 0 142.678 143.789" enable-background="new 0 0 142.678 143.789"
	 xml:space="preserve">
<g>
	<path fill="#FFD15D" d="M142.678,121.682v22.107H0v-22.107c0-11.324,7.129-21.448,17.763-25.254l3.955-1.436l24.503-8.837
		l5.602-2.007V72.823c1.469,2.159,3.086,4.224,4.853,6.172l2.756,3.025c2.516,2.756,6.082,4.344,9.826,4.344h4.192
		c3.744,0,7.31-1.589,9.826-4.344l2.756-3.025c1.767-1.919,3.384-4.013,4.853-6.172v11.324l5.573,2.007l0.059,0.029l24.503,8.837
		l3.896,1.407C135.549,100.233,142.678,110.358,142.678,121.682"/>
	<path fill="#F7B64C" d="M51.852,84.132c0.24,0.33,0.211,0.33-0.029,0H51.852z"/>
	<path fill="#F7B64C" d="M90.885,84.132c-0.24,0.33-0.269,0.33-0.029,0H90.885z"/>
	<path fill="#F7B64C" d="M51.822,46.465c0.439,5.017-1.995,9.332-5.441,9.633c-3.443,0.298-6.591-3.522-7.027-8.542
		c-0.442-5.02,1.995-9.332,5.438-9.633C48.236,37.622,51.381,41.448,51.822,46.465"/>
	<path fill="#F7B64C" d="M103.361,47.556c-0.439,5.017-3.586,8.843-7.027,8.539c-3.446-0.298-5.88-4.613-5.441-9.63
		c0.439-5.02,3.587-8.843,7.027-8.542C101.366,38.225,103.803,42.54,103.361,47.556"/>
	<path fill="#FFD15D" d="M71.358,4.568c-15.987,0-28.949,12.962-28.949,28.949v8.691c0,2.217,0.137,4.435,0.412,6.629v0.009
		c1.372,11.248,6.216,21.782,13.86,30.146L59.423,82c2.522,2.764,6.091,4.341,9.832,4.341h4.192c3.738,0,7.307-1.574,9.829-4.335
		l2.756-3.013c7.647-8.364,12.488-18.912,13.872-30.155c0.278-2.206,0.404-4.411,0.404-6.629v-8.691
		C100.307,17.531,87.345,4.568,71.358,4.568z"/>
	<path fill="#425A6C" d="M100.31,42.411c0,0,2.598-20.141-28.946-20.141c-30.432,0-29.104,18.33-28.973,20.044
		c-1.398-10.335-1.398-21.083-1.398-21.083C44.53-1.847,71.364,0.037,71.364,0.037s26.831-1.884,30.359,21.194
		C101.723,21.231,101.723,32.049,100.31,42.411"/>
	<path fill="#F3715B" d="M121.019,95.02c-1.586,5.272-6.679,23.964-7.697,48.769H29.415c-0.986-24.833-6.108-43.555-7.697-48.798
		l24.503-8.837c2.188,8.627,4.283,15.428,6.442,21.03c6.41,16.443,29.687,16.774,36.754,0.597c2.487-5.66,4.824-12.67,7.1-21.598
		L121.019,95.02z"/>
	<path fill="#F3F3F3" d="M96.513,86.171c-2.273,8.955-4.619,15.935-7.097,21.61c-7.07,16.189-30.33,15.849-36.745-0.608
		c-2.182-5.588-4.25-12.403-6.439-21.022l-7.103,2.56c2.244,8.767,4.324,15.525,6.532,21.185
		c4.078,10.452,13.606,17.084,24.871,17.309c0.196,0.006,0.395,0.006,0.591,0.006c11.087,0,20.679-6.254,25.126-16.432
		c2.674-6.129,5.061-13.372,7.299-22.072L96.513,86.171z"/>
	<path fill="#F7B64C" d="M89.416,107.781c2.478-5.675,4.824-12.658,7.097-21.61l-0.056-0.029l-5.573-2.01V72.808
		c-2.13,3.42-7.969,9.502-8.135,9.665c-2.478,2.44-5.795,3.876-9.3,3.876h-4.192c-3.742,0-7.305-1.586-9.821-4.335L88,110.451
		C88.521,109.615,89.001,108.731,89.416,107.781"/>
</g>
</svg>
