<?xml version="1.0" encoding="utf-8"?>
<!-- Generator: Adobe Illustrator 21.0.0, SVG Export Plug-In . SVG Version: 6.00 Build 0)  -->
<svg version="1.1" id="Layer_1" xmlns="http://www.w3.org/2000/svg" xmlns:xlink="http://www.w3.org/1999/xlink" x="0px" y="0px"
	 viewBox="0 0 44 48" style="enable-background:new 0 0 44 48;" xml:space="preserve">
<style type="text/css">
	.st0{fill:#40596B;}
	.st1{fill:#4CDBC4;}
	.st2{fill:#F8B64C;}
	.st3{opacity:0.1;}
	.st4{clip-path:url(#SVGID_2_);fill:#40596B;}
	.st5{fill:#F2F2F2;}
	.st6{fill:#FFD15C;}
	.st7{fill:#3DC9AE;}
</style>
<g>
	<path class="st0" d="M35,14.1c0,7.1-5.8,12.9-12.9,12.9c-7.2,0-12.9-5.8-12.9-12.9C9.1,7,14.9,1.2,22.1,1.2C29.2,1.2,35,7,35,14.1"
		/>
	<path class="st1" d="M44,48H0l0.7-8.6c0.8-4.5,3.7-8.1,7.6-9.8c1.2-0.6,2.6-0.9,4-1.1h0c0.4-0.1,0.9-0.1,1.4-0.1h16.7
		c0.5,0,0.9,0,1.4,0.1c1.4,0.1,2.8,0.5,4,1.1c3.9,1.8,6.8,5.4,7.6,9.8L44,48z"/>
	<path class="st2" d="M31.7,28.5c0,0.4-0.1,0.8-0.3,1.3c-1.8,3.6-5.4,5.8-9.4,5.8c-4,0-7.6-2.2-9.4-5.8c-0.2-0.4-0.3-0.8-0.3-1.3
		c0.5,0,0.9-0.1,1.4-0.1h1.6v-2.9c3,3.9,6.8,4.3,6.8,4.3s3.7-0.4,6.7-4.2v2.9h1.6C30.8,28.4,31.3,28.4,31.7,28.5"/>
	<g class="st3">
		<g>
			<defs>
				<rect id="SVGID_1_" x="19" y="25.5" width="12.8" height="9.5"/>
			</defs>
			<clipPath id="SVGID_2_">
				<use xlink:href="#SVGID_1_"  style="overflow:visible;"/>
			</clipPath>
			<path class="st4" d="M31.7,28.5c-0.5,0-0.9-0.1-1.4-0.1h-1.6v-2.9c-3,3.9-6.7,4.2-6.7,4.2s-1.3-0.1-3-1.1c0,0,0,0,0,0l0,0
				l6.3,6.3c2.6-0.9,4.8-2.7,6.1-5.3C31.6,29.3,31.7,28.9,31.7,28.5"/>
		</g>
	</g>
	<path class="st5" d="M30.4,28.4c0.4,0,0.8,0,1.2,0.1C31.2,28.4,30.8,28.4,30.4,28.4"/>
	<path class="st5" d="M10.8,30.7c2.1,4.2,6.4,6.9,11.2,6.9c4.8,0,9.1-2.6,11.2-6.9c0.3-0.6,0.4-1.2,0.5-1.8c-0.6-0.2-1.3-0.3-2-0.4
		c0,0.4-0.1,0.8-0.3,1.3c-1.8,3.6-5.4,5.8-9.4,5.8c-4,0-7.6-2.2-9.4-5.8c-0.2-0.4-0.3-0.8-0.3-1.3c-0.7,0.1-1.3,0.2-2,0.4
		C10.4,29.5,10.5,30.1,10.8,30.7"/>
	<path class="st5" d="M12.4,28.5c0.4,0,0.8-0.1,1.2-0.1C13.2,28.4,12.8,28.4,12.4,28.5"/>
	<circle class="st6" cx="21.5" cy="27.9" r="0"/>
	<circle class="st6" cx="22" cy="16" r="0"/>
	<path class="st2" d="M13.5,15.4c0.4,1.7,0.2,3.2-0.5,3.4c-0.7,0.2-1.5-1.1-1.9-2.8c-0.4-1.7-0.2-3.2,0.5-3.4
		C12.2,12.5,13.1,13.7,13.5,15.4"/>
	<path class="st2" d="M30.5,15.4c-0.4,1.7-0.2,3.2,0.5,3.4c0.7,0.2,1.4-1.1,1.9-2.8c0.3-1,0.2-3-0.5-3.4
		C31.9,12.3,30.9,13.7,30.5,15.4"/>
	<path class="st6" d="M31.4,20.4c-2.8,8.7-9.4,9.4-9.4,9.4s-6.6-0.7-9.4-9.4c0,0-1.5-4.6-0.2-8.4c0,0,0.8-6.5,9.6-6.5
		s9.6,6.5,9.6,6.5C32.9,15.8,31.4,20.4,31.4,20.4"/>
	<polygon class="st7" points="9.6,48 7.9,48 9.6,39.8 	"/>
	<polygon class="st7" points="34.4,48 36.1,48 34.4,39.8 	"/>
	<path class="st0" d="M12.3,12.8L12.3,12.8c0,0,2.2,0.1,2.9,0c3.2-0.7,9.2-7,12-5.3c1.1,0.7,0.8,2.4,1.6,3.4
		c0.7,0.9,3.1,1.8,3.1,1.8c0-5.1-4.2-9.3-9.3-9.3h-1.1C16.4,3.5,12.3,7.6,12.3,12.8"/>
	<path class="st0" d="M13.9,1.3c-1.7-1.7-4.4-1.7-6.1,0C6.1,3,6.1,5.7,7.7,7.4c1.2,1.2,2.8,1.5,4.3,1.1c0,0.7,0.3,1.4,0.8,2L17,6.4
		c-0.5-0.5-1.3-0.8-2-0.8C15.4,4.1,15,2.4,13.9,1.3"/>
	<path class="st0" d="M30.2,1.3c1.7-1.7,4.4-1.7,6.1,0c1.7,1.7,1.7,4.4,0,6.1c-1.2,1.2-2.8,1.5-4.3,1.1c0,0.7-0.3,1.4-0.8,2
		l-4.1-4.1c0.5-0.5,1.3-0.8,2-0.8C28.7,4.1,29.1,2.4,30.2,1.3"/>
</g>
</svg>
