<?xml version="1.0" encoding="utf-8"?>
<!-- Generator: Adobe Illustrator 21.0.0, SVG Export Plug-In . SVG Version: 6.00 Build 0)  -->
<svg version="1.1" id="Layer_1" xmlns="http://www.w3.org/2000/svg" xmlns:xlink="http://www.w3.org/1999/xlink" x="0px" y="0px"
	 viewBox="0 0 47.6 48" style="enable-background:new 0 0 47.6 48;" xml:space="preserve">
<style type="text/css">
	.st0{fill:#F8B64C;}
	.st1{fill:#FFD15C;}
	.st2{fill:#FF7058;}
	.st3{fill:#CDD6E0;}
	.st4{fill:#ACB3BA;}
	.st5{fill:#40596B;}
	.st6{fill:#F2F2F2;}
	.st7{opacity:0.1;}
	.st8{clip-path:url(#SVGID_2_);fill:#40596B;}
</style>
<g>
	<path class="st0" d="M17.3,29.7C17.4,29.8,17.4,29.8,17.3,29.7L17.3,29.7z"/>
	<path class="st0" d="M30.3,29.7C30.3,29.8,30.2,29.8,30.3,29.7L30.3,29.7z"/>
	<path class="st0" d="M17.3,17.1c0.1,1.7-0.7,3.1-1.8,3.2c-1.1,0.1-2.2-1.2-2.3-2.9c-0.1-1.7,0.7-3.1,1.8-3.2
		C16.1,14.1,17.2,15.4,17.3,17.1"/>
	<path class="st0" d="M34.5,17.5c-0.1,1.7-1.2,3-2.3,2.9c-1.1-0.1-2-1.5-1.8-3.2c0.1-1.7,1.2-3,2.3-2.9
		C33.8,14.3,34.7,15.8,34.5,17.5"/>
	<path class="st1" d="M23.8,3.1c-5.3,0-9.7,4.3-9.7,9.7v2.9c0,0.7,0,1.5,0.1,2.2v0c0.5,3.8,2.1,7.3,4.6,10.1l0.9,1
		c0.8,0.9,2,1.4,3.3,1.4h1.4c1.2,0,2.4-0.5,3.3-1.4l0.9-1c2.6-2.8,4.2-6.3,4.6-10.1c0.1-0.7,0.1-1.5,0.1-2.2v-2.9
		C33.5,7.4,29.2,3.1,23.8,3.1"/>
	<path class="st0" d="M17.3,29.7c1.6,2.2,6.5,9.6,6.5,9.6s4.9-7.4,6.5-9.6h0v-3.8c-0.5,0.7-1,1.4-1.6,2.1l-0.9,1
		c-0.8,0.9-2,1.4-3.3,1.4h-1.4c-1.2,0-2.4-0.5-3.3-1.4l-0.9-1c-0.6-0.7-1.1-1.3-1.6-2.1L17.3,29.7L17.3,29.7z"/>
	<path class="st2" d="M41.7,33.8l-7.2-2.6c-1.9,5.5-5.5,10.5-10.7,14.3c-5.1-3.8-8.8-8.8-10.7-14.3l-7.2,2.6C2.4,35,0,38.4,0,42.2
		V48h47.6v-5.8C47.6,38.4,45.2,35,41.7,33.8"/>
	<path class="st3" d="M23.8,45.5c5.1-3.8,8.8-8.8,10.7-14.3l-4.2-1.5c-1.6,2.2-6.5,9.6-6.5,9.6s-4.9-7.4-6.5-9.6l-4.2,1.5
		C15,36.7,18.7,41.7,23.8,45.5"/>
	<polygon class="st4" points="24.6,34.6 23.8,39.3 26.8,37 	"/>
	<polygon class="st4" points="23,34.6 23.8,39.3 20.8,37 	"/>
	<path class="st5" d="M33.5,15.9c0,0-0.8-0.1-0.6-1.9c0,0,0.3-0.7,0-1.3c-0.4-0.9-0.6-1.9-0.8-2.9c-0.3-1.5-1-3.3-2.6-3.3
		c0,0-4.1,0.5-5.7,0.5c-1.6,0-5.7-0.5-5.7-0.5c-1.6,0.1-2.3,1.8-2.6,3.3c-0.2,1-0.4,2-0.8,2.9c-0.3,0.7,0,1.3,0,1.3
		c0.3,1.8-0.6,1.9-0.6,1.9c-2.2-1.7-0.8-8-0.8-8C15.7-0.5,23.8,0,23.8,0s8.1-0.5,10.5,7.9C34.3,7.9,35.7,14.3,33.5,15.9"/>
	<polygon class="st6" points="32.7,30.5 30.3,29.7 24.6,34.6 27.8,38.5 	"/>
	<polygon class="st6" points="14.9,30.5 17.3,29.7 23,34.6 19.9,38.5 	"/>
	<g class="st7">
		<g>
			<defs>
				<rect id="SVGID_1_" x="20.3" y="25.9" width="10" height="8.3"/>
			</defs>
			<clipPath id="SVGID_2_">
				<use xlink:href="#SVGID_1_"  style="overflow:visible;"/>
			</clipPath>
			<path class="st8" d="M28.7,28l-0.9,1c-0.8,0.9-2,1.5-3.3,1.5h-1.4c-1,0-2-0.4-2.8-1l0,0l4.8,4.8l5.2-4.5l0,0h0l0-3.8
				C29.8,26.6,29.3,27.3,28.7,28"/>
		</g>
	</g>
</g>
</svg>
