<?xml version="1.0" encoding="utf-8"?>
<!-- Generator: Adobe Illustrator 21.0.0, SVG Export Plug-In . SVG Version: 6.00 Build 0)  -->
<svg version="1.1" id="Layer_1" xmlns="http://www.w3.org/2000/svg" xmlns:xlink="http://www.w3.org/1999/xlink" x="0px" y="0px"
	 viewBox="0 0 355.3 285.4" style="enable-background:new 0 0 355.3 285.4;" xml:space="preserve">
<style type="text/css">
	.st0{fill:#4CDBC4;}
	.st1{fill:#3B5999;}
	.st2{fill:#E6E7E8;}
	.st3{fill:#F1F2F2;}
	.st4{fill:none;}
</style>
<g>
	<rect y="15.4" class="st0" width="355.3" height="270"/>
	<polygon class="st0" points="77.4,16.6 0.5,16.6 4.3,0 73.6,0 	"/>
	<rect x="8.7" y="26.3" class="st1" width="334.7" height="35"/>
	<rect x="8.7" y="61.3" class="st2" width="335.2" height="216.1"/>
	<rect x="28.9" y="61.3" class="st3" width="289.3" height="216.1"/>
	<g>
		<rect x="22.7" y="39.4" class="st4" width="141" height="27"/>
		<path class="st3" d="M22.7,39.4h15.5v10.3H22.7V39.4z"/>
		<path class="st3" d="M37.7,39.4h15.5v10.3H37.7V39.4z"/>
		<path class="st3" d="M52.7,39.4h15.5v10.3H52.7V39.4z"/>
		<path class="st3" d="M67.7,39.4h15.5v10.3H67.7V39.4z"/>
		<path class="st3" d="M82.7,39.4h15.5v10.3H82.7V39.4z"/>
		<path class="st3" d="M97.7,39.4h15.5v10.3H97.7V39.4z"/>
		<path class="st3" d="M112.7,39.4h15.5v10.3h-15.5V39.4z"/>
	</g>
</g>
</svg>
