<?xml version="1.0" encoding="utf-8"?>
<!-- Generator: Adobe Illustrator 17.0.0, SVG Export Plug-In . SVG Version: 6.00 Build 0)  -->
<!DOCTYPE svg PUBLIC "-//W3C//DTD SVG 1.1//EN" "http://www.w3.org/Graphics/SVG/1.1/DTD/svg11.dtd">
<svg version="1.1" id="Layer_1" xmlns="http://www.w3.org/2000/svg" xmlns:xlink="http://www.w3.org/1999/xlink" x="0px" y="0px"
	 width="655px" height="439.167px" viewBox="0 0 655 439.167" enable-background="new 0 0 655 439.167" xml:space="preserve">
<path fill="#D1D3D4" d="M655,427.167c0,6.627-5.373,12-12,12H12c-6.627,0-12-5.373-12-12V12C0,5.373,5.373,0,12,0h631
	c6.627,0,12,5.373,12,12V427.167z"/>
<circle fill="#BE1E2D" cx="14.583" cy="13.75" r="6.25"/>
<circle fill="#FBB040" cx="30.833" cy="13.75" r="6.25"/>
<circle fill="#00A651" cx="47.5" cy="13.75" r="6.25"/>
<rect x="8.333" y="28.333" fill="#F1F2F2" width="610.833" height="20.833"/>
<g>
	<polyline fill="#767677" points="635.714,37.199 626.333,45.269 626.333,29.129 	"/>
	<polyline opacity="0.8" fill="#767677" points="626.333,29.129 645.095,29.129 645.095,45.268 	"/>
	<polygon fill="#767677" points="635.661,44.67 629.313,50.371 629.309,44.985 635.657,39.283 	"/>
	<polygon opacity="0.8" fill="#767677" points="635.655,44.67 642.002,50.371 642.006,44.985 635.659,39.283 	"/>
</g>
<polygon fill="#BCBEC0" points="140.212,22.656 63.288,22.656 67.116,6.014 136.384,6.014 "/>
<rect x="8.333" y="61.333" fill="#E6E7E8" width="636.761" height="369"/>
<rect x="8.333" y="61.333" fill="#3B5999" width="636.761" height="35"/>
<rect x="91.667" y="96.333" fill="#F1F2F2" width="474" height="334"/>
<g>
	<rect x="21.167" y="73.333" fill="none" width="141" height="27"/>
	<path fill="#F1F2F2" d="M21.167,73.333h15.469v10.313H21.167V73.333z"/>
	<path fill="#F1F2F2" d="M36.167,73.333h15.469v10.313H36.167V73.333z"/>
	<path fill="#F1F2F2" d="M51.167,73.333h15.469v10.313H51.167V73.333z"/>
	<path fill="#F1F2F2" d="M66.167,73.333h15.469v10.313H66.167V73.333z"/>
	<path fill="#F1F2F2" d="M81.167,73.333h15.469v10.313H81.167V73.333z"/>
	<path fill="#F1F2F2" d="M96.167,73.333h15.469v10.313H96.167V73.333z"/>
	<path fill="#F1F2F2" d="M111.167,73.333h15.469v10.313h-15.469V73.333z"/>
</g>
<g>
	<rect x="116.167" y="280.333" fill="none" width="421.5" height="137"/>
	<path fill="#BCBEC0" d="M116.167,309.133h15.469v10.313h-15.469V309.133z"/>
	<path fill="#BCBEC0" d="M131.167,309.133h15.469v10.313h-15.469V309.133z"/>
	<path fill="#BCBEC0" d="M146.167,309.133h15.469v10.313h-15.469V309.133z"/>
	<path fill="#BCBEC0" d="M161.167,309.133h15.469v10.313h-15.469V309.133z"/>
	<path fill="#BCBEC0" d="M176.167,309.133h15.469v10.313h-15.469V309.133z"/>
	<path fill="#BCBEC0" d="M221.26,309.133h15.469v10.313H221.26V309.133z"/>
	<path fill="#BCBEC0" d="M236.26,309.133h15.469v10.313H236.26V309.133z"/>
	<path fill="#BCBEC0" d="M251.26,309.133h15.469v10.313H251.26V309.133z"/>
	<path fill="#BCBEC0" d="M266.26,309.133h15.469v10.313H266.26V309.133z"/>
	<path fill="#BCBEC0" d="M281.26,309.133h15.469v10.313H281.26V309.133z"/>
	<path fill="#BCBEC0" d="M326.354,309.133h15.469v10.313h-15.469V309.133z"/>
	<path fill="#BCBEC0" d="M341.354,309.133h15.469v10.313h-15.469V309.133z"/>
	<path fill="#BCBEC0" d="M356.354,309.133h15.469v10.313h-15.469V309.133z"/>
	<path fill="#BCBEC0" d="M371.354,309.133h15.469v10.313h-15.469V309.133z"/>
	<path fill="#BCBEC0" d="M386.354,309.133h15.469v10.313h-15.469V309.133z"/>
	<path fill="#BCBEC0" d="M431.448,309.133h15.469v10.313h-15.469V309.133z"/>
	<path fill="#BCBEC0" d="M446.448,309.133h15.469v10.313h-15.469V309.133z"/>
	<path fill="#BCBEC0" d="M461.448,309.133h15.469v10.313h-15.469V309.133z"/>
	<path fill="#BCBEC0" d="M506.542,309.133h15.469v10.313h-15.469V309.133z"/>
	<path fill="#BCBEC0" d="M116.167,337.933h15.469v10.313h-15.469V337.933z"/>
	<path fill="#BCBEC0" d="M131.167,337.933h15.469v10.313h-15.469V337.933z"/>
	<path fill="#BCBEC0" d="M146.167,337.933h15.469v10.313h-15.469V337.933z"/>
	<path fill="#BCBEC0" d="M191.26,337.933h15.469v10.313H191.26V337.933z"/>
	<path fill="#BCBEC0" d="M206.26,337.933h15.469v10.313H206.26V337.933z"/>
	<path fill="#BCBEC0" d="M221.26,337.933h15.469v10.313H221.26V337.933z"/>
	<path fill="#BCBEC0" d="M236.26,337.933h15.469v10.313H236.26V337.933z"/>
	<path fill="#BCBEC0" d="M281.354,337.933h15.469v10.313h-15.469V337.933z"/>
	<path fill="#BCBEC0" d="M296.354,337.933h15.469v10.313h-15.469V337.933z"/>
	<path fill="#BCBEC0" d="M311.354,337.933h15.469v10.313h-15.469V337.933z"/>
	<path fill="#BCBEC0" d="M326.354,337.933h15.469v10.313h-15.469V337.933z"/>
	<path fill="#BCBEC0" d="M341.354,337.933h15.469v10.313h-15.469V337.933z"/>
	<path fill="#BCBEC0" d="M386.448,337.933h15.469v10.313h-15.469V337.933z"/>
	<path fill="#BCBEC0" d="M401.448,337.933h15.469v10.313h-15.469V337.933z"/>
	<path fill="#BCBEC0" d="M416.448,337.933h15.469v10.313h-15.469V337.933z"/>
	<path fill="#BCBEC0" d="M461.542,337.933h15.469v10.313h-15.469V337.933z"/>
	<path fill="#BCBEC0" d="M476.542,337.933h15.469v10.313h-15.469V337.933z"/>
	<path fill="#BCBEC0" d="M491.542,337.933h15.469v10.313h-15.469V337.933z"/>
	<path fill="#BCBEC0" d="M506.542,337.933h15.469v10.313h-15.469V337.933z"/>
	<path fill="#BCBEC0" d="M521.542,337.933h15.469v10.313h-15.469V337.933z"/>
	<path fill="#BCBEC0" d="M116.167,366.734h15.469v10.313h-15.469V366.734z"/>
	<path fill="#BCBEC0" d="M161.26,366.734h15.469v10.313H161.26V366.734z"/>
	<path fill="#BCBEC0" d="M176.26,366.734h15.469v10.313H176.26V366.734z"/>
	<path fill="#BCBEC0" d="M191.26,366.734h15.469v10.313H191.26V366.734z"/>
	<path fill="#BCBEC0" d="M206.26,366.734h15.469v10.313H206.26V366.734z"/>
	<path fill="#BCBEC0" d="M221.26,366.734h15.469v10.313H221.26V366.734z"/>
	<path fill="#BCBEC0" d="M266.354,366.734h15.469v10.313h-15.469V366.734z"/>
	<path fill="#BCBEC0" d="M281.354,366.734h15.469v10.313h-15.469V366.734z"/>
	<path fill="#BCBEC0" d="M296.354,366.734h15.469v10.313h-15.469V366.734z"/>
	<path fill="#BCBEC0" d="M311.354,366.734h15.469v10.313h-15.469V366.734z"/>
	<path fill="#BCBEC0" d="M326.354,366.734h15.469v10.313h-15.469V366.734z"/>
	<path fill="#BCBEC0" d="M371.448,366.734h15.469v10.313h-15.469V366.734z"/>
	<path fill="#BCBEC0" d="M386.448,366.734h15.469v10.313h-15.469V366.734z"/>
	<path fill="#BCBEC0" d="M401.448,366.734h15.469v10.313h-15.469V366.734z"/>
	<path fill="#BCBEC0" d="M446.542,366.734h15.469v10.313h-15.469V366.734z"/>
	<path fill="#BCBEC0" d="M461.542,366.734h15.469v10.313h-15.469V366.734z"/>
	<path fill="#BCBEC0" d="M476.542,366.734h15.469v10.313h-15.469V366.734z"/>
	<path fill="#BCBEC0" d="M116.167,395.534h15.469v10.313h-15.469V395.534z"/>
	<path fill="#BCBEC0" d="M131.167,395.534h15.469v10.313h-15.469V395.534z"/>
	<path fill="#BCBEC0" d="M146.167,395.534h15.469v10.313h-15.469V395.534z"/>
	<path fill="#BCBEC0" d="M161.167,395.534h15.469v10.313h-15.469V395.534z"/>
	<path fill="#BCBEC0" d="M176.167,395.534h15.469v10.313h-15.469V395.534z"/>
	<path fill="#BCBEC0" d="M221.26,395.534h15.469v10.313H221.26V395.534z"/>
	<path fill="#BCBEC0" d="M236.26,395.534h15.469v10.313H236.26V395.534z"/>
	<path fill="#BCBEC0" d="M251.26,395.534h15.469v10.313H251.26V395.534z"/>
	<path fill="#BCBEC0" d="M266.26,395.534h15.469v10.313H266.26V395.534z"/>
	<path fill="#BCBEC0" d="M281.26,395.534h15.469v10.313H281.26V395.534z"/>
	<path fill="#BCBEC0" d="M326.354,395.534h15.469v10.313h-15.469V395.534z"/>
	<path fill="#BCBEC0" d="M341.354,395.534h15.469v10.313h-15.469V395.534z"/>
	<path fill="#BCBEC0" d="M356.354,395.534h15.469v10.313h-15.469V395.534z"/>
	<path fill="#BCBEC0" d="M371.354,395.534h15.469v10.313h-15.469V395.534z"/>
	<path fill="#BCBEC0" d="M386.354,395.534h15.469v10.313h-15.469V395.534z"/>
	<path fill="#BCBEC0" d="M431.448,395.534h15.469v10.313h-15.469V395.534z"/>
	<path fill="#BCBEC0" d="M446.448,395.534h15.469v10.313h-15.469V395.534z"/>
	<path fill="#BCBEC0" d="M461.448,395.534h15.469v10.313h-15.469V395.534z"/>
</g>
<g>
	<polygon fill="#F7B64C" points="340.956,222.835 340.962,236.788 335.124,259.642 292.78,262.458 292.78,222.835 	"/>
	<path fill="#8BD7F8" d="M388.401,255.329l-47.441-18.642v0.101l-5.836,22.855l-36.917-0.812l-5.401-22.043v-0.101l-47.439,18.642
		c-6.046,2.378-9.983,8.185-9.983,14.671v22.854h62.143h38.712h62.145V270C398.385,263.514,394.412,257.707,388.401,255.329"/>
	<polygon fill="#425A6C" points="327.714,267.059 316.875,256.218 306.031,267.059 311.128,272.156 309.141,292.852 
		324.593,292.852 322.633,272.139 	"/>
	<g opacity="0.1">
		<g>
			<defs>
				<rect id="SVGID_1_" x="303.915" y="222.822" width="37.041" height="27.812"/>
			</defs>
			<clipPath id="SVGID_2_">
				<use xlink:href="#SVGID_1_"  overflow="visible"/>
			</clipPath>
			<polygon clip-path="url(#SVGID_2_)" fill="#425A6C" points="340.956,222.835 340.944,236.788 323.748,250.64 303.916,235.899 
				314.505,222.835 			"/>
		</g>
	</g>
	<path fill="#F7B64C" d="M291.325,191.272c0.534,6.096-2.424,11.335-6.604,11.698c-4.183,0.366-8.007-4.278-8.541-10.375
		c-0.532-6.095,2.426-11.335,6.609-11.698C286.969,180.531,290.792,185.177,291.325,191.272"/>
	<path fill="#F7B64C" d="M357.565,192.597c-0.534,6.095-4.358,10.741-8.538,10.375c-4.183-0.365-7.141-5.604-6.608-11.7
		c0.532-6.095,4.356-10.741,8.541-10.373C355.141,181.262,358.097,186.502,357.565,192.597"/>
	<path fill="#FFD15D" d="M352.049,175.325v11.546c-0.035,2.446-0.171,4.89-0.476,7.301c-0.509,4.007-1.358,7.946-2.547,11.749
		c-2.887,9.203-7.742,17.692-14.296,24.859l-3.361,3.666c-3.058,3.363-7.404,5.265-11.955,5.265h-5.094
		c-4.515,0-8.863-1.937-11.919-5.265l-3.328-3.666c-4.653-5.06-8.455-10.834-11.274-16.979c-2.854-6.181-4.756-12.804-5.57-19.629
		c-0.305-2.411-0.476-4.855-0.476-7.301c-0.033-0.272-0.033-0.509-0.033-0.781v-10.562c0-3.326,0.474-6.586,1.358-9.644
		c4.177-14.704,17.727-25.502,33.823-25.502c16.062,0,29.612,10.798,33.789,25.502C351.572,168.871,352.049,172.065,352.049,175.325
		"/>
	<polygon fill="#56C0EA" points="316.873,256.218 340.952,236.682 342.358,237.236 331.489,270.894 	"/>
	<polygon fill="#56C0EA" points="316.885,256.218 292.804,236.682 291.399,237.236 302.268,270.894 	"/>
	<path fill="#ADB3BA" d="M348.235,233.225c-0.038,0.038-0.075,0.038-0.075,0.038v-0.076
		C348.197,233.186,348.235,233.225,348.235,233.225"/>
	<path fill="#ADB3BA" d="M348.385,233.186v0.076c0,0-0.038,0-0.074-0.038C348.311,233.225,348.347,233.186,348.385,233.186"/>
	<path fill="#425A6C" d="M351.496,195.436c1.137-11.114-0.907-18.476-2.499-22.293c-0.942-2.255-1.182-4.686-0.846-7.105
		c1.456-10.551-4.086-9.125-4.086-9.125c-11.93,5.862-27.18,5.734-27.18,5.734s-15.255,0.128-27.182-5.734
		c0,0-5.545-1.426-4.084,9.125c0.332,2.419,0.091,4.85-0.849,7.102c-1.59,3.82-3.638,11.182-2.5,22.297
		c0,0-23.267-68.049,34.615-65.513C374.768,127.387,351.496,195.436,351.496,195.436"/>
</g>
</svg>
