<?xml version="1.0" encoding="utf-8"?>
<!-- Generator: Adobe Illustrator 21.0.0, SVG Export Plug-In . SVG Version: 6.00 Build 0)  -->
<svg version="1.1" id="Layer_1" xmlns="http://www.w3.org/2000/svg" xmlns:xlink="http://www.w3.org/1999/xlink" x="0px" y="0px"
	 viewBox="0 0 250.7 121" style="enable-background:new 0 0 250.7 121;" xml:space="preserve">
<style type="text/css">
	.st0{fill:#374D63;}
	.st1{fill:#2C3E50;}
	.st2{fill:#CCCCCC;}
	.st3{fill:#ADADAD;}
	.st4{fill:#EAEAEA;}
</style>
<g>
	<g>
		<g>
			<g>
				<g>
					<path class="st0" d="M32.4,108.3c-1.7,0-3-1.4-3-3V5.8c0-1.7,1.4-3,3-3h187c1.7,0,3,1.4,3,3v99.5c0,1.7-1.4,3-3,3H32.4z"/>
					<polyline class="st1" points="222.9,15.3 222.9,108.3 45.9,108.3 					"/>
					<polyline class="st1" points="40.9,108.3 222.9,108.3 222.9,8.3 					"/>
					<path class="st2" d="M219.4,111h-187c-3.2,0-5.8-2.6-5.8-5.8V5.8c0-3.2,2.6-5.8,5.8-5.8h187c3.2,0,5.8,2.6,5.8,5.8v99.5
						C225.1,108.4,222.6,111,219.4,111z M32.4,5.5c-0.1,0-0.3,0.1-0.3,0.3v99.5c0,0.1,0.1,0.3,0.3,0.3h187c0.1,0,0.3-0.1,0.3-0.3
						V5.8c0-0.1-0.1-0.3-0.3-0.3H32.4z"/>
				</g>
			</g>
		</g>
	</g>
	<g>
		<g>
			<path class="st3" d="M125.4,114.2H0v3.7c0,2.1,14.6,3.1,17.2,3.1l108.1,0h108.1c2.6,0,17.2-1,17.2-3.1v-3.7H125.4z"/>
		</g>
		<g>
			<rect y="111.1" class="st4" width="250.7" height="3.3"/>
		</g>
	</g>
</g>
</svg>
