<?xml version="1.0" encoding="UTF-8"?>
<svg width="38px" height="30px" viewBox="0 0 38 30" version="1.1" xmlns="http://www.w3.org/2000/svg" xmlns:xlink="http://www.w3.org/1999/xlink">
    <!-- Generator: Sketch 63.1 (92452) - https://sketch.com -->
    <title>dice-regular</title>
    <desc>Created with Sketch.</desc>
    <g id="Page-1" stroke="none" stroke-width="1" fill="none" fill-rule="evenodd" opacity="0.65">
        <g id="Artboard" transform="translate(-30.000000, -249.000000)" fill="#000000" fill-rule="nonzero">
            <g id="dice-regular" transform="translate(30.000000, 249.000000)">
                <path d="M28.4999258,19.21875 C27.7132009,19.21875 27.0749146,19.8480469 27.0749146,20.625 C27.0749146,21.4013672 27.7132009,22.03125 28.4999258,22.03125 C29.2866507,22.03125 29.9249369,21.4013672 29.9249369,20.625 C29.9249369,19.8480469 29.2866507,19.21875 28.4999258,19.21875 Z M34.1999703,11.25 L26.0880944,11.25 L26.0880944,11.2505859 C25.9164993,10.9476562 25.716404,10.6558594 25.455152,10.3980469 L16.0631411,1.1296875 C15.3001664,0.376171875 14.2996898,0 13.299807,0 C12.2999242,0 11.2994477,0.376171875 10.5364729,1.1296875 L1.14446207,10.3980469 C-0.381487355,11.9039063 -0.381487355,14.3460937 1.14446207,15.8519531 L10.5364729,25.1203125 C11.2994477,25.8732422 12.2999242,26.25 13.299807,26.25 C14.2996898,26.25 15.3001664,25.8732422 16.0631411,25.1203125 L18.9998516,22.2222656 L18.9998516,26.25 C18.9998516,28.3212891 20.7009586,30 22.7998812,30 L34.1999703,30 C36.298893,30 38,28.3212891 38,26.25 L38,15 C38,12.9287109 36.298893,11.25 34.1999703,11.25 Z M13.9903437,23.0753906 C13.7415605,23.3208984 13.4506207,23.3578125 13.299807,23.3578125 C13.1489934,23.3578125 12.8580536,23.3208984 12.6092704,23.0753906 L3.21666576,13.8064453 C2.83547528,13.4302734 2.83547528,12.8185547 3.21666576,12.4429687 L12.6092704,3.17460938 C12.8580536,2.92910156 13.1489934,2.8921875 13.299807,2.8921875 C13.4506207,2.8921875 13.7415605,2.92910156 13.9903437,3.17460938 L23.3829483,12.4429687 C23.7641388,12.8185547 23.7641388,13.4302734 23.3829483,13.8064453 L13.9903437,23.0753906 Z M35.1499777,26.25 C35.1499777,26.7667969 34.7236619,27.1875 34.1999703,27.1875 L22.7998812,27.1875 C22.2761897,27.1875 21.8498738,26.7667969 21.8498738,26.25 L21.8498738,19.4097656 L25.455152,15.8519531 C25.9734998,15.3404297 26.3018461,14.7169922 26.4675037,14.0625 L34.1999703,14.0625 C34.7236619,14.0625 35.1499777,14.4832031 35.1499777,15 L35.1499777,26.25 Z M13.299807,11.71875 C12.5130821,11.71875 11.8747959,12.3480469 11.8747959,13.125 C11.8747959,13.9013672 12.5130821,14.53125 13.299807,14.53125 C14.0865319,14.53125 14.7248182,13.9013672 14.7248182,13.125 C14.7248182,12.3480469 14.0865319,11.71875 13.299807,11.71875 Z M18.9998516,11.71875 C18.2131267,11.71875 17.5748404,12.3480469 17.5748404,13.125 C17.5748404,13.9013672 18.2131267,14.53125 18.9998516,14.53125 C19.7865765,14.53125 20.4248627,13.9013672 20.4248627,13.125 C20.4248627,12.3480469 19.7865765,11.71875 18.9998516,11.71875 Z M7.5997625,11.71875 C6.8130376,11.71875 6.17475137,12.3480469 6.17475137,13.125 C6.17475137,13.9013672 6.8130376,14.53125 7.5997625,14.53125 C8.38648739,14.53125 9.02477363,13.9013672 9.02477363,13.125 C9.02477363,12.3480469 8.38648739,11.71875 7.5997625,11.71875 Z M13.299807,17.34375 C12.5130821,17.34375 11.8747959,17.9730469 11.8747959,18.75 C11.8747959,19.5263672 12.5130821,20.15625 13.299807,20.15625 C14.0865319,20.15625 14.7248182,19.5263672 14.7248182,18.75 C14.7248182,17.9730469 14.0865319,17.34375 13.299807,17.34375 Z M13.299807,6.09375 C12.5130821,6.09375 11.8747959,6.72304687 11.8747959,7.5 C11.8747959,8.27636719 12.5130821,8.90625 13.299807,8.90625 C14.0865319,8.90625 14.7248182,8.27636719 14.7248182,7.5 C14.7248182,6.72304687 14.0865319,6.09375 13.299807,6.09375 Z" id="Shape"></path>
            </g>
        </g>
    </g>
</svg>