<?xml version="1.0" encoding="utf-8"?>
<!-- Generator: Adobe Illustrator 17.0.0, SVG Export Plug-In . SVG Version: 6.00 Build 0)  -->
<!DOCTYPE svg PUBLIC "-//W3C//DTD SVG 1.1//EN" "http://www.w3.org/Graphics/SVG/1.1/DTD/svg11.dtd">
<svg version="1.1" id="Layer_1" xmlns="http://www.w3.org/2000/svg" xmlns:xlink="http://www.w3.org/1999/xlink" x="0px" y="0px"
	 width="189.299px" height="41.396px" viewBox="0 0 189.299 41.396" enable-background="new 0 0 189.299 41.396"
	 xml:space="preserve">
<g>
	<path fill="#FFFFFF" d="M15.047,25.875c0,1.711-0.65,3.026-1.951,3.946s-3.146,1.38-5.537,1.38c-2.555,0-4.582-0.393-6.082-1.178
		v-1.881c1.922,0.961,3.949,1.441,6.082,1.441c1.887,0,3.319-0.313,4.298-0.94s1.468-1.462,1.468-2.505
		c0-0.961-0.39-1.77-1.169-2.426s-2.06-1.301-3.841-1.934c-1.91-0.691-3.252-1.286-4.025-1.784s-1.356-1.061-1.749-1.688
		s-0.589-1.392-0.589-2.294c0-1.43,0.601-2.561,1.802-3.393s2.88-1.248,5.036-1.248c2.063,0,4.02,0.387,5.871,1.16l-0.65,1.582
		c-1.875-0.773-3.615-1.16-5.221-1.16c-1.559,0-2.795,0.258-3.709,0.773s-1.371,1.23-1.371,2.145c0,0.996,0.354,1.793,1.063,2.391
		s2.095,1.266,4.157,2.004c1.723,0.621,2.977,1.181,3.762,1.679s1.374,1.063,1.767,1.696S15.047,25.02,15.047,25.875z"/>
	<path fill="#FFFFFF" d="M27.686,31.201c-2.777,0-4.942-0.855-6.495-2.566s-2.329-4.107-2.329-7.189c0-3.047,0.75-5.487,2.25-7.321
		s3.521-2.751,6.064-2.751c2.25,0,4.025,0.785,5.326,2.355s1.951,3.703,1.951,6.398v1.406H20.689
		c0.023,2.625,0.636,4.629,1.837,6.012s2.921,2.074,5.159,2.074c1.09,0,2.048-0.076,2.874-0.229s1.872-0.48,3.138-0.984v1.582
		c-1.078,0.469-2.074,0.788-2.988,0.958S28.787,31.201,27.686,31.201z M27.176,12.92c-1.84,0-3.316,0.606-4.43,1.819
		s-1.764,2.962-1.951,5.247h11.813c0-2.215-0.48-3.946-1.441-5.194S28.875,12.92,27.176,12.92z"/>
	<path fill="#FFFFFF" d="M51.574,25.875c0,1.711-0.65,3.026-1.951,3.946s-3.146,1.38-5.537,1.38c-2.555,0-4.582-0.393-6.082-1.178
		v-1.881c1.922,0.961,3.949,1.441,6.082,1.441c1.887,0,3.319-0.313,4.298-0.94s1.468-1.462,1.468-2.505
		c0-0.961-0.39-1.77-1.169-2.426s-2.06-1.301-3.841-1.934c-1.91-0.691-3.252-1.286-4.025-1.784s-1.356-1.061-1.749-1.688
		s-0.589-1.392-0.589-2.294c0-1.43,0.601-2.561,1.802-3.393s2.88-1.248,5.036-1.248c2.063,0,4.02,0.387,5.871,1.16l-0.65,1.582
		c-1.875-0.773-3.615-1.16-5.221-1.16c-1.559,0-2.795,0.258-3.709,0.773s-1.371,1.23-1.371,2.145c0,0.996,0.354,1.793,1.063,2.391
		s2.095,1.266,4.157,2.004c1.723,0.621,2.977,1.181,3.762,1.679s1.374,1.063,1.767,1.696S51.574,25.02,51.574,25.875z"/>
	<path fill="#FFFFFF" d="M68.344,25.875c0,1.711-0.65,3.026-1.951,3.946s-3.146,1.38-5.537,1.38c-2.555,0-4.582-0.393-6.082-1.178
		v-1.881c1.922,0.961,3.949,1.441,6.082,1.441c1.887,0,3.319-0.313,4.298-0.94s1.468-1.462,1.468-2.505
		c0-0.961-0.39-1.77-1.169-2.426s-2.06-1.301-3.841-1.934c-1.91-0.691-3.252-1.286-4.025-1.784s-1.356-1.061-1.749-1.688
		s-0.589-1.392-0.589-2.294c0-1.43,0.601-2.561,1.802-3.393s2.88-1.248,5.036-1.248c2.063,0,4.02,0.387,5.871,1.16l-0.65,1.582
		c-1.875-0.773-3.615-1.16-5.221-1.16c-1.559,0-2.795,0.258-3.709,0.773s-1.371,1.23-1.371,2.145c0,0.996,0.354,1.793,1.063,2.391
		s2.095,1.266,4.157,2.004c1.723,0.621,2.977,1.181,3.762,1.679s1.374,1.063,1.767,1.696S68.344,25.02,68.344,25.875z"/>
	<path fill="#FFFFFF" d="M73.02,6.434c0-1.125,0.369-1.688,1.107-1.688c0.363,0,0.647,0.146,0.853,0.439s0.308,0.709,0.308,1.248
		c0,0.527-0.103,0.943-0.308,1.248s-0.489,0.457-0.853,0.457C73.389,8.139,73.02,7.57,73.02,6.434z M75.006,30.85h-1.74V11.742h1.74
		V30.85z"/>
	<path fill="#FFFFFF" d="M97.207,21.27c0,3.117-0.756,5.552-2.268,7.304s-3.598,2.628-6.258,2.628c-1.676,0-3.152-0.404-4.43-1.213
		s-2.256-1.969-2.936-3.48s-1.02-3.258-1.02-5.238c0-3.117,0.756-5.546,2.268-7.286s3.586-2.61,6.223-2.61
		c2.625,0,4.685,0.882,6.179,2.646S97.207,18.199,97.207,21.27z M82.125,21.27c0,2.625,0.577,4.673,1.731,6.144
		s2.786,2.206,4.896,2.206s3.741-0.735,4.896-2.206s1.731-3.519,1.731-6.144c0-2.637-0.583-4.682-1.749-6.135
		s-2.804-2.18-4.913-2.18s-3.735,0.724-4.878,2.171S82.125,18.621,82.125,21.27z"/>
	<path fill="#FFFFFF" d="M115.822,30.85V18.457c0-1.922-0.404-3.319-1.213-4.192s-2.063-1.31-3.762-1.31
		c-2.285,0-3.958,0.577-5.019,1.731s-1.591,3.026-1.591,5.616V30.85h-1.74V11.742h1.477l0.334,2.619h0.105
		c1.242-1.992,3.451-2.988,6.627-2.988c4.336,0,6.504,2.326,6.504,6.979V30.85H115.822z"/>
	<path fill="#FFFFFF" d="M135.071,10.582c2.168,0,3.888,0.908,5.159,2.725s1.907,4.33,1.907,7.541c0,3.234-0.642,5.769-1.925,7.603
		s-3.067,2.751-5.353,2.751c-0.738,0-1.395-0.079-1.969-0.237s-1.087-0.378-1.538-0.659s-0.976-0.75-1.573-1.406h-0.422l-1.09,1.951
		h-5.362V3.498h6.874v6.188c0,0.738-0.082,2.01-0.246,3.814h0.246c0.668-1.031,1.438-1.775,2.312-2.232
		S133.958,10.582,135.071,10.582z M132.557,15.979c-0.961,0-1.664,0.334-2.109,1.002s-0.668,1.717-0.668,3.146v0.967
		c0,1.629,0.223,2.798,0.668,3.507s1.172,1.063,2.18,1.063c0.809,0,1.43-0.413,1.863-1.239s0.65-2.042,0.65-3.647
		C135.141,17.578,134.28,15.979,132.557,15.979z"/>
	<path fill="#FFFFFF" d="M165.077,20.848c0,3.258-0.876,5.798-2.628,7.62s-4.204,2.733-7.356,2.733
		c-3.023,0-5.429-0.932-7.216-2.795s-2.681-4.383-2.681-7.559c0-3.246,0.876-5.769,2.628-7.567s4.21-2.698,7.374-2.698
		c1.957,0,3.686,0.416,5.186,1.248s2.657,2.024,3.472,3.577S165.077,18.773,165.077,20.848z M152.174,20.848
		c0,1.711,0.229,3.015,0.686,3.911s1.225,1.345,2.303,1.345c1.066,0,1.819-0.448,2.259-1.345s0.659-2.2,0.659-3.911
		c0-1.699-0.223-2.982-0.668-3.85s-1.207-1.301-2.285-1.301c-1.055,0-1.811,0.431-2.268,1.292S152.174,19.137,152.174,20.848z"/>
	<path fill="#FFFFFF" d="M173.215,20.689l-6.082-9.756h7.805l3.023,5.59l3.094-5.59h7.822l-6.24,9.756l6.486,10.16h-7.805
		l-3.357-6.047l-3.34,6.047h-7.822L173.215,20.689z"/>
</g>
<g>
</g>
<g>
</g>
<g>
</g>
<g>
</g>
<g>
</g>
<g>
</g>
</svg>
