<svg xmlns="http://www.w3.org/2000/svg" xmlns:xlink="http://www.w3.org/1999/xlink" width="139" height="33" viewBox="0 0 139 33">
    <defs>
        <linearGradient id="a" x1="12.931%" x2="86.151%" y1="-152.086%" y2="72.958%">
            <stop offset="0%" stop-color="#3FBA80"/>
            <stop offset="100%" stop-color="#2D7668"/>
        </linearGradient>
        <linearGradient id="b" x1="41.4%" x2="86.151%" y1="-53.229%" y2="72.958%">
            <stop offset="0%" stop-color="#2D7668"/>
            <stop offset="100%" stop-color="#3FBA80"/>
        </linearGradient>
        <linearGradient id="c" x1="40.091%" x2="62.509%" y1="9.379%" y2="83.52%">
            <stop offset="0%" stop-color="#2D7668"/>
            <stop offset="100%" stop-color="#3FBA80"/>
        </linearGradient>
        <linearGradient id="d" x1="40.091%" x2="62.509%" y1="9.379%" y2="83.52%">
            <stop offset="0%" stop-color="#3FBA80"/>
            <stop offset="100%" stop-color="#2D7668"/>
        </linearGradient>
        <path id="e" d="M38.063 15.153c0-1.837 1.618-3.058 4.035-3.058 2.46 0 3.91 1.028 4.051 2.883h-2.364c-.132-.624-.72-1.011-1.67-1.011-.914 0-1.59.413-1.59 1.028 0 .475.413.765 1.309.967l1.82.395c1.88.414 2.724 1.205 2.724 2.655 0 1.933-1.732 3.199-4.272 3.199-2.557 0-4.104-1.046-4.28-2.91h2.496c.194.66.818 1.038 1.837 1.038.993 0 1.679-.413 1.679-1.037 0-.475-.37-.765-1.222-.95l-1.758-.395c-1.88-.413-2.795-1.31-2.795-2.804zm14.608-1.098c-1.187 0-2.022.826-2.11 2.083h4.131c-.052-1.284-.826-2.083-2.021-2.083zm2.074 5.185h2.382c-.378 1.82-2.057 2.97-4.43 2.97-2.953 0-4.693-1.862-4.693-5.009 0-3.155 1.775-5.106 4.658-5.106 2.857 0 4.544 1.82 4.544 4.895v.782h-6.653v.132c.035 1.442.879 2.338 2.215 2.338 1.01 0 1.705-.36 1.977-1.002zm4.333-4.087c0-1.837 1.617-3.058 4.034-3.058 2.461 0 3.911 1.028 4.052 2.883H64.8c-.132-.624-.72-1.011-1.67-1.011-.914 0-1.59.413-1.59 1.028 0 .475.412.765 1.309.967l1.819.395c1.88.414 2.725 1.205 2.725 2.655 0 1.933-1.732 3.199-4.272 3.199-2.558 0-4.104-1.046-4.28-2.91h2.496c.193.66.817 1.038 1.837 1.038.993 0 1.679-.413 1.679-1.037 0-.475-.37-.765-1.222-.95l-1.758-.395c-1.88-.413-2.795-1.31-2.795-2.804zm10.02 0c0-1.837 1.617-3.058 4.034-3.058 2.46 0 3.911 1.028 4.052 2.883h-2.365c-.132-.624-.72-1.011-1.67-1.011-.914 0-1.59.413-1.59 1.028 0 .475.413.765 1.31.967l1.819.395c1.88.414 2.724 1.205 2.724 2.655 0 1.933-1.731 3.199-4.271 3.199-2.558 0-4.105-1.046-4.28-2.91h2.495c.194.66.818 1.038 1.837 1.038.994 0 1.68-.413 1.68-1.037 0-.475-.37-.765-1.223-.95l-1.757-.395c-1.881-.413-2.795-1.31-2.795-2.804zM79.53 22v-9.694h2.558V22H79.53zm1.283-11.145c-.79 0-1.45-.65-1.45-1.467 0-.818.66-1.46 1.45-1.46.8 0 1.45.642 1.45 1.46 0 .817-.65 1.467-1.45 1.467zm8.157 11.356c-2.98 0-4.773-1.89-4.773-5.063 0-3.137 1.82-5.053 4.773-5.053 2.953 0 4.772 1.907 4.772 5.053 0 3.173-1.793 5.063-4.772 5.063zm0-2.092c1.362 0 2.144-1.09 2.144-2.97 0-1.864-.79-2.962-2.144-2.962-1.363 0-2.145 1.098-2.145 2.961 0 1.89.774 2.971 2.145 2.971zM95.825 22v-9.694h2.479v1.555h.158c.448-1.09 1.433-1.766 2.865-1.766 2.153 0 3.314 1.318 3.314 3.638V22h-2.558v-5.66c0-1.336-.571-2.04-1.784-2.04-1.187 0-1.916.836-1.916 2.11V22h-2.558zm17.007.15c-1.371 0-2.47-.616-2.988-1.67h-.158V22h-2.479V8.605h2.558v5.248h.158c.492-1.064 1.582-1.706 2.909-1.706 2.452 0 3.929 1.873 3.929 5.001 0 3.112-1.494 5.001-3.929 5.001zm-.888-7.858c-1.344 0-2.197 1.099-2.206 2.865.01 1.758.853 2.857 2.206 2.857 1.363 0 2.189-1.09 2.189-2.866 0-1.766-.835-2.856-2.189-2.856zm11.198 7.919c-2.98 0-4.773-1.89-4.773-5.063 0-3.137 1.82-5.053 4.773-5.053 2.953 0 4.772 1.907 4.772 5.053 0 3.173-1.793 5.063-4.772 5.063zm0-2.092c1.362 0 2.144-1.09 2.144-2.97 0-1.864-.79-2.962-2.144-2.962-1.363 0-2.145 1.098-2.145 2.961 0 1.89.774 2.971 2.145 2.971zm10.292-1.265h-.159l-1.801 3.155h-2.707l3.032-4.79-3.059-4.905h2.945l1.713 3.182h.159l1.714-3.182h2.794l-3.05 4.8 3.068 4.895h-2.839l-1.81-3.155z"/>
    </defs>
    <g fill="none" fill-rule="nonzero">
        <path fill="url(#a)" d="M0 0h29v24z" transform="matrix(-1 0 0 1 29 0)"/>
        <path fill="url(#b)" d="M0 0h29v24z"/>
        <path fill="url(#c)" d="M14 16l10 8.667V33l-10-8.5z"/>
        <path fill="url(#d)" d="M4 16l10 8.667V33L4 24.5z" transform="matrix(-1 0 0 1 18 0)"/>
        <g opacity=".65">
            <use fill="#FFF" xlink:href="#e"/>
            <use fill="#000" xlink:href="#e"/>
        </g>
    </g>
</svg>
