<?xml version="1.0" encoding="UTF-8"?>
<svg width="34px" height="30px" viewBox="0 0 34 30" version="1.1" xmlns="http://www.w3.org/2000/svg" xmlns:xlink="http://www.w3.org/1999/xlink">
    <!-- Generator: Sketch 63.1 (92452) - https://sketch.com -->
    <title>shopping-cart-regular</title>
    <desc>Created with Sketch.</desc>
    <g id="Page-1" stroke="none" stroke-width="1" fill="none" fill-rule="evenodd" opacity="0.65">
        <g id="Artboard" transform="translate(-32.000000, -200.000000)" fill="#000000" fill-rule="nonzero">
            <g id="shopping-cart-regular" transform="translate(32.000000, 200.000000)">
                <path d="M32.582794,3.75 L8.51652566,3.75 L8.0014494,1.13625 C7.87135221,0.47625 7.28863013,0 6.61110946,0 L0.708333157,0 C0.317156171,0 0,0.314824219 0,0.703125 L0,2.109375 C0,2.49767578 0.317156171,2.8125 0.708333157,2.8125 L5.44472087,2.8125 L9.55269901,23.6543555 C8.90115056,24.3281836 8.5,25.2423047 8.5,26.25 C8.5,28.3210547 10.1913794,30 12.2777747,30 C14.36417,30 16.0555516,28.3210547 16.0555516,26.25 C16.0562873,25.5915753 15.881493,24.9446814 15.5489163,24.375 L24.1177995,24.375 C23.7852228,24.9446814 23.6104285,25.5915753 23.6111643,26.25 C23.6111643,28.3210547 25.3025458,30 27.3889411,30 C29.4753364,30 31.1667179,28.3210547 31.1667179,26.25 C31.1667179,25.1873438 30.7207042,24.22875 30.0052877,23.5463672 L30.0663814,23.2676367 C30.2584577,22.3910742 29.5857774,21.5625 28.6820623,21.5625 L12.027497,21.5625 L11.4732263,18.75 L29.9137946,18.75 C30.5802181,18.75 31.1565652,18.2889258 31.2981137,17.6424609 L33.9671131,5.45496094 C34.1590714,4.57845703 33.486391,3.75 32.582794,3.75 Z M12.2777747,27.65625 C11.4966013,27.65625 10.8611084,27.0254297 10.8611084,26.25 C10.8611084,25.4745703 11.4966013,24.84375 12.2777747,24.84375 C13.0589481,24.84375 13.694441,25.4745703 13.694441,26.25 C13.694441,27.0254297 13.0589481,27.65625 12.2777747,27.65625 Z M27.3888821,27.65625 C26.6077086,27.65625 25.9722158,27.0254297 25.9722158,26.25 C25.9722158,25.4745703 26.6077086,24.84375 27.3888821,24.84375 C28.1700555,24.84375 28.8055484,25.4745703 28.8055484,26.25 C28.8055484,27.0254297 28.1700555,27.65625 27.3888821,27.65625 Z M28.7723748,15.9375 L10.9189556,15.9375 L9.07079635,6.5625 L30.8253604,6.5625 L28.7723748,15.9375 Z" id="Shape"></path>
            </g>
        </g>
    </g>
</svg>