<?xml version="1.0" encoding="UTF-8"?>
<svg width="30px" height="34px" viewBox="0 0 30 34" version="1.1" xmlns="http://www.w3.org/2000/svg" xmlns:xlink="http://www.w3.org/1999/xlink">
    <!-- Generator: Sketch 63.1 (92452) - https://sketch.com -->
    <title>user-hard-hat-regular</title>
    <desc>Created with Sketch.</desc>
    <g id="Page-1" stroke="none" stroke-width="1" fill="none" fill-rule="evenodd" opacity="0.65">
        <g id="Artboard" transform="translate(-37.000000, -293.000000)" fill="#000000" fill-rule="nonzero">
            <g id="user-hard-hat-regular" transform="translate(37.000000, 293.000000)">
                <path d="M15,18.0625 C12.4556231,18.0590438 10.2635151,16.2840274 9.75133929,13.8125 L6.53705357,13.8125 C7.07276786,18.0000781 10.6332589,21.25 15.0006696,21.25 C19.3680804,21.25 22.9319196,18.0000781 23.4642857,13.8125 L20.25,13.8125 C19.7377223,16.2845152 17.5448801,18.0596732 15,18.0625 Z M21,23.3749996 C19.0767857,23.3749996 18.1573661,24.4375 15,24.4375 C11.8426339,24.4375 10.9232143,23.3749996 9.00267857,23.3749996 C6.6152661,23.3742954 4.32539269,24.3142941 2.63698592,25.9881327 C0.948579139,27.6619712 0,29.9324825 0,32.3 C0,33.2388841 0.767511857,34 1.71428571,34 L28.2857143,34 C29.2324881,34 30,33.2388841 30,32.3 C30,27.3708586 25.9705627,23.3749996 21,23.3749996 Z M3.41116071,30.8125 C4.09382791,28.3065443 6.38507874,26.5650107 9.00267857,26.5625 C9.96964286,26.5625 11.5660714,27.625 15,27.625 C18.4466518,27.625 20.0290179,26.5625 21,26.5625 C23.6168398,26.5655215 25.9070412,28.3070917 26.5888393,30.8125 L3.41116071,30.8125 Z M5.89285714,11.6875 L24.1071429,11.6875 C24.4030097,11.6875 24.6428571,11.4496513 24.6428571,11.15625 L24.6428571,9.03125 C24.6428571,8.73784873 24.4030097,8.5 24.1071429,8.5 L23.5714286,8.5 C23.5714286,5.41808594 21.6609375,2.81960937 18.9649554,1.69867187 L17.1428571,5.3125 L17.1428571,1.0625 C17.1428571,0.475697453 16.6631622,0 16.0714286,0 L13.9285714,0 C13.3368378,0 12.8571429,0.475697453 12.8571429,1.0625 L12.8571429,5.3125 L11.0350446,1.69867187 C8.3390625,2.81960937 6.42857143,5.41808594 6.42857143,8.5 L5.89285714,8.5 C5.59699031,8.5 5.35714286,8.73784873 5.35714286,9.03125 L5.35714286,11.15625 C5.35714286,11.4496513 5.59699031,11.6875 5.89285714,11.6875 Z" id="Shape"></path>
            </g>
        </g>
    </g>
</svg>