<?xml version="1.0" encoding="iso-8859-1"?>
<!-- Generator: Adobe Illustrator 16.0.2, SVG Export Plug-In . SVG Version: 6.00 Build 0)  -->
<!DOCTYPE svg PUBLIC "-//W3C//DTD SVG 1.1//EN" "http://www.w3.org/Graphics/SVG/1.1/DTD/svg11.dtd">
<svg version="1.1" id="co_x5F_basic" xmlns="http://www.w3.org/2000/svg" xmlns:xlink="http://www.w3.org/1999/xlink" x="0px"
	 y="0px" width="40px" height="40px" viewBox="0 0 40 40" style="enable-background:new 0 0 40 40;" xml:space="preserve">
<path style="fill-rule:evenodd;clip-rule:evenodd;" d="M7.851,13.98h7.158V6.821c0-2.665,2.174-4.839,4.839-4.839h0.319
	c2.666,0,4.839,2.174,4.839,4.839v7.158l7.158,0c2.666,0,4.839,2.174,4.839,4.839v0.319c0,2.665-2.174,4.839-4.839,4.839l-7.158,0
	v7.159c0,2.665-2.173,4.839-4.839,4.84h-0.319c-2.665,0-4.839-2.175-4.839-4.84l0-7.158H7.85c-2.665,0-4.839-2.174-4.839-4.839
	v-0.319C3.011,16.154,5.185,13.98,7.851,13.98z"/>
</svg>
