<?xml version="1.0" encoding="iso-8859-1"?>
<!-- Generator: Adobe Illustrator 16.0.2, SVG Export Plug-In . SVG Version: 6.00 Build 0)  -->
<!DOCTYPE svg PUBLIC "-//W3C//DTD SVG 1.1//EN" "http://www.w3.org/Graphics/SVG/1.1/DTD/svg11.dtd">
<svg version="1.1" id="co_x5F_basic" xmlns="http://www.w3.org/2000/svg" xmlns:xlink="http://www.w3.org/1999/xlink" x="0px"
	 y="0px" width="40px" height="40px" viewBox="0 0 40 40" style="enable-background:new 0 0 40 40;" xml:space="preserve">
<path style="fill-rule:evenodd;clip-rule:evenodd;" d="M12.955,5.946l7.041,7.042l7.043-7.042c1.629-1.627,4.283-1.627,5.91,0
	l0.09,0.088c1.627,1.627,1.627,4.283,0,5.911l-7.043,7.042l7.043,7.043c1.627,1.627,1.627,4.283,0,5.911l-0.09,0.088
	c-1.627,1.627-4.281,1.627-5.91,0l-7.041-7.043l-7.043,7.043c-1.629,1.627-4.283,1.627-5.912,0L6.955,31.94
	c-1.627-1.627-1.627-4.284,0-5.911l7.043-7.042l-7.043-7.043c-1.627-1.627-1.627-4.283,0-5.911l0.088-0.088
	C8.672,4.318,11.326,4.318,12.955,5.946z"/>
</svg>
