<?xml version="1.0" encoding="iso-8859-1"?>
<!-- Generator: Adobe Illustrator 16.0.2, SVG Export Plug-In . SVG Version: 6.00 Build 0)  -->
<!DOCTYPE svg PUBLIC "-//W3C//DTD SVG 1.1//EN" "http://www.w3.org/Graphics/SVG/1.1/DTD/svg11.dtd">
<svg version="1.1" id="co_x5F_basic" xmlns="http://www.w3.org/2000/svg" xmlns:xlink="http://www.w3.org/1999/xlink" x="0px"
	 y="0px" width="40px" height="40px" viewBox="0 0 40 40" style="enable-background:new 0 0 40 40;" xml:space="preserve">
<path style="fill-rule:evenodd;clip-rule:evenodd;" d="M20.762,2.25l0.952,1.598c0.139,0.232,0.352,0.375,0.618,0.418
	c0.267,0.042,0.514-0.029,0.717-0.208l1.4-1.224c0.24-0.21,0.548-0.274,0.852-0.175c0.303,0.099,0.515,0.331,0.586,0.642
	l0.413,1.813c0.06,0.263,0.217,0.465,0.458,0.589c0.24,0.122,0.497,0.131,0.746,0.024l1.709-0.732
	c0.293-0.126,0.606-0.091,0.864,0.097c0.258,0.188,0.388,0.474,0.359,0.791l-0.168,1.853c-0.024,0.269,0.063,0.511,0.254,0.702
	c0.191,0.191,0.433,0.279,0.702,0.254l1.852-0.168c0.317-0.029,0.604,0.101,0.792,0.358c0.188,0.259,0.223,0.571,0.097,0.864
	l-0.732,1.709c-0.107,0.249-0.098,0.505,0.024,0.746c0.123,0.241,0.325,0.398,0.589,0.458l1.813,0.413
	c0.311,0.071,0.543,0.283,0.642,0.586c0.099,0.302,0.036,0.61-0.174,0.851l-1.225,1.399c-0.178,0.203-0.25,0.451-0.207,0.716
	c0.042,0.268,0.187,0.48,0.418,0.619l1.597,0.952c0.273,0.164,0.429,0.438,0.429,0.756c0,0.318-0.156,0.592-0.429,0.756
	l-1.597,0.952c-0.232,0.139-0.376,0.351-0.418,0.618c-0.042,0.267,0.029,0.514,0.207,0.717l1.225,1.4
	c0.21,0.24,0.273,0.548,0.174,0.852s-0.331,0.515-0.642,0.586l-1.813,0.412c-0.264,0.06-0.466,0.218-0.589,0.458
	c-0.123,0.241-0.131,0.498-0.024,0.747l0.732,1.709c0.125,0.293,0.09,0.606-0.097,0.864c-0.187,0.258-0.474,0.388-0.792,0.359
	l-1.852-0.168c-0.27-0.024-0.511,0.063-0.702,0.254c-0.191,0.191-0.278,0.432-0.254,0.702l0.168,1.852
	c0.029,0.317-0.102,0.604-0.359,0.792c-0.258,0.187-0.571,0.222-0.864,0.097l-1.709-0.732c-0.249-0.106-0.505-0.099-0.746,0.024
	s-0.399,0.326-0.458,0.589l-0.413,1.813c-0.071,0.311-0.283,0.542-0.586,0.642c-0.303,0.099-0.611,0.036-0.852-0.174l-1.4-1.225
	c-0.203-0.178-0.45-0.249-0.717-0.206c-0.267,0.042-0.479,0.186-0.618,0.418l-0.952,1.597c-0.164,0.273-0.438,0.429-0.756,0.429
	c-0.319,0-0.592-0.156-0.756-0.429l-0.953-1.597c-0.138-0.232-0.351-0.376-0.618-0.418c-0.267-0.043-0.514,0.029-0.717,0.206
	l-1.399,1.225c-0.24,0.21-0.548,0.272-0.851,0.174s-0.516-0.331-0.586-0.642l-0.413-1.813c-0.06-0.263-0.217-0.465-0.458-0.589
	c-0.241-0.123-0.498-0.131-0.746-0.024l-1.709,0.732c-0.293,0.125-0.605,0.09-0.864-0.097c-0.258-0.188-0.388-0.474-0.359-0.792
	l0.168-1.852c0.025-0.269-0.063-0.511-0.254-0.702c-0.191-0.191-0.433-0.279-0.702-0.254l-1.852,0.168
	c-0.317,0.029-0.604-0.101-0.791-0.358c-0.188-0.258-0.223-0.571-0.097-0.864L6.78,26.45c0.106-0.249,0.098-0.505-0.025-0.746
	c-0.123-0.24-0.325-0.398-0.589-0.458l-1.813-0.412c-0.311-0.071-0.543-0.283-0.642-0.586c-0.099-0.303-0.035-0.611,0.175-0.852
	l1.224-1.4c0.178-0.203,0.249-0.45,0.207-0.717c-0.042-0.267-0.187-0.479-0.418-0.618l-1.597-0.952
	c-0.273-0.164-0.429-0.437-0.429-0.756s0.156-0.593,0.429-0.756l1.597-0.952c0.232-0.139,0.375-0.352,0.418-0.619
	c0.042-0.266-0.029-0.513-0.207-0.716l-1.224-1.399c-0.21-0.241-0.273-0.548-0.175-0.852c0.099-0.304,0.332-0.516,0.642-0.586
	l1.813-0.413c0.264-0.06,0.466-0.218,0.589-0.458c0.123-0.241,0.131-0.498,0.025-0.746l-0.732-1.71
	c-0.125-0.292-0.09-0.605,0.097-0.864c0.187-0.257,0.474-0.388,0.791-0.358l1.852,0.168C9.058,8.716,9.299,8.628,9.49,8.438
	c0.191-0.191,0.279-0.433,0.254-0.702L9.576,5.883C9.547,5.566,9.678,5.28,9.936,5.092s0.571-0.223,0.864-0.097l1.709,0.732
	c0.249,0.106,0.505,0.098,0.746-0.024c0.241-0.124,0.398-0.326,0.458-0.589l0.413-1.813c0.071-0.311,0.283-0.543,0.586-0.642
	c0.303-0.099,0.612-0.035,0.851,0.175l1.4,1.224c0.203,0.179,0.45,0.25,0.717,0.208c0.267-0.042,0.479-0.187,0.618-0.418L19.25,2.25
	c0.164-0.274,0.437-0.429,0.756-0.429S20.598,1.976,20.762,2.25L20.762,2.25z M20.02,13.979c-2.738,0-4.959,2.22-4.959,4.959
	c0,2.738,2.221,4.959,4.959,4.959s4.959-2.221,4.959-4.959C24.979,16.2,22.758,13.979,20.02,13.979z"/>
</svg>
