<?xml version="1.0" encoding="iso-8859-1"?>
<!-- Generator: Adobe Illustrator 16.0.2, SVG Export Plug-In . SVG Version: 6.00 Build 0)  -->
<!DOCTYPE svg PUBLIC "-//W3C//DTD SVG 1.1//EN" "http://www.w3.org/Graphics/SVG/1.1/DTD/svg11.dtd">
<svg version="1.1" id="co_x5F_education_x5F_1_x5C_2"
	 xmlns="http://www.w3.org/2000/svg" xmlns:xlink="http://www.w3.org/1999/xlink" x="0px" y="0px" width="40px" height="40px"
	 viewBox="0 0 40 40" style="enable-background:new 0 0 40 40;" xml:space="preserve">
<path style="fill-rule:evenodd;clip-rule:evenodd;" d="M10.658,36.37l20.937-20.937c-7.925-7.925-1.272-1.271-7.999-7.998
	L2.66,28.372c-0.428,0.428-0.645,0.949-0.645,1.556v4.887c0,1.212,0.988,2.2,2.2,2.2h4.887C9.708,37.015,10.229,36.799,10.658,36.37
	L10.658,36.37z M33.008,14.021L25.01,6.021l1.763-1.764c1.713-1.713,4.508-1.713,6.222,0l1.776,1.776
	c1.713,1.714,1.713,4.509,0,6.223L33.008,14.021z"/>
</svg>
