<?xml version="1.0" encoding="iso-8859-1"?>
<!-- Generator: Adobe Illustrator 16.0.2, SVG Export Plug-In . SVG Version: 6.00 Build 0)  -->
<!DOCTYPE svg PUBLIC "-//W3C//DTD SVG 1.1//EN" "http://www.w3.org/Graphics/SVG/1.1/DTD/svg11.dtd">
<svg version="1.1" id="co_x5F_transport" xmlns="http://www.w3.org/2000/svg" xmlns:xlink="http://www.w3.org/1999/xlink" x="0px"
	 y="0px" width="40px" height="40px" viewBox="0 0 40 40" style="enable-background:new 0 0 40 40;" xml:space="preserve">
<path style="fill-rule:evenodd;clip-rule:evenodd;" d="M13.47,10.68l3.097,0.315c0.335-0.373,0.688-0.744,1.059-1.115
	C23.998,3.508,34.037,2.345,36.7,3.232c0.888,2.663-0.275,12.702-6.647,19.074c-0.364,0.364-0.729,0.71-1.095,1.04l0.316,3.217
	c0.205,2.083-0.691,3.975-2.433,5.137l-5.394,3.596c-0.535,0.357-1.168,0.399-1.747,0.118c-0.577-0.281-0.935-0.807-0.984-1.447
	l-0.441-5.74c-1.846-0.06-3.448-0.709-4.654-1.915c-1.198-1.198-1.847-2.787-1.914-4.618L6.184,21.34
	c-0.638-0.041-1.166-0.389-1.456-0.958s-0.261-1.2,0.082-1.74l3.433-5.422C9.392,11.407,11.335,10.462,13.47,10.68L13.47,10.68z
	 M29.599,10.333c-1.47-1.47-3.855-1.47-5.326,0c-1.471,1.471-1.471,3.855,0,5.326c1.47,1.471,3.855,1.471,5.326,0
	S31.069,11.804,29.599,10.333L29.599,10.333z M8.162,24.669L6.042,26.79L5.36,27.472c-0.258,0.257-0.331,0.624-0.191,0.959
	c0.139,0.336,0.449,0.543,0.813,0.543h1.426L6.189,32.63c-0.108,0.324-0.029,0.66,0.212,0.901c0.242,0.241,0.577,0.32,0.901,0.212
	l3.656-1.218v1.426c0,0.364,0.208,0.674,0.543,0.813c0.335,0.139,0.702,0.066,0.959-0.191l1.259-1.259l1.544-1.544
	c0.223-0.223,0.307-0.522,0.233-0.829s-0.286-0.534-0.586-0.63c-1.236-0.398-2.348-1.072-3.282-2.007s-1.608-2.046-2.006-3.283
	c-0.097-0.3-0.325-0.511-0.631-0.586C8.685,24.362,8.385,24.446,8.162,24.669z"/>
</svg>
