<?xml version="1.0" encoding="iso-8859-1"?>
<!-- Generator: Adobe Illustrator 16.0.2, SVG Export Plug-In . SVG Version: 6.00 Build 0)  -->
<!DOCTYPE svg PUBLIC "-//W3C//DTD SVG 1.1//EN" "http://www.w3.org/Graphics/SVG/1.1/DTD/svg11.dtd">
<svg version="1.1" id="co_x5F_player" xmlns="http://www.w3.org/2000/svg" xmlns:xlink="http://www.w3.org/1999/xlink" x="0px"
	 y="0px" width="40px" height="40px" viewBox="0 0 40 40" style="enable-background:new 0 0 40 40;" xml:space="preserve">
<path style="fill-rule:evenodd;clip-rule:evenodd;" d="M10.404,3.986h2.198c2.423,0,4.399,1.977,4.399,4.399V31.58
	c0,2.423-1.976,4.4-4.399,4.4h-2.198c-2.423,0-4.4-1.977-4.4-4.4V8.386C6.004,5.963,7.981,3.986,10.404,3.986L10.404,3.986z
	 M27.4,3.986h2.199c2.423,0,4.399,1.977,4.399,4.399V31.58c0,2.423-1.976,4.4-4.399,4.4H27.4c-2.423,0-4.399-1.977-4.399-4.4V8.386
	C23.001,5.963,24.977,3.986,27.4,3.986z"/>
</svg>
